<?xml version="1.0" encoding="utf-8" ?>
<svg baseProfile="tiny" height="251.9325" version="1.2" width="279.2984" xmlns="http://www.w3.org/2000/svg" xmlns:ev="http://www.w3.org/2001/xml-events" xmlns:inkscape="http://www.inkscape.org/namespaces/inkscape" xmlns:xlink="http://www.w3.org/1999/xlink">
  <defs/>
  <g fill="none" id="layer1" inkscape:groupmode="layer" inkscape:label="1" stroke="black" style="display:inline">
    <path d="M97.84835462058624,111.00464699074072 L98.00304462058625,105.99397699074072 L96.82987462058622,102.7108869907407 L94.57298462058623,100.8687569907407 L91.47651462058616,100.1809669907407 L87.78460462058615,100.36089699074066 L83.7413946205861,101.12192699074066 L79.59102462058604,102.17743699074063 L75.57763462058597,103.2408069907406 L71.9453646205859,104.02541699074052 L68.93835462058621,104.24464699074073 L65.57036063110462,103.67978598397892 L62.243163035311966,102.47237050689401 L58.98466566491379,100.73951551065059 L55.82277235161553,98.59833594641313 L52.785386927122715,96.16594676534626 L49.90041322314079,93.55946291861451 L47.195755071375174,90.89599935738235 L44.699316303531475,88.29267103281435 L42.43900075131518,85.86659289607505 L40.442712246431654,83.73487989832896 L38.73835462058622,82.01464699074072 L37.24360723779148,80.56577580275709 L35.4729199369267,78.73314494249311 L33.56431729696311,76.54234385009434 L31.65582389687205,74.01896196570655 L29.885464315624915,71.18858872947536 L28.39126313219299,68.07681358154636 L27.311244925547555,64.70922596206523 L26.78343427466001,61.11141531117764 L26.945855758501637,57.3089710690293 L27.936533956043718,53.327482675765765 L29.89349344625765,49.192539571532706 L32.954758808114775,44.92973119647584 L37.2583546205862,40.56464699074073 L41.75143042233549,36.96251142222761 L45.99479776927427,34.299603258962264 L49.98180943108184,32.512598885784456 L53.70581817743749,31.53817468753371 L57.16017677802063,31.31300704904973 L60.33823800251042,31.773772355172156 L63.233354620586226,32.85714699074069 L65.83887940192733,34.49980734059491 L68.14816511621302,36.638429789574474 L70.15456453312265,39.20969072251907 L71.85143042233545,42.150266524268346 L73.23211555353083,45.39683357966189 L74.28997269638796,48.886068273539394 L75.0183546205862,52.554646990740736 L75.62134462058617,57.72319699074072 L75.9302746205862,62.71264699074075 L76.05308462058616,67.44469699074077 L76.09771462058615,71.84104699074081 L76.17210462058608,75.8233969907408 L76.38419462058607,79.31344699074086 L76.84192462058598,82.2328969907409 L77.65323462058592,84.50344699074091 L78.92606462058586,86.046796990741 L80.7683546205862,86.78464699074075 L83.13150962744487,86.24571694958851 L85.38396504582624,84.18505851337451 L87.480206472438,80.96686921296296 L89.37471950398799,76.95534657921812 L91.02198973718413,72.51468814300418 L92.3765027687341,68.00909143518524 L93.39274419534581,63.80275398662562 L94.02519961372707,60.2598733281894 L94.22835462058617,57.74464699074073 L93.72099462058617,54.77456699074074 L92.44707462058619,52.041606990740746 L90.65283462058625,49.48768699074074 L88.58451462058633,47.05472699074076 L86.48835462058616,44.68464699074073 L84.29221457428986,41.929282407407385 L82.17090091688249,38.86089699074071 L80.17257337058618,35.55105324074074 L78.34539165762322,32.07131365740739 L76.7375155002158,28.49324074074073 L75.39710462058616,24.888396990740745 L74.37231874095659,21.3283449074074 L73.71131758354915,17.884646990740777 L73.46226087058625,14.628865740740792 L73.67330832428996,11.632563657407445 L74.39261966688258,8.96730324074079 L75.66835462058617,6.704646990740741 L77.72956989836393,4.827395833333327 L80.65474350947505,3.2666377314814667 L84.26616712058615,2.0163657407407243 L88.38613239836394,1.0705729166666629 L92.836931009475,0.4232523148148175 L97.4408546205861,0.06839699074075156 L102.02019489836385,0.0 L106.39724350947495,0.21205439814815463 L110.39429212058604,0.698553240740722 L113.83363239836382,1.4534895833333223 L116.53755600947488,2.470856481481462 L118.32835462058614,3.7446469907407334 L119.28378430808613,5.2082798032407425 L120.20616712058614,7.4455844907407425 L121.04839368308615,10.376170428240727 L121.76335462058609,13.919646990740745 L122.30394055808608,17.995623553240733 L122.62304212058609,22.523709490740742 L122.67354993308606,27.423514178240765 L122.40835462058612,32.61464699074074 L121.83157255061525,35.79771914817516 L120.7047103057173,39.23310180123636 L119.18085097627124,42.846472792490005 L117.41307765265611,46.56350996450166 L115.55447342525082,50.309891159836894 L113.7581213844345,54.01129422106138 L112.17710462058614,57.59339699074067 L110.96450622408469,60.9818773114404 L110.27340928530919,64.10241302572612 L110.2568968946386,66.8806819761634 L111.06805214245202,69.24236200531791 L112.85995811912841,71.11313095575522 L115.7856979150468,72.41866667004095 L119.9983546205861,73.08464699074071 L122.79325183206583,72.84792197547509 L125.24694407712997,71.80662541532857 L127.3782263893628,70.046427979953 L129.20589380234873,67.65300033900044 L130.74874134967217,64.71201316212276 L132.02556406491743,61.309137118971904 L133.05515698166892,57.5300428791999 L133.85631513351098,53.460401112458584 L134.44783355402797,49.185882488399926 L134.84850727680424,44.79215767667594 L135.0771313354242,40.36489734693848 L135.1525007634723,35.98977216883955 L135.0934105945327,31.752452812031066 L134.91865586218995,27.738609946164985 L134.64703160002836,24.03391424089321 L134.29733284163223,20.72403636586776 L133.88835462058609,17.89464699074071 L133.56209947655316,16.29829582475989 L133.1797949498042,14.0830969221536 L133.02613239836387,11.499832175925889 L133.38580318025691,8.799283479080913 L134.54349865350792,6.232232724622776 L136.78391017614172,4.04946180555558 L140.39172910618288,2.5017526148834577 L145.65164680165617,1.8398870456104817 L152.84835462058606,2.314646990740698 L157.74459368764144,3.3715711889914246 L161.8486753202945,5.04004057674652 L165.21364616577557,7.239457486367513 L167.89255287131488,9.889224250215904 L169.93844208414282,12.90874320065322 L171.40436045148977,16.21741667004099 L172.3433546205859,19.734646990740686 L172.80847123866164,23.379836495113835 L172.85275695294735,27.072387515522024 L172.5292584106732,30.731702384326667 L171.89102225906964,34.27718343388935 L170.99109514536696,37.62823299657154 L169.88252371679545,40.70425340473483 L168.61835462058605,43.42464699074068 L166.06854993308605,48.40841652199069 L164.07304212058602,52.728553240740695 L162.708940558086,56.40204933449067 L162.053354620586,59.44589699074069 L162.18339368308597,61.87708839699067 L163.17616712058594,63.71261574074069 L165.10878430808594,64.9694712094907 L168.05835462058604,65.66464699074069 L170.61223665076437,65.48223272462272 L173.12941086201266,64.39274026920438 L175.57316943540087,62.51279513888889 L177.90680455199896,59.95902284807957 L180.0936083928769,56.84804891117969 L182.09687313910456,53.29649884259263 L183.87989097175205,49.420998156721595 L185.4059540718892,45.33817236796992 L186.63835462058603,41.16464699074069 L187.27087462058603,37.60774699074071 L187.593314620586,33.66864699074071 L187.780994620586,29.553746990740677 L188.00923462058603,25.469446990740693 L188.45335462058603,21.62214699074073 L189.288674620586,18.21824699074071 L190.690514620586,15.464146990740716 L192.834194620586,13.56624699074078 L195.895034620586,12.730946990740762 L200.04835462058605,13.164646990740692 L202.35445272764895,14.311258022696705 L203.7552017608262,16.33234493497028 L204.37604849398315,19.106259040404865 L204.34243970098498,22.51135165184391 L203.77982215569693,26.42597408213092 L202.8136426319843,30.728477644109347 L201.56934790371236,35.297213650622695 L200.1723847447463,40.01053341451441 L198.7481999289514,44.74678824862801 L197.42224023019298,49.38432946580693 L196.31995242233626,53.801508378894624 L195.5667832792464,57.87667630073466 L195.28817957478878,61.48818454417048 L195.60958808282868,64.51438442204554 L196.6564555772312,66.83362724720328 L198.55422883186168,68.32426433248722 L201.42835462058605,68.86464699074068 L206.06214124718264,68.16894451140186 L209.5930277986477,66.23654781718696 L212.24803155522164,63.41406847834398 L214.25416979714504,60.04811806512086 L215.83845980465816,56.485308147765494 L217.2279188580015,53.07225029652582 L218.64956423741552,50.15555608164985 L220.3304132231405,48.081837073385344 L222.49748309541695,47.197704841980425 L225.37779113448534,47.84977095768292 L229.19835462058603,50.38464699074066 L232.5533893428082,53.38935763888881 L234.69696573169716,55.90816550925919 L235.75429212058606,58.07558449074068 L235.85057684280827,60.026128472222155 L235.11102823169716,61.894311342592545 L233.660854620586,63.81464699074073 L231.6252643428083,65.92164930555558 L229.12946573169717,68.34983217592597 L226.29866712058612,71.23370949074084 L223.2580768428083,74.707795138889 L220.13290323169718,78.90660300925938 L217.04835462058605,83.96464699074065 L214.3265576384187,88.83094328703694 L211.95175654102496,93.00909143518507 L209.9998361020675,96.62798032407395 L208.54668109520884,99.81649884259244 L207.66817629411145,102.70353587962947 L207.44020647243786,105.41798032407391 L207.93865640385076,108.08872106481462 L209.23941086201268,110.84464699074047 L211.41835462058606,113.81464699074067 L214.5431174945938,116.85265635365536 L217.30614619396277,118.26245891827986 L219.74349201118247,118.2353634572581 L221.89120623874197,116.96267874323408 L223.78534016913073,114.63571354885184 L225.4619450948381,111.44577664675538 L226.95707230835325,107.58417680958868 L228.30677310216555,103.24222280999581 L229.54709876876433,98.61122342062069 L230.71410060063903,93.88248741410737 L231.84382989027876,89.24732356309985 L232.97233793017296,84.89704064024218 L234.13567601281085,81.02294741817829 L235.36989543068177,77.81635266955223 L236.71104747627516,75.468565167008 L238.19518344208012,74.17089368318958 L239.8583546205861,74.11464699074068 L246.51116462058616,76.95579699074065 L249.86283462058617,79.45944699074064 L250.59922462058609,81.72189699074065 L249.40619462058618,83.83944699074064 L246.96960462058615,85.90839699074061 L243.97531462058618,88.0250469907406 L241.10918462058618,90.2856969907406 L239.0570746205862,92.78664699074054 L238.5048446205862,95.6241969907405 L240.13835462058609,98.89464699074065 L242.45205724449278,101.0339181277669 L244.49654704041114,101.62350996450155 L246.52546832320996,100.97251871085726 L248.79246540775802,99.39004057674643 L251.5511826089242,97.18517177208165 L255.05526424157728,94.66700850677549 L259.55835462058604,92.14464699074065 L262.7613749060857,91.33226532282183 L265.8372276483847,91.83154406061291 L268.6979188580015,93.42439154370831 L271.2554545454546,95.8927161117023 L273.4218407212623,99.0184261041891 L275.10908339594295,102.58342986076312 L276.2291885800151,106.36963572101851 L276.69416228399706,110.15895202454962 L276.4160105184073,113.73328711095078 L275.3067392937641,116.87454931981623 L273.2783546205861,119.36464699074068 L271.11388943540084,120.43383513888884 L268.3836998057713,120.6941521759259 L265.1945946205861,120.32072699074072 L261.6533827687343,119.48868847222221 L257.8668731391046,118.37316550925922 L253.94187462058613,117.14928699074076 L249.98519610206762,115.99218180555559 L246.10364647243802,115.07697884259264 L242.40403462058617,114.57880699074079 L238.99316943540106,114.67279513888897 L235.97785980577152,115.53407217592601 L233.46491462058628,117.3377669907409 L231.56114276873456,120.2590084722224 L230.37335313910495,124.47292550925945 L230.0083546205861,130.1546469907407 L230.27452212172403,136.64345445546533 L230.87662954093202,141.3162309688927 L231.81085348267078,144.38558463298014 L233.07337055140084,146.06412354968475 L234.66035735158283,146.56445582096373 L236.5679904876775,146.09918954877438 L238.79244656414545,144.88093283507388 L241.32990218544722,143.12229378181948 L244.17653395604344,141.0358804909683 L247.32851848039485,138.83430106447761 L250.78203236296196,136.7301636043047 L254.5332522082055,134.93607621240668 L258.57835462058614,133.6646469907407 L263.5697746205862,132.68086699074067 L267.70091462058616,132.1928069907407 L271.0510946205862,132.2323869907407 L273.6996346205862,132.83152699074074 L275.7258546205862,134.0221469907407 L277.20907462058625,135.83616699074074 L278.22861462058626,138.30550699074078 L278.86379462058625,141.4620869907408 L279.1939346205863,145.3378269907408 L279.29835462058617,149.9646469907407 L279.0561872680484,155.2787759344993 L278.32842320769174,160.0650859482167 L277.1731694354009,164.29946180555547 L275.6485329470607,167.95778828017822 L273.81262073855595,171.0159501457475 L271.7235398057713,173.44983217592576 L269.4393971445915,175.23531914437567 L267.01829975090146,176.34829582475973 L264.5183546205862,176.76464699074072 L262.8175338798455,176.5467981018518 L260.76512202799364,175.85998921296297 L258.4001946205862,174.75632699074075 L255.76182721317883,173.28791810185183 L252.88909536132707,171.50686921296298 L249.82107462058633,169.46528699074074 L246.59684054651228,167.21527810185185 L243.25546869466046,164.80894921296297 L239.83603462058642,162.2984069907408 L236.37761387984568,159.73575810185193 L232.91928202799392,157.17310921296306 L229.50011462058654,154.66256699074083 L226.1591872131791,152.25623810185195 L222.93557536132738,150.00622921296306 L219.86835462058622,147.9646469907407 L218.37875462058622,146.91719699074068 L216.3167546205862,145.4782469907407 L213.85455462058616,143.97989699074063 L211.16435462058627,142.7542469907406 L208.41835462058629,142.13339699074058 L205.7887546205863,142.44944699074054 L203.4477546205863,144.03449699074045 L201.5675546205863,147.2206469907404 L200.32035462058633,152.33999699074033 L199.8783546205862,159.7246469907407 L200.25405785226576,165.43793784190134 L201.2998384621884,169.46292646274796 L202.93524128421842,172.03805618509668 L205.07981115222032,173.40177034076348 L207.6530929000582,173.7925122615646 L210.5746313615967,173.4487252793161 L213.76397137070006,172.6088527258341 L217.1406577612326,171.51133793293477 L220.6242353670587,170.3946242324341 L224.13424902204287,169.4971549561483 L227.59024356004926,169.05737343589348 L230.91176381494228,169.3137230034857 L234.0183546205862,170.50464699074067 L237.4113072877537,172.7284411304852 L240.54280240420752,175.25219019134167 L243.37997746055606,178.01535322665345 L245.88996994740813,180.95738928976388 L248.03991735537198,184.01775743401626 L249.79695717505643,187.13591671275398 L251.12822689706985,190.25132617932044 L252.00086401202105,193.30344488705887 L252.3820060105183,196.23173188931278 L252.2387903831704,198.97564623942534 L251.53835462058618,201.4746469907407 L249.79042459143164,204.62703766129462 L247.47205724449287,207.33091521231503 L244.68995811912845,209.6263379528398 L241.55083275469696,211.55336419190687 L238.1613866905571,213.1520522385541 L234.62832546606734,214.46246040181936 L231.05835462058616,215.5246469907407 L227.09228980577137,216.08663773148143 L224.03316943540102,215.4705729166666 L221.5496046205863,213.86839699074065 L219.3102064724382,211.472054398148 L216.98358610206793,208.47348958333313 L214.2383546205861,205.06464699074073 L212.65259462058606,202.61529699074075 L211.50507462058607,199.75824699074073 L210.5764346205861,196.69599699074072 L209.6473146205861,193.6310469907407 L208.4983546205861,190.76589699074069 L206.91019462058608,188.30304699074068 L204.66347462058616,186.44499699074063 L201.53883462058616,185.39424699074058 L197.31691462058615,185.35329699074057 L191.77835462058613,186.5246469907407 L187.1576784372653,188.39037952267157 L184.48567242674687,190.59943286602245 L183.44737039819688,193.1014088239488 L183.72780616078143,195.8459091996062 L185.01201352366644,198.78253579615014 L186.98502629601802,201.86089041673617 L189.33187828700216,205.03057486451982 L191.737603305785,208.24119094265657 L193.8872351615325,211.4423404543019 L195.46580766341071,214.58362520261144 L196.15835462058612,217.61464699074068 L196.20935577799355,221.7316782407407 L195.95053054651203,225.76006365740736 L195.3716358705861,229.62824074074067 L194.46242869466016,233.26464699074072 L193.21266596317867,236.59771990740737 L191.61210462058608,239.5558969907407 L189.65050161132683,242.0676157407407 L187.31761387984534,244.0613136574074 L184.60319837058603,245.4654282407407 L181.49701202799343,246.20839699074074 L177.98881179651192,246.2186574074074 L174.06835462058615,245.42464699074068 L169.25086490865198,243.7855523405349 L165.71510359177955,242.07337127057608 L163.3161323983639,240.21575810185183 L161.90901305680012,238.14036715534976 L161.3488072954832,235.77485275205763 L161.4905768428083,233.046869212963 L162.1893834271704,229.8840708590536 L163.30028877696458,226.21411201131704 L164.67835462058616,221.9646469907407 L165.4234275068835,219.4696324134812 L166.0079173028019,217.06697935225677 L166.47573071388064,214.52455952718387 L166.8707744456591,211.61024465837923 L167.2369552036766,208.09190646595945 L167.61817969347254,203.73741667004114 L168.05835462058616,198.31464699074073 L168.10787451084678,193.87322037894373 L167.529328557486,189.94175261488343 L166.36205832428982,186.5294618055556 L164.64540537504428,183.64556605795613 L162.41871127353534,181.29928347908103 L159.72131758354902,179.49983217592606 L156.59256586887136,178.25643025548712 L153.07179769328832,177.57829582476015 L149.19835462058614,177.47464699074075 L146.26130728775365,178.13511280591732 L143.99999248685208,179.7196958262028 L142.33096919609324,182.09135623191278 L141.170796393689,185.11305420336285 L140.4360330578512,188.64774992086845 L140.0432381667918,192.5584035647452 L139.9089706987226,196.7079753153087 L139.94978963185554,200.95942535287443 L140.0822539444024,205.17571385775798 L140.2229226145751,209.21980101027484 L140.28835462058612,212.95464699074077 L140.31000913953653,215.99702308403525 L140.33485607831204,219.4871251248516 L140.30272050979897,223.30084232601777 L140.15342750688347,227.3140639003618 L139.82680214245204,231.40267906071168 L139.26266948939082,235.44257701989537 L138.40085462058613,239.30964699074084 L137.1811826089243,242.8797781860761 L135.54347852729165,246.02885981872922 L133.4275674485745,248.63278110152802 L130.773274445659,250.56743124730068 L127.52042459143166,251.70869946887504 L123.60884295877861,251.9324749790791 L118.97835462058612,251.1146469907408 L114.9616163393361,249.5480063657408 L111.64929212058615,247.32652199074082 L108.99696790183611,244.54535011574077 L106.96022962058612,241.2996469907408 L105.49466321433619,237.68456886574077 L104.55585462058616,233.79527199074082 L104.09938977683618,229.72691261574082 L104.0808546205862,225.57464699074077 L104.45583508933623,221.4336313657408 L105.17991712058625,217.3990219907408 L106.20868665183627,213.56597511574077 L107.49772962058631,210.02964699074082 L109.00263196433639,206.88519386574077 L110.6789796205864,204.22777199074076 L112.48235852683644,202.15253761574078 L114.3683546205861,200.75464699074078 L116.75704631154821,199.2993408682918 L119.46360243399715,197.33709597033263 L122.3558874194199,194.95056535808774 L125.3017656993033,192.2224020927816 L128.16910170513415,189.23525923563878 L130.82575986839947,186.07178984788365 L133.13960462058606,182.81464699074084 L134.9785003931808,179.54648372543474 L136.21031161767058,176.34995311318986 L136.70290272554223,173.3077082152307 L136.32413814828277,170.5024020927817 L134.94188231737894,168.01668780706748 L132.4239996643177,165.9332184193124 L128.63835462058609,164.33464699074077 L124.39563596169398,163.60184451260668 L120.57068698210213,163.9487577779128 L117.12117532029453,165.21408212193612 L114.00476861475516,167.2365128799536 L111.17913450396799,169.85474538724222 L108.60194062641699,172.90747497907896 L106.23085462058606,176.23339699074072 L104.02354412495919,179.67120675750456 L101.93767677802037,183.0595996146474 L99.93092021825362,186.23727089744622 L97.9609420841428,189.042915941178 L95.98541001417192,191.31523008111967 L93.96199164682497,192.89290865254824 L91.84835462058606,193.6146469907408 L89.14595300021568,193.64943287037042 L86.0141416576231,193.30876736111114 L82.55851087058608,192.74261574074077 L78.88465091688238,192.1009432870371 L75.09815207428977,191.53371527777782 L71.30460462058608,191.19089699074075 L67.609598833549,191.22245370370374 L64.11872499095642,191.77835069444447 L60.93757337058605,193.00855324074078 L58.17173425021565,195.06302662037038 L55.92679790762304,198.0917361111111 L54.308354620586044,202.2446469907408 L54.46076672996105,204.22288185402206 L55.89796399558605,205.96880714699077 L58.402387823711024,207.5330039243345 L61.75647962058605,208.96605324074076 L65.74268079246104,210.31853615089702 L70.14343274558604,211.64103370949076 L74.74117688621106,212.98412697120952 L79.31835462058609,214.3983969907408 L83.6574073549611,215.934424822772 L87.5407764955861,217.64279152199074 L90.75090344871109,219.5740781430845 L93.07022962058608,221.77886574074077 L94.2811964174611,224.30773536964702 L94.16624524558614,227.21126808449074 L92.5078175112111,230.54004493995953 L89.08835462058602,234.3446469907408 L86.08074394350268,236.80252821180565 L82.90392753725268,238.77790509259265 L79.581928839336,240.29212745949084 L76.13877128725267,241.366545138889 L72.59847831850266,242.02250795717603 L68.98507337058595,242.28136574074082 L65.32257988100264,242.1644683159723 L61.63502128725264,241.69316550925933 L57.946421026835935,240.88880714699084 L54.28080253725261,239.77274305555565 L50.66218925600259,238.36632306134268 L47.11460462058591,236.69089699074087 L43.66207206850254,234.76781467013896 L40.32861503725252,232.618425925926 L37.13825696433588,230.26408058449087 L34.11502128725249,227.7261284722223 L31.28293144350249,225.02591941550938 L28.666010870585808,222.18480324074082 L26.288283006002416,219.22412977430568 L24.173771287252407,216.16524884259272 L22.3464991518357,213.02951027199086 L20.830490037252332,209.83826388888897 L19.649767381002334,206.61285951967605 L18.828354620586026,203.37464699074079 L18.211527094707606,199.52113044313907 L17.96426072934821,196.12036502543972 L18.089800895553196,193.14360602266967 L18.591392964367913,190.56210871985584 L19.472282306837656,188.34712840202528 L20.735714294007778,186.4699203542049 L22.38493429692369,184.9017398614217 L24.423187686630627,183.61384220870266 L26.853719834174,182.57748268107477 L29.679776110599164,181.76391656356495 L32.90460188695141,181.14439914120018 L36.53144253427604,180.69018569900746 L40.56354342361851,180.37253152201376 L45.00414992602413,180.16269189524607 L49.85650741253818,180.03192210373126 L55.123861254206076,179.95147743249643 L60.809456822073116,179.8926131665685 L66.91653948718465,179.82658459097442 L73.44835462058603,179.7246469907408 L80.67775403464856,179.1773911313658 L86.42511243308604,177.91722511574082 L90.80917005027351,176.05530128761583 L93.94866712058604,173.70277199074079 L95.96234387839849,170.9707895688658 L96.96894055808599,167.97050636574082 L97.08719739402346,164.8130747251158 L96.43585462058593,161.6096469907408 L95.13365247214841,158.47137550636583 L93.29933118308588,155.50941261574084 L91.05163098777336,152.83491066261584 L88.50929212058583,150.55902199074083 L85.79105481589829,148.79289894386582 L83.01565930808573,147.64769386574082 L80.30184583152322,147.23455910011583 L77.76835462058602,147.6646469907408 L74.42810770700578,148.9023836162552 L71.08934227490698,150.146539994856 L67.75502128725265,151.4035358796297 L64.42810770700572,152.6797910236626 L61.111564497129166,153.9817251800412 L57.80835462058593,155.31575810185186 L54.52144104033897,156.68830954218103 L51.25378671935124,158.10579925411517 L48.00835462058603,159.57464699074083 L44.78097852729155,161.14528839015773 L41.33608056810789,162.92732920648425 L37.72736336694169,164.83308722397695 L34.00852954769971,166.7748802268924 L30.233281734288653,168.66502599948714 L26.455322550615165,170.41584232601778 L22.728354620586003,171.93964699074078 L19.10608056810787,173.14875777791278 L15.642203017087468,173.95549247179034 L12.390424591431497,174.27216885662997 L9.40444791504666,174.01110471668827 L6.7379756118396585,173.08461783622178 L4.444710305717194,171.40502599948704 L2.578354620586026,168.88464699074083 L0.921262208865528,165.22333218983923 L0.07847483095417829,161.80107073228854 L0.0,158.62038703581973 L0.6358452291510162,155.68380551816378 L1.9360180315552498,152.99385059705182 L3.850525920360667,150.55304669021487 L6.329376408715348,148.3639182153839 L9.322577009767201,146.42898959028994 L12.780135236664307,144.75078523266407 L16.652058602554632,143.3318295602373 L20.88835462058603,142.17464699074085 L26.007517857897426,141.26883080418392 L30.614993852410464,140.89774712791504 L34.725762027993426,140.83094328703712 L38.35480180851471,140.837966606653 L41.517092617842536,140.68836441186565 L44.22761387984525,140.1516840277778 L46.50134501839125,138.99747277949248 L48.3532654573487,136.99527799211248 L49.79835462058605,133.91464699074086 L49.999588120813655,131.5791622388064 L48.99899185317594,129.634674300709 L46.97935143442311,127.99644034531534 L44.12345248130521,126.57971754149193 L40.61408061057239,125.29976305810553 L36.6340214389748,124.07183406402268 L32.366060583262424,122.81118772811013 L27.99298366018553,121.43308121923442 L23.697576286494098,119.85277170626219 L19.662624078938336,117.98551635806015 L16.07091265426834,115.74657234349488 L13.105227629234207,113.05119683143297 L10.94835462058603,109.81464699074084 L9.236654620586023,105.41905699074081 L8.442354620586002,101.42312699074083 L8.479654620586018,97.82511699074084 L9.262754620586009,94.62328699074081 L10.705854620585967,91.81589699074075 L12.723154620585944,89.40120699074075 L15.228854620585878,87.37747699074069 L18.137154620585875,85.74296699074065 L21.362254620585816,84.4959369907406 L24.818354620586035,83.63464699074083 L26.70936047996105,83.68518165870958 L28.78968274558605,84.4551743344908 L31.042153448711076,85.85970802589705 L33.44960462058606,87.8138657407408 L35.99486829246109,90.23273048683453 L38.660776495586106,93.03138527199079 L41.43016126121108,96.12491310402206 L44.28585462058612,99.42839699074077 L47.21068860496115,102.85691993995951 L50.18749524558615,106.32556495949072 L53.19910657371116,109.74941505714699 L56.22835462058623,113.04355324074069 L59.258071417461224,116.12306251808442 L62.27108899558624,118.90302589699067 L65.25023938621132,121.29852638527191 L68.17835462058605,123.22464699074081 L70.43863239836384,124.81686921296304 L72.85057684280821,126.80575810185192 L75.49085462058594,128.81964699074084 L78.43613239836361,130.48686921296306 L81.76307684280795,131.43575810185197 L85.54835462058605,131.2946469907408 L88.25931165183607,130.8682407407408 L90.40788587058609,130.5627719907408 L92.10763196433612,130.01636574074084 L93.47210462058615,128.8671469907409 L94.6148585268362,126.75324074074095 L95.64944837058624,123.31277199074103 L96.6894288393363,118.18386574074114 L97.84835462058624,111.00464699074072"/>
  </g>
</svg>
