  0
SECTION
  2
HEADER
  9
$ACADVER
  1
AC1009
  9
$FILLMODE
 70
 0
  9
$SPLFRAME
 70
 1
  9
$EXTMIN
 10
0
 20
0
 30
0.0
  9
$EXTMAX
 10
1058.33
 20
1058.33
 30
0.0
  0
ENDSEC
  0
SECTION
  2
TABLES
  0
TABLE
  2
LAYER
 70
1
  0
LAYER
  2
0
 70
     0
 62
     7
  6
CONTINUOUS
  0
ENDTAB
  0
ENDSEC
  0
SECTION
  2
ENTITIES
  0
LINE
  8
0
 62
     0
 10
27.7523
 20
40.0308
 30
0.0
 11
27.3196
 21
41.209
 31
0.0
  0
LINE
  8
0
 62
     0
 10
27.3196
 20
41.209
 30
0.0
 11
26.7491
 21
41.9075
 31
0.0
  0
LINE
  8
0
 62
     0
 10
26.7491
 20
41.9075
 30
0.0
 11
26.067
 21
42.1954
 31
0.0
  0
LINE
  8
0
 62
     0
 10
26.067
 20
42.1954
 30
0.0
 11
25.2953
 21
42.1418
 31
0.0
  0
LINE
  8
0
 62
     0
 10
25.2953
 20
42.1418
 30
0.0
 11
24.4588
 21
41.8179
 31
0.0
  0
LINE
  8
0
 62
     0
 10
24.4588
 20
41.8179
 30
0.0
 11
23.581
 21
41.2916
 31
0.0
  0
LINE
  8
0
 62
     0
 10
23.581
 20
41.2916
 30
0.0
 11
22.6866
 21
40.6329
 31
0.0
  0
LINE
  8
0
 62
     0
 10
22.6866
 20
40.6329
 30
0.0
 11
21.7992
 21
39.9108
 31
0.0
  0
LINE
  8
0
 62
     0
 10
21.7992
 20
39.9108
 30
0.0
 11
20.9434
 21
39.1954
 31
0.0
  0
LINE
  8
0
 62
     0
 10
20.9434
 20
39.1954
 30
0.0
 11
20.1428
 21
38.5576
 31
0.0
  0
LINE
  8
0
 62
     0
 10
20.1428
 20
38.5576
 30
0.0
 11
19.4221
 21
38.0654
 31
0.0
  0
LINE
  8
0
 62
     0
 10
19.4221
 20
38.0654
 30
0.0
 11
18.8047
 21
37.7885
 31
0.0
  0
LINE
  8
0
 62
     0
 10
18.8047
 20
37.7885
 30
0.0
 11
18.0248
 21
37.7899
 31
0.0
  0
LINE
  8
0
 62
     0
 10
18.0248
 20
37.7899
 30
0.0
 11
17.3206
 21
38.1483
 31
0.0
  0
LINE
  8
0
 62
     0
 10
17.3206
 20
38.1483
 30
0.0
 11
16.6715
 21
38.7519
 31
0.0
  0
LINE
  8
0
 62
     0
 10
16.6715
 20
38.7519
 30
0.0
 11
16.0583
 21
39.4903
 31
0.0
  0
LINE
  8
0
 62
     0
 10
16.0583
 20
39.4903
 30
0.0
 11
15.463
 21
40.2551
 31
0.0
  0
LINE
  8
0
 62
     0
 10
15.463
 20
40.2551
 30
0.0
 11
14.8676
 21
40.9317
 31
0.0
  0
LINE
  8
0
 62
     0
 10
14.8676
 20
40.9317
 30
0.0
 11
14.2214
 21
41.541
 31
0.0
  0
LINE
  8
0
 62
     0
 10
14.2214
 20
41.541
 30
0.0
 11
13.5489
 21
42.1224
 31
0.0
  0
LINE
  8
0
 62
     0
 10
13.5489
 20
42.1224
 30
0.0
 11
12.8626
 21
42.6861
 31
0.0
  0
LINE
  8
0
 62
     0
 10
12.8626
 20
42.6861
 30
0.0
 11
12.1681
 21
43.2428
 31
0.0
  0
LINE
  8
0
 62
     0
 10
12.1681
 20
43.2428
 30
0.0
 11
11.4777
 21
43.8037
 31
0.0
  0
LINE
  8
0
 62
     0
 10
11.4777
 20
43.8037
 30
0.0
 11
10.7983
 21
44.377
 31
0.0
  0
LINE
  8
0
 62
     0
 10
10.7983
 20
44.377
 30
0.0
 11
10.141
 21
44.9749
 31
0.0
  0
LINE
  8
0
 62
     0
 10
10.141
 20
44.9749
 30
0.0
 11
9.74686
 21
45.3581
 31
0.0
  0
LINE
  8
0
 62
     0
 10
9.74686
 20
45.3581
 30
0.0
 11
9.27834
 21
45.8431
 31
0.0
  0
LINE
  8
0
 62
     0
 10
9.27834
 20
45.8431
 30
0.0
 11
8.77397
 21
46.4234
 31
0.0
  0
LINE
  8
0
 62
     0
 10
8.77397
 20
46.4234
 30
0.0
 11
8.26823
 21
47.0902
 31
0.0
  0
LINE
  8
0
 62
     0
 10
8.26823
 20
47.0902
 30
0.0
 11
7.80108
 21
47.8398
 31
0.0
  0
LINE
  8
0
 62
     0
 10
7.80108
 20
47.8398
 30
0.0
 11
7.40558
 21
48.6625
 31
0.0
  0
LINE
  8
0
 62
     0
 10
7.40558
 20
48.6625
 30
0.0
 11
7.11895
 21
49.5543
 31
0.0
  0
LINE
  8
0
 62
     0
 10
7.11895
 20
49.5543
 30
0.0
 11
6.97978
 21
50.5065
 31
0.0
  0
LINE
  8
0
 62
     0
 10
6.97978
 20
50.5065
 30
0.0
 11
7.0225
 21
51.5126
 31
0.0
  0
LINE
  8
0
 62
     0
 10
7.0225
 20
51.5126
 30
0.0
 11
7.2843
 21
52.5653
 31
0.0
  0
LINE
  8
0
 62
     0
 10
7.2843
 20
52.5653
 30
0.0
 11
7.80108
 21
53.6593
 31
0.0
  0
LINE
  8
0
 62
     0
 10
7.80108
 20
53.6593
 30
0.0
 11
8.61138
 21
54.7867
 31
0.0
  0
LINE
  8
0
 62
     0
 10
8.61138
 20
54.7867
 30
0.0
 11
9.74961
 21
55.9428
 31
0.0
  0
LINE
  8
0
 62
     0
 10
9.74961
 20
55.9428
 30
0.0
 11
10.9389
 21
56.8949
 31
0.0
  0
LINE
  8
0
 62
     0
 10
10.9389
 20
56.8949
 30
0.0
 11
12.062
 21
57.5991
 31
0.0
  0
LINE
  8
0
 62
     0
 10
12.062
 20
57.5991
 30
0.0
 11
13.1162
 21
58.0732
 31
0.0
  0
LINE
  8
0
 62
     0
 10
13.1162
 20
58.0732
 30
0.0
 11
14.1015
 21
58.3311
 31
0.0
  0
LINE
  8
0
 62
     0
 10
14.1015
 20
58.3311
 30
0.0
 11
15.0151
 21
58.3904
 31
0.0
  0
LINE
  8
0
 62
     0
 10
15.0151
 20
58.3904
 30
0.0
 11
15.8571
 21
58.2676
 31
0.0
  0
LINE
  8
0
 62
     0
 10
15.8571
 20
58.2676
 30
0.0
 11
16.6233
 21
57.9808
 31
0.0
  0
LINE
  8
0
 62
     0
 10
16.6233
 20
57.9808
 30
0.0
 11
17.3123
 21
57.5469
 31
0.0
  0
LINE
  8
0
 62
     0
 10
17.3123
 20
57.5469
 30
0.0
 11
17.9228
 21
56.9807
 31
0.0
  0
LINE
  8
0
 62
     0
 10
17.9228
 20
56.9807
 30
0.0
 11
18.4533
 21
56.3012
 31
0.0
  0
LINE
  8
0
 62
     0
 10
18.4533
 20
56.3012
 30
0.0
 11
18.9025
 21
55.5226
 31
0.0
  0
LINE
  8
0
 62
     0
 10
18.9025
 20
55.5226
 30
0.0
 11
19.2677
 21
54.664
 31
0.0
  0
LINE
  8
0
 62
     0
 10
19.2677
 20
54.664
 30
0.0
 11
19.5475
 21
53.7408
 31
0.0
  0
LINE
  8
0
 62
     0
 10
19.5475
 20
53.7408
 30
0.0
 11
19.7404
 21
52.7706
 31
0.0
  0
LINE
  8
0
 62
     0
 10
19.7404
 20
52.7706
 30
0.0
 11
19.9003
 21
51.4022
 31
0.0
  0
LINE
  8
0
 62
     0
 10
19.9003
 20
51.4022
 30
0.0
 11
19.9815
 21
50.0821
 31
0.0
  0
LINE
  8
0
 62
     0
 10
19.9815
 20
50.0821
 30
0.0
 11
20.0146
 21
48.8308
 31
0.0
  0
LINE
  8
0
 62
     0
 10
20.0146
 20
48.8308
 30
0.0
 11
20.0256
 21
47.6677
 31
0.0
  0
LINE
  8
0
 62
     0
 10
20.0256
 20
47.6677
 30
0.0
 11
20.0463
 21
46.6136
 31
0.0
  0
LINE
  8
0
 62
     0
 10
20.0463
 20
46.6136
 30
0.0
 11
20.1015
 21
45.6904
 31
0.0
  0
LINE
  8
0
 62
     0
 10
20.1015
 20
45.6904
 30
0.0
 11
20.2227
 21
44.9171
 31
0.0
  0
LINE
  8
0
 62
     0
 10
20.2227
 20
44.9171
 30
0.0
 11
20.4377
 21
44.3163
 31
0.0
  0
LINE
  8
0
 62
     0
 10
20.4377
 20
44.3163
 30
0.0
 11
20.7753
 21
43.9085
 31
0.0
  0
LINE
  8
0
 62
     0
 10
20.7753
 20
43.9085
 30
0.0
 11
21.2617
 21
43.7127
 31
0.0
  0
LINE
  8
0
 62
     0
 10
21.2617
 20
43.7127
 30
0.0
 11
21.8874
 21
43.8559
 31
0.0
  0
LINE
  8
0
 62
     0
 10
21.8874
 20
43.8559
 30
0.0
 11
22.4827
 21
44.4003
 31
0.0
  0
LINE
  8
0
 62
     0
 10
22.4827
 20
44.4003
 30
0.0
 11
23.038
 21
45.2519
 31
0.0
  0
LINE
  8
0
 62
     0
 10
23.038
 20
45.2519
 30
0.0
 11
23.5397
 21
46.3144
 31
0.0
  0
LINE
  8
0
 62
     0
 10
23.5397
 20
46.3144
 30
0.0
 11
23.9751
 21
47.4885
 31
0.0
  0
LINE
  8
0
 62
     0
 10
23.9751
 20
47.4885
 30
0.0
 11
24.3334
 21
48.6805
 31
0.0
  0
LINE
  8
0
 62
     0
 10
24.3334
 20
48.6805
 30
0.0
 11
24.6021
 21
49.7939
 31
0.0
  0
LINE
  8
0
 62
     0
 10
24.6021
 20
49.7939
 30
0.0
 11
24.7702
 21
50.7312
 31
0.0
  0
LINE
  8
0
 62
     0
 10
24.7702
 20
50.7312
 30
0.0
 11
24.824
 21
51.3965
 31
0.0
  0
LINE
  8
0
 62
     0
 10
24.824
 20
51.3965
 30
0.0
 11
24.6889
 21
52.1822
 31
0.0
  0
LINE
  8
0
 62
     0
 10
24.6889
 20
52.1822
 30
0.0
 11
24.3527
 21
52.9057
 31
0.0
  0
LINE
  8
0
 62
     0
 10
24.3527
 20
52.9057
 30
0.0
 11
23.8773
 21
53.5809
 31
0.0
  0
LINE
  8
0
 62
     0
 10
23.8773
 20
53.5809
 30
0.0
 11
23.3302
 21
54.2244
 31
0.0
  0
LINE
  8
0
 62
     0
 10
23.3302
 20
54.2244
 30
0.0
 11
22.7748
 21
54.8527
 31
0.0
  0
LINE
  8
0
 62
     0
 10
22.7748
 20
54.8527
 30
0.0
 11
22.1947
 21
55.5819
 31
0.0
  0
LINE
  8
0
 62
     0
 10
22.1947
 20
55.5819
 30
0.0
 11
21.6338
 21
56.3933
 31
0.0
  0
LINE
  8
0
 62
     0
 10
21.6338
 20
56.3933
 30
0.0
 11
21.1046
 21
57.2685
 31
0.0
  0
LINE
  8
0
 62
     0
 10
21.1046
 20
57.2685
 30
0.0
 11
20.621
 21
58.1889
 31
0.0
  0
LINE
  8
0
 62
     0
 10
20.621
 20
58.1889
 30
0.0
 11
20.1952
 21
59.1358
 31
0.0
  0
LINE
  8
0
 62
     0
 10
20.1952
 20
59.1358
 30
0.0
 11
19.841
 21
60.0893
 31
0.0
  0
LINE
  8
0
 62
     0
 10
19.841
 20
60.0893
 30
0.0
 11
19.5695
 21
61.032
 31
0.0
  0
LINE
  8
0
 62
     0
 10
19.5695
 20
61.032
 30
0.0
 11
19.3945
 21
61.9428
 31
0.0
  0
LINE
  8
0
 62
     0
 10
19.3945
 20
61.9428
 30
0.0
 11
19.3284
 21
62.804
 31
0.0
  0
LINE
  8
0
 62
     0
 10
19.3284
 20
62.804
 30
0.0
 11
19.3849
 21
63.5977
 31
0.0
  0
LINE
  8
0
 62
     0
 10
19.3849
 20
63.5977
 30
0.0
 11
19.575
 21
64.3019
 31
0.0
  0
LINE
  8
0
 62
     0
 10
19.575
 20
64.3019
 30
0.0
 11
19.9126
 21
64.9016
 31
0.0
  0
LINE
  8
0
 62
     0
 10
19.9126
 20
64.9016
 30
0.0
 11
20.4584
 21
65.3976
 31
0.0
  0
LINE
  8
0
 62
     0
 10
20.4584
 20
65.3976
 30
0.0
 11
21.2314
 21
65.811
 31
0.0
  0
LINE
  8
0
 62
     0
 10
21.2314
 20
65.811
 30
0.0
 11
22.1878
 21
66.1416
 31
0.0
  0
LINE
  8
0
 62
     0
 10
22.1878
 20
66.1416
 30
0.0
 11
23.2778
 21
66.391
 31
0.0
  0
LINE
  8
0
 62
     0
 10
23.2778
 20
66.391
 30
0.0
 11
24.4547
 21
66.5635
 31
0.0
  0
LINE
  8
0
 62
     0
 10
24.4547
 20
66.5635
 30
0.0
 11
25.6728
 21
66.657
 31
0.0
  0
LINE
  8
0
 62
     0
 10
25.6728
 20
66.657
 30
0.0
 11
26.8855
 21
66.675
 31
0.0
  0
LINE
  8
0
 62
     0
 10
26.8855
 20
66.675
 30
0.0
 11
28.0431
 21
66.6186
 31
0.0
  0
LINE
  8
0
 62
     0
 10
28.0431
 20
66.6186
 30
0.0
 11
29.1
 21
66.4905
 31
0.0
  0
LINE
  8
0
 62
     0
 10
29.1
 20
66.4905
 30
0.0
 11
30.0109
 21
66.2905
 31
0.0
  0
LINE
  8
0
 62
     0
 10
30.0109
 20
66.2905
 30
0.0
 11
30.7261
 21
66.0217
 31
0.0
  0
LINE
  8
0
 62
     0
 10
30.7261
 20
66.0217
 30
0.0
 11
31.2002
 21
65.684
 31
0.0
  0
LINE
  8
0
 62
     0
 10
31.2002
 20
65.684
 30
0.0
 11
31.4524
 21
65.297
 31
0.0
  0
LINE
  8
0
 62
     0
 10
31.4524
 20
65.297
 30
0.0
 11
31.6963
 21
64.7044
 31
0.0
  0
LINE
  8
0
 62
     0
 10
31.6963
 20
64.7044
 30
0.0
 11
31.9195
 21
63.93
 31
0.0
  0
LINE
  8
0
 62
     0
 10
31.9195
 20
63.93
 30
0.0
 11
32.1083
 21
62.9916
 31
0.0
  0
LINE
  8
0
 62
     0
 10
32.1083
 20
62.9916
 30
0.0
 11
32.2516
 21
61.9139
 31
0.0
  0
LINE
  8
0
 62
     0
 10
32.2516
 20
61.9139
 30
0.0
 11
32.3357
 21
60.7148
 31
0.0
  0
LINE
  8
0
 62
     0
 10
32.3357
 20
60.7148
 30
0.0
 11
32.3494
 21
59.4198
 31
0.0
  0
LINE
  8
0
 62
     0
 10
32.3494
 20
59.4198
 30
0.0
 11
32.2792
 21
58.0457
 31
0.0
  0
LINE
  8
0
 62
     0
 10
32.2792
 20
58.0457
 30
0.0
 11
32.1469
 21
57.0576
 31
0.0
  0
LINE
  8
0
 62
     0
 10
32.1469
 20
57.0576
 30
0.0
 11
31.9264
 21
55.9855
 31
0.0
  0
LINE
  8
0
 62
     0
 10
31.9264
 20
55.9855
 30
0.0
 11
31.6466
 21
54.8598
 31
0.0
  0
LINE
  8
0
 62
     0
 10
31.6466
 20
54.8598
 30
0.0
 11
31.3393
 21
53.7118
 31
0.0
  0
LINE
  8
0
 62
     0
 10
31.3393
 20
53.7118
 30
0.0
 11
31.0334
 21
52.5734
 31
0.0
  0
LINE
  8
0
 62
     0
 10
31.0334
 20
52.5734
 30
0.0
 11
30.7606
 21
51.4752
 31
0.0
  0
LINE
  8
0
 62
     0
 10
30.7606
 20
51.4752
 30
0.0
 11
30.5497
 21
50.4486
 31
0.0
  0
LINE
  8
0
 62
     0
 10
30.5497
 20
50.4486
 30
0.0
 11
30.434
 21
49.524
 31
0.0
  0
LINE
  8
0
 62
     0
 10
30.434
 20
49.524
 30
0.0
 11
30.4409
 21
48.7331
 31
0.0
  0
LINE
  8
0
 62
     0
 10
30.4409
 20
48.7331
 30
0.0
 11
30.6021
 21
48.1044
 31
0.0
  0
LINE
  8
0
 62
     0
 10
30.6021
 20
48.1044
 30
0.0
 11
30.948
 21
47.6733
 31
0.0
  0
LINE
  8
0
 62
     0
 10
30.948
 20
47.6733
 30
0.0
 11
31.5088
 21
47.468
 31
0.0
  0
LINE
  8
0
 62
     0
 10
31.5088
 20
47.468
 30
0.0
 11
32.6567
 21
47.4733
 31
0.0
  0
LINE
  8
0
 62
     0
 10
32.6567
 20
47.4733
 30
0.0
 11
33.4422
 21
47.7725
 31
0.0
  0
LINE
  8
0
 62
     0
 10
33.4422
 20
47.7725
 30
0.0
 11
33.9521
 21
48.2946
 31
0.0
  0
LINE
  8
0
 62
     0
 10
33.9521
 20
48.2946
 30
0.0
 11
34.2704
 21
48.9726
 31
0.0
  0
LINE
  8
0
 62
     0
 10
34.2704
 20
48.9726
 30
0.0
 11
34.484
 21
49.7388
 31
0.0
  0
LINE
  8
0
 62
     0
 10
34.484
 20
49.7388
 30
0.0
 11
34.677
 21
50.5217
 31
0.0
  0
LINE
  8
0
 62
     0
 10
34.677
 20
50.5217
 30
0.0
 11
34.8892
 21
51.4629
 31
0.0
  0
LINE
  8
0
 62
     0
 10
34.8892
 20
51.4629
 30
0.0
 11
35.0201
 21
52.4122
 31
0.0
  0
LINE
  8
0
 62
     0
 10
35.0201
 20
52.4122
 30
0.0
 11
35.0766
 21
53.3686
 31
0.0
  0
LINE
  8
0
 62
     0
 10
35.0766
 20
53.3686
 30
0.0
 11
35.0683
 21
54.3292
 31
0.0
  0
LINE
  8
0
 62
     0
 10
35.0683
 20
54.3292
 30
0.0
 11
35.0063
 21
55.2923
 31
0.0
  0
LINE
  8
0
 62
     0
 10
35.0063
 20
55.2923
 30
0.0
 11
34.9002
 21
56.2599
 31
0.0
  0
LINE
  8
0
 62
     0
 10
34.9002
 20
56.2599
 30
0.0
 11
34.7597
 21
57.2287
 31
0.0
  0
LINE
  8
0
 62
     0
 10
34.7597
 20
57.2287
 30
0.0
 11
34.5929
 21
58.1974
 31
0.0
  0
LINE
  8
0
 62
     0
 10
34.5929
 20
58.1974
 30
0.0
 11
34.411
 21
59.1675
 31
0.0
  0
LINE
  8
0
 62
     0
 10
34.411
 20
59.1675
 30
0.0
 11
34.2222
 21
60.1349
 31
0.0
  0
LINE
  8
0
 62
     0
 10
34.2222
 20
60.1349
 30
0.0
 11
34.0376
 21
61.1008
 31
0.0
  0
LINE
  8
0
 62
     0
 10
34.0376
 20
61.1008
 30
0.0
 11
33.8667
 21
62.0628
 31
0.0
  0
LINE
  8
0
 62
     0
 10
33.8667
 20
62.0628
 30
0.0
 11
33.8322
 21
62.4307
 31
0.0
  0
LINE
  8
0
 62
     0
 10
33.8322
 20
62.4307
 30
0.0
 11
33.8474
 21
62.931
 31
0.0
  0
LINE
  8
0
 62
     0
 10
33.8474
 20
62.931
 30
0.0
 11
33.9535
 21
63.5166
 31
0.0
  0
LINE
  8
0
 62
     0
 10
33.9535
 20
63.5166
 30
0.0
 11
34.185
 21
64.1396
 31
0.0
  0
LINE
  8
0
 62
     0
 10
34.185
 20
64.1396
 30
0.0
 11
34.5805
 21
64.7555
 31
0.0
  0
LINE
  8
0
 62
     0
 10
34.5805
 20
64.7555
 30
0.0
 11
35.1786
 21
65.315
 31
0.0
  0
LINE
  8
0
 62
     0
 10
35.1786
 20
65.315
 30
0.0
 11
36.0151
 21
65.7722
 31
0.0
  0
LINE
  8
0
 62
     0
 10
36.0151
 20
65.7722
 30
0.0
 11
37.127
 21
66.0809
 31
0.0
  0
LINE
  8
0
 62
     0
 10
37.127
 20
66.0809
 30
0.0
 11
38.5547
 21
66.1928
 31
0.0
  0
LINE
  8
0
 62
     0
 10
38.5547
 20
66.1928
 30
0.0
 11
40.3338
 21
66.0633
 31
0.0
  0
LINE
  8
0
 62
     0
 10
40.3338
 20
66.0633
 30
0.0
 11
41.6059
 21
65.7888
 31
0.0
  0
LINE
  8
0
 62
     0
 10
41.6059
 20
65.7888
 30
0.0
 11
42.6283
 21
65.363
 31
0.0
  0
LINE
  8
0
 62
     0
 10
42.6283
 20
65.363
 30
0.0
 11
43.4276
 21
64.8035
 31
0.0
  0
LINE
  8
0
 62
     0
 10
43.4276
 20
64.8035
 30
0.0
 11
44.0284
 21
64.1297
 31
0.0
  0
LINE
  8
0
 62
     0
 10
44.0284
 20
64.1297
 30
0.0
 11
44.4528
 21
63.3596
 31
0.0
  0
LINE
  8
0
 62
     0
 10
44.4528
 20
63.3596
 30
0.0
 11
44.7283
 21
62.5119
 31
0.0
  0
LINE
  8
0
 62
     0
 10
44.7283
 20
62.5119
 30
0.0
 11
44.8786
 21
61.6052
 31
0.0
  0
LINE
  8
0
 62
     0
 10
44.8786
 20
61.6052
 30
0.0
 11
44.928
 21
60.6584
 31
0.0
  0
LINE
  8
0
 62
     0
 10
44.928
 20
60.6584
 30
0.0
 11
44.9019
 21
59.6911
 31
0.0
  0
LINE
  8
0
 62
     0
 10
44.9019
 20
59.6911
 30
0.0
 11
44.825
 21
58.7209
 31
0.0
  0
LINE
  8
0
 62
     0
 10
44.825
 20
58.7209
 30
0.0
 11
44.7227
 21
57.766
 31
0.0
  0
LINE
  8
0
 62
     0
 10
44.7227
 20
57.766
 30
0.0
 11
44.6183
 21
56.847
 31
0.0
  0
LINE
  8
0
 62
     0
 10
44.6183
 20
56.847
 30
0.0
 11
44.5382
 21
55.9802
 31
0.0
  0
LINE
  8
0
 62
     0
 10
44.5382
 20
55.9802
 30
0.0
 11
44.505
 21
55.185
 31
0.0
  0
LINE
  8
0
 62
     0
 10
44.505
 20
55.185
 30
0.0
 11
44.4045
 21
54.1789
 31
0.0
  0
LINE
  8
0
 62
     0
 10
44.4045
 20
54.1789
 30
0.0
 11
44.1357
 21
53.0987
 31
0.0
  0
LINE
  8
0
 62
     0
 10
44.1357
 20
53.0987
 30
0.0
 11
43.7596
 21
51.9783
 31
0.0
  0
LINE
  8
0
 62
     0
 10
43.7596
 20
51.9783
 30
0.0
 11
43.3282
 21
50.8536
 31
0.0
  0
LINE
  8
0
 62
     0
 10
43.3282
 20
50.8536
 30
0.0
 11
42.8995
 21
49.7625
 31
0.0
  0
LINE
  8
0
 62
     0
 10
42.8995
 20
49.7625
 30
0.0
 11
42.5305
 21
48.7384
 31
0.0
  0
LINE
  8
0
 62
     0
 10
42.5305
 20
48.7384
 30
0.0
 11
42.2755
 21
47.818
 31
0.0
  0
LINE
  8
0
 62
     0
 10
42.2755
 20
47.818
 30
0.0
 11
42.1929
 21
47.0352
 31
0.0
  0
LINE
  8
0
 62
     0
 10
42.1929
 20
47.0352
 30
0.0
 11
42.3376
 21
46.4263
 31
0.0
  0
LINE
  8
0
 62
     0
 10
42.3376
 20
46.4263
 30
0.0
 11
42.7648
 21
46.0266
 31
0.0
  0
LINE
  8
0
 62
     0
 10
42.7648
 20
46.0266
 30
0.0
 11
43.5321
 21
45.872
 31
0.0
  0
LINE
  8
0
 62
     0
 10
43.5321
 20
45.872
 30
0.0
 11
44.9227
 21
45.901
 31
0.0
  0
LINE
  8
0
 62
     0
 10
44.9227
 20
45.901
 30
0.0
 11
45.7055
 21
46.0911
 31
0.0
  0
LINE
  8
0
 62
     0
 10
45.7055
 20
46.0911
 30
0.0
 11
46.0541
 21
46.488
 31
0.0
  0
LINE
  8
0
 62
     0
 10
46.0541
 20
46.488
 30
0.0
 11
46.1423
 21
47.1413
 31
0.0
  0
LINE
  8
0
 62
     0
 10
46.1423
 20
47.1413
 30
0.0
 11
46.1479
 21
48.0921
 31
0.0
  0
LINE
  8
0
 62
     0
 10
46.1479
 20
48.0921
 30
0.0
 11
46.2414
 21
49.3917
 31
0.0
  0
LINE
  8
0
 62
     0
 10
46.2414
 20
49.3917
 30
0.0
 11
46.3173
 21
50.0006
 31
0.0
  0
LINE
  8
0
 62
     0
 10
46.3173
 20
50.0006
 30
0.0
 11
46.4083
 21
50.7587
 31
0.0
  0
LINE
  8
0
 62
     0
 10
46.4083
 20
50.7587
 30
0.0
 11
46.5169
 21
51.6407
 31
0.0
  0
LINE
  8
0
 62
     0
 10
46.5169
 20
51.6407
 30
0.0
 11
46.6467
 21
52.6217
 31
0.0
  0
LINE
  8
0
 62
     0
 10
46.6467
 20
52.6217
 30
0.0
 11
46.7967
 21
53.6787
 31
0.0
  0
LINE
  8
0
 62
     0
 10
46.7967
 20
53.6787
 30
0.0
 11
46.9731
 21
54.7882
 31
0.0
  0
LINE
  8
0
 62
     0
 10
46.9731
 20
54.7882
 30
0.0
 11
47.177
 21
55.9262
 31
0.0
  0
LINE
  8
0
 62
     0
 10
47.177
 20
55.9262
 30
0.0
 11
47.4116
 21
57.0689
 31
0.0
  0
LINE
  8
0
 62
     0
 10
47.4116
 20
57.0689
 30
0.0
 11
47.6786
 21
58.1918
 31
0.0
  0
LINE
  8
0
 62
     0
 10
47.6786
 20
58.1918
 30
0.0
 11
47.9129
 21
59.1619
 31
0.0
  0
LINE
  8
0
 62
     0
 10
47.9129
 20
59.1619
 30
0.0
 11
48.1446
 21
60.1102
 31
0.0
  0
LINE
  8
0
 62
     0
 10
48.1446
 20
60.1102
 30
0.0
 11
48.4106
 21
61.0016
 31
0.0
  0
LINE
  8
0
 62
     0
 10
48.4106
 20
61.0016
 30
0.0
 11
48.7482
 21
61.801
 31
0.0
  0
LINE
  8
0
 62
     0
 10
48.7482
 20
61.801
 30
0.0
 11
49.1959
 21
62.4734
 31
0.0
  0
LINE
  8
0
 62
     0
 10
49.1959
 20
62.4734
 30
0.0
 11
49.79
 21
62.9846
 31
0.0
  0
LINE
  8
0
 62
     0
 10
49.79
 20
62.9846
 30
0.0
 11
50.5672
 21
63.2975
 31
0.0
  0
LINE
  8
0
 62
     0
 10
50.5672
 20
63.2975
 30
0.0
 11
51.5662
 21
63.3772
 31
0.0
  0
LINE
  8
0
 62
     0
 10
51.5662
 20
63.3772
 30
0.0
 11
52.8242
 21
63.1885
 31
0.0
  0
LINE
  8
0
 62
     0
 10
52.8242
 20
63.1885
 30
0.0
 11
53.4349
 21
62.8855
 31
0.0
  0
LINE
  8
0
 62
     0
 10
53.4349
 20
62.8855
 30
0.0
 11
53.8057
 21
62.3507
 31
0.0
  0
LINE
  8
0
 62
     0
 10
53.8057
 20
62.3507
 30
0.0
 11
53.9694
 21
61.6176
 31
0.0
  0
LINE
  8
0
 62
     0
 10
53.9694
 20
61.6176
 30
0.0
 11
53.9598
 21
60.7162
 31
0.0
  0
LINE
  8
0
 62
     0
 10
53.9598
 20
60.7162
 30
0.0
 11
53.811
 21
59.6801
 31
0.0
  0
LINE
  8
0
 62
     0
 10
53.811
 20
59.6801
 30
0.0
 11
53.5563
 21
58.5417
 31
0.0
  0
LINE
  8
0
 62
     0
 10
53.5563
 20
58.5417
 30
0.0
 11
53.2268
 21
57.3334
 31
0.0
  0
LINE
  8
0
 62
     0
 10
53.2268
 20
57.3334
 30
0.0
 11
52.8574
 21
56.086
 31
0.0
  0
LINE
  8
0
 62
     0
 10
52.8574
 20
56.086
 30
0.0
 11
52.4799
 21
54.8337
 31
0.0
  0
LINE
  8
0
 62
     0
 10
52.4799
 20
54.8337
 30
0.0
 11
52.13
 21
53.6056
 31
0.0
  0
LINE
  8
0
 62
     0
 10
52.13
 20
53.6056
 30
0.0
 11
51.8375
 21
52.4372
 31
0.0
  0
LINE
  8
0
 62
     0
 10
51.8375
 20
52.4372
 30
0.0
 11
51.6378
 21
51.3595
 31
0.0
  0
LINE
  8
0
 62
     0
 10
51.6378
 20
51.3595
 30
0.0
 11
51.5648
 21
50.4031
 31
0.0
  0
LINE
  8
0
 62
     0
 10
51.5648
 20
50.4031
 30
0.0
 11
51.6502
 21
49.6023
 31
0.0
  0
LINE
  8
0
 62
     0
 10
51.6502
 20
49.6023
 30
0.0
 11
51.9271
 21
48.9892
 31
0.0
  0
LINE
  8
0
 62
     0
 10
51.9271
 20
48.9892
 30
0.0
 11
52.4288
 21
48.5951
 31
0.0
  0
LINE
  8
0
 62
     0
 10
52.4288
 20
48.5951
 30
0.0
 11
53.1894
 21
48.4519
 31
0.0
  0
LINE
  8
0
 62
     0
 10
53.1894
 20
48.4519
 30
0.0
 11
54.416
 21
48.6364
 31
0.0
  0
LINE
  8
0
 62
     0
 10
54.416
 20
48.6364
 30
0.0
 11
55.3491
 21
49.1476
 31
0.0
  0
LINE
  8
0
 62
     0
 10
55.3491
 20
49.1476
 30
0.0
 11
56.0518
 21
49.8948
 31
0.0
  0
LINE
  8
0
 62
     0
 10
56.0518
 20
49.8948
 30
0.0
 11
56.5824
 21
50.7848
 31
0.0
  0
LINE
  8
0
 62
     0
 10
56.5824
 20
50.7848
 30
0.0
 11
57.0025
 21
51.7275
 31
0.0
  0
LINE
  8
0
 62
     0
 10
57.0025
 20
51.7275
 30
0.0
 11
57.3691
 21
52.6302
 31
0.0
  0
LINE
  8
0
 62
     0
 10
57.3691
 20
52.6302
 30
0.0
 11
57.7455
 21
53.4017
 31
0.0
  0
LINE
  8
0
 62
     0
 10
57.7455
 20
53.4017
 30
0.0
 11
58.1903
 21
53.9503
 31
0.0
  0
LINE
  8
0
 62
     0
 10
58.1903
 20
53.9503
 30
0.0
 11
58.7636
 21
54.1845
 31
0.0
  0
LINE
  8
0
 62
     0
 10
58.7636
 20
54.1845
 30
0.0
 11
59.5256
 21
54.012
 31
0.0
  0
LINE
  8
0
 62
     0
 10
59.5256
 20
54.012
 30
0.0
 11
60.5374
 21
53.3411
 31
0.0
  0
LINE
  8
0
 62
     0
 10
60.5374
 20
53.3411
 30
0.0
 11
61.4151
 21
52.5515
 31
0.0
  0
LINE
  8
0
 62
     0
 10
61.4151
 20
52.5515
 30
0.0
 11
61.9552
 21
51.8982
 31
0.0
  0
LINE
  8
0
 62
     0
 10
61.9552
 20
51.8982
 30
0.0
 11
62.1993
 21
51.3415
 31
0.0
  0
LINE
  8
0
 62
     0
 10
62.1993
 20
51.3415
 30
0.0
 11
62.1827
 21
50.8469
 31
0.0
  0
LINE
  8
0
 62
     0
 10
62.1827
 20
50.8469
 30
0.0
 11
61.9442
 21
50.3728
 31
0.0
  0
LINE
  8
0
 62
     0
 10
61.9442
 20
50.3728
 30
0.0
 11
61.5237
 21
49.8835
 31
0.0
  0
LINE
  8
0
 62
     0
 10
61.5237
 20
49.8835
 30
0.0
 11
60.9589
 21
49.3391
 31
0.0
  0
LINE
  8
0
 62
     0
 10
60.9589
 20
49.3391
 30
0.0
 11
60.289
 21
48.7013
 31
0.0
  0
LINE
  8
0
 62
     0
 10
60.289
 20
48.7013
 30
0.0
 11
59.5521
 21
47.9323
 31
0.0
  0
LINE
  8
0
 62
     0
 10
59.5521
 20
47.9323
 30
0.0
 11
58.7858
 21
46.9939
 31
0.0
  0
LINE
  8
0
 62
     0
 10
58.7858
 20
46.9939
 30
0.0
 11
58.0291
 21
45.8488
 31
0.0
  0
LINE
  8
0
 62
     0
 10
58.0291
 20
45.8488
 30
0.0
 11
57.3222
 21
44.4571
 31
0.0
  0
LINE
  8
0
 62
     0
 10
57.3222
 20
44.4571
 30
0.0
 11
56.6
 21
43.2304
 31
0.0
  0
LINE
  8
0
 62
     0
 10
56.6
 20
43.2304
 30
0.0
 11
55.8038
 21
42.5277
 31
0.0
  0
LINE
  8
0
 62
     0
 10
55.8038
 20
42.5277
 30
0.0
 11
54.9797
 21
42.2243
 31
0.0
  0
LINE
  8
0
 62
     0
 10
54.9797
 20
42.2243
 30
0.0
 11
54.1708
 21
42.2039
 31
0.0
  0
LINE
  8
0
 62
     0
 10
54.1708
 20
42.2039
 30
0.0
 11
53.4226
 21
42.3404
 31
0.0
  0
LINE
  8
0
 62
     0
 10
53.4226
 20
42.3404
 30
0.0
 11
52.7773
 21
42.5168
 31
0.0
  0
LINE
  8
0
 62
     0
 10
52.7773
 20
42.5168
 30
0.0
 11
52.2827
 21
42.6103
 31
0.0
  0
LINE
  8
0
 62
     0
 10
52.2827
 20
42.6103
 30
0.0
 11
51.9811
 21
42.5002
 31
0.0
  0
LINE
  8
0
 62
     0
 10
51.9811
 20
42.5002
 30
0.0
 11
51.9162
 21
42.0645
 31
0.0
  0
LINE
  8
0
 62
     0
 10
51.9162
 20
42.0645
 30
0.0
 11
52.1353
 21
41.1854
 31
0.0
  0
LINE
  8
0
 62
     0
 10
52.1353
 20
41.1854
 30
0.0
 11
52.6796
 21
39.7387
 31
0.0
  0
LINE
  8
0
 62
     0
 10
52.6796
 20
39.7387
 30
0.0
 11
53.5975
 21
37.604
 31
0.0
  0
LINE
  8
0
 62
     0
 10
53.5975
 20
37.604
 30
0.0
 11
54.2766
 21
36.2409
 31
0.0
  0
LINE
  8
0
 62
     0
 10
54.2766
 20
36.2409
 30
0.0
 11
54.9067
 21
35.3053
 31
0.0
  0
LINE
  8
0
 62
     0
 10
54.9067
 20
35.3053
 30
0.0
 11
55.4909
 21
34.7582
 31
0.0
  0
LINE
  8
0
 62
     0
 10
55.4909
 20
34.7582
 30
0.0
 11
56.0338
 21
34.5612
 31
0.0
  0
LINE
  8
0
 62
     0
 10
56.0338
 20
34.5612
 30
0.0
 11
56.5369
 21
34.677
 31
0.0
  0
LINE
  8
0
 62
     0
 10
56.5369
 20
34.677
 30
0.0
 11
57.0054
 21
35.0642
 31
0.0
  0
LINE
  8
0
 62
     0
 10
57.0054
 20
35.0642
 30
0.0
 11
57.4435
 21
35.6856
 31
0.0
  0
LINE
  8
0
 62
     0
 10
57.4435
 20
35.6856
 30
0.0
 11
57.8527
 21
36.503
 31
0.0
  0
LINE
  8
0
 62
     0
 10
57.8527
 20
36.503
 30
0.0
 11
58.2387
 21
37.4756
 31
0.0
  0
LINE
  8
0
 62
     0
 10
58.2387
 20
37.4756
 30
0.0
 11
58.6024
 21
38.5657
 31
0.0
  0
LINE
  8
0
 62
     0
 10
58.6024
 20
38.5657
 30
0.0
 11
58.9509
 21
39.7344
 31
0.0
  0
LINE
  8
0
 62
     0
 10
58.9509
 20
39.7344
 30
0.0
 11
59.2861
 21
40.9444
 31
0.0
  0
LINE
  8
0
 62
     0
 10
59.2861
 20
40.9444
 30
0.0
 11
59.6099
 21
42.1527
 31
0.0
  0
LINE
  8
0
 62
     0
 10
59.6099
 20
42.1527
 30
0.0
 11
59.9295
 21
43.3257
 31
0.0
  0
LINE
  8
0
 62
     0
 10
59.9295
 20
43.3257
 30
0.0
 11
60.2449
 21
44.4211
 31
0.0
  0
LINE
  8
0
 62
     0
 10
60.2449
 20
44.4211
 30
0.0
 11
60.5635
 21
45.4007
 31
0.0
  0
LINE
  8
0
 62
     0
 10
60.5635
 20
45.4007
 30
0.0
 11
60.8845
 21
46.2276
 31
0.0
  0
LINE
  8
0
 62
     0
 10
60.8845
 20
46.2276
 30
0.0
 11
61.2151
 21
46.8602
 31
0.0
  0
LINE
  8
0
 62
     0
 10
61.2151
 20
46.8602
 30
0.0
 11
61.5583
 21
47.2613
 31
0.0
  0
LINE
  8
0
 62
     0
 10
61.5583
 20
47.2613
 30
0.0
 11
62.1122
 21
47.2613
 31
0.0
  0
LINE
  8
0
 62
     0
 10
62.1122
 20
47.2613
 30
0.0
 11
62.95
 21
46.9029
 31
0.0
  0
LINE
  8
0
 62
     0
 10
62.95
 20
46.9029
 30
0.0
 11
63.7124
 21
46.3282
 31
0.0
  0
LINE
  8
0
 62
     0
 10
63.7124
 20
46.3282
 30
0.0
 11
64.0401
 21
45.6766
 31
0.0
  0
LINE
  8
0
 62
     0
 10
64.0401
 20
45.6766
 30
0.0
 11
63.7963
 21
44.9887
 31
0.0
  0
LINE
  8
0
 62
     0
 10
63.7963
 20
44.9887
 30
0.0
 11
63.2188
 21
44.5258
 31
0.0
  0
LINE
  8
0
 62
     0
 10
63.2188
 20
44.5258
 30
0.0
 11
62.49
 21
44.1385
 31
0.0
  0
LINE
  8
0
 62
     0
 10
62.49
 20
44.1385
 30
0.0
 11
61.794
 21
43.6771
 31
0.0
  0
LINE
  8
0
 62
     0
 10
61.794
 20
43.6771
 30
0.0
 11
61.316
 21
42.992
 31
0.0
  0
LINE
  8
0
 62
     0
 10
61.316
 20
42.992
 30
0.0
 11
61.2387
 21
41.9336
 31
0.0
  0
LINE
  8
0
 62
     0
 10
61.2387
 20
41.9336
 30
0.0
 11
61.7456
 21
40.356
 31
0.0
  0
LINE
  8
0
 62
     0
 10
61.7456
 20
40.356
 30
0.0
 11
62.4004
 21
39.11
 31
0.0
  0
LINE
  8
0
 62
     0
 10
62.4004
 20
39.11
 30
0.0
 11
62.8992
 21
38.5851
 31
0.0
  0
LINE
  8
0
 62
     0
 10
62.8992
 20
38.5851
 30
0.0
 11
63.3141
 21
38.632
 31
0.0
  0
LINE
  8
0
 62
     0
 10
63.3141
 20
38.632
 30
0.0
 11
63.7124
 21
39.1033
 31
0.0
  0
LINE
  8
0
 62
     0
 10
63.7124
 20
39.1033
 30
0.0
 11
64.1643
 21
39.8501
 31
0.0
  0
LINE
  8
0
 62
     0
 10
64.1643
 20
39.8501
 30
0.0
 11
64.7361
 21
40.7278
 31
0.0
  0
LINE
  8
0
 62
     0
 10
64.7361
 20
40.7278
 30
0.0
 11
65.501
 21
41.5865
 31
0.0
  0
LINE
  8
0
 62
     0
 10
65.501
 20
41.5865
 30
0.0
 11
66.5247
 21
42.2797
 31
0.0
  0
LINE
  8
0
 62
     0
 10
66.5247
 20
42.2797
 30
0.0
 11
67.3421
 21
42.4903
 31
0.0
  0
LINE
  8
0
 62
     0
 10
67.3421
 20
42.4903
 30
0.0
 11
68.2046
 21
42.4064
 31
0.0
  0
LINE
  8
0
 62
     0
 10
68.2046
 20
42.4064
 30
0.0
 11
69.0795
 21
42.073
 31
0.0
  0
LINE
  8
0
 62
     0
 10
69.0795
 20
42.073
 30
0.0
 11
69.934
 21
41.5315
 31
0.0
  0
LINE
  8
0
 62
     0
 10
69.934
 20
41.5315
 30
0.0
 11
70.7362
 21
40.8284
 31
0.0
  0
LINE
  8
0
 62
     0
 10
70.7362
 20
40.8284
 30
0.0
 11
71.4541
 21
40.0085
 31
0.0
  0
LINE
  8
0
 62
     0
 10
71.4541
 20
40.0085
 30
0.0
 11
72.0563
 21
39.1142
 31
0.0
  0
LINE
  8
0
 62
     0
 10
72.0563
 20
39.1142
 30
0.0
 11
72.5096
 21
38.191
 31
0.0
  0
LINE
  8
0
 62
     0
 10
72.5096
 20
38.191
 30
0.0
 11
72.7826
 21
37.283
 31
0.0
  0
LINE
  8
0
 62
     0
 10
72.7826
 20
37.283
 30
0.0
 11
72.843
 21
36.4352
 31
0.0
  0
LINE
  8
0
 62
     0
 10
72.843
 20
36.4352
 30
0.0
 11
72.6585
 21
35.6912
 31
0.0
  0
LINE
  8
0
 62
     0
 10
72.6585
 20
35.6912
 30
0.0
 11
72.1967
 21
35.0959
 31
0.0
  0
LINE
  8
0
 62
     0
 10
72.1967
 20
35.0959
 30
0.0
 11
71.6248
 21
34.8134
 31
0.0
  0
LINE
  8
0
 62
     0
 10
71.6248
 20
34.8134
 30
0.0
 11
70.9013
 21
34.7445
 31
0.0
  0
LINE
  8
0
 62
     0
 10
70.9013
 20
34.7445
 30
0.0
 11
70.0581
 21
34.8423
 31
0.0
  0
LINE
  8
0
 62
     0
 10
70.0581
 20
34.8423
 30
0.0
 11
69.1212
 21
35.0628
 31
0.0
  0
LINE
  8
0
 62
     0
 10
69.1212
 20
35.0628
 30
0.0
 11
68.1193
 21
35.3579
 31
0.0
  0
LINE
  8
0
 62
     0
 10
68.1193
 20
35.3579
 30
0.0
 11
67.0814
 21
35.6817
 31
0.0
  0
LINE
  8
0
 62
     0
 10
67.0814
 20
35.6817
 30
0.0
 11
66.0344
 21
35.9876
 31
0.0
  0
LINE
  8
0
 62
     0
 10
66.0344
 20
35.9876
 30
0.0
 11
65.0074
 21
36.2299
 31
0.0
  0
LINE
  8
0
 62
     0
 10
65.0074
 20
36.2299
 30
0.0
 11
64.0278
 21
36.3622
 31
0.0
  0
LINE
  8
0
 62
     0
 10
64.0278
 20
36.3622
 30
0.0
 11
63.1254
 21
36.3375
 31
0.0
  0
LINE
  8
0
 62
     0
 10
63.1254
 20
36.3375
 30
0.0
 11
62.3274
 21
36.1086
 31
0.0
  0
LINE
  8
0
 62
     0
 10
62.3274
 20
36.1086
 30
0.0
 11
61.6631
 21
35.632
 31
0.0
  0
LINE
  8
0
 62
     0
 10
61.6631
 20
35.632
 30
0.0
 11
61.1586
 21
34.8589
 31
0.0
  0
LINE
  8
0
 62
     0
 10
61.1586
 20
34.8589
 30
0.0
 11
60.8446
 21
33.744
 31
0.0
  0
LINE
  8
0
 62
     0
 10
60.8446
 20
33.744
 30
0.0
 11
60.748
 21
32.2406
 31
0.0
  0
LINE
  8
0
 62
     0
 10
60.748
 20
32.2406
 30
0.0
 11
60.8182
 21
30.5235
 31
0.0
  0
LINE
  8
0
 62
     0
 10
60.8182
 20
30.5235
 30
0.0
 11
60.9783
 21
29.2874
 31
0.0
  0
LINE
  8
0
 62
     0
 10
60.9783
 20
29.2874
 30
0.0
 11
61.2249
 21
28.4758
 31
0.0
  0
LINE
  8
0
 62
     0
 10
61.2249
 20
28.4758
 30
0.0
 11
61.5597
 21
28.032
 31
0.0
  0
LINE
  8
0
 62
     0
 10
61.5597
 20
28.032
 30
0.0
 11
61.9799
 21
27.8997
 31
0.0
  0
LINE
  8
0
 62
     0
 10
61.9799
 20
27.8997
 30
0.0
 11
62.4844
 21
28.0224
 31
0.0
  0
LINE
  8
0
 62
     0
 10
62.4844
 20
28.0224
 30
0.0
 11
63.0728
 21
28.3449
 31
0.0
  0
LINE
  8
0
 62
     0
 10
63.0728
 20
28.3449
 30
0.0
 11
63.7438
 21
28.8093
 31
0.0
  0
LINE
  8
0
 62
     0
 10
63.7438
 20
28.8093
 30
0.0
 11
64.4977
 21
29.3619
 31
0.0
  0
LINE
  8
0
 62
     0
 10
64.4977
 20
29.3619
 30
0.0
 11
65.3313
 21
29.9448
 31
0.0
  0
LINE
  8
0
 62
     0
 10
65.3313
 20
29.9448
 30
0.0
 11
66.245
 21
30.5015
 31
0.0
  0
LINE
  8
0
 62
     0
 10
66.245
 20
30.5015
 30
0.0
 11
67.2373
 21
30.9755
 31
0.0
  0
LINE
  8
0
 62
     0
 10
67.2373
 20
30.9755
 30
0.0
 11
68.308
 21
31.3118
 31
0.0
  0
LINE
  8
0
 62
     0
 10
68.308
 20
31.3118
 30
0.0
 11
69.6281
 21
31.5722
 31
0.0
  0
LINE
  8
0
 62
     0
 10
69.6281
 20
31.5722
 30
0.0
 11
70.721
 21
31.7018
 31
0.0
  0
LINE
  8
0
 62
     0
 10
70.721
 20
31.7018
 30
0.0
 11
71.6082
 21
31.6907
 31
0.0
  0
LINE
  8
0
 62
     0
 10
71.6082
 20
31.6907
 30
0.0
 11
72.3085
 21
31.5323
 31
0.0
  0
LINE
  8
0
 62
     0
 10
72.3085
 20
31.5323
 30
0.0
 11
72.8444
 21
31.2181
 31
0.0
  0
LINE
  8
0
 62
     0
 10
72.8444
 20
31.2181
 30
0.0
 11
73.2374
 21
30.7371
 31
0.0
  0
LINE
  8
0
 62
     0
 10
73.2374
 20
30.7371
 30
0.0
 11
73.5072
 21
30.0839
 31
0.0
  0
LINE
  8
0
 62
     0
 10
73.5072
 20
30.0839
 30
0.0
 11
73.6755
 21
29.2489
 31
0.0
  0
LINE
  8
0
 62
     0
 10
73.6755
 20
29.2489
 30
0.0
 11
73.7623
 21
28.2236
 31
0.0
  0
LINE
  8
0
 62
     0
 10
73.7623
 20
28.2236
 30
0.0
 11
73.7898
 21
26.9999
 31
0.0
  0
LINE
  8
0
 62
     0
 10
73.7898
 20
26.9999
 30
0.0
 11
73.7249
 21
25.5929
 31
0.0
  0
LINE
  8
0
 62
     0
 10
73.7249
 20
25.5929
 30
0.0
 11
73.5334
 21
24.3265
 31
0.0
  0
LINE
  8
0
 62
     0
 10
73.5334
 20
24.3265
 30
0.0
 11
73.2275
 21
23.2062
 31
0.0
  0
LINE
  8
0
 62
     0
 10
73.2275
 20
23.2062
 30
0.0
 11
72.8239
 21
22.2388
 31
0.0
  0
LINE
  8
0
 62
     0
 10
72.8239
 20
22.2388
 30
0.0
 11
72.3388
 21
21.4299
 31
0.0
  0
LINE
  8
0
 62
     0
 10
72.3388
 20
21.4299
 30
0.0
 11
71.786
 21
20.7863
 31
0.0
  0
LINE
  8
0
 62
     0
 10
71.786
 20
20.7863
 30
0.0
 11
71.181
 21
20.3137
 31
0.0
  0
LINE
  8
0
 62
     0
 10
71.181
 20
20.3137
 30
0.0
 11
70.5404
 21
20.0188
 31
0.0
  0
LINE
  8
0
 62
     0
 10
70.5404
 20
20.0188
 30
0.0
 11
69.8789
 21
19.9085
 31
0.0
  0
LINE
  8
0
 62
     0
 10
69.8789
 20
19.9085
 30
0.0
 11
69.4298
 21
19.9664
 31
0.0
  0
LINE
  8
0
 62
     0
 10
69.4298
 20
19.9664
 30
0.0
 11
68.8869
 21
20.1483
 31
0.0
  0
LINE
  8
0
 62
     0
 10
68.8869
 20
20.1483
 30
0.0
 11
68.2611
 21
20.4404
 31
0.0
  0
LINE
  8
0
 62
     0
 10
68.2611
 20
20.4404
 30
0.0
 11
67.5626
 21
20.8291
 31
0.0
  0
LINE
  8
0
 62
     0
 10
67.5626
 20
20.8291
 30
0.0
 11
66.8016
 21
21.3003
 31
0.0
  0
LINE
  8
0
 62
     0
 10
66.8016
 20
21.3003
 30
0.0
 11
65.9903
 21
21.8405
 31
0.0
  0
LINE
  8
0
 62
     0
 10
65.9903
 20
21.8405
 30
0.0
 11
65.1372
 21
22.4359
 31
0.0
  0
LINE
  8
0
 62
     0
 10
65.1372
 20
22.4359
 30
0.0
 11
64.2539
 21
23.0725
 31
0.0
  0
LINE
  8
0
 62
     0
 10
64.2539
 20
23.0725
 30
0.0
 11
63.3483
 21
23.7367
 31
0.0
  0
LINE
  8
0
 62
     0
 10
63.3483
 20
23.7367
 30
0.0
 11
61.5184
 21
25.0927
 31
0.0
  0
LINE
  8
0
 62
     0
 10
61.5184
 20
25.0927
 30
0.0
 11
60.6143
 21
25.7569
 31
0.0
  0
LINE
  8
0
 62
     0
 10
60.6143
 20
25.7569
 30
0.0
 11
59.7299
 21
26.3936
 31
0.0
  0
LINE
  8
0
 62
     0
 10
59.7299
 20
26.3936
 30
0.0
 11
58.8768
 21
26.9889
 31
0.0
  0
LINE
  8
0
 62
     0
 10
58.8768
 20
26.9889
 30
0.0
 11
58.0651
 21
27.5291
 31
0.0
  0
LINE
  8
0
 62
     0
 10
58.0651
 20
27.5291
 30
0.0
 11
57.3003
 21
28.0142
 31
0.0
  0
LINE
  8
0
 62
     0
 10
57.3003
 20
28.0142
 30
0.0
 11
56.5146
 21
28.4661
 31
0.0
  0
LINE
  8
0
 62
     0
 10
56.5146
 20
28.4661
 30
0.0
 11
55.699
 21
28.8451
 31
0.0
  0
LINE
  8
0
 62
     0
 10
55.699
 20
28.8451
 30
0.0
 11
54.8432
 21
29.1138
 31
0.0
  0
LINE
  8
0
 62
     0
 10
54.8432
 20
29.1138
 30
0.0
 11
54.3885
 21
29.2916
 31
0.0
  0
LINE
  8
0
 62
     0
 10
54.3885
 20
29.2916
 30
0.0
 11
53.8357
 21
29.5727
 31
0.0
  0
LINE
  8
0
 62
     0
 10
53.8357
 20
29.5727
 30
0.0
 11
53.2239
 21
29.8414
 31
0.0
  0
LINE
  8
0
 62
     0
 10
53.2239
 20
29.8414
 30
0.0
 11
52.5942
 21
29.9889
 31
0.0
  0
LINE
  8
0
 62
     0
 10
52.5942
 20
29.9889
 30
0.0
 11
51.9878
 21
29.8993
 31
0.0
  0
LINE
  8
0
 62
     0
 10
51.9878
 20
29.8993
 30
0.0
 11
51.4463
 21
29.4624
 31
0.0
  0
LINE
  8
0
 62
     0
 10
51.4463
 20
29.4624
 30
0.0
 11
51.011
 21
28.5654
 31
0.0
  0
LINE
  8
0
 62
     0
 10
51.011
 20
28.5654
 30
0.0
 11
50.7199
 21
27.095
 31
0.0
  0
LINE
  8
0
 62
     0
 10
50.7199
 20
27.095
 30
0.0
 11
50.618
 21
24.9384
 31
0.0
  0
LINE
  8
0
 62
     0
 10
50.618
 20
24.9384
 30
0.0
 11
50.7351
 21
23.5121
 31
0.0
  0
LINE
  8
0
 62
     0
 10
50.7351
 20
23.5121
 30
0.0
 11
51.0632
 21
22.4607
 31
0.0
  0
LINE
  8
0
 62
     0
 10
51.0632
 20
22.4607
 30
0.0
 11
51.5772
 21
21.7358
 31
0.0
  0
LINE
  8
0
 62
     0
 10
51.5772
 20
21.7358
 30
0.0
 11
52.2471
 21
21.2907
 31
0.0
  0
LINE
  8
0
 62
     0
 10
52.2471
 20
21.2907
 30
0.0
 11
53.049
 21
21.0757
 31
0.0
  0
LINE
  8
0
 62
     0
 10
53.049
 20
21.0757
 30
0.0
 11
53.9556
 21
21.044
 31
0.0
  0
LINE
  8
0
 62
     0
 10
53.9556
 20
21.044
 30
0.0
 11
54.9409
 21
21.1446
 31
0.0
  0
LINE
  8
0
 62
     0
 10
54.9409
 20
21.1446
 30
0.0
 11
55.9788
 21
21.3334
 31
0.0
  0
LINE
  8
0
 62
     0
 10
55.9788
 20
21.3334
 30
0.0
 11
57.041
 21
21.5594
 31
0.0
  0
LINE
  8
0
 62
     0
 10
57.041
 20
21.5594
 30
0.0
 11
58.1036
 21
21.7744
 31
0.0
  0
LINE
  8
0
 62
     0
 10
58.1036
 20
21.7744
 30
0.0
 11
59.1372
 21
21.9301
 31
0.0
  0
LINE
  8
0
 62
     0
 10
59.1372
 20
21.9301
 30
0.0
 11
60.1169
 21
21.9797
 31
0.0
  0
LINE
  8
0
 62
     0
 10
60.1169
 20
21.9797
 30
0.0
 11
61.0168
 21
21.8736
 31
0.0
  0
LINE
  8
0
 62
     0
 10
61.0168
 20
21.8736
 30
0.0
 11
61.8091
 21
21.5649
 31
0.0
  0
LINE
  8
0
 62
     0
 10
61.8091
 20
21.5649
 30
0.0
 11
62.7077
 21
20.9765
 31
0.0
  0
LINE
  8
0
 62
     0
 10
62.7077
 20
20.9765
 30
0.0
 11
63.536
 21
20.3081
 31
0.0
  0
LINE
  8
0
 62
     0
 10
63.536
 20
20.3081
 30
0.0
 11
64.2867
 21
19.5778
 31
0.0
  0
LINE
  8
0
 62
     0
 10
64.2867
 20
19.5778
 30
0.0
 11
64.951
 21
18.7992
 31
0.0
  0
LINE
  8
0
 62
     0
 10
64.951
 20
18.7992
 30
0.0
 11
65.519
 21
17.9903
 31
0.0
  0
LINE
  8
0
 62
     0
 10
65.519
 20
17.9903
 30
0.0
 11
65.9846
 21
17.1649
 31
0.0
  0
LINE
  8
0
 62
     0
 10
65.9846
 20
17.1649
 30
0.0
 11
66.336
 21
16.3408
 31
0.0
  0
LINE
  8
0
 62
     0
 10
66.336
 20
16.3408
 30
0.0
 11
66.5674
 21
15.5333
 31
0.0
  0
LINE
  8
0
 62
     0
 10
66.5674
 20
15.5333
 30
0.0
 11
66.6679
 21
14.7574
 31
0.0
  0
LINE
  8
0
 62
     0
 10
66.6679
 20
14.7574
 30
0.0
 11
66.6309
 21
14.0325
 31
0.0
  0
LINE
  8
0
 62
     0
 10
66.6309
 20
14.0325
 30
0.0
 11
66.445
 21
13.3711
 31
0.0
  0
LINE
  8
0
 62
     0
 10
66.445
 20
13.3711
 30
0.0
 11
65.9818
 21
12.5374
 31
0.0
  0
LINE
  8
0
 62
     0
 10
65.9818
 20
12.5374
 30
0.0
 11
65.3687
 21
11.8208
 31
0.0
  0
LINE
  8
0
 62
     0
 10
65.3687
 20
11.8208
 30
0.0
 11
64.6328
 21
11.2145
 31
0.0
  0
LINE
  8
0
 62
     0
 10
64.6328
 20
11.2145
 30
0.0
 11
63.8016
 21
10.7046
 31
0.0
  0
LINE
  8
0
 62
     0
 10
63.8016
 20
10.7046
 30
0.0
 11
62.9059
 21
10.2815
 31
0.0
  0
LINE
  8
0
 62
     0
 10
62.9059
 20
10.2815
 30
0.0
 11
61.9704
 21
9.93429
 31
0.0
  0
LINE
  8
0
 62
     0
 10
61.9704
 20
9.93429
 30
0.0
 11
61.0263
 21
9.65316
 31
0.0
  0
LINE
  8
0
 62
     0
 10
61.0263
 20
9.65316
 30
0.0
 11
59.9765
 21
9.50433
 31
0.0
  0
LINE
  8
0
 62
     0
 10
59.9765
 20
9.50433
 30
0.0
 11
59.1675
 21
9.66833
 31
0.0
  0
LINE
  8
0
 62
     0
 10
59.1675
 20
9.66833
 30
0.0
 11
58.51
 21
10.0914
 31
0.0
  0
LINE
  8
0
 62
     0
 10
58.51
 20
10.0914
 30
0.0
 11
57.9176
 21
10.7253
 31
0.0
  0
LINE
  8
0
 62
     0
 10
57.9176
 20
10.7253
 30
0.0
 11
57.3031
 21
11.519
 31
0.0
  0
LINE
  8
0
 62
     0
 10
57.3031
 20
11.519
 30
0.0
 11
56.5753
 21
12.4216
 31
0.0
  0
LINE
  8
0
 62
     0
 10
56.5753
 20
12.4216
 30
0.0
 11
56.1566
 21
13.0693
 31
0.0
  0
LINE
  8
0
 62
     0
 10
56.1566
 20
13.0693
 30
0.0
 11
55.8532
 21
13.8245
 31
0.0
  0
LINE
  8
0
 62
     0
 10
55.8532
 20
13.8245
 30
0.0
 11
55.6066
 21
14.6348
 31
0.0
  0
LINE
  8
0
 62
     0
 10
55.6066
 20
14.6348
 30
0.0
 11
55.3614
 21
15.4464
 31
0.0
  0
LINE
  8
0
 62
     0
 10
55.3614
 20
15.4464
 30
0.0
 11
55.0566
 21
16.2044
 31
0.0
  0
LINE
  8
0
 62
     0
 10
55.0566
 20
16.2044
 30
0.0
 11
54.6365
 21
16.8562
 31
0.0
  0
LINE
  8
0
 62
     0
 10
54.6365
 20
16.8562
 30
0.0
 11
54.0424
 21
17.3468
 31
0.0
  0
LINE
  8
0
 62
     0
 10
54.0424
 20
17.3468
 30
0.0
 11
53.2158
 21
17.6251
 31
0.0
  0
LINE
  8
0
 62
     0
 10
53.2158
 20
17.6251
 30
0.0
 11
52.0996
 21
17.6361
 31
0.0
  0
LINE
  8
0
 62
     0
 10
52.0996
 20
17.6361
 30
0.0
 11
50.6331
 21
17.3261
 31
0.0
  0
LINE
  8
0
 62
     0
 10
50.6331
 20
17.3261
 30
0.0
 11
48.8721
 21
16.7225
 31
0.0
  0
LINE
  8
0
 62
     0
 10
48.8721
 20
16.7225
 30
0.0
 11
47.6719
 21
16.1327
 31
0.0
  0
LINE
  8
0
 62
     0
 10
47.6719
 20
16.1327
 30
0.0
 11
46.9403
 21
15.5567
 31
0.0
  0
LINE
  8
0
 62
     0
 10
46.9403
 20
15.5567
 30
0.0
 11
46.5832
 21
14.9931
 31
0.0
  0
LINE
  8
0
 62
     0
 10
46.5832
 20
14.9931
 30
0.0
 11
46.5088
 21
14.4432
 31
0.0
  0
LINE
  8
0
 62
     0
 10
46.5088
 20
14.4432
 30
0.0
 11
46.6217
 21
13.9058
 31
0.0
  0
LINE
  8
0
 62
     0
 10
46.6217
 20
13.9058
 30
0.0
 11
46.8298
 21
13.3808
 31
0.0
  0
LINE
  8
0
 62
     0
 10
46.8298
 20
13.3808
 30
0.0
 11
47.0408
 21
12.8681
 31
0.0
  0
LINE
  8
0
 62
     0
 10
47.0408
 20
12.8681
 30
0.0
 11
47.4514
 21
12.31
 31
0.0
  0
LINE
  8
0
 62
     0
 10
47.4514
 20
12.31
 30
0.0
 11
48.1817
 21
11.7808
 31
0.0
  0
LINE
  8
0
 62
     0
 10
48.1817
 20
11.7808
 30
0.0
 11
49.0926
 21
11.2696
 31
0.0
  0
LINE
  8
0
 62
     0
 10
49.0926
 20
11.2696
 30
0.0
 11
50.0475
 21
10.7597
 31
0.0
  0
LINE
  8
0
 62
     0
 10
50.0475
 20
10.7597
 30
0.0
 11
50.9076
 21
10.2388
 31
0.0
  0
LINE
  8
0
 62
     0
 10
50.9076
 20
10.2388
 30
0.0
 11
51.5345
 21
9.69038
 31
0.0
  0
LINE
  8
0
 62
     0
 10
51.5345
 20
9.69038
 30
0.0
 11
51.7924
 21
9.10333
 31
0.0
  0
LINE
  8
0
 62
     0
 10
51.7924
 20
9.10333
 30
0.0
 11
51.7454
 21
8.20759
 31
0.0
  0
LINE
  8
0
 62
     0
 10
51.7454
 20
8.20759
 30
0.0
 11
51.5387
 21
7.34081
 31
0.0
  0
LINE
  8
0
 62
     0
 10
51.5387
 20
7.34081
 30
0.0
 11
51.1912
 21
6.51397
 31
0.0
  0
LINE
  8
0
 62
     0
 10
51.1912
 20
6.51397
 30
0.0
 11
50.7213
 21
5.73814
 31
0.0
  0
LINE
  8
0
 62
     0
 10
50.7213
 20
5.73814
 30
0.0
 11
50.1495
 21
5.02296
 31
0.0
  0
LINE
  8
0
 62
     0
 10
50.1495
 20
5.02296
 30
0.0
 11
49.4951
 21
4.37942
 31
0.0
  0
LINE
  8
0
 62
     0
 10
49.4951
 20
4.37942
 30
0.0
 11
48.7729
 21
3.81991
 31
0.0
  0
LINE
  8
0
 62
     0
 10
48.7729
 20
3.81991
 30
0.0
 11
48.0067
 21
3.34036
 31
0.0
  0
LINE
  8
0
 62
     0
 10
48.0067
 20
3.34036
 30
0.0
 11
47.2048
 21
2.92695
 31
0.0
  0
LINE
  8
0
 62
     0
 10
47.2048
 20
2.92695
 30
0.0
 11
46.3737
 21
2.56728
 31
0.0
  0
LINE
  8
0
 62
     0
 10
46.3737
 20
2.56728
 30
0.0
 11
45.5221
 21
2.25447
 31
0.0
  0
LINE
  8
0
 62
     0
 10
45.5221
 20
2.25447
 30
0.0
 11
44.6539
 21
1.97473
 31
0.0
  0
LINE
  8
0
 62
     0
 10
44.6539
 20
1.97473
 30
0.0
 11
43.779
 21
1.71841
 31
0.0
  0
LINE
  8
0
 62
     0
 10
43.779
 20
1.71841
 30
0.0
 11
42.9024
 21
1.4745
 31
0.0
  0
LINE
  8
0
 62
     0
 10
42.9024
 20
1.4745
 30
0.0
 11
42.2356
 21
2.48874
 31
0.0
  0
LINE
  8
0
 62
     0
 10
42.2356
 20
2.48874
 30
0.0
 11
41.8828
 21
3.2756
 31
0.0
  0
LINE
  8
0
 62
     0
 10
41.8828
 20
3.2756
 30
0.0
 11
41.7904
 21
3.9219
 31
0.0
  0
LINE
  8
0
 62
     0
 10
41.7904
 20
3.9219
 30
0.0
 11
41.9075
 21
4.50896
 31
0.0
  0
LINE
  8
0
 62
     0
 10
41.9075
 20
4.50896
 30
0.0
 11
42.1845
 21
5.12216
 31
0.0
  0
LINE
  8
0
 62
     0
 10
42.1845
 20
5.12216
 30
0.0
 11
42.5704
 21
5.84426
 31
0.0
  0
LINE
  8
0
 62
     0
 10
42.5704
 20
5.84426
 30
0.0
 11
43.0142
 21
6.76067
 31
0.0
  0
LINE
  8
0
 62
     0
 10
43.0142
 20
6.76067
 30
0.0
 11
43.4633
 21
7.95267
 31
0.0
  0
LINE
  8
0
 62
     0
 10
43.4633
 20
7.95267
 30
0.0
 11
43.6605
 21
8.61275
 31
0.0
  0
LINE
  8
0
 62
     0
 10
43.6605
 20
8.61275
 30
0.0
 11
43.8146
 21
9.248
 31
0.0
  0
LINE
  8
0
 62
     0
 10
43.8146
 20
9.248
 30
0.0
 11
43.9388
 21
9.9205
 31
0.0
  0
LINE
  8
0
 62
     0
 10
43.9388
 20
9.9205
 30
0.0
 11
44.0436
 21
10.6922
 31
0.0
  0
LINE
  8
0
 62
     0
 10
44.0436
 20
10.6922
 30
0.0
 11
44.1399
 21
11.6224
 31
0.0
  0
LINE
  8
0
 62
     0
 10
44.1399
 20
11.6224
 30
0.0
 11
44.2404
 21
12.7744
 31
0.0
  0
LINE
  8
0
 62
     0
 10
44.2404
 20
12.7744
 30
0.0
 11
44.3576
 21
14.2089
 31
0.0
  0
LINE
  8
0
 62
     0
 10
44.3576
 20
14.2089
 30
0.0
 11
44.3699
 21
15.3844
 31
0.0
  0
LINE
  8
0
 62
     0
 10
44.3699
 20
15.3844
 30
0.0
 11
44.2172
 21
16.4248
 31
0.0
  0
LINE
  8
0
 62
     0
 10
44.2172
 20
16.4248
 30
0.0
 11
43.9085
 21
17.3275
 31
0.0
  0
LINE
  8
0
 62
     0
 10
43.9085
 20
17.3275
 30
0.0
 11
43.4552
 21
18.0909
 31
0.0
  0
LINE
  8
0
 62
     0
 10
43.4552
 20
18.0909
 30
0.0
 11
42.8653
 21
18.711
 31
0.0
  0
LINE
  8
0
 62
     0
 10
42.8653
 20
18.711
 30
0.0
 11
42.1513
 21
19.1878
 31
0.0
  0
LINE
  8
0
 62
     0
 10
42.1513
 20
19.1878
 30
0.0
 11
41.3233
 21
19.5171
 31
0.0
  0
LINE
  8
0
 62
     0
 10
41.3233
 20
19.5171
 30
0.0
 11
40.3916
 21
19.6963
 31
0.0
  0
LINE
  8
0
 62
     0
 10
40.3916
 20
19.6963
 30
0.0
 11
39.3679
 21
19.7239
 31
0.0
  0
LINE
  8
0
 62
     0
 10
39.3679
 20
19.7239
 30
0.0
 11
38.5907
 21
19.5489
 31
0.0
  0
LINE
  8
0
 62
     0
 10
38.5907
 20
19.5489
 30
0.0
 11
37.9924
 21
19.1299
 31
0.0
  0
LINE
  8
0
 62
     0
 10
37.9924
 20
19.1299
 30
0.0
 11
37.55
 21
18.5015
 31
0.0
  0
LINE
  8
0
 62
     0
 10
37.55
 20
18.5015
 30
0.0
 11
37.2442
 21
17.7023
 31
0.0
  0
LINE
  8
0
 62
     0
 10
37.2442
 20
17.7023
 30
0.0
 11
37.0487
 21
16.7666
 31
0.0
  0
LINE
  8
0
 62
     0
 10
37.0487
 20
16.7666
 30
0.0
 11
36.9454
 21
15.7331
 31
0.0
  0
LINE
  8
0
 62
     0
 10
36.9454
 20
15.7331
 30
0.0
 11
36.9094
 21
14.6348
 31
0.0
  0
LINE
  8
0
 62
     0
 10
36.9094
 20
14.6348
 30
0.0
 11
36.9203
 21
13.5103
 31
0.0
  0
LINE
  8
0
 62
     0
 10
36.9203
 20
13.5103
 30
0.0
 11
36.9563
 21
12.3941
 31
0.0
  0
LINE
  8
0
 62
     0
 10
36.9563
 20
12.3941
 30
0.0
 11
36.9933
 21
11.3247
 31
0.0
  0
LINE
  8
0
 62
     0
 10
36.9933
 20
11.3247
 30
0.0
 11
37.0099
 21
10.3367
 31
0.0
  0
LINE
  8
0
 62
     0
 10
37.0099
 20
10.3367
 30
0.0
 11
37.1105
 21
9.71518
 31
0.0
  0
LINE
  8
0
 62
     0
 10
37.1105
 20
9.71518
 30
0.0
 11
37.3807
 21
9.06611
 31
0.0
  0
LINE
  8
0
 62
     0
 10
37.3807
 20
9.06611
 30
0.0
 11
37.7804
 21
8.39639
 31
0.0
  0
LINE
  8
0
 62
     0
 10
37.7804
 20
8.39639
 30
0.0
 11
38.264
 21
7.71151
 31
0.0
  0
LINE
  8
0
 62
     0
 10
38.264
 20
7.71151
 30
0.0
 11
38.789
 21
7.01834
 31
0.0
  0
LINE
  8
0
 62
     0
 10
38.789
 20
7.01834
 30
0.0
 11
39.3129
 21
6.32382
 31
0.0
  0
LINE
  8
0
 62
     0
 10
39.3129
 20
6.32382
 30
0.0
 11
39.7909
 21
5.63203
 31
0.0
  0
LINE
  8
0
 62
     0
 10
39.7909
 20
5.63203
 30
0.0
 11
40.1807
 21
4.95131
 31
0.0
  0
LINE
  8
0
 62
     0
 10
40.1807
 20
4.95131
 30
0.0
 11
40.44
 21
4.28847
 31
0.0
  0
LINE
  8
0
 62
     0
 10
40.44
 20
4.28847
 30
0.0
 11
40.5239
 21
3.64765
 31
0.0
  0
LINE
  8
0
 62
     0
 10
40.5239
 20
3.64765
 30
0.0
 11
40.3888
 21
3.0372
 31
0.0
  0
LINE
  8
0
 62
     0
 10
40.3888
 20
3.0372
 30
0.0
 11
39.9948
 21
2.46255
 31
0.0
  0
LINE
  8
0
 62
     0
 10
39.9948
 20
2.46255
 30
0.0
 11
39.2949
 21
1.93063
 31
0.0
  0
LINE
  8
0
 62
     0
 10
39.2949
 20
1.93063
 30
0.0
 11
38.2475
 21
1.44694
 31
0.0
  0
LINE
  8
0
 62
     0
 10
38.2475
 20
1.44694
 30
0.0
 11
36.8088
 21
1.01837
 31
0.0
  0
LINE
  8
0
 62
     0
 10
36.8088
 20
1.01837
 30
0.0
 11
34.936
 21
0.651813
 31
0.0
  0
LINE
  8
0
 62
     0
 10
34.936
 20
0.651813
 30
0.0
 11
32.5865
 21
0.352778
 31
0.0
  0
LINE
  8
0
 62
     0
 10
32.5865
 20
0.352778
 30
0.0
 11
30.5814
 21
0.176389
 31
0.0
  0
LINE
  8
0
 62
     0
 10
30.5814
 20
0.176389
 30
0.0
 11
28.9705
 21
0.0895724
 31
0.0
  0
LINE
  8
0
 62
     0
 10
28.9705
 20
0.0895724
 30
0.0
 11
27.7234
 21
0.0895724
 31
0.0
  0
LINE
  8
0
 62
     0
 10
27.7234
 20
0.0895724
 30
0.0
 11
26.8111
 21
0.173633
 31
0.0
  0
LINE
  8
0
 62
     0
 10
26.8111
 20
0.173633
 30
0.0
 11
26.202
 21
0.338998
 31
0.0
  0
LINE
  8
0
 62
     0
 10
26.202
 20
0.338998
 30
0.0
 11
25.8644
 21
0.581533
 31
0.0
  0
LINE
  8
0
 62
     0
 10
25.8644
 20
0.581533
 30
0.0
 11
25.7707
 21
0.898483
 31
0.0
  0
LINE
  8
0
 62
     0
 10
25.7707
 20
0.898483
 30
0.0
 11
25.8892
 21
1.28571
 31
0.0
  0
LINE
  8
0
 62
     0
 10
25.8892
 20
1.28571
 30
0.0
 11
26.1896
 21
1.74184
 31
0.0
  0
LINE
  8
0
 62
     0
 10
26.1896
 20
1.74184
 30
0.0
 11
26.6416
 21
2.26274
 31
0.0
  0
LINE
  8
0
 62
     0
 10
26.6416
 20
2.26274
 30
0.0
 11
27.2149
 21
2.84427
 31
0.0
  0
LINE
  8
0
 62
     0
 10
27.2149
 20
2.84427
 30
0.0
 11
27.8791
 21
3.48506
 31
0.0
  0
LINE
  8
0
 62
     0
 10
27.8791
 20
3.48506
 30
0.0
 11
28.6039
 21
4.18098
 31
0.0
  0
LINE
  8
0
 62
     0
 10
28.6039
 20
4.18098
 30
0.0
 11
29.3577
 21
4.92926
 31
0.0
  0
LINE
  8
0
 62
     0
 10
29.3577
 20
4.92926
 30
0.0
 11
30.1129
 21
5.72438
 31
0.0
  0
LINE
  8
0
 62
     0
 10
30.1129
 20
5.72438
 30
0.0
 11
30.8364
 21
6.56636
 31
0.0
  0
LINE
  8
0
 62
     0
 10
30.8364
 20
6.56636
 30
0.0
 11
31.4978
 21
7.45105
 31
0.0
  0
LINE
  8
0
 62
     0
 10
31.4978
 20
7.45105
 30
0.0
 11
32.0697
 21
8.37434
 31
0.0
  0
LINE
  8
0
 62
     0
 10
32.0697
 20
8.37434
 30
0.0
 11
32.519
 21
9.33344
 31
0.0
  0
LINE
  8
0
 62
     0
 10
32.519
 20
9.33344
 30
0.0
 11
32.8166
 21
10.3256
 31
0.0
  0
LINE
  8
0
 62
     0
 10
32.8166
 20
10.3256
 30
0.0
 11
33.1129
 21
11.7119
 31
0.0
  0
LINE
  8
0
 62
     0
 10
33.1129
 20
11.7119
 30
0.0
 11
33.3871
 21
12.9977
 31
0.0
  0
LINE
  8
0
 62
     0
 10
33.3871
 20
12.9977
 30
0.0
 11
33.6283
 21
14.1869
 31
0.0
  0
LINE
  8
0
 62
     0
 10
33.6283
 20
14.1869
 30
0.0
 11
33.8184
 21
15.2811
 31
0.0
  0
LINE
  8
0
 62
     0
 10
33.8184
 20
15.2811
 30
0.0
 11
33.9466
 21
16.287
 31
0.0
  0
LINE
  8
0
 62
     0
 10
33.9466
 20
16.287
 30
0.0
 11
33.9976
 21
17.2062
 31
0.0
  0
LINE
  8
0
 62
     0
 10
33.9976
 20
17.2062
 30
0.0
 11
33.9549
 21
18.0454
 31
0.0
  0
LINE
  8
0
 62
     0
 10
33.9549
 20
18.0454
 30
0.0
 11
33.8074
 21
18.8061
 31
0.0
  0
LINE
  8
0
 62
     0
 10
33.8074
 20
18.8061
 30
0.0
 11
33.5401
 21
19.4923
 31
0.0
  0
LINE
  8
0
 62
     0
 10
33.5401
 20
19.4923
 30
0.0
 11
33.1391
 21
20.1097
 31
0.0
  0
LINE
  8
0
 62
     0
 10
33.1391
 20
20.1097
 30
0.0
 11
32.5878
 21
20.6595
 31
0.0
  0
LINE
  8
0
 62
     0
 10
32.5878
 20
20.6595
 30
0.0
 11
31.8754
 21
21.1487
 31
0.0
  0
LINE
  8
0
 62
     0
 10
31.8754
 20
21.1487
 30
0.0
 11
30.9852
 21
21.5801
 31
0.0
  0
LINE
  8
0
 62
     0
 10
30.9852
 20
21.5801
 30
0.0
 11
29.9034
 21
21.9563
 31
0.0
  0
LINE
  8
0
 62
     0
 10
29.9034
 20
21.9563
 30
0.0
 11
28.9347
 21
22.09
 31
0.0
  0
LINE
  8
0
 62
     0
 10
28.9347
 20
22.09
 30
0.0
 11
28.2112
 21
21.8681
 31
0.0
  0
LINE
  8
0
 62
     0
 10
28.2112
 20
21.8681
 30
0.0
 11
27.7027
 21
21.3431
 31
0.0
  0
LINE
  8
0
 62
     0
 10
27.7027
 20
21.3431
 30
0.0
 11
27.3761
 21
20.5645
 31
0.0
  0
LINE
  8
0
 62
     0
 10
27.3761
 20
20.5645
 30
0.0
 11
27.1997
 21
19.5833
 31
0.0
  0
LINE
  8
0
 62
     0
 10
27.1997
 20
19.5833
 30
0.0
 11
27.1405
 21
18.4492
 31
0.0
  0
LINE
  8
0
 62
     0
 10
27.1405
 20
18.4492
 30
0.0
 11
27.1666
 21
17.2131
 31
0.0
  0
LINE
  8
0
 62
     0
 10
27.1666
 20
17.2131
 30
0.0
 11
27.248
 21
15.9274
 31
0.0
  0
LINE
  8
0
 62
     0
 10
27.248
 20
15.9274
 30
0.0
 11
27.3499
 21
14.6403
 31
0.0
  0
LINE
  8
0
 62
     0
 10
27.3499
 20
14.6403
 30
0.0
 11
27.4423
 21
13.4028
 31
0.0
  0
LINE
  8
0
 62
     0
 10
27.4423
 20
13.4028
 30
0.0
 11
27.4919
 21
12.2659
 31
0.0
  0
LINE
  8
0
 62
     0
 10
27.4919
 20
12.2659
 30
0.0
 11
27.4671
 21
11.2806
 31
0.0
  0
LINE
  8
0
 62
     0
 10
27.4671
 20
11.2806
 30
0.0
 11
27.3361
 21
10.4979
 31
0.0
  0
LINE
  8
0
 62
     0
 10
27.3361
 20
10.4979
 30
0.0
 11
27.0661
 21
9.96597
 31
0.0
  0
LINE
  8
0
 62
     0
 10
27.0661
 20
9.96597
 30
0.0
 11
26.6251
 21
9.73861
 31
0.0
  0
LINE
  8
0
 62
     0
 10
26.6251
 20
9.73861
 30
0.0
 11
26.1193
 21
9.77304
 31
0.0
  0
LINE
  8
0
 62
     0
 10
26.1193
 20
9.77304
 30
0.0
 11
25.5268
 21
9.96184
 31
0.0
  0
LINE
  8
0
 62
     0
 10
25.5268
 20
9.96184
 30
0.0
 11
24.8529
 21
10.2829
 31
0.0
  0
LINE
  8
0
 62
     0
 10
24.8529
 20
10.2829
 30
0.0
 11
24.1102
 21
10.7115
 31
0.0
  0
LINE
  8
0
 62
     0
 10
24.1102
 20
10.7115
 30
0.0
 11
23.3054
 21
11.2241
 31
0.0
  0
LINE
  8
0
 62
     0
 10
23.3054
 20
11.2241
 30
0.0
 11
22.4496
 21
11.796
 31
0.0
  0
LINE
  8
0
 62
     0
 10
22.4496
 20
11.796
 30
0.0
 11
21.5497
 21
12.4051
 31
0.0
  0
LINE
  8
0
 62
     0
 10
21.5497
 20
12.4051
 30
0.0
 11
20.6155
 21
13.0252
 31
0.0
  0
LINE
  8
0
 62
     0
 10
20.6155
 20
13.0252
 30
0.0
 11
19.6564
 21
13.6357
 31
0.0
  0
LINE
  8
0
 62
     0
 10
19.6564
 20
13.6357
 30
0.0
 11
18.6821
 21
14.2103
 31
0.0
  0
LINE
  8
0
 62
     0
 10
18.6821
 20
14.2103
 30
0.0
 11
17.7009
 21
14.7257
 31
0.0
  0
LINE
  8
0
 62
     0
 10
17.7009
 20
14.7257
 30
0.0
 11
16.7211
 21
15.1584
 31
0.0
  0
LINE
  8
0
 62
     0
 10
16.7211
 20
15.1584
 30
0.0
 11
15.7523
 21
15.485
 31
0.0
  0
LINE
  8
0
 62
     0
 10
15.7523
 20
15.485
 30
0.0
 11
14.8042
 21
15.6821
 31
0.0
  0
LINE
  8
0
 62
     0
 10
14.8042
 20
15.6821
 30
0.0
 11
13.8865
 21
15.7234
 31
0.0
  0
LINE
  8
0
 62
     0
 10
13.8865
 20
15.7234
 30
0.0
 11
13.0059
 21
15.5884
 31
0.0
  0
LINE
  8
0
 62
     0
 10
13.0059
 20
15.5884
 30
0.0
 11
12.1736
 21
15.2521
 31
0.0
  0
LINE
  8
0
 62
     0
 10
12.1736
 20
15.2521
 30
0.0
 11
11.6816
 21
14.8746
 31
0.0
  0
LINE
  8
0
 62
     0
 10
11.6816
 20
14.8746
 30
0.0
 11
11.5466
 21
14.497
 31
0.0
  0
LINE
  8
0
 62
     0
 10
11.5466
 20
14.497
 30
0.0
 11
11.7285
 21
14.118
 31
0.0
  0
LINE
  8
0
 62
     0
 10
11.7285
 20
14.118
 30
0.0
 11
12.186
 21
13.7322
 31
0.0
  0
LINE
  8
0
 62
     0
 10
12.186
 20
13.7322
 30
0.0
 11
12.8791
 21
13.3394
 31
0.0
  0
LINE
  8
0
 62
     0
 10
12.8791
 20
13.3394
 30
0.0
 11
13.7638
 21
12.937
 31
0.0
  0
LINE
  8
0
 62
     0
 10
13.7638
 20
12.937
 30
0.0
 11
14.8029
 21
12.5209
 31
0.0
  0
LINE
  8
0
 62
     0
 10
14.8029
 20
12.5209
 30
0.0
 11
15.9522
 21
12.0881
 31
0.0
  0
LINE
  8
0
 62
     0
 10
15.9522
 20
12.0881
 30
0.0
 11
17.1704
 21
11.6362
 31
0.0
  0
LINE
  8
0
 62
     0
 10
17.1704
 20
11.6362
 30
0.0
 11
18.4188
 21
11.1649
 31
0.0
  0
LINE
  8
0
 62
     0
 10
18.4188
 20
11.1649
 30
0.0
 11
19.6564
 21
10.6688
 31
0.0
  0
LINE
  8
0
 62
     0
 10
19.6564
 20
10.6688
 30
0.0
 11
20.8387
 21
10.1451
 31
0.0
  0
LINE
  8
0
 62
     0
 10
20.8387
 20
10.1451
 30
0.0
 11
21.9287
 21
9.59252
 31
0.0
  0
LINE
  8
0
 62
     0
 10
21.9287
 20
9.59252
 30
0.0
 11
22.8823
 21
9.00825
 31
0.0
  0
LINE
  8
0
 62
     0
 10
22.8823
 20
9.00825
 30
0.0
 11
23.6595
 21
8.3881
 31
0.0
  0
LINE
  8
0
 62
     0
 10
23.6595
 20
8.3881
 30
0.0
 11
24.219
 21
7.73081
 31
0.0
  0
LINE
  8
0
 62
     0
 10
24.219
 20
7.73081
 30
0.0
 11
24.5194
 21
7.03351
 31
0.0
  0
LINE
  8
0
 62
     0
 10
24.5194
 20
7.03351
 30
0.0
 11
24.5208
 21
6.29348
 31
0.0
  0
LINE
  8
0
 62
     0
 10
24.5208
 20
6.29348
 30
0.0
 11
24.1818
 21
5.50803
 31
0.0
  0
LINE
  8
0
 62
     0
 10
24.1818
 20
5.50803
 30
0.0
 11
23.4611
 21
4.67431
 31
0.0
  0
LINE
  8
0
 62
     0
 10
23.4611
 20
4.67431
 30
0.0
 11
22.6646
 21
4.02389
 31
0.0
  0
LINE
  8
0
 62
     0
 10
22.6646
 20
4.02389
 30
0.0
 11
21.824
 21
3.50159
 31
0.0
  0
LINE
  8
0
 62
     0
 10
21.824
 20
3.50159
 30
0.0
 11
20.9448
 21
3.10058
 31
0.0
  0
LINE
  8
0
 62
     0
 10
20.9448
 20
3.10058
 30
0.0
 11
20.0339
 21
2.81671
 31
0.0
  0
LINE
  8
0
 62
     0
 10
20.0339
 20
2.81671
 30
0.0
 11
19.0968
 21
2.64308
 31
0.0
  0
LINE
  8
0
 62
     0
 10
19.0968
 20
2.64308
 30
0.0
 11
18.1405
 21
2.57418
 31
0.0
  0
LINE
  8
0
 62
     0
 10
18.1405
 20
2.57418
 30
0.0
 11
17.1717
 21
2.60449
 31
0.0
  0
LINE
  8
0
 62
     0
 10
17.1717
 20
2.60449
 30
0.0
 11
16.1961
 21
2.72989
 31
0.0
  0
LINE
  8
0
 62
     0
 10
16.1961
 20
2.72989
 30
0.0
 11
15.2204
 21
2.94211
 31
0.0
  0
LINE
  8
0
 62
     0
 10
15.2204
 20
2.94211
 30
0.0
 11
14.2503
 21
3.23839
 31
0.0
  0
LINE
  8
0
 62
     0
 10
14.2503
 20
3.23839
 30
0.0
 11
13.2926
 21
3.61047
 31
0.0
  0
LINE
  8
0
 62
     0
 10
13.2926
 20
3.61047
 30
0.0
 11
12.3541
 21
4.05282
 31
0.0
  0
LINE
  8
0
 62
     0
 10
12.3541
 20
4.05282
 30
0.0
 11
11.4405
 21
4.56131
 31
0.0
  0
LINE
  8
0
 62
     0
 10
11.4405
 20
4.56131
 30
0.0
 11
10.5585
 21
5.13045
 31
0.0
  0
LINE
  8
0
 62
     0
 10
10.5585
 20
5.13045
 30
0.0
 11
9.71518
 21
5.75331
 31
0.0
  0
LINE
  8
0
 62
     0
 10
9.71518
 20
5.75331
 30
0.0
 11
8.91452
 21
6.42578
 31
0.0
  0
LINE
  8
0
 62
     0
 10
8.91452
 20
6.42578
 30
0.0
 11
8.16624
 21
7.13962
 31
0.0
  0
LINE
  8
0
 62
     0
 10
8.16624
 20
7.13962
 30
0.0
 11
7.4731
 21
7.89065
 31
0.0
  0
LINE
  8
0
 62
     0
 10
7.4731
 20
7.89065
 30
0.0
 11
6.8447
 21
8.67473
 31
0.0
  0
LINE
  8
0
 62
     0
 10
6.8447
 20
8.67473
 30
0.0
 11
6.28523
 21
9.48365
 31
0.0
  0
LINE
  8
0
 62
     0
 10
6.28523
 20
9.48365
 30
0.0
 11
5.80154
 21
10.3132
 31
0.0
  0
LINE
  8
0
 62
     0
 10
5.80154
 20
10.3132
 30
0.0
 11
5.40053
 21
11.158
 31
0.0
  0
LINE
  8
0
 62
     0
 10
5.40053
 20
11.158
 30
0.0
 11
5.0891
 21
12.011
 31
0.0
  0
LINE
  8
0
 62
     0
 10
5.0891
 20
12.011
 30
0.0
 11
4.87137
 21
12.8681
 31
0.0
  0
LINE
  8
0
 62
     0
 10
4.87137
 20
12.8681
 30
0.0
 11
4.7074
 21
13.8879
 31
0.0
  0
LINE
  8
0
 62
     0
 10
4.7074
 20
13.8879
 30
0.0
 11
4.64263
 21
14.7877
 31
0.0
  0
LINE
  8
0
 62
     0
 10
4.64263
 20
14.7877
 30
0.0
 11
4.67568
 21
15.5746
 31
0.0
  0
LINE
  8
0
 62
     0
 10
4.67568
 20
15.5746
 30
0.0
 11
4.80797
 21
16.2581
 31
0.0
  0
LINE
  8
0
 62
     0
 10
4.80797
 20
16.2581
 30
0.0
 11
5.04088
 21
16.8438
 31
0.0
  0
LINE
  8
0
 62
     0
 10
5.04088
 20
16.8438
 30
0.0
 11
5.37573
 21
17.3413
 31
0.0
  0
LINE
  8
0
 62
     0
 10
5.37573
 20
17.3413
 30
0.0
 11
5.81258
 21
17.756
 31
0.0
  0
LINE
  8
0
 62
     0
 10
5.81258
 20
17.756
 30
0.0
 11
6.35138
 21
18.0964
 31
0.0
  0
LINE
  8
0
 62
     0
 10
6.35138
 20
18.0964
 30
0.0
 11
6.99491
 21
18.3706
 31
0.0
  0
LINE
  8
0
 62
     0
 10
6.99491
 20
18.3706
 30
0.0
 11
7.74181
 21
18.5856
 31
0.0
  0
LINE
  8
0
 62
     0
 10
7.74181
 20
18.5856
 30
0.0
 11
8.59483
 21
18.7496
 31
0.0
  0
LINE
  8
0
 62
     0
 10
8.59483
 20
18.7496
 30
0.0
 11
9.5553
 21
18.8695
 31
0.0
  0
LINE
  8
0
 62
     0
 10
9.5553
 20
18.8695
 30
0.0
 11
10.6219
 21
18.9536
 31
0.0
  0
LINE
  8
0
 62
     0
 10
10.6219
 20
18.9536
 30
0.0
 11
11.7974
 21
19.01
 31
0.0
  0
LINE
  8
0
 62
     0
 10
11.7974
 20
19.01
 30
0.0
 11
13.0803
 21
19.0445
 31
0.0
  0
LINE
  8
0
 62
     0
 10
13.0803
 20
19.0445
 30
0.0
 11
14.4749
 21
19.0652
 31
0.0
  0
LINE
  8
0
 62
     0
 10
14.4749
 20
19.0652
 30
0.0
 11
15.9784
 21
19.0817
 31
0.0
  0
LINE
  8
0
 62
     0
 10
15.9784
 20
19.0817
 30
0.0
 11
17.5948
 21
19.0982
 31
0.0
  0
LINE
  8
0
 62
     0
 10
17.5948
 20
19.0982
 30
0.0
 11
19.3228
 21
19.1258
 31
0.0
  0
LINE
  8
0
 62
     0
 10
19.3228
 20
19.1258
 30
0.0
 11
21.2356
 21
19.2705
 31
0.0
  0
LINE
  8
0
 62
     0
 10
21.2356
 20
19.2705
 30
0.0
 11
22.7555
 21
19.604
 31
0.0
  0
LINE
  8
0
 62
     0
 10
22.7555
 20
19.604
 30
0.0
 11
23.9159
 21
20.0959
 31
0.0
  0
LINE
  8
0
 62
     0
 10
23.9159
 20
20.0959
 30
0.0
 11
24.7468
 21
20.7188
 31
0.0
  0
LINE
  8
0
 62
     0
 10
24.7468
 20
20.7188
 30
0.0
 11
25.2801
 21
21.4423
 31
0.0
  0
LINE
  8
0
 62
     0
 10
25.2801
 20
21.4423
 30
0.0
 11
25.5461
 21
22.236
 31
0.0
  0
LINE
  8
0
 62
     0
 10
25.5461
 20
22.236
 30
0.0
 11
25.5778
 21
23.0711
 31
0.0
  0
LINE
  8
0
 62
     0
 10
25.5778
 20
23.0711
 30
0.0
 11
25.4041
 21
23.9186
 31
0.0
  0
LINE
  8
0
 62
     0
 10
25.4041
 20
23.9186
 30
0.0
 11
25.0596
 21
24.7482
 31
0.0
  0
LINE
  8
0
 62
     0
 10
25.0596
 20
24.7482
 30
0.0
 11
24.5746
 21
25.5323
 31
0.0
  0
LINE
  8
0
 62
     0
 10
24.5746
 20
25.5323
 30
0.0
 11
23.9806
 21
26.2406
 31
0.0
  0
LINE
  8
0
 62
     0
 10
23.9806
 20
26.2406
 30
0.0
 11
23.3081
 21
26.8428
 31
0.0
  0
LINE
  8
0
 62
     0
 10
23.3081
 20
26.8428
 30
0.0
 11
22.5888
 21
27.31
 31
0.0
  0
LINE
  8
0
 62
     0
 10
22.5888
 20
27.31
 30
0.0
 11
21.8543
 21
27.6131
 31
0.0
  0
LINE
  8
0
 62
     0
 10
21.8543
 20
27.6131
 30
0.0
 11
21.1364
 21
27.722
 31
0.0
  0
LINE
  8
0
 62
     0
 10
21.1364
 20
27.722
 30
0.0
 11
20.4652
 21
27.6076
 31
0.0
  0
LINE
  8
0
 62
     0
 10
20.4652
 20
27.6076
 30
0.0
 11
19.5819
 21
27.281
 31
0.0
  0
LINE
  8
0
 62
     0
 10
19.5819
 20
27.281
 30
0.0
 11
18.6986
 21
26.9517
 31
0.0
  0
LINE
  8
0
 62
     0
 10
18.6986
 20
26.9517
 30
0.0
 11
17.8167
 21
26.6182
 31
0.0
  0
LINE
  8
0
 62
     0
 10
17.8167
 20
26.6182
 30
0.0
 11
16.9361
 21
26.2806
 31
0.0
  0
LINE
  8
0
 62
     0
 10
16.9361
 20
26.2806
 30
0.0
 11
16.0583
 21
25.936
 31
0.0
  0
LINE
  8
0
 62
     0
 10
16.0583
 20
25.936
 30
0.0
 11
15.1846
 21
25.5833
 31
0.0
  0
LINE
  8
0
 62
     0
 10
15.1846
 20
25.5833
 30
0.0
 11
14.3151
 21
25.2209
 31
0.0
  0
LINE
  8
0
 62
     0
 10
14.3151
 20
25.2209
 30
0.0
 11
13.451
 21
24.846
 31
0.0
  0
LINE
  8
0
 62
     0
 10
13.451
 20
24.846
 30
0.0
 11
12.5911
 21
24.4574
 31
0.0
  0
LINE
  8
0
 62
     0
 10
12.5911
 20
24.4574
 30
0.0
 11
11.7381
 21
24.0412
 31
0.0
  0
LINE
  8
0
 62
     0
 10
11.7381
 20
24.0412
 30
0.0
 11
10.8259
 21
23.57
 31
0.0
  0
LINE
  8
0
 62
     0
 10
10.8259
 20
23.57
 30
0.0
 11
9.8709
 21
23.0656
 31
0.0
  0
LINE
  8
0
 62
     0
 10
9.8709
 20
23.0656
 30
0.0
 11
8.88697
 21
22.5516
 31
0.0
  0
LINE
  8
0
 62
     0
 10
8.88697
 20
22.5516
 30
0.0
 11
7.88928
 21
22.0514
 31
0.0
  0
LINE
  8
0
 62
     0
 10
7.88928
 20
22.0514
 30
0.0
 11
6.8888
 21
21.5883
 31
0.0
  0
LINE
  8
0
 62
     0
 10
6.8888
 20
21.5883
 30
0.0
 11
5.90352
 21
21.186
 31
0.0
  0
LINE
  8
0
 62
     0
 10
5.90352
 20
21.186
 30
0.0
 11
4.94439
 21
20.8649
 31
0.0
  0
LINE
  8
0
 62
     0
 10
4.94439
 20
20.8649
 30
0.0
 11
4.02802
 21
20.6513
 31
0.0
  0
LINE
  8
0
 62
     0
 10
4.02802
 20
20.6513
 30
0.0
 11
3.16811
 21
20.5686
 31
0.0
  0
LINE
  8
0
 62
     0
 10
3.16811
 20
20.5686
 30
0.0
 11
2.37712
 21
20.6375
 31
0.0
  0
LINE
  8
0
 62
     0
 10
2.37712
 20
20.6375
 30
0.0
 11
1.67156
 21
20.8828
 31
0.0
  0
LINE
  8
0
 62
     0
 10
1.67156
 20
20.8828
 30
0.0
 11
1.06522
 21
21.3265
 31
0.0
  0
LINE
  8
0
 62
     0
 10
1.06522
 20
21.3265
 30
0.0
 11
0.571885
 21
21.9935
 31
0.0
  0
LINE
  8
0
 62
     0
 10
0.571885
 20
21.9935
 30
0.0
 11
0.179145
 21
22.9168
 31
0.0
  0
LINE
  8
0
 62
     0
 10
0.179145
 20
22.9168
 30
0.0
 11
0
 21
23.8456
 31
0.0
  0
LINE
  8
0
 62
     0
 10
0
 20
23.8456
 30
0.0
 11
0.0137804
 21
24.7675
 31
0.0
  0
LINE
  8
0
 62
     0
 10
0.0137804
 20
24.7675
 30
0.0
 11
0.202572
 21
25.6701
 31
0.0
  0
LINE
  8
0
 62
     0
 10
0.202572
 20
25.6701
 30
0.0
 11
0.547081
 21
26.5383
 31
0.0
  0
LINE
  8
0
 62
     0
 10
0.547081
 20
26.5383
 30
0.0
 11
1.02802
 21
27.3623
 31
0.0
  0
LINE
  8
0
 62
     0
 10
1.02802
 20
27.3623
 30
0.0
 11
1.62609
 21
28.1285
 31
0.0
  0
LINE
  8
0
 62
     0
 10
1.62609
 20
28.1285
 30
0.0
 11
2.32337
 21
28.823
 31
0.0
  0
LINE
  8
0
 62
     0
 10
2.32337
 20
28.823
 30
0.0
 11
3.10058
 21
29.4349
 31
0.0
  0
LINE
  8
0
 62
     0
 10
3.10058
 20
29.4349
 30
0.0
 11
3.93845
 21
29.9516
 31
0.0
  0
LINE
  8
0
 62
     0
 10
3.93845
 20
29.9516
 30
0.0
 11
4.81764
 21
30.3596
 31
0.0
  0
LINE
  8
0
 62
     0
 10
4.81764
 20
30.3596
 30
0.0
 11
5.72022
 21
30.6448
 31
0.0
  0
LINE
  8
0
 62
     0
 10
5.72022
 20
30.6448
 30
0.0
 11
6.56498
 21
30.6614
 31
0.0
  0
LINE
  8
0
 62
     0
 10
6.56498
 20
30.6614
 30
0.0
 11
7.47998
 21
30.4285
 31
0.0
  0
LINE
  8
0
 62
     0
 10
7.47998
 20
30.4285
 30
0.0
 11
8.41844
 21
30.106
 31
0.0
  0
LINE
  8
0
 62
     0
 10
8.41844
 20
30.106
 30
0.0
 11
9.32931
 21
29.8566
 31
0.0
  0
LINE
  8
0
 62
     0
 10
9.32931
 20
29.8566
 30
0.0
 11
10.1617
 21
29.8387
 31
0.0
  0
LINE
  8
0
 62
     0
 10
10.1617
 20
29.8387
 30
0.0
 11
10.8672
 21
30.2121
 31
0.0
  0
LINE
  8
0
 62
     0
 10
10.8672
 20
30.2121
 30
0.0
 11
11.3964
 21
31.1409
 31
0.0
  0
LINE
  8
0
 62
     0
 10
11.3964
 20
31.1409
 30
0.0
 11
11.5273
 21
32.0449
 31
0.0
  0
LINE
  8
0
 62
     0
 10
11.5273
 20
32.0449
 30
0.0
 11
11.3054
 21
32.8166
 31
0.0
  0
LINE
  8
0
 62
     0
 10
11.3054
 20
32.8166
 30
0.0
 11
10.7969
 21
33.4739
 31
0.0
  0
LINE
  8
0
 62
     0
 10
10.7969
 20
33.4739
 30
0.0
 11
10.0666
 21
34.0362
 31
0.0
  0
LINE
  8
0
 62
     0
 10
10.0666
 20
34.0362
 30
0.0
 11
9.1791
 21
34.524
 31
0.0
  0
LINE
  8
0
 62
     0
 10
9.1791
 20
34.524
 30
0.0
 11
8.20208
 21
34.9553
 31
0.0
  0
LINE
  8
0
 62
     0
 10
8.20208
 20
34.9553
 30
0.0
 11
7.19889
 21
35.3508
 31
0.0
  0
LINE
  8
0
 62
     0
 10
7.19889
 20
35.3508
 30
0.0
 11
6.23425
 21
35.7297
 31
0.0
  0
LINE
  8
0
 62
     0
 10
6.23425
 20
35.7297
 30
0.0
 11
5.37711
 21
36.1114
 31
0.0
  0
LINE
  8
0
 62
     0
 10
5.37711
 20
36.1114
 30
0.0
 11
4.69773
 21
36.4409
 31
0.0
  0
LINE
  8
0
 62
     0
 10
4.69773
 20
36.4409
 30
0.0
 11
4.02248
 21
36.7785
 31
0.0
  0
LINE
  8
0
 62
     0
 10
4.02248
 20
36.7785
 30
0.0
 11
3.37619
 21
37.1602
 31
0.0
  0
LINE
  8
0
 62
     0
 10
3.37619
 20
37.1602
 30
0.0
 11
2.78639
 21
37.6206
 31
0.0
  0
LINE
  8
0
 62
     0
 10
2.78639
 20
37.6206
 30
0.0
 11
2.21451
 21
38.2901
 31
0.0
  0
LINE
  8
0
 62
     0
 10
2.21451
 20
38.2901
 30
0.0
 11
1.80523
 21
39.0715
 31
0.0
  0
LINE
  8
0
 62
     0
 10
1.80523
 20
39.0715
 30
0.0
 11
1.56821
 21
39.9217
 31
0.0
  0
LINE
  8
0
 62
     0
 10
1.56821
 20
39.9217
 30
0.0
 11
1.51033
 21
40.8037
 31
0.0
  0
LINE
  8
0
 62
     0
 10
1.51033
 20
40.8037
 30
0.0
 11
1.63573
 21
41.6761
 31
0.0
  0
LINE
  8
0
 62
     0
 10
1.63573
 20
41.6761
 30
0.0
 11
1.95268
 21
42.4988
 31
0.0
  0
LINE
  8
0
 62
     0
 10
1.95268
 20
42.4988
 30
0.0
 11
2.45429
 21
43.2223
 31
0.0
  0
LINE
  8
0
 62
     0
 10
2.45429
 20
43.2223
 30
0.0
 11
3.1061
 21
43.8161
 31
0.0
  0
LINE
  8
0
 62
     0
 10
3.1061
 20
43.8161
 30
0.0
 11
3.86814
 21
44.2627
 31
0.0
  0
LINE
  8
0
 62
     0
 10
3.86814
 20
44.2627
 30
0.0
 11
4.70461
 21
44.5452
 31
0.0
  0
LINE
  8
0
 62
     0
 10
4.70461
 20
44.5452
 30
0.0
 11
5.57967
 21
44.6458
 31
0.0
  0
LINE
  8
0
 62
     0
 10
5.57967
 20
44.6458
 30
0.0
 11
6.45612
 21
44.5491
 31
0.0
  0
LINE
  8
0
 62
     0
 10
6.45612
 20
44.5491
 30
0.0
 11
7.34219
 21
44.2376
 31
0.0
  0
LINE
  8
0
 62
     0
 10
7.34219
 20
44.2376
 30
0.0
 11
8.13456
 21
43.7653
 31
0.0
  0
LINE
  8
0
 62
     0
 10
8.13456
 20
43.7653
 30
0.0
 11
8.85112
 21
43.1631
 31
0.0
  0
LINE
  8
0
 62
     0
 10
8.85112
 20
43.1631
 30
0.0
 11
9.51121
 21
42.4656
 31
0.0
  0
LINE
  8
0
 62
     0
 10
9.51121
 20
42.4656
 30
0.0
 11
10.1341
 21
41.705
 31
0.0
  0
LINE
  8
0
 62
     0
 10
10.1341
 20
41.705
 30
0.0
 11
10.7377
 21
40.9141
 31
0.0
  0
LINE
  8
0
 62
     0
 10
10.7377
 20
40.9141
 30
0.0
 11
11.3399
 21
40.1256
 31
0.0
  0
LINE
  8
0
 62
     0
 10
11.3399
 20
40.1256
 30
0.0
 11
11.9614
 21
39.3746
 31
0.0
  0
LINE
  8
0
 62
     0
 10
11.9614
 20
39.3746
 30
0.0
 11
12.8516
 21
38.3385
 31
0.0
  0
LINE
  8
0
 62
     0
 10
12.8516
 20
38.3385
 30
0.0
 11
13.4993
 21
37.549
 31
0.0
  0
LINE
  8
0
 62
     0
 10
13.4993
 20
37.549
 30
0.0
 11
13.9829
 21
36.9506
 31
0.0
  0
LINE
  8
0
 62
     0
 10
13.9829
 20
36.9506
 30
0.0
 11
14.3839
 21
36.4822
 31
0.0
  0
LINE
  8
0
 62
     0
 10
14.3839
 20
36.4822
 30
0.0
 11
14.7822
 21
36.0867
 31
0.0
  0
LINE
  8
0
 62
     0
 10
14.7822
 20
36.0867
 30
0.0
 11
15.2549
 21
35.7078
 31
0.0
  0
LINE
  8
0
 62
     0
 10
15.2549
 20
35.7078
 30
0.0
 11
15.8846
 21
35.2848
 31
0.0
  0
LINE
  8
0
 62
     0
 10
15.8846
 20
35.2848
 30
0.0
 11
16.7473
 21
34.761
 31
0.0
  0
LINE
  8
0
 62
     0
 10
16.7473
 20
34.761
 30
0.0
 11
17.9255
 21
34.0775
 31
0.0
  0
LINE
  8
0
 62
     0
 10
17.9255
 20
34.0775
 30
0.0
 11
18.6021
 21
33.7234
 31
0.0
  0
LINE
  8
0
 62
     0
 10
18.6021
 20
33.7234
 30
0.0
 11
19.4386
 21
33.3664
 31
0.0
  0
LINE
  8
0
 62
     0
 10
19.4386
 20
33.3664
 30
0.0
 11
20.3936
 21
33.0536
 31
0.0
  0
LINE
  8
0
 62
     0
 10
20.3936
 20
33.0536
 30
0.0
 11
21.4299
 21
32.8318
 31
0.0
  0
LINE
  8
0
 62
     0
 10
21.4299
 20
32.8318
 30
0.0
 11
22.5075
 21
32.7504
 31
0.0
  0
LINE
  8
0
 62
     0
 10
22.5075
 20
32.7504
 30
0.0
 11
23.5879
 21
32.8552
 31
0.0
  0
LINE
  8
0
 62
     0
 10
23.5879
 20
32.8552
 30
0.0
 11
24.2631
 21
33.004
 31
0.0
  0
LINE
  8
0
 62
     0
 10
24.2631
 20
33.004
 30
0.0
 11
24.9811
 21
33.2121
 31
0.0
  0
LINE
  8
0
 62
     0
 10
24.9811
 20
33.2121
 30
0.0
 11
25.7018
 21
33.5029
 31
0.0
  0
LINE
  8
0
 62
     0
 10
25.7018
 20
33.5029
 30
0.0
 11
26.3908
 21
33.9039
 31
0.0
  0
LINE
  8
0
 62
     0
 10
26.3908
 20
33.9039
 30
0.0
 11
27.0095
 21
34.4399
 31
0.0
  0
LINE
  8
0
 62
     0
 10
27.0095
 20
34.4399
 30
0.0
 11
27.5208
 21
35.1359
 31
0.0
  0
LINE
  8
0
 62
     0
 10
27.5208
 20
35.1359
 30
0.0
 11
27.8874
 21
36.0179
 31
0.0
  0
LINE
  8
0
 62
     0
 10
27.8874
 20
36.0179
 30
0.0
 11
28.0734
 21
37.1105
 31
0.0
  0
LINE
  8
0
 62
     0
 10
28.0734
 20
37.1105
 30
0.0
 11
28.0403
 21
38.439
 31
0.0
  0
LINE
  8
0
 62
     0
 10
28.0403
 20
38.439
 30
0.0
 11
27.7523
 21
40.0308
 31
0.0
  0
ENDSEC
  0
EOF
