<?xml version="1.0" encoding="utf-8" ?>
<svg baseProfile="tiny" height="251.6627" version="1.2" width="278.8906" xmlns="http://www.w3.org/2000/svg" xmlns:ev="http://www.w3.org/2001/xml-events" xmlns:inkscape="http://www.inkscape.org/namespaces/inkscape" xmlns:xlink="http://www.w3.org/1999/xlink">
  <defs/>
  <g fill="none" id="layer1" inkscape:groupmode="layer" inkscape:label="1" stroke="black" style="display:inline">
    <path d="M104.89060185185184,100.70464699074074 L103.254068287037,96.24977430555555 L101.09999999999997,93.60983217592593 L98.51919560185183,92.52183449074073 L95.6024537037037,92.72279513888884 L92.44057291666667,93.94972800925922 L89.12435185185183,95.93964699074064 L85.74458912037034,98.42956597222212 L82.39208333333329,101.15649884259244 L79.15763310185179,103.85745949074055 L76.13203703703692,106.26946180555535 L73.40609374999991,108.12951967592568 L71.07060185185185,109.17464699074077 L68.12532407407406,109.17103587962964 L65.46171296296296,107.81909143518521 L63.00810185185185,105.53714699074072 L60.69282407407405,102.74353587962958 L58.44421296296292,99.85659143518512 L56.19060185185185,97.29464699074077 L53.74815287225999,94.99406390036177 L51.210193688586514,92.79773736974954 L48.61223450491309,90.66665865254834 L45.989785525321224,88.56181900240256 L43.37835695389265,86.44420967295645 L40.813458994708924,84.27482191785441 L38.33060185185184,82.0146469907408 L36.837820786763075,80.56577580275717 L35.06847167433705,78.7331449424932 L33.16066102344945,76.54234385009448 L31.25249534297609,74.01896196570664 L29.482081141792662,71.18858872947544 L27.987524928774917,68.07681358154645 L26.90693321279855,64.70922596206532 L26.378412502739366,61.11141531117772 L26.54006930747306,57.308971069029326 L27.530010135875443,53.32748267576579 L29.48634149682215,49.192539571532734 L32.54716989918899,44.929731196475814 L36.85060185185182,40.56464699074081 L41.343677653601105,36.96251142222769 L45.58704500053989,34.29960325896241 L49.57405666234746,32.51259888578454 L53.29806540870317,31.538174687533854 L56.752424009286244,31.313007049049872 L59.93048523377604,31.773772355172355 L62.82560185185184,32.85714699074089 L65.43112663319295,34.49980734059511 L67.74041234747864,36.63842978957473 L69.74681176438827,39.20969072251938 L71.44367765360107,42.150266524268716 L72.82436278479639,45.396833579662314 L73.88221992765358,48.88606827353988 L74.61060185185181,52.55464699074082 L75.21359185185179,57.7231969907408 L75.52252185185182,62.712646990740836 L75.64533185185184,67.4446969907408 L75.68996185185182,71.84104699074078 L75.76435185185181,75.82339699074078 L75.97644185185186,79.31344699074077 L76.43417185185183,82.23289699074076 L77.24548185185188,84.50344699074071 L78.51831185185188,86.04679699074069 L80.36060185185181,86.78464699074084 L82.72375685871054,86.24571694958854 L84.97621227709186,84.18505851337454 L87.07245370370373,80.96686921296305 L88.96696673525383,76.9553465792182 L90.61423696845003,72.51468814300415 L91.96875000000011,68.00909143518521 L92.984991426612,63.80275398662553 L93.61744684499342,60.259873328189315 L93.82060185185179,57.74464699074082 L93.31324185185179,54.77456699074082 L92.03932185185175,52.04160699074083 L90.2450818518517,49.487686990740826 L88.17676185185161,47.05472699074079 L86.08060185185178,44.684646990740816 L83.88446180555547,41.92928240740747 L81.7631481481481,38.8608969907408 L79.7648206018518,35.55105324074083 L77.93763888888884,32.07131365740747 L76.32976273148142,28.49324074074076 L74.98935185185178,24.888396990740773 L73.9645659722222,21.328344907407427 L73.30356481481476,17.884646990740748 L73.05450810185181,14.628865740740707 L73.26555555555558,11.632563657407388 L73.9848668981482,8.967303240740677 L75.26060185185179,6.704646990740827 L77.32181712962955,4.827395833333412 L80.24699074074067,3.266637731481552 L83.85841435185182,2.0163657407408095 L87.97837962962961,1.0705729166667197 L92.42917824074073,0.42325231481484593 L97.03310185185188,0.06839699074077998 L101.61244212962964,0.0 L105.98949074074079,0.2120543981481262 L109.98653935185195,0.6985532407406936 L113.42587962962978,1.4534895833332655 L116.12980324074096,2.470856481481377 L117.92060185185181,3.7446469907408186 L118.8760315393518,5.208279803240828 L119.79841435185182,7.445584490740799 L120.64064091435182,10.376170428240783 L121.35560185185176,13.919646990740773 L121.89618778935176,17.995623553240762 L122.21528935185177,22.523709490740714 L122.26579716435174,27.42351417824068 L122.0006018518518,32.61464699074082 L121.50162615740737,36.35009259259266 L120.66629629629625,40.40321180555566 L119.60950810185182,44.6566782407408 L118.44615740740738,48.99316550925931 L117.29114004629628,53.29534722222229 L116.25935185185182,57.445896990740835 L115.46568865740738,61.32748842592599 L115.0250462962963,64.82279513888898 L115.05232060185187,67.81449074074084 L115.66240740740744,70.18524884259267 L116.97020254629638,71.81774305555564 L119.09060185185177,72.59464699074084 L123.42865740740734,72.57385995370379 L126.39837962962952,71.44501736111118 L128.32310185185167,69.46839699074081 L129.5261574074072,66.90427662037047 L130.33087962962935,64.01293402777787 L131.0606018518518,61.05464699074082 L131.86626157407403,57.492598379629726 L132.35754629629622,53.90409143518525 L132.5709143518518,50.293084490740796 L132.54282407407402,46.663535879629706 L132.30973379629626,43.01940393518527 L131.90810185185182,39.36464699074082 L131.37438657407404,35.70322337962972 L130.74504629629627,32.03909143518524 L130.05653935185188,28.37620949074079 L129.34532407407409,24.718535879629712 L128.64785879629636,21.070028935185235 L128.0006018518518,17.434646990740816 L127.8676318518518,16.04306699074084 L127.92924185185183,14.152406990740815 L128.3272118518518,11.9397869907408 L129.20332185185185,9.582326990740796 L130.69935185185187,7.257146990740807 L132.95708185185185,5.141366990740806 L136.1182918518519,3.412106990740824 L140.32476185185192,2.246486990740806 L145.71827185185197,1.8216269907408105 L152.4406018518518,2.314646990740812 L157.24900564193928,3.3498255621693716 L161.11660768275556,4.959749031557152 L164.13699398013165,7.0738561744142885 L166.40375053989845,9.62158576625103 L168.01046336788676,12.53237658257757 L169.05071846992757,15.735667398904127 L169.6181018518518,19.160896990740866 L169.80619951949024,22.737504133598065 L169.70859747867394,26.39492760298583 L169.4188817352337,30.06260617441444 L169.03063829500047,33.66997862339406 L168.63745316380516,37.146483725434905 L168.3329123474786,40.4215602560472 L168.21060185185178,43.424646990740825 L167.82624422600657,47.22915487954623 L166.81474910955274,51.31509026647336 L165.38848314411325,55.548343459561295 L163.75981297131085,59.79480476684904 L162.14110523276838,63.92036449637567 L160.74472657010875,67.7909129561803 L159.7830436249547,71.27234045430203 L159.4684230389292,74.23053729877984 L160.01323145365495,76.53139379765281 L161.6298355107549,78.04080025896008 L164.53060185185177,78.62464699074081 L169.78634259259252,78.51723958333338 L172.74319444444438,77.79872106481491 L174.0606018518518,76.29464699074083 L174.3980092592592,73.83057291666682 L174.41486111111107,70.2320543981483 L174.77060185185178,65.3246469907408 L175.05887345679002,63.018940543552844 L175.40344135802462,60.155291709533685 L175.81393518518507,56.82390625000005 L176.2999845679011,53.11498992626889 L176.87121913580228,49.1187484996571 L177.53726851851826,44.92538773148152 L178.30776234567873,40.625113383059045 L179.19233024691317,36.30813121570651 L180.2006018518518,32.06464699074081 L181.08785836762684,28.397911736968524 L181.96383916323725,24.812987182784696 L182.96986111111102,21.442795138888982 L184.24724108367616,18.42025741598087 L185.9372959533606,15.878295824760016 L188.1813425925924,13.94983217592602 L191.1206978737995,12.767788280178422 L194.89667866940982,12.465085948216853 L199.65060185185177,13.174646990740825 L201.95669995891467,14.321258022696838 L203.35744899209192,16.342344934970413 L203.97829572524887,19.116259040404998 L203.9446869322507,22.521351651844043 L203.38206938696266,26.435974082131054 L202.41588986325007,30.73847764410948 L201.17159513497813,35.30721365062283 L199.77463197601213,40.020533414514546 L198.3504471602173,44.75678824862814 L197.02448746145888,49.39432946580706 L195.9221996536022,53.81150837889476 L195.1690305105124,57.88667630073479 L194.89042680605485,61.49818454417061 L195.21183531409474,64.52438442204567 L196.25870280849733,66.84362724720341 L198.1564760631279,68.33426433248735 L201.03060185185177,68.87464699074081 L205.6643884784483,68.178944511402 L209.19527502991338,66.24654781718709 L211.85027878648742,63.42406847834411 L213.85641702841082,60.05811806512094 L215.44070703592405,56.49530814776557 L216.83016608926738,53.0822502965259 L218.2518114686814,50.16555608164987 L219.93266045440652,48.09183707338536 L222.09973032668307,47.20770484198039 L224.98003836575145,47.85977095768288 L228.8006018518518,50.394646990740796 L232.11839699074068,53.38102430555563 L234.1637962962962,55.85149884259266 L235.0823206018518,57.95058449074082 L235.01949074074065,59.82279513888892 L234.1208275462962,61.61264467592599 L232.53185185185174,63.46464699074079 L230.3980844907406,65.52331597222224 L227.86504629629616,67.93316550925925 L225.07825810185165,70.83870949074071 L222.1832407407406,74.38446180555553 L219.32551504629606,78.71493634259252 L216.65060185185183,83.97464699074078 L213.92090856481485,88.60772569444447 L210.91388888888883,91.26677662037042 L207.7976331018519,92.40902199074077 L204.74023148148154,92.49168402777781 L201.90977430555563,91.97198495370378 L199.47435185185196,91.30714699074082 L197.60205439814825,90.95439236111116 L196.46097222222238,91.37094328703716 L196.2191956018521,93.01402199074084 L197.04481481481508,96.34085069444455 L199.10592013888925,101.80865162037054 L202.57060185185185,109.87464699074076 L205.13949673448775,115.0282583043433 L207.52159470795328,118.56475633612638 L209.73054207637432,120.63079511728984 L211.7799851438769,121.37302867903355 L213.68357021458695,120.93811105255736 L215.4549435926304,119.47269626906126 L217.10775158213318,117.12343835974502 L218.65564048722132,114.0369913558086 L220.11225661202087,110.36000928845186 L221.49124626065765,106.23914618887471 L222.8062557372577,101.82105608827698 L224.07093134594703,97.25239301785854 L225.2989193908515,92.67981100881934 L226.50386617609712,88.24996409235928 L227.69941800580983,84.10950629967812 L228.89922118411567,80.40509166197586 L230.11692201514057,77.28337421045234 L231.36616680301046,74.89100797630749 L232.66060185185182,73.37464699074076 L234.75341435185186,73.3740219907408 L237.9206018518517,74.72714699074083 L240.80278935185157,76.90152199074089 L242.04060185185182,79.36464699074077 L241.12057269733288,81.96269363797109 L238.93547065651654,83.71269363797109 L236.1806310063708,85.1784370782043 L233.55138902386346,86.92371404613425 L231.74307998596254,89.51231462922459 L231.45103916963598,93.50802891493879 L233.37060185185186,99.47464699074078 L235.8422034143519,104.1801157407408 L237.73091435185182,106.16589699074075 L239.29759403935185,105.98980324074074 L240.80310185185186,104.20964699074074 L242.50829716435186,101.38324074074069 L244.67403935185183,98.06839699074067 L247.56118778935178,94.82292824074062 L251.4306018518518,92.2046469907408 L254.52224537037029,91.40567129629636 L257.78124999999994,91.72200810185194 L261.0862268518518,92.98605324074083 L264.31578703703707,95.03020254629638 L267.3485416666667,97.68685185185194 L270.06310185185197,100.78839699074081 L272.33807870370384,104.16723379629633 L274.05208333333354,107.65575810185192 L275.0837268518521,111.0863657407408 L275.3116203703707,114.29145254629634 L274.6143750000005,117.10341435185188 L272.87060185185186,119.35464699074078 L270.7061366666666,120.42383513888893 L267.9759470370371,120.68415217592599 L264.7868418518519,120.31072699074076 L261.24563000000006,119.47868847222225 L257.4591203703704,118.36316550925932 L253.53412185185192,117.13928699074074 L249.5774433333334,115.98218180555557 L245.6958937037038,115.06697884259262 L241.99628185185196,114.56880699074071 L238.58541666666684,114.66279513888884 L235.5701070370373,115.52407217592588 L233.05716185185207,117.32776699074071 L231.15339000000034,120.24900847222216 L229.96560037037074,124.46292550925915 L229.60060185185188,130.1446469907408 L229.86676935298982,136.63345445546543 L230.4688767721978,141.3062309688928 L231.40310071393645,144.37558463298024 L232.66561778266652,146.0541235496848 L234.25260458284862,146.55445582096382 L236.16023771894328,146.08918954877447 L238.38469379541112,144.87093283507397 L240.92214941671278,143.11229378181957 L243.768781187309,141.0258804909684 L246.9207657116604,138.8243010644777 L250.3742795942274,136.7201636043048 L254.12549943947096,134.92607621240677 L258.1706018518519,133.6546469907408 L263.162021851852,132.67086699074076 L267.29316185185195,132.1828069907408 L270.64334185185197,132.22238699074074 L273.291881851852,132.82152699074072 L275.3181018518521,134.0121469907407 L276.80132185185215,135.82616699074066 L277.82086185185227,138.29550699074065 L278.45604185185226,141.4520869907406 L278.7861818518524,145.32782699074056 L278.89060185185195,149.9546469907408 L278.6484344993142,155.2687759344994 L277.92067043895753,160.0550859482168 L276.7654166666668,164.28946180555556 L275.2407801783266,167.94778828017832 L273.40486796982185,171.0059501457476 L271.3157870370372,173.43983217592591 L269.0316443758575,175.22531914437576 L266.6105469821676,176.33829582475983 L264.110601851852,176.7546469907408 L262.4097811111113,176.5367981018519 L260.3573692592594,175.849989212963 L257.992441851852,174.74632699074078 L255.35407444444462,173.27791810185192 L252.48134259259274,171.49686921296302 L249.4133218518519,169.45528699074077 L246.18908777777784,167.2052781018519 L242.8477159259259,164.79894921296295 L239.42828185185186,162.28840699074073 L235.96986111111102,159.7257581018518 L232.51152925925913,157.16310921296287 L229.09236185185176,154.65256699074064 L225.75143444444421,152.2462381018517 L222.52782259259237,149.99622921296276 L219.460601851852,147.9546469907408 L216.568883101852,146.1187094907408 L213.59935185185208,144.41214699074078 L210.51544560185215,142.97933449074077 L207.28060185185205,141.9646469907408 L205.5645387517149,141.29032600308648 L203.4728377914954,140.23081983024696 L201.16023148148167,139.21131365740746 L198.78145233196176,138.65699266975315 L196.49123285322378,138.99304205246915 L194.44430555555573,140.6446469907408 L192.79540294924567,144.0369926697531 L191.6992575445817,149.59526427469137 L191.31060185185203,157.74464699074076 L191.7552447089949,163.13737658257747 L192.9967243008316,167.11138168461832 L194.9349385865459,169.84895821523054 L197.4697855253214,171.53240209278158 L200.5011630763418,172.34400923563874 L203.92896919879075,172.4660755621694 L207.653101851852,172.08089699074083 L211.57345899470903,171.37076943972045 L215.58993858654577,170.51798882747556 L219.60243858654582,169.70485107237351 L223.51085695389264,169.1136520927817 L227.21509164777018,168.92668780706748 L230.61504062736202,169.32625413359813 L233.61060185185198,170.49464699074076 L237.00355451901947,172.7184411304853 L240.1350496354733,175.24219019134182 L242.97222469182185,178.0053532266536 L245.48221717867392,180.9473892897641 L247.63216458663777,184.00775743401653 L249.38920440632222,187.12591671275436 L250.72047412833564,190.24132617932088 L251.59311124328684,193.29344488705942 L251.97425324178408,196.22173188931345 L251.83103761443618,198.96564623942618 L251.13060185185196,201.46464699074073 L249.38267182269743,204.61703766129466 L247.06430447575866,207.32091521231501 L244.28220535039412,209.61633795283979 L241.14307998596263,211.54336419190673 L237.75363392182265,213.1420522385539 L234.22057269733278,214.45246040181905 L230.65060185185195,215.51464699074074 L226.68453703703716,216.07663773148147 L223.6254166666667,215.4605729166667 L221.14185185185187,213.8583969907408 L218.90245370370354,211.46205439814827 L216.57583333333304,208.4634895833335 L213.8306018518519,205.05464699074076 L212.24484185185185,202.60529699074078 L211.09732185185186,199.74824699074077 L210.1686818518519,196.68599699074076 L209.23956185185187,193.62104699074075 L208.0906018518519,190.75589699074072 L206.50244185185187,188.29304699074072 L204.25572185185194,186.43499699074067 L201.13108185185195,185.38424699074062 L196.90916185185193,185.3432969907406 L191.37060185185192,186.51464699074074 L184.7122620081019,188.79521339699073 L180.17700810185192,191.0248032407407 L177.41198857060192,193.2040024594907 L176.064351851852,195.3333969907407 L175.78124638310203,197.41357277199063 L176.20982060185207,199.44511574074062 L176.99722294560212,201.4286118344906 L177.79060185185193,203.36464699074077 L179.34331322211432,205.4753466991956 L182.10249689558373,207.47146914817517 L185.54687007342625,209.40619218024517 L189.1551499568082,211.3326936379711 L192.40605374689562,213.30415136391866 L194.77829864485477,215.37374320065334 L195.7506018518519,217.59464699074078 L195.57144733290147,220.98103183039092 L194.79001876147288,224.25633795283989 L193.4775114728431,227.38050704904975 L191.70512080228917,230.31348080998265 L189.54404208508794,233.0152009266007 L187.06547065651648,235.4456090898659 L184.3406018518519,237.56464699074075 L181.44156395097724,239.37683357966205 L178.40993129791605,240.9400988857845 L175.27106832415518,242.29450121814602 L172.05033946118147,243.4800988857845 L168.77310914048178,244.5369501977379 L165.4647417935431,245.50511346304404 L162.1506018518519,246.42464699074077 L159.63269169560192,242.59519386574078 L158.2954456018519,239.6183969907408 L157.9460901331019,237.17785011574074 L158.39185185185187,234.95714699074074 L159.43995732060188,232.63988136574073 L160.89763310185185,229.90964699074073 L162.57210575810183,226.4500376157407 L164.2706018518519,221.94464699074075 L165.01567473814924,219.44963241348125 L165.60016453406757,217.0469793522568 L166.0679779451463,214.50455952718391 L166.46302167692465,211.59024465837928 L166.8292024349421,208.0719064659595 L167.21042692473793,203.7174166700412 L167.6506018518519,198.29464699074077 L167.70012174211251,193.85322037894377 L167.12157578875178,189.92175261488347 L165.9543055555556,186.50946180555565 L164.23765260631006,183.62556605795618 L162.01095850480118,181.27928347908107 L159.31356481481492,179.4798321759261 L156.18481310013732,178.23643025548716 L152.6640449245544,177.5582958247602 L148.79060185185187,177.4546469907408 L145.85355451901944,178.11511280591736 L143.59223971811787,179.69969582620286 L141.92321642735902,182.07135623191283 L140.76304362495483,185.0930542033629 L140.0282802891171,188.6277499208685 L139.63548539805782,192.53840356474524 L139.50121792998868,196.68797531530873 L139.54203686312172,200.93942535287448 L139.6745011756687,205.15571385775803 L139.81516984584158,209.19980101027488 L139.88060185185185,212.93464699074082 L140.25852165645188,215.28185032882345 L141.2833374512819,217.73331175768567 L142.79163380788685,220.26498486983712 L144.61999529781156,222.85282325778746 L146.60500649260092,225.47278051404635 L148.58325196379974,228.1008102311235 L150.39131628295303,230.7128660015286 L151.86578402160558,233.2849014177712 L152.84323975130235,235.7928700723611 L153.16026804358813,238.21272555780786 L152.65345347000783,240.5204214666212 L151.15938060210635,242.69191139131084 L148.5146340114286,244.70314892438637 L144.5557982695194,246.53008765835744 L139.11945794792365,248.14868118573384 L132.04219761818626,249.53488309902514 L123.16060185185182,250.66464699074083 L115.58184810185185,251.33438824074085 L109.4940718518518,251.6626769907408 L104.78250060185184,251.6616107407408 L101.33236185185183,251.3432869907408 L99.02888310185182,250.71980324074082 L97.75729185185185,249.8032569907408 L97.40281560185184,248.60574574074076 L97.85068185185185,247.13936699074077 L98.98611810185184,245.4162182407407 L100.69435185185182,243.44839699074072 L102.86061060185182,241.24800074074068 L105.37012185185182,238.82712699074062 L108.10811310185187,236.1978732407406 L110.95981185185184,233.37233699074056 L113.81044560185182,230.36261574074052 L116.54524185185181,227.1808069907405 L119.04942810185184,223.83900824074044 L121.20823185185185,220.34931699074042 L122.90688060185181,216.72383074074037 L124.03060185185183,212.97464699074084 L125.14926074398011,207.73242760298575 L126.18946482561273,202.8730143376796 L127.09755520462147,198.38156025604695 L127.81987298887805,194.2432184193123 L128.30275928625412,190.44314188870004 L128.49255520462145,186.96648372543478 L128.33560185185178,183.7983969907409 L127.77824033581675,180.92403474584296 L126.76681176438814,178.3285500519654 L125.24765724543767,175.9970959703328 L123.16711788683705,173.9148255621696 L120.47153479645806,172.06689188870018 L117.1072490821723,170.4384480111492 L113.02060185185184,169.01464699074086 L109.35813962962965,168.51051662037048 L106.62597074074074,169.34667069444458 L104.70292185185184,171.3319269907409 L103.46781962962962,174.2751032870372 L102.79949074074074,177.98501736111126 L102.57676185185187,182.27048699074095 L102.67845962962963,186.9403299537039 L102.9834107407408,191.803364027778 L103.37044185185187,196.668406990741 L103.71837962962968,201.3442766203707 L103.9060507407408,205.6397906944448 L103.81228185185194,209.36376699074117 L103.31589962962971,212.32502328703748 L102.29573074074085,214.33237736111164 L100.63060185185185,215.19464699074086 L98.72097840385675,215.06398140962955 L96.47728208796013,214.34717701313042 L93.93374453453049,213.1340811450254 L91.12459737393613,211.51454114909626 L88.08407223654552,209.5784043691247 L84.8464007527271,207.41551814889272 L81.44581455284924,205.11572983218196 L77.91654526728036,202.76888676277423 L74.29282452638887,200.46483628445145 L70.60888396054315,198.2934257409953 L66.89895520011163,196.34450247618764 L63.19726987546278,194.70791383381027 L59.53805961696497,193.47350715764503 L55.955556054986516,192.73112979147362 L52.48399081989601,192.57062907907795 L49.1575955420617,193.08185236423975 L46.010601851851845,194.3546469907409 L44.14954060185187,195.78172324074092 L43.64081185185182,197.2077569907409 L44.329098101851855,198.6429557407409 L46.05908185185183,200.0975269907409 L48.675445601851834,201.58167824074093 L52.022871851851846,203.10561699074088 L55.94604310185184,204.67955074074092 L60.289641851851854,206.3136869907409 L64.89835060185186,208.01823324074093 L69.61685185185183,209.80339699074096 L74.28982810185187,211.67938574074094 L78.76196185185182,213.65640699074095 L82.87793560185185,215.74466824074096 L86.48243185185186,217.95437699074097 L89.42013310185183,220.295740740741 L91.53572185185186,222.77896699074103 L92.6738806018518,225.41426324074104 L92.67929185185181,228.21183699074106 L91.3966381018518,231.18189574074103 L88.67060185185181,234.3346469907409 L85.66184317129625,236.79252821180575 L82.48407407407404,238.76790509259274 L79.1613049768518,240.28212745949094 L75.71754629629623,241.35654513888903 L72.17680844907403,242.01250795717607 L68.5631018518518,242.27136574074092 L64.90043692129626,242.1544683159724 L61.212824074074035,241.68316550925942 L57.52427372685179,240.87880714699088 L53.85879629629625,239.7627430555557 L50.240402199074026,238.35632306134272 L46.69310185185179,236.68089699074085 L43.240905671296275,234.75781467013894 L39.90782407407403,232.60842592592599 L36.717867476851836,230.2540805844908 L33.695046296296255,227.71612847222224 L30.863370949074067,225.01591941550925 L28.24685185185183,222.1748032407407 L25.869499421296325,219.2141297743055 L23.755324074074053,216.15524884259247 L21.928336226851854,213.0195102719906 L20.412546296296284,209.82826388888873 L19.231964699074126,206.60285951967575 L18.410601851851823,203.36464699074094 L17.793774325973402,199.51113044313922 L17.546507960614008,196.11036502543988 L17.672048126818993,193.13360602266982 L18.17364019563371,190.552108719856 L19.054529538103452,188.33712840202537 L20.317961525273574,186.459920354205 L21.967181528189485,184.8917398614218 L24.005434917896423,183.60384220870276 L26.435967065439797,182.5674826810748 L29.26202334186496,181.75391656356499 L32.48684911821721,181.13439914120016 L36.113689765541835,180.68018569900744 L40.14579065488431,180.36253152201368 L44.58639715728992,180.15269189524594 L49.438754643803975,180.02192210373113 L54.70610848547187,179.9414774324963 L60.39170405333891,179.88261316656832 L66.49878671845045,179.81658459097417 L73.03060185185183,179.71464699074096 L80.26000126591435,179.16739113136595 L86.00735966435184,177.90722511574097 L90.3914172815393,176.04530128761598 L93.53091435185183,173.69277199074094 L95.54459110966428,170.96078956886595 L96.55118778935179,167.96050636574097 L96.66944462528926,164.80307472511595 L96.01810185185172,161.59964699074095 L94.71589970341421,158.46137550636598 L92.88157841435168,155.499412615741 L90.63387821903916,152.824910662616 L88.09153935185162,150.54902199074098 L85.37330204716409,148.78289894386597 L82.59790653935153,147.63769386574097 L79.88409306278902,147.22455910011598 L77.35060185185182,147.65464699074096 L74.01035493827158,148.89238361625536 L70.67158950617278,150.13653999485615 L67.33726851851844,151.39353587962984 L64.01035493827152,152.66979102366275 L60.69381172839496,153.97172518004135 L57.39060185185173,155.305758101852 L54.10368827160477,156.67830954218118 L50.836033950617036,158.09579925411532 L47.59060185185183,159.56464699074098 L44.36322575855735,161.13528839015788 L40.918327799373685,162.91732920648445 L37.309610598207485,164.82308722397715 L33.590776778965505,166.76488022689261 L29.81552896555445,168.65502599948735 L26.03756978188096,170.405842326018 L22.3106018518518,171.92964699074105 L18.688327799373667,173.1387577779131 L15.224450248353264,173.94549247179066 L11.972671822697293,174.26216885663035 L8.986695146312456,174.0011047166887 L6.320222843105455,173.07461783622227 L4.026957536982991,171.3950259994876 L2.1606018518518226,168.87464699074098 L0.6786516203703172,165.38365740740767 L0.0,161.87256365740762 L0.052945601851831725,158.389178240741 L0.7657870370370006,154.98131365740767 L2.066822916666638,151.69678240740768 L3.884351851851818,148.583396990741 L6.1466724537036725,145.68896990740768 L8.782083333333333,143.0613136574077 L11.718883101851816,140.74824074074104 L14.88537037037031,138.79756365740775 L18.209843749999948,137.25709490740775 L21.620601851851802,136.174646990741 L24.810835088003387,136.11461783622207 L28.273079985962568,136.99604640765062 L31.818940044271642,138.21263532893346 L35.26001876147279,139.1580872239772 L38.40791963610832,139.2261047166886 L41.07424616672057,137.81039043097434 L43.07060185185179,134.304646990741 L43.56548525377224,130.88496249142685 L42.72818758573385,127.97013395919095 L40.80578703703702,125.48649884259288 L38.04536179698215,123.3603945901923 L34.69399005486963,121.51815865054897 L30.998749999999973,119.88612847222248 L27.206719821673516,118.39064150377254 L23.564977709190714,116.9580351937588 L20.32060185185179,115.51464699074097 L17.753101851851795,114.27245949074097 L15.200601851851786,112.99464699074099 L12.760601851851789,111.55183449074099 L10.53060185185177,109.81464699074098 L8.367407407407313,107.2806655092595 L6.825046296296193,104.32946180555581 L5.92935185185172,101.11214699074094 L5.706157407407261,97.77983217592612 L6.181296296296125,94.48362847222239 L7.380601851851793,91.37464699074098 L9.278148148148091,88.63946180555581 L11.737638888888853,86.39649884259285 L14.619351851851775,84.70964699074102 L17.783564814814724,83.6427951388892 L21.09055555555551,83.25983217592625 L24.400601851851775,83.62464699074098 L27.750387008101768,84.800623553241 L30.744508101851807,86.58808449074098 L33.45386357060181,88.862576678241 L35.949351851851816,91.49964699074098 L38.3018713831018,94.374842303241 L40.58232060185185,97.36370949074103 L42.861597945601886,100.34179542824108 L45.21060185185178,103.18464699074099 L48.57254972565153,107.10050432956132 L51.01877743484221,110.08113533093302 L52.84986111111107,112.34612847222246 L54.36637688614536,114.11507223079587 L55.868900891632336,115.60755508401945 L57.658009259259245,117.04316550925955 L60.03427812071334,118.6414919838823 L63.29828360768181,120.62212298525407 L67.7506018518518,123.20464699074097 L70.30939814814809,124.54131365740767 L73.46763888888887,125.89131365740764 L77.07810185185184,127.07464699074103 L80.99356481481482,127.91131365740767 L85.06680555555562,128.22131365740773 L89.15060185185177,127.82464699074097 L91.70542185185178,127.26022699074093 L94.41636185185178,126.47488699074086 L97.1431418518518,125.37250699074082 L99.74548185185176,123.85696699074077 L102.08310185185172,121.83214699074074 L104.01572185185171,119.20192699074073 L105.4030618518517,115.8701869907407 L106.10484185185163,111.74080699074074 L105.98078185185159,106.71766699074072 L104.89060185185184,100.70464699074074"/>
  </g>
</svg>
