  0
SECTION
  2
HEADER
  9
$ACADVER
  1
AC1009
  9
$FILLMODE
 70
 0
  9
$SPLFRAME
 70
 1
  9
$EXTMIN
 10
0
 20
0
 30
0.0
  9
$EXTMAX
 10
1058.33
 20
1058.33
 30
0.0
  0
ENDSEC
  0
SECTION
  2
TABLES
  0
TABLE
  2
LAYER
 70
1
  0
LAYER
  2
0
 70
     0
 62
     7
  6
CONTINUOUS
  0
ENDTAB
  0
ENDSEC
  0
SECTION
  2
ENTITIES
  0
LINE
  8
0
 62
     0
 10
20.056
 20
51.7204
 30
0.0
 11
21.2673
 21
51.9726
 31
0.0
  0
LINE
  8
0
 62
     0
 10
21.2673
 20
51.9726
 30
0.0
 11
22.462
 21
52.1794
 31
0.0
  0
LINE
  8
0
 62
     0
 10
22.462
 20
52.1794
 30
0.0
 11
23.6402
 21
52.3406
 31
0.0
  0
LINE
  8
0
 62
     0
 10
23.6402
 20
52.3406
 30
0.0
 11
24.8019
 21
52.4591
 31
0.0
  0
LINE
  8
0
 62
     0
 10
24.8019
 20
52.4591
 30
0.0
 11
25.9457
 21
52.5321
 31
0.0
  0
LINE
  8
0
 62
     0
 10
25.9457
 20
52.5321
 30
0.0
 11
27.0716
 21
52.5639
 31
0.0
  0
LINE
  8
0
 62
     0
 10
27.0716
 20
52.5639
 30
0.0
 11
28.1795
 21
52.5544
 31
0.0
  0
LINE
  8
0
 62
     0
 10
28.1795
 20
52.5544
 30
0.0
 11
29.2681
 21
52.5018
 31
0.0
  0
LINE
  8
0
 62
     0
 10
29.2681
 20
52.5018
 30
0.0
 11
30.3375
 21
52.4108
 31
0.0
  0
LINE
  8
0
 62
     0
 10
30.3375
 20
52.4108
 30
0.0
 11
31.3862
 21
52.2799
 31
0.0
  0
LINE
  8
0
 62
     0
 10
31.3862
 20
52.2799
 30
0.0
 11
32.4156
 21
52.112
 31
0.0
  0
LINE
  8
0
 62
     0
 10
32.4156
 20
52.112
 30
0.0
 11
33.4243
 21
51.9053
 31
0.0
  0
LINE
  8
0
 62
     0
 10
33.4243
 20
51.9053
 30
0.0
 11
34.411
 21
51.6625
 31
0.0
  0
LINE
  8
0
 62
     0
 10
34.411
 20
51.6625
 30
0.0
 11
35.3755
 21
51.3828
 31
0.0
  0
LINE
  8
0
 62
     0
 10
35.3755
 20
51.3828
 30
0.0
 11
36.3195
 21
51.0688
 31
0.0
  0
LINE
  8
0
 62
     0
 10
36.3195
 20
51.0688
 30
0.0
 11
37.2389
 21
50.7213
 31
0.0
  0
LINE
  8
0
 62
     0
 10
37.2389
 20
50.7213
 30
0.0
 11
38.136
 21
50.3396
 31
0.0
  0
LINE
  8
0
 62
     0
 10
38.136
 20
50.3396
 30
0.0
 11
39.0095
 21
49.9251
 31
0.0
  0
LINE
  8
0
 62
     0
 10
39.0095
 20
49.9251
 30
0.0
 11
39.8582
 21
49.4799
 31
0.0
  0
LINE
  8
0
 62
     0
 10
39.8582
 20
49.4799
 30
0.0
 11
40.6837
 21
49.003
 31
0.0
  0
LINE
  8
0
 62
     0
 10
40.6837
 20
49.003
 30
0.0
 11
41.4831
 21
48.496
 31
0.0
  0
LINE
  8
0
 62
     0
 10
41.4831
 20
48.496
 30
0.0
 11
42.2575
 21
47.9598
 31
0.0
  0
LINE
  8
0
 62
     0
 10
42.2575
 20
47.9598
 30
0.0
 11
43.0043
 21
47.3964
 31
0.0
  0
LINE
  8
0
 62
     0
 10
43.0043
 20
47.3964
 30
0.0
 11
43.7265
 21
46.8051
 31
0.0
  0
LINE
  8
0
 62
     0
 10
43.7265
 20
46.8051
 30
0.0
 11
44.4211
 21
46.1864
 31
0.0
  0
LINE
  8
0
 62
     0
 10
44.4211
 20
46.1864
 30
0.0
 11
45.0882
 21
45.5415
 31
0.0
  0
LINE
  8
0
 62
     0
 10
45.0882
 20
45.5415
 30
0.0
 11
45.7274
 21
44.873
 31
0.0
  0
LINE
  8
0
 62
     0
 10
45.7274
 20
44.873
 30
0.0
 11
46.3381
 21
44.1798
 31
0.0
  0
LINE
  8
0
 62
     0
 10
46.3381
 20
44.1798
 30
0.0
 11
46.9194
 21
43.4619
 31
0.0
  0
LINE
  8
0
 62
     0
 10
46.9194
 20
43.4619
 30
0.0
 11
47.4719
 21
42.7232
 31
0.0
  0
LINE
  8
0
 62
     0
 10
47.4719
 20
42.7232
 30
0.0
 11
47.9958
 21
41.9626
 31
0.0
  0
LINE
  8
0
 62
     0
 10
47.9958
 20
41.9626
 30
0.0
 11
48.4875
 21
41.1798
 31
0.0
  0
LINE
  8
0
 62
     0
 10
48.4875
 20
41.1798
 30
0.0
 11
48.9493
 21
40.3793
 31
0.0
  0
LINE
  8
0
 62
     0
 10
48.9493
 20
40.3793
 30
0.0
 11
49.3794
 21
39.558
 31
0.0
  0
LINE
  8
0
 62
     0
 10
49.3794
 20
39.558
 30
0.0
 11
49.7787
 21
38.7188
 31
0.0
  0
LINE
  8
0
 62
     0
 10
49.7787
 20
38.7188
 30
0.0
 11
50.1456
 21
37.8615
 31
0.0
  0
LINE
  8
0
 62
     0
 10
50.1456
 20
37.8615
 30
0.0
 11
50.479
 21
36.988
 31
0.0
  0
LINE
  8
0
 62
     0
 10
50.479
 20
36.988
 30
0.0
 11
50.7792
 21
36.099
 31
0.0
  0
LINE
  8
0
 62
     0
 10
50.7792
 20
36.099
 30
0.0
 11
51.0466
 21
35.1951
 31
0.0
  0
LINE
  8
0
 62
     0
 10
51.0466
 20
35.1951
 30
0.0
 11
51.2794
 21
34.2773
 31
0.0
  0
LINE
  8
0
 62
     0
 10
51.2794
 20
34.2773
 30
0.0
 11
51.478
 21
33.3458
 31
0.0
  0
LINE
  8
0
 62
     0
 10
51.478
 20
33.3458
 30
0.0
 11
51.6421
 21
32.4005
 31
0.0
  0
LINE
  8
0
 62
     0
 10
51.6421
 20
32.4005
 30
0.0
 11
51.7701
 21
31.4454
 31
0.0
  0
LINE
  8
0
 62
     0
 10
51.7701
 20
31.4454
 30
0.0
 11
51.8626
 21
30.4781
 31
0.0
  0
LINE
  8
0
 62
     0
 10
51.8626
 20
30.4781
 30
0.0
 11
51.9176
 21
29.5024
 31
0.0
  0
LINE
  8
0
 62
     0
 10
51.9176
 20
29.5024
 30
0.0
 11
51.9356
 21
28.5171
 31
0.0
  0
LINE
  8
0
 62
     0
 10
51.9356
 20
28.5171
 30
0.0
 11
51.9342
 21
27.1694
 31
0.0
  0
LINE
  8
0
 62
     0
 10
51.9342
 20
27.1694
 30
0.0
 11
51.9285
 21
25.8851
 31
0.0
  0
LINE
  8
0
 62
     0
 10
51.9285
 20
25.8851
 30
0.0
 11
51.9148
 21
24.6614
 31
0.0
  0
LINE
  8
0
 62
     0
 10
51.9148
 20
24.6614
 30
0.0
 11
51.8915
 21
23.4956
 31
0.0
  0
LINE
  8
0
 62
     0
 10
51.8915
 20
23.4956
 30
0.0
 11
51.8555
 21
22.3862
 31
0.0
  0
LINE
  8
0
 62
     0
 10
51.8555
 20
22.3862
 30
0.0
 11
51.8047
 21
21.3293
 31
0.0
  0
LINE
  8
0
 62
     0
 10
51.8047
 20
21.3293
 30
0.0
 11
51.737
 21
20.3247
 31
0.0
  0
LINE
  8
0
 62
     0
 10
51.737
 20
20.3247
 30
0.0
 11
51.6502
 21
19.3669
 31
0.0
  0
LINE
  8
0
 62
     0
 10
51.6502
 20
19.3669
 30
0.0
 11
51.5426
 21
18.4547
 31
0.0
  0
LINE
  8
0
 62
     0
 10
51.5426
 20
18.4547
 30
0.0
 11
51.4092
 21
17.5865
 31
0.0
  0
LINE
  8
0
 62
     0
 10
51.4092
 20
17.5865
 30
0.0
 11
51.2491
 21
16.7583
 31
0.0
  0
LINE
  8
0
 62
     0
 10
51.2491
 20
16.7583
 30
0.0
 11
51.0604
 21
15.9687
 31
0.0
  0
LINE
  8
0
 62
     0
 10
51.0604
 20
15.9687
 30
0.0
 11
50.8385
 21
15.2149
 31
0.0
  0
LINE
  8
0
 62
     0
 10
50.8385
 20
15.2149
 30
0.0
 11
50.5837
 21
14.4942
 31
0.0
  0
LINE
  8
0
 62
     0
 10
50.5837
 20
14.4942
 30
0.0
 11
50.2931
 21
13.8038
 31
0.0
  0
LINE
  8
0
 62
     0
 10
50.2931
 20
13.8038
 30
0.0
 11
49.9607
 21
13.1423
 31
0.0
  0
LINE
  8
0
 62
     0
 10
49.9607
 20
13.1423
 30
0.0
 11
49.5886
 21
12.5071
 31
0.0
  0
LINE
  8
0
 62
     0
 10
49.5886
 20
12.5071
 30
0.0
 11
49.1726
 21
11.8938
 31
0.0
  0
LINE
  8
0
 62
     0
 10
49.1726
 20
11.8938
 30
0.0
 11
48.7109
 21
11.3013
 31
0.0
  0
LINE
  8
0
 62
     0
 10
48.7109
 20
11.3013
 30
0.0
 11
48.1997
 21
10.728
 31
0.0
  0
LINE
  8
0
 62
     0
 10
48.1997
 20
10.728
 30
0.0
 11
47.6359
 21
10.1699
 31
0.0
  0
LINE
  8
0
 62
     0
 10
47.6359
 20
10.1699
 30
0.0
 11
47.02
 21
9.62561
 31
0.0
  0
LINE
  8
0
 62
     0
 10
47.02
 20
9.62561
 30
0.0
 11
46.3476
 21
9.09091
 31
0.0
  0
LINE
  8
0
 62
     0
 10
46.3476
 20
9.09091
 30
0.0
 11
45.6159
 21
8.5659
 31
0.0
  0
LINE
  8
0
 62
     0
 10
45.6159
 20
8.5659
 30
0.0
 11
44.8236
 21
8.04637
 31
0.0
  0
LINE
  8
0
 62
     0
 10
44.8236
 20
8.04637
 30
0.0
 11
43.9678
 21
7.52962
 31
0.0
  0
LINE
  8
0
 62
     0
 10
43.9678
 20
7.52962
 30
0.0
 11
43.047
 21
7.01283
 31
0.0
  0
LINE
  8
0
 62
     0
 10
43.047
 20
7.01283
 30
0.0
 11
42.0564
 21
6.49609
 31
0.0
  0
LINE
  8
0
 62
     0
 10
42.0564
 20
6.49609
 30
0.0
 11
40.9952
 21
5.9738
 31
0.0
  0
LINE
  8
0
 62
     0
 10
40.9952
 20
5.9738
 30
0.0
 11
39.8611
 21
5.44463
 31
0.0
  0
LINE
  8
0
 62
     0
 10
39.8611
 20
5.44463
 30
0.0
 11
38.6514
 21
4.90721
 31
0.0
  0
LINE
  8
0
 62
     0
 10
38.6514
 20
4.90721
 30
0.0
 11
37.3641
 21
4.35737
 31
0.0
  0
LINE
  8
0
 62
     0
 10
37.3641
 20
4.35737
 30
0.0
 11
35.9943
 21
3.79374
 31
0.0
  0
LINE
  8
0
 62
     0
 10
35.9943
 20
3.79374
 30
0.0
 11
34.8864
 21
3.35828
 31
0.0
  0
LINE
  8
0
 62
     0
 10
34.8864
 20
3.35828
 30
0.0
 11
33.7757
 21
2.949
 31
0.0
  0
LINE
  8
0
 62
     0
 10
33.7757
 20
2.949
 30
0.0
 11
32.665
 21
2.56728
 31
0.0
  0
LINE
  8
0
 62
     0
 10
32.665
 20
2.56728
 30
0.0
 11
31.5557
 21
2.21313
 31
0.0
  0
LINE
  8
0
 62
     0
 10
31.5557
 20
2.21313
 30
0.0
 11
30.4464
 21
1.88654
 31
0.0
  0
LINE
  8
0
 62
     0
 10
30.4464
 20
1.88654
 30
0.0
 11
29.3412
 21
1.5875
 31
0.0
  0
LINE
  8
0
 62
     0
 10
29.3412
 20
1.5875
 30
0.0
 11
28.2401
 21
1.31741
 31
0.0
  0
LINE
  8
0
 62
     0
 10
28.2401
 20
1.31741
 30
0.0
 11
27.1432
 21
1.07487
 31
0.0
  0
LINE
  8
0
 62
     0
 10
27.1432
 20
1.07487
 30
0.0
 11
26.0532
 21
0.862651
 31
0.0
  0
LINE
  8
0
 62
     0
 10
26.0532
 20
0.862651
 30
0.0
 11
24.9701
 21
0.679372
 31
0.0
  0
LINE
  8
0
 62
     0
 10
24.9701
 20
0.679372
 30
0.0
 11
23.8938
 21
0.525032
 31
0.0
  0
LINE
  8
0
 62
     0
 10
23.8938
 20
0.525032
 30
0.0
 11
22.8286
 21
0.40101
 31
0.0
  0
LINE
  8
0
 62
     0
 10
22.8286
 20
0.40101
 30
0.0
 11
21.773
 21
0.307303
 31
0.0
  0
LINE
  8
0
 62
     0
 10
21.773
 20
0.307303
 30
0.0
 11
20.7298
 21
0.243913
 31
0.0
  0
LINE
  8
0
 62
     0
 10
20.7298
 20
0.243913
 30
0.0
 11
19.6977
 21
0.21084
 31
0.0
  0
LINE
  8
0
 62
     0
 10
19.6977
 20
0.21084
 30
0.0
 11
18.6793
 21
0.209462
 31
0.0
  0
LINE
  8
0
 62
     0
 10
18.6793
 20
0.209462
 30
0.0
 11
17.6775
 21
0.238401
 31
0.0
  0
LINE
  8
0
 62
     0
 10
17.6775
 20
0.238401
 30
0.0
 11
16.6894
 21
0.300412
 31
0.0
  0
LINE
  8
0
 62
     0
 10
16.6894
 20
0.300412
 30
0.0
 11
15.7193
 21
0.39412
 31
0.0
  0
LINE
  8
0
 62
     0
 10
15.7193
 20
0.39412
 30
0.0
 11
14.7671
 21
0.519522
 31
0.0
  0
LINE
  8
0
 62
     0
 10
14.7671
 20
0.519522
 30
0.0
 11
13.8327
 21
0.676617
 31
0.0
  0
LINE
  8
0
 62
     0
 10
13.8327
 20
0.676617
 30
0.0
 11
12.9191
 21
0.868165
 31
0.0
  0
LINE
  8
0
 62
     0
 10
12.9191
 20
0.868165
 30
0.0
 11
12.0275
 21
1.09141
 31
0.0
  0
LINE
  8
0
 62
     0
 10
12.0275
 20
1.09141
 30
0.0
 11
11.158
 21
1.3491
 31
0.0
  0
LINE
  8
0
 62
     0
 10
11.158
 20
1.3491
 30
0.0
 11
10.3105
 21
1.63987
 31
0.0
  0
LINE
  8
0
 62
     0
 10
10.3105
 20
1.63987
 30
0.0
 11
9.48916
 21
1.96508
 31
0.0
  0
LINE
  8
0
 62
     0
 10
9.48916
 20
1.96508
 30
0.0
 11
8.69128
 21
2.32475
 31
0.0
  0
LINE
  8
0
 62
     0
 10
8.69128
 20
2.32475
 30
0.0
 11
7.92233
 21
2.71749
 31
0.0
  0
LINE
  8
0
 62
     0
 10
7.92233
 20
2.71749
 30
0.0
 11
7.17959
 21
3.14744
 31
0.0
  0
LINE
  8
0
 62
     0
 10
7.17959
 20
3.14744
 30
0.0
 11
6.46575
 21
3.61047
 31
0.0
  0
LINE
  8
0
 62
     0
 10
6.46575
 20
3.61047
 30
0.0
 11
5.78224
 21
4.11067
 31
0.0
  0
LINE
  8
0
 62
     0
 10
5.78224
 20
4.11067
 30
0.0
 11
5.12907
 21
4.64675
 31
0.0
  0
LINE
  8
0
 62
     0
 10
5.12907
 20
4.64675
 30
0.0
 11
4.50755
 21
5.21727
 31
0.0
  0
LINE
  8
0
 62
     0
 10
4.50755
 20
5.21727
 30
0.0
 11
3.91915
 21
5.82634
 31
0.0
  0
LINE
  8
0
 62
     0
 10
3.91915
 20
5.82634
 30
0.0
 11
3.36517
 21
6.46987
 31
0.0
  0
LINE
  8
0
 62
     0
 10
3.36517
 20
6.46987
 30
0.0
 11
2.84703
 21
7.152
 31
0.0
  0
LINE
  8
0
 62
     0
 10
2.84703
 20
7.152
 30
0.0
 11
2.36472
 21
7.87135
 31
0.0
  0
LINE
  8
0
 62
     0
 10
2.36472
 20
7.87135
 30
0.0
 11
1.91961
 21
8.62789
 31
0.0
  0
LINE
  8
0
 62
     0
 10
1.91961
 20
8.62789
 30
0.0
 11
1.51309
 21
9.42164
 31
0.0
  0
LINE
  8
0
 62
     0
 10
1.51309
 20
9.42164
 30
0.0
 11
1.14653
 21
10.254
 31
0.0
  0
LINE
  8
0
 62
     0
 10
1.14653
 20
10.254
 30
0.0
 11
0.819933
 21
11.1263
 31
0.0
  0
LINE
  8
0
 62
     0
 10
0.819933
 20
11.1263
 30
0.0
 11
0.536056
 21
12.0358
 31
0.0
  0
LINE
  8
0
 62
     0
 10
0.536056
 20
12.0358
 30
0.0
 11
0.248047
 21
13.2374
 31
0.0
  0
LINE
  8
0
 62
     0
 10
0.248047
 20
13.2374
 30
0.0
 11
0.071658
 21
14.4019
 31
0.0
  0
LINE
  8
0
 62
     0
 10
0.071658
 20
14.4019
 30
0.0
 11
0
 21
15.5305
 31
0.0
  0
LINE
  8
0
 62
     0
 10
0
 20
15.5305
 30
0.0
 11
0.0261827
 21
16.6274
 31
0.0
  0
LINE
  8
0
 62
     0
 10
0.0261827
 20
16.6274
 30
0.0
 11
0.143316
 21
17.6912
 31
0.0
  0
LINE
  8
0
 62
     0
 10
0.143316
 20
17.6912
 30
0.0
 11
0.34451
 21
18.7248
 31
0.0
  0
LINE
  8
0
 62
     0
 10
0.34451
 20
18.7248
 30
0.0
 11
0.622875
 21
19.7294
 31
0.0
  0
LINE
  8
0
 62
     0
 10
0.622875
 20
19.7294
 30
0.0
 11
0.972894
 21
20.7078
 31
0.0
  0
LINE
  8
0
 62
     0
 10
0.972894
 20
20.7078
 30
0.0
 11
1.38631
 21
21.6586
 31
0.0
  0
LINE
  8
0
 62
     0
 10
1.38631
 20
21.6586
 30
0.0
 11
1.85622
 21
22.586
 31
0.0
  0
LINE
  8
0
 62
     0
 10
1.85622
 20
22.586
 30
0.0
 11
2.37712
 21
23.4914
 31
0.0
  0
LINE
  8
0
 62
     0
 10
2.37712
 20
23.4914
 30
0.0
 11
2.94073
 21
24.3761
 31
0.0
  0
LINE
  8
0
 62
     0
 10
2.94073
 20
24.3761
 30
0.0
 11
3.54157
 21
25.2402
 31
0.0
  0
LINE
  8
0
 62
     0
 10
3.54157
 20
25.2402
 30
0.0
 11
4.17269
 21
26.0863
 31
0.0
  0
LINE
  8
0
 62
     0
 10
4.17269
 20
26.0863
 30
0.0
 11
4.82727
 21
26.9172
 31
0.0
  0
LINE
  8
0
 62
     0
 10
4.82727
 20
26.9172
 30
0.0
 11
5.49698
 21
27.7316
 31
0.0
  0
LINE
  8
0
 62
     0
 10
5.49698
 20
27.7316
 30
0.0
 11
6.17636
 21
28.5337
 31
0.0
  0
LINE
  8
0
 62
     0
 10
6.17636
 20
28.5337
 30
0.0
 11
6.85849
 21
29.3233
 31
0.0
  0
LINE
  8
0
 62
     0
 10
6.85849
 20
29.3233
 30
0.0
 11
7.5365
 21
30.1032
 31
0.0
  0
LINE
  8
0
 62
     0
 10
7.5365
 20
30.1032
 30
0.0
 11
8.20483
 21
30.8749
 31
0.0
  0
LINE
  8
0
 62
     0
 10
8.20483
 20
30.8749
 30
0.0
 11
8.85391
 21
31.6384
 31
0.0
  0
LINE
  8
0
 62
     0
 10
8.85391
 20
31.6384
 30
0.0
 11
9.47953
 21
32.3963
 31
0.0
  0
LINE
  8
0
 62
     0
 10
9.47953
 20
32.3963
 30
0.0
 11
10.0735
 21
33.1515
 31
0.0
  0
LINE
  8
0
 62
     0
 10
10.0735
 20
33.1515
 30
0.0
 11
10.6302
 21
33.9025
 31
0.0
  0
LINE
  8
0
 62
     0
 10
10.6302
 20
33.9025
 30
0.0
 11
11.1414
 21
34.6535
 31
0.0
  0
LINE
  8
0
 62
     0
 10
11.1414
 20
34.6535
 30
0.0
 11
11.6017
 21
35.4044
 31
0.0
  0
LINE
  8
0
 62
     0
 10
11.6017
 20
35.4044
 30
0.0
 11
12.0027
 21
36.1583
 31
0.0
  0
LINE
  8
0
 62
     0
 10
12.0027
 20
36.1583
 30
0.0
 11
12.339
 21
36.9164
 31
0.0
  0
LINE
  8
0
 62
     0
 10
12.339
 20
36.9164
 30
0.0
 11
12.6036
 21
37.6784
 31
0.0
  0
LINE
  8
0
 62
     0
 10
12.6036
 20
37.6784
 30
0.0
 11
12.7896
 21
38.4471
 31
0.0
  0
LINE
  8
0
 62
     0
 10
12.7896
 20
38.4471
 30
0.0
 11
12.8888
 21
39.2257
 31
0.0
  0
LINE
  8
0
 62
     0
 10
12.8888
 20
39.2257
 30
0.0
 11
12.8971
 21
40.0128
 31
0.0
  0
LINE
  8
0
 62
     0
 10
12.8971
 20
40.0128
 30
0.0
 11
12.7703
 21
41.1593
 31
0.0
  0
LINE
  8
0
 62
     0
 10
12.7703
 20
41.1593
 30
0.0
 11
12.5291
 21
42.1887
 31
0.0
  0
LINE
  8
0
 62
     0
 10
12.5291
 20
42.1887
 30
0.0
 11
12.2011
 21
43.1077
 31
0.0
  0
LINE
  8
0
 62
     0
 10
12.2011
 20
43.1077
 30
0.0
 11
11.8098
 21
43.9304
 31
0.0
  0
LINE
  8
0
 62
     0
 10
11.8098
 20
43.9304
 30
0.0
 11
11.3812
 21
44.661
 31
0.0
  0
LINE
  8
0
 62
     0
 10
11.3812
 20
44.661
 30
0.0
 11
10.9402
 21
45.3125
 31
0.0
  0
LINE
  8
0
 62
     0
 10
10.9402
 20
45.3125
 30
0.0
 11
10.5117
 21
45.8914
 31
0.0
  0
LINE
  8
0
 62
     0
 10
10.5117
 20
45.8914
 30
0.0
 11
10.1231
 21
46.4097
 31
0.0
  0
LINE
  8
0
 62
     0
 10
10.1231
 20
46.4097
 30
0.0
 11
9.79646
 21
46.8753
 31
0.0
  0
LINE
  8
0
 62
     0
 10
9.79646
 20
46.8753
 30
0.0
 11
9.55947
 21
47.2969
 31
0.0
  0
LINE
  8
0
 62
     0
 10
9.55947
 20
47.2969
 30
0.0
 11
9.43681
 21
47.6843
 31
0.0
  0
LINE
  8
0
 62
     0
 10
9.43681
 20
47.6843
 30
0.0
 11
9.45473
 21
48.0466
 31
0.0
  0
LINE
  8
0
 62
     0
 10
9.45473
 20
48.0466
 30
0.0
 11
9.63524
 21
48.3941
 31
0.0
  0
LINE
  8
0
 62
     0
 10
9.63524
 20
48.3941
 30
0.0
 11
10.0073
 21
48.7345
 31
0.0
  0
LINE
  8
0
 62
     0
 10
10.0073
 20
48.7345
 30
0.0
 11
10.5944
 21
49.0774
 31
0.0
  0
LINE
  8
0
 62
     0
 10
10.5944
 20
49.0774
 30
0.0
 11
11.4226
 21
49.433
 31
0.0
  0
LINE
  8
0
 62
     0
 10
11.4226
 20
49.433
 30
0.0
 11
12.5167
 21
49.8105
 31
0.0
  0
LINE
  8
0
 62
     0
 10
12.5167
 20
49.8105
 30
0.0
 11
13.9017
 21
50.2186
 31
0.0
  0
LINE
  8
0
 62
     0
 10
13.9017
 20
50.2186
 30
0.0
 11
15.6022
 21
50.6663
 31
0.0
  0
LINE
  8
0
 62
     0
 10
15.6022
 20
50.6663
 30
0.0
 11
17.6458
 21
51.1637
 31
0.0
  0
LINE
  8
0
 62
     0
 10
17.6458
 20
51.1637
 30
0.0
 11
20.056
 21
51.7204
 31
0.0
  0
ENDSEC
  0
EOF
