<?xml version="1.0" encoding="utf-8" ?>
<svg baseProfile="tiny" height="197.8752" version="1.2" width="196.2936" xmlns="http://www.w3.org/2000/svg" xmlns:ev="http://www.w3.org/2001/xml-events" xmlns:inkscape="http://www.inkscape.org/namespaces/inkscape" xmlns:xlink="http://www.w3.org/1999/xlink">
  <defs/>
  <g fill="none" id="layer1" inkscape:groupmode="layer" inkscape:label="1" stroke="black" style="display:inline">
    <path d="M75.80358551025387,3.1874660968192643 L80.38076805319787,2.233078717021442 L84.89720842469455,1.4521591189282503 L89.35111530395812,0.8415493753595911 L93.7406973702029,0.3980915591353664 L98.06416330264312,0.11862774307553536 L102.31972178049301,0.0 L106.50558148296693,0.03905040272869087 L110.61995108927908,0.2326210240815385 L114.66103927864378,0.577553936878445 L118.62705473027523,1.070691213939341 L122.51620612338775,1.7088749280841569 L126.32670213719558,2.4889471521328232 L130.056751450913,3.4077499589052422 L133.7045627437543,4.462125421221344 L137.26834469493372,5.648915611901032 L140.74630598366554,6.964962603764263 L144.13665528916403,8.40710846963097 L147.43760129064344,9.972195282321024 L150.64735266731805,11.657065114654387 L153.76411809840215,13.458560039450958 L156.78610626310996,15.373522129530699 L159.71152584065578,17.39879345771348 L162.53858551025388,19.531216096819264 L165.26549395111851,21.76763211966795 L167.89045984246394,24.104883599079443 L170.41169186350447,26.539812607873728 L172.8273986934543,29.069261218870707 L175.13578901152783,31.690071504890255 L177.33507149693918,34.39908553875236 L179.42345482890266,37.19314539327689 L181.3991476866326,40.06909314128379 L183.2603587493432,43.02377085559297 L185.00529669624876,46.054020609024406 L186.63217020656356,49.156684474397935 L188.13918795950184,52.328604524533574 L189.52455863427787,55.56662283225117 L190.78649091010595,58.86758147037065 L191.9231934662003,62.22832251171198 L192.93287498177523,65.64568802909508 L193.81374413604493,69.11652009533984 L194.56400960822378,72.63766078326617 L195.181880077526,76.20595216569407 L195.66556422316586,79.81823631544339 L196.0132707243576,83.47135530533407 L196.22320826031552,87.16215120818603 L196.29358551025388,90.88746609681928 L196.28752796510543,95.98033417150552 L196.26319677441057,100.83432254003938 L196.2113541052952,105.45887105549699 L196.122762124885,109.86341957095456 L195.98818300030592,114.0574079394884 L195.7983788986836,118.05027601417467 L195.544111987144,121.85146364808955 L195.21614443281277,125.47041069430932 L194.80523840281586,128.91655700591016 L194.30215606427896,132.1993424359683 L193.69765958432794,135.32820683755997 L192.9825111300886,138.3125900637614 L192.1474728686867,141.16193196764877 L191.18330696724803,143.88567240229824 L190.08077559289848,146.49325122078616 L188.83064091276378,148.99410827618865 L187.42366509396982,151.397683421582 L185.85061030364227,153.71341651004232 L184.102238708907,155.95074739464596 L182.1693124768899,158.11911592846903 L180.04259377471664,160.22796196458776 L177.71284476951308,162.28672535607845 L175.17082762840505,164.3048459560172 L172.4073045185183,166.2917636174803 L169.41303760697866,168.25691819354395 L166.17878906091192,170.20974953728435 L162.69532104744388,172.1596975017778 L158.9533957337004,174.11620194010035 L154.94377528680718,176.08870270532842 L150.65722187389014,178.08663965053805 L146.08449766207502,180.1194526288056 L141.21636481848765,182.19658149320716 L136.04358551025388,184.32746609681928 L131.85297313038132,185.9749481451942 L127.65671368215754,187.52092792599538 L123.45888798838797,188.96427732130908 L119.26357687187789,190.30386821322136 L115.07486115543259,191.5385724838185 L110.89682166185736,192.6672620151866 L106.73353921395756,193.68880868941184 L102.58909463453853,194.60208438858044 L98.46756874640545,195.40596099477844 L94.37304237236378,196.09931039009214 L90.30959633521877,196.6810044566076 L86.28131145777576,197.14991507641108 L82.29226856283998,197.50491413158872 L78.34654847321684,197.74487350422666 L74.44823201171158,197.86866507641108 L70.6014000011296,197.87516073022815 L66.81013326427609,197.76323234776405 L63.0785126239565,197.53175181110495 L59.41061890297607,197.179591002337 L55.81053292414009,196.70562180354634 L52.28233551025386,196.10871609681922 L48.83010748412278,195.3877457642417 L45.45792966855208,194.54158268790005 L42.16988288634718,193.5690987498804 L38.97004796031325,192.46916583226894 L35.8625057132557,191.24065581715175 L32.85133696797982,189.8824405866151 L29.9406225472909,188.39339202274508 L27.134443273994293,186.77238200762795 L24.436879970895234,185.01828242334975 L21.852013460799128,183.1299651519968 L19.383924566511325,181.10630207565512 L17.036694110836947,178.94616507641095 L14.814402916581457,176.64842603635051 L12.721131806550147,174.21195683755988 L10.76096160354831,171.63562936212523 L8.937973130381238,168.9183154921328 L7.256247209854337,166.0588871096687 L5.7198646647727855,163.0562160968191 L4.33290631794199,159.9091743356702 L3.099452992167244,156.61663370830811 L2.023585510253895,153.1774660968193 L0.9366717529296693,148.63790646547167 L0.2706973266601267,144.23657498353808 L0.0,139.96761776918257 L0.09891754150390852,135.8251809405693 L0.5417877197265284,131.80341061586225 L1.3029483032226494,127.89645291322554 L2.356737060546834,124.0984539508232 L3.677491760253872,120.40355984681932 L5.239550170898383,116.8059167193779 L7.017250061035099,113.29967068666306 L8.984929199218698,109.87896786683879 L11.116925354003854,106.53795437806932 L13.387576293945244,103.27077633851852 L15.771219787597602,100.07157986635056 L18.242193603515545,96.93451107972945 L20.774835510253865,93.85371609681928 L23.343483276367124,90.82334103578413 L25.922474670410054,87.83753201478802 L28.486147460937445,84.89043515199504 L31.008839416503804,81.97619656556927 L33.464888305663976,79.08896237367472 L35.828631896972524,76.2228786944755 L38.07440795898424,73.37209164613566 L40.176554260253795,70.53074734681925 L42.10940856933581,67.69299191469034 L43.847308654785024,64.85297146791297 L45.36459228515611,62.004832124651244 L46.635597229003736,59.14272000306923 L47.634661254882644,56.260781221330916 L48.33612213134745,53.353161897600444 L48.71431762695289,50.41400815004184 L48.74358551025392,47.43746609681929 L48.2632550923725,43.10434332390059 L47.35454760937927,39.21588527401397 L46.11303157439386,35.73702877903503 L44.63427550053575,32.63271067083937 L43.013847900924475,29.867867781302607 L41.34731728867956,27.407436942300336 L39.7302521769206,25.216354985708165 L38.25822107876701,23.259558743401726 L37.026792507338484,21.501985047256596 L36.13153497575439,19.90857072914841 L35.66801699713437,18.444252620952767 L35.731807084597904,17.07396755454525 L36.41847375126457,15.762652361801486 L37.82358551025385,14.475243874597084 L40.04271087468538,13.176678924807646 L43.17141835767853,11.831894344308779 L47.305276472353,10.405826964976114 L52.5398537318282,8.8634136186852 L58.97071864922373,7.1695911373116985 L66.69343973765905,5.289296352731213 L75.80358551025387,3.1874660968192643"/>
  </g>
</svg>
