  0
SECTION
  2
HEADER
  9
$ACADVER
  1
AC1009
  9
$FILLMODE
 70
 0
  9
$SPLFRAME
 70
 1
  9
$EXTMIN
 10
0
 20
0
 30
0.0
  9
$EXTMAX
 10
1058.33
 20
1058.33
 30
0.0
  0
ENDSEC
  0
SECTION
  2
TABLES
  0
TABLE
  2
LAYER
 70
1
  0
LAYER
  2
0
 70
     0
 62
     7
  6
CONTINUOUS
  0
ENDTAB
  0
ENDSEC
  0
SECTION
  2
ENTITIES
  0
LINE
  8
0
 62
     0
 10
0
 20
66.2009
 30
0.0
 11
0.184657
 21
61.262
 31
0.0
  0
LINE
  8
0
 62
     0
 10
0.184657
 20
61.262
 30
0.0
 11
0.738628
 21
56.3506
 31
0.0
  0
LINE
  8
0
 62
     0
 10
0.738628
 20
56.3506
 30
0.0
 11
1.6564
 21
51.4946
 31
0.0
  0
LINE
  8
0
 62
     0
 10
1.6564
 20
51.4946
 30
0.0
 11
2.9366
 21
46.7198
 31
0.0
  0
LINE
  8
0
 62
     0
 10
2.9366
 20
46.7198
 30
0.0
 11
4.56819
 21
42.055
 31
0.0
  0
LINE
  8
0
 62
     0
 10
4.56819
 20
42.055
 30
0.0
 11
6.54569
 21
37.5253
 31
0.0
  0
LINE
  8
0
 62
     0
 10
6.54569
 20
37.5253
 30
0.0
 11
8.85391
 21
33.1556
 31
0.0
  0
LINE
  8
0
 62
     0
 10
8.85391
 20
33.1556
 30
0.0
 11
11.4846
 21
28.9705
 31
0.0
  0
LINE
  8
0
 62
     0
 10
11.4846
 20
28.9705
 30
0.0
 11
14.4184
 21
24.9935
 31
0.0
  0
LINE
  8
0
 62
     0
 10
14.4184
 20
24.9935
 30
0.0
 11
17.643
 21
21.248
 31
0.0
  0
LINE
  8
0
 62
     0
 10
17.643
 20
21.248
 30
0.0
 11
21.1377
 21
17.7533
 31
0.0
  0
LINE
  8
0
 62
     0
 10
21.1377
 20
17.7533
 30
0.0
 11
24.8833
 21
14.5287
 31
0.0
  0
LINE
  8
0
 62
     0
 10
24.8833
 20
14.5287
 30
0.0
 11
28.8603
 21
11.5948
 31
0.0
  0
LINE
  8
0
 62
     0
 10
28.8603
 20
11.5948
 30
0.0
 11
33.0454
 21
8.96415
 31
0.0
  0
LINE
  8
0
 62
     0
 10
33.0454
 20
8.96415
 30
0.0
 11
37.4153
 21
6.65455
 31
0.0
  0
LINE
  8
0
 62
     0
 10
37.4153
 20
6.65455
 30
0.0
 11
41.9446
 21
4.67843
 31
0.0
  0
LINE
  8
0
 62
     0
 10
41.9446
 20
4.67843
 30
0.0
 11
46.6108
 21
3.04684
 31
0.0
  0
LINE
  8
0
 62
     0
 10
46.6108
 20
3.04684
 30
0.0
 11
51.3842
 21
1.76664
 31
0.0
  0
LINE
  8
0
 62
     0
 10
51.3842
 20
1.76664
 30
0.0
 11
56.2405
 21
0.848872
 31
0.0
  0
LINE
  8
0
 62
     0
 10
56.2405
 20
0.848872
 30
0.0
 11
61.1519
 21
0.2949
 31
0.0
  0
LINE
  8
0
 62
     0
 10
61.1519
 20
0.2949
 30
0.0
 11
66.0908
 21
0.110243
 31
0.0
  0
LINE
  8
0
 62
     0
 10
66.0908
 20
0.110243
 30
0.0
 11
71.0297
 21
0.2949
 31
0.0
  0
LINE
  8
0
 62
     0
 10
71.0297
 20
0.2949
 30
0.0
 11
75.9411
 21
0.848872
 31
0.0
  0
LINE
  8
0
 62
     0
 10
75.9411
 20
0.848872
 30
0.0
 11
80.797
 21
1.76664
 31
0.0
  0
LINE
  8
0
 62
     0
 10
80.797
 20
1.76664
 30
0.0
 11
85.5719
 21
3.04684
 31
0.0
  0
LINE
  8
0
 62
     0
 10
85.5719
 20
3.04684
 30
0.0
 11
90.2367
 21
4.67843
 31
0.0
  0
LINE
  8
0
 62
     0
 10
90.2367
 20
4.67843
 30
0.0
 11
94.7663
 21
6.65455
 31
0.0
  0
LINE
  8
0
 62
     0
 10
94.7663
 20
6.65455
 30
0.0
 11
99.1362
 21
8.96415
 31
0.0
  0
LINE
  8
0
 62
     0
 10
99.1362
 20
8.96415
 30
0.0
 11
103.321
 21
11.5948
 31
0.0
  0
LINE
  8
0
 62
     0
 10
103.321
 20
11.5948
 30
0.0
 11
107.298
 21
14.5287
 31
0.0
  0
LINE
  8
0
 62
     0
 10
107.298
 20
14.5287
 30
0.0
 11
111.044
 21
17.7533
 31
0.0
  0
LINE
  8
0
 62
     0
 10
111.044
 20
17.7533
 30
0.0
 11
114.538
 21
21.248
 31
0.0
  0
LINE
  8
0
 62
     0
 10
114.538
 20
21.248
 30
0.0
 11
117.763
 21
24.9935
 31
0.0
  0
LINE
  8
0
 62
     0
 10
117.763
 20
24.9935
 30
0.0
 11
120.697
 21
28.9705
 31
0.0
  0
LINE
  8
0
 62
     0
 10
120.697
 20
28.9705
 30
0.0
 11
123.328
 21
33.1556
 31
0.0
  0
LINE
  8
0
 62
     0
 10
123.328
 20
33.1556
 30
0.0
 11
125.637
 21
37.5253
 31
0.0
  0
LINE
  8
0
 62
     0
 10
125.637
 20
37.5253
 30
0.0
 11
127.613
 21
42.055
 31
0.0
  0
LINE
  8
0
 62
     0
 10
127.613
 20
42.055
 30
0.0
 11
129.245
 21
46.7198
 31
0.0
  0
LINE
  8
0
 62
     0
 10
129.245
 20
46.7198
 30
0.0
 11
130.525
 21
51.4946
 31
0.0
  0
LINE
  8
0
 62
     0
 10
130.525
 20
51.4946
 30
0.0
 11
131.443
 21
56.3506
 31
0.0
  0
LINE
  8
0
 62
     0
 10
131.443
 20
56.3506
 30
0.0
 11
131.997
 21
61.262
 31
0.0
  0
LINE
  8
0
 62
     0
 10
131.997
 20
61.262
 30
0.0
 11
132.182
 21
66.2009
 31
0.0
  0
LINE
  8
0
 62
     0
 10
132.182
 20
66.2009
 30
0.0
 11
131.997
 21
71.1398
 31
0.0
  0
LINE
  8
0
 62
     0
 10
131.997
 20
71.1398
 30
0.0
 11
131.443
 21
76.0511
 31
0.0
  0
LINE
  8
0
 62
     0
 10
131.443
 20
76.0511
 30
0.0
 11
130.525
 21
80.9075
 31
0.0
  0
LINE
  8
0
 62
     0
 10
130.525
 20
80.9075
 30
0.0
 11
129.245
 21
85.6809
 31
0.0
  0
LINE
  8
0
 62
     0
 10
129.245
 20
85.6809
 30
0.0
 11
127.613
 21
90.3471
 31
0.0
  0
LINE
  8
0
 62
     0
 10
127.613
 20
90.3471
 30
0.0
 11
125.637
 21
94.8764
 31
0.0
  0
LINE
  8
0
 62
     0
 10
125.637
 20
94.8764
 30
0.0
 11
123.328
 21
99.2463
 31
0.0
  0
LINE
  8
0
 62
     0
 10
123.328
 20
99.2463
 30
0.0
 11
120.697
 21
103.431
 31
0.0
  0
LINE
  8
0
 62
     0
 10
120.697
 20
103.431
 30
0.0
 11
117.763
 21
107.408
 31
0.0
  0
LINE
  8
0
 62
     0
 10
117.763
 20
107.408
 30
0.0
 11
114.538
 21
111.154
 31
0.0
  0
LINE
  8
0
 62
     0
 10
114.538
 20
111.154
 30
0.0
 11
111.044
 21
114.649
 31
0.0
  0
LINE
  8
0
 62
     0
 10
111.044
 20
114.649
 30
0.0
 11
107.298
 21
117.873
 31
0.0
  0
LINE
  8
0
 62
     0
 10
107.298
 20
117.873
 30
0.0
 11
103.321
 21
120.807
 31
0.0
  0
LINE
  8
0
 62
     0
 10
103.321
 20
120.807
 30
0.0
 11
99.1362
 21
123.438
 31
0.0
  0
LINE
  8
0
 62
     0
 10
99.1362
 20
123.438
 30
0.0
 11
94.7663
 21
125.746
 31
0.0
  0
LINE
  8
0
 62
     0
 10
94.7663
 20
125.746
 30
0.0
 11
90.2367
 21
127.724
 31
0.0
  0
LINE
  8
0
 62
     0
 10
90.2367
 20
127.724
 30
0.0
 11
85.5719
 21
129.355
 31
0.0
  0
LINE
  8
0
 62
     0
 10
85.5719
 20
129.355
 30
0.0
 11
80.797
 21
130.635
 31
0.0
  0
LINE
  8
0
 62
     0
 10
80.797
 20
130.635
 30
0.0
 11
75.9411
 21
131.553
 31
0.0
  0
LINE
  8
0
 62
     0
 10
75.9411
 20
131.553
 30
0.0
 11
71.0297
 21
132.107
 31
0.0
  0
LINE
  8
0
 62
     0
 10
71.0297
 20
132.107
 30
0.0
 11
66.0908
 21
132.292
 31
0.0
  0
LINE
  8
0
 62
     0
 10
66.0908
 20
132.292
 30
0.0
 11
61.1519
 21
132.107
 31
0.0
  0
LINE
  8
0
 62
     0
 10
61.1519
 20
132.107
 30
0.0
 11
56.2405
 21
131.553
 31
0.0
  0
LINE
  8
0
 62
     0
 10
56.2405
 20
131.553
 30
0.0
 11
51.3842
 21
130.635
 31
0.0
  0
LINE
  8
0
 62
     0
 10
51.3842
 20
130.635
 30
0.0
 11
46.6108
 21
129.355
 31
0.0
  0
LINE
  8
0
 62
     0
 10
46.6108
 20
129.355
 30
0.0
 11
41.9446
 21
127.724
 31
0.0
  0
LINE
  8
0
 62
     0
 10
41.9446
 20
127.724
 30
0.0
 11
37.4153
 21
125.746
 31
0.0
  0
LINE
  8
0
 62
     0
 10
37.4153
 20
125.746
 30
0.0
 11
33.0454
 21
123.438
 31
0.0
  0
LINE
  8
0
 62
     0
 10
33.0454
 20
123.438
 30
0.0
 11
28.8603
 21
120.807
 31
0.0
  0
LINE
  8
0
 62
     0
 10
28.8603
 20
120.807
 30
0.0
 11
24.8833
 21
117.873
 31
0.0
  0
LINE
  8
0
 62
     0
 10
24.8833
 20
117.873
 30
0.0
 11
21.1377
 21
114.649
 31
0.0
  0
LINE
  8
0
 62
     0
 10
21.1377
 20
114.649
 30
0.0
 11
17.643
 21
111.154
 31
0.0
  0
LINE
  8
0
 62
     0
 10
17.643
 20
111.154
 30
0.0
 11
14.4184
 21
107.408
 31
0.0
  0
LINE
  8
0
 62
     0
 10
14.4184
 20
107.408
 30
0.0
 11
11.4846
 21
103.431
 31
0.0
  0
LINE
  8
0
 62
     0
 10
11.4846
 20
103.431
 30
0.0
 11
8.85391
 21
99.2463
 31
0.0
  0
LINE
  8
0
 62
     0
 10
8.85391
 20
99.2463
 30
0.0
 11
6.54569
 21
94.8764
 31
0.0
  0
LINE
  8
0
 62
     0
 10
6.54569
 20
94.8764
 30
0.0
 11
4.56819
 21
90.3471
 31
0.0
  0
LINE
  8
0
 62
     0
 10
4.56819
 20
90.3471
 30
0.0
 11
2.9366
 21
85.6809
 31
0.0
  0
LINE
  8
0
 62
     0
 10
2.9366
 20
85.6809
 30
0.0
 11
1.6564
 21
80.9075
 31
0.0
  0
LINE
  8
0
 62
     0
 10
1.6564
 20
80.9075
 30
0.0
 11
0.738628
 21
76.0511
 31
0.0
  0
LINE
  8
0
 62
     0
 10
0.738628
 20
76.0511
 30
0.0
 11
0.184657
 21
71.1398
 31
0.0
  0
LINE
  8
0
 62
     0
 10
0.184657
 20
71.1398
 30
0.0
 11
0
 21
66.2009
 31
0.0
  0
ENDSEC
  0
EOF
