  0
SECTION
  2
HEADER
  9
$ACADVER
  1
AC1009
  9
$FILLMODE
 70
 0
  9
$SPLFRAME
 70
 1
  9
$EXTMIN
 10
0
 20
0
 30
0.0
  9
$EXTMAX
 10
1058.33
 20
1058.33
 30
0.0
  0
ENDSEC
  0
SECTION
  2
TABLES
  0
TABLE
  2
LAYER
 70
1
  0
LAYER
  2
0
 70
     0
 62
     7
  6
CONTINUOUS
  0
ENDTAB
  0
ENDSEC
  0
SECTION
  2
ENTITIES
  0
LINE
  8
0
 62
     0
 10
60.5772
 20
80.99
 30
0.0
 11
61.9125
 21
81.1029
 31
0.0
  0
LINE
  8
0
 62
     0
 10
61.9125
 20
81.1029
 30
0.0
 11
63.0439
 21
80.9872
 31
0.0
  0
LINE
  8
0
 62
     0
 10
63.0439
 20
80.9872
 30
0.0
 11
63.996
 21
80.6746
 31
0.0
  0
LINE
  8
0
 62
     0
 10
63.996
 20
80.6746
 30
0.0
 11
64.7982
 21
80.2019
 31
0.0
  0
LINE
  8
0
 62
     0
 10
64.7982
 20
80.2019
 30
0.0
 11
65.4763
 21
79.6036
 31
0.0
  0
LINE
  8
0
 62
     0
 10
65.4763
 20
79.6036
 30
0.0
 11
66.059
 21
78.9132
 31
0.0
  0
LINE
  8
0
 62
     0
 10
66.059
 20
78.9132
 30
0.0
 11
66.573
 21
78.1664
 31
0.0
  0
LINE
  8
0
 62
     0
 10
66.573
 20
78.1664
 30
0.0
 11
67.0472
 21
77.3977
 31
0.0
  0
LINE
  8
0
 62
     0
 10
67.0472
 20
77.3977
 30
0.0
 11
67.5086
 21
76.6424
 31
0.0
  0
LINE
  8
0
 62
     0
 10
67.5086
 20
76.6424
 30
0.0
 11
67.9842
 21
75.9354
 31
0.0
  0
LINE
  8
0
 62
     0
 10
67.9842
 20
75.9354
 30
0.0
 11
68.501
 21
75.3099
 31
0.0
  0
LINE
  8
0
 62
     0
 10
68.501
 20
75.3099
 30
0.0
 11
69.088
 21
74.8026
 31
0.0
  0
LINE
  8
0
 62
     0
 10
69.088
 20
74.8026
 30
0.0
 11
69.7713
 21
74.447
 31
0.0
  0
LINE
  8
0
 62
     0
 10
69.7713
 20
74.447
 30
0.0
 11
70.7196
 21
74.1274
 31
0.0
  0
LINE
  8
0
 62
     0
 10
70.7196
 20
74.1274
 30
0.0
 11
71.6993
 21
73.8491
 31
0.0
  0
LINE
  8
0
 62
     0
 10
71.6993
 20
73.8491
 30
0.0
 11
72.6983
 21
73.6215
 31
0.0
  0
LINE
  8
0
 62
     0
 10
72.6983
 20
73.6215
 30
0.0
 11
73.7073
 21
73.4603
 31
0.0
  0
LINE
  8
0
 62
     0
 10
73.7073
 20
73.4603
 30
0.0
 11
74.7116
 21
73.375
 31
0.0
  0
LINE
  8
0
 62
     0
 10
74.7116
 20
73.375
 30
0.0
 11
75.7012
 21
73.3764
 31
0.0
  0
LINE
  8
0
 62
     0
 10
75.7012
 20
73.3764
 30
0.0
 11
76.6632
 21
73.4797
 31
0.0
  0
LINE
  8
0
 62
     0
 10
76.6632
 20
73.4797
 30
0.0
 11
77.585
 21
73.6946
 31
0.0
  0
LINE
  8
0
 62
     0
 10
77.585
 20
73.6946
 30
0.0
 11
78.4571
 21
74.035
 31
0.0
  0
LINE
  8
0
 62
     0
 10
78.4571
 20
74.035
 30
0.0
 11
79.266
 21
74.5105
 31
0.0
  0
LINE
  8
0
 62
     0
 10
79.266
 20
74.5105
 30
0.0
 11
79.9994
 21
75.1346
 31
0.0
  0
LINE
  8
0
 62
     0
 10
79.9994
 20
75.1346
 30
0.0
 11
80.3522
 21
75.5784
 31
0.0
  0
LINE
  8
0
 62
     0
 10
80.3522
 20
75.5784
 30
0.0
 11
80.5078
 21
76.1037
 31
0.0
  0
LINE
  8
0
 62
     0
 10
80.5078
 20
76.1037
 30
0.0
 11
80.1744
 21
76.9179
 31
0.0
  0
LINE
  8
0
 62
     0
 10
80.1744
 20
76.9179
 30
0.0
 11
79.5747
 21
77.658
 31
0.0
  0
LINE
  8
0
 62
     0
 10
79.5747
 20
77.658
 30
0.0
 11
78.898
 21
78.2973
 31
0.0
  0
LINE
  8
0
 62
     0
 10
78.898
 20
78.2973
 30
0.0
 11
78.1554
 21
78.8501
 31
0.0
  0
LINE
  8
0
 62
     0
 10
78.1554
 20
78.8501
 30
0.0
 11
77.3536
 21
79.3253
 31
0.0
  0
LINE
  8
0
 62
     0
 10
77.3536
 20
79.3253
 30
0.0
 11
76.5016
 21
79.7387
 31
0.0
  0
LINE
  8
0
 62
     0
 10
76.5016
 20
79.7387
 30
0.0
 11
75.6102
 21
80.1
 31
0.0
  0
LINE
  8
0
 62
     0
 10
75.6102
 20
80.1
 30
0.0
 11
74.6869
 21
80.4238
 31
0.0
  0
LINE
  8
0
 62
     0
 10
74.6869
 20
80.4238
 30
0.0
 11
73.7415
 21
80.7201
 31
0.0
  0
LINE
  8
0
 62
     0
 10
73.7415
 20
80.7201
 30
0.0
 11
72.7826
 21
81.0038
 31
0.0
  0
LINE
  8
0
 62
     0
 10
72.7826
 20
81.0038
 30
0.0
 11
71.8192
 21
81.2849
 31
0.0
  0
LINE
  8
0
 62
     0
 10
71.8192
 20
81.2849
 30
0.0
 11
70.86
 21
81.577
 31
0.0
  0
LINE
  8
0
 62
     0
 10
70.86
 20
81.577
 30
0.0
 11
69.9135
 21
81.8914
 31
0.0
  0
LINE
  8
0
 62
     0
 10
69.9135
 20
81.8914
 30
0.0
 11
68.9903
 21
82.2427
 31
0.0
  0
LINE
  8
0
 62
     0
 10
68.9903
 20
82.2427
 30
0.0
 11
68.0985
 21
82.641
 31
0.0
  0
LINE
  8
0
 62
     0
 10
68.0985
 20
82.641
 30
0.0
 11
67.2539
 21
83.1247
 31
0.0
  0
LINE
  8
0
 62
     0
 10
67.2539
 20
83.1247
 30
0.0
 11
66.482
 21
83.735
 31
0.0
  0
LINE
  8
0
 62
     0
 10
66.482
 20
83.735
 30
0.0
 11
65.8604
 21
84.4557
 31
0.0
  0
LINE
  8
0
 62
     0
 10
65.8604
 20
84.4557
 30
0.0
 11
65.4664
 21
85.277
 31
0.0
  0
LINE
  8
0
 62
     0
 10
65.4664
 20
85.277
 30
0.0
 11
65.3768
 21
86.1868
 31
0.0
  0
LINE
  8
0
 62
     0
 10
65.3768
 20
86.1868
 30
0.0
 11
65.5959
 21
86.9982
 31
0.0
  0
LINE
  8
0
 62
     0
 10
65.5959
 20
86.9982
 30
0.0
 11
66.0562
 21
87.6861
 31
0.0
  0
LINE
  8
0
 62
     0
 10
66.0562
 20
87.6861
 30
0.0
 11
66.7011
 21
88.2608
 31
0.0
  0
LINE
  8
0
 62
     0
 10
66.7011
 20
88.2608
 30
0.0
 11
67.4716
 21
88.7345
 31
0.0
  0
LINE
  8
0
 62
     0
 10
67.4716
 20
88.7345
 30
0.0
 11
68.3108
 21
89.1191
 31
0.0
  0
LINE
  8
0
 62
     0
 10
68.3108
 20
89.1191
 30
0.0
 11
69.1624
 21
89.4249
 31
0.0
  0
LINE
  8
0
 62
     0
 10
69.1624
 20
89.4249
 30
0.0
 11
70.0595
 21
89.7089
 31
0.0
  0
LINE
  8
0
 62
     0
 10
70.0595
 20
89.7089
 30
0.0
 11
70.9595
 21
89.983
 31
0.0
  0
LINE
  8
0
 62
     0
 10
70.9595
 20
89.983
 30
0.0
 11
71.8633
 21
90.2476
 31
0.0
  0
LINE
  8
0
 62
     0
 10
71.8633
 20
90.2476
 30
0.0
 11
72.7699
 21
90.5013
 31
0.0
  0
LINE
  8
0
 62
     0
 10
72.7699
 20
90.5013
 30
0.0
 11
73.6783
 21
90.745
 31
0.0
  0
LINE
  8
0
 62
     0
 10
73.6783
 20
90.745
 30
0.0
 11
74.5906
 21
90.9782
 31
0.0
  0
LINE
  8
0
 62
     0
 10
74.5906
 20
90.9782
 30
0.0
 11
75.504
 21
91.2026
 31
0.0
  0
LINE
  8
0
 62
     0
 10
75.504
 20
91.2026
 30
0.0
 11
76.4219
 21
91.415
 31
0.0
  0
LINE
  8
0
 62
     0
 10
76.4219
 20
91.415
 30
0.0
 11
77.3395
 21
91.6189
 31
0.0
  0
LINE
  8
0
 62
     0
 10
77.3395
 20
91.6189
 30
0.0
 11
78.2616
 21
91.8118
 31
0.0
  0
LINE
  8
0
 62
     0
 10
78.2616
 20
91.8118
 30
0.0
 11
79.1849
 21
91.9939
 31
0.0
  0
LINE
  8
0
 62
     0
 10
79.1849
 20
91.9939
 30
0.0
 11
80.1028
 21
92.159
 31
0.0
  0
LINE
  8
0
 62
     0
 10
80.1028
 20
92.159
 30
0.0
 11
81.0313
 21
92.2969
 31
0.0
  0
LINE
  8
0
 62
     0
 10
81.0313
 20
92.2969
 30
0.0
 11
81.9644
 21
92.3907
 31
0.0
  0
LINE
  8
0
 62
     0
 10
81.9644
 20
92.3907
 30
0.0
 11
82.8947
 21
92.4278
 31
0.0
  0
LINE
  8
0
 62
     0
 10
82.8947
 20
92.4278
 30
0.0
 11
83.8151
 21
92.3907
 31
0.0
  0
LINE
  8
0
 62
     0
 10
83.8151
 20
92.3907
 30
0.0
 11
84.7178
 21
92.2651
 31
0.0
  0
LINE
  8
0
 62
     0
 10
84.7178
 20
92.2651
 30
0.0
 11
85.5941
 21
92.0365
 31
0.0
  0
LINE
  8
0
 62
     0
 10
85.5941
 20
92.0365
 30
0.0
 11
86.4401
 21
91.6862
 31
0.0
  0
LINE
  8
0
 62
     0
 10
86.4401
 20
91.6862
 30
0.0
 11
87.2504
 21
91.229
 31
0.0
  0
LINE
  8
0
 62
     0
 10
87.2504
 20
91.229
 30
0.0
 11
88.0346
 21
90.6805
 31
0.0
  0
LINE
  8
0
 62
     0
 10
88.0346
 20
90.6805
 30
0.0
 11
88.7815
 21
90.0536
 31
0.0
  0
LINE
  8
0
 62
     0
 10
88.7815
 20
90.0536
 30
0.0
 11
89.4775
 21
89.3533
 31
0.0
  0
LINE
  8
0
 62
     0
 10
89.4775
 20
89.3533
 30
0.0
 11
90.1129
 21
88.5913
 31
0.0
  0
LINE
  8
0
 62
     0
 10
90.1129
 20
88.5913
 30
0.0
 11
90.6762
 21
87.7768
 31
0.0
  0
LINE
  8
0
 62
     0
 10
90.6762
 20
87.7768
 30
0.0
 11
91.1546
 21
86.917
 31
0.0
  0
LINE
  8
0
 62
     0
 10
91.1546
 20
86.917
 30
0.0
 11
91.5377
 21
86.0227
 31
0.0
  0
LINE
  8
0
 62
     0
 10
91.5377
 20
86.0227
 30
0.0
 11
91.8132
 21
85.102
 31
0.0
  0
LINE
  8
0
 62
     0
 10
91.8132
 20
85.102
 30
0.0
 11
91.9702
 21
84.165
 31
0.0
  0
LINE
  8
0
 62
     0
 10
91.9702
 20
84.165
 30
0.0
 11
91.9963
 21
83.221
 31
0.0
  0
LINE
  8
0
 62
     0
 10
91.9963
 20
83.221
 30
0.0
 11
91.8806
 21
82.2773
 31
0.0
  0
LINE
  8
0
 62
     0
 10
91.8806
 20
82.2773
 30
0.0
 11
91.6122
 21
81.3428
 31
0.0
  0
LINE
  8
0
 62
     0
 10
91.6122
 20
81.3428
 30
0.0
 11
91.1779
 21
80.4291
 31
0.0
  0
LINE
  8
0
 62
     0
 10
91.1779
 20
80.4291
 30
0.0
 11
90.4448
 21
79.2925
 31
0.0
  0
LINE
  8
0
 62
     0
 10
90.4448
 20
79.2925
 30
0.0
 11
89.7117
 21
78.3731
 31
0.0
  0
LINE
  8
0
 62
     0
 10
89.7117
 20
78.3731
 30
0.0
 11
88.9938
 21
77.6249
 31
0.0
  0
LINE
  8
0
 62
     0
 10
88.9938
 20
77.6249
 30
0.0
 11
88.3049
 21
77.0019
 31
0.0
  0
LINE
  8
0
 62
     0
 10
88.3049
 20
77.0019
 30
0.0
 11
87.661
 21
76.4575
 31
0.0
  0
LINE
  8
0
 62
     0
 10
87.661
 20
76.4575
 30
0.0
 11
87.0768
 21
75.9449
 31
0.0
  0
LINE
  8
0
 62
     0
 10
87.0768
 20
75.9449
 30
0.0
 11
86.5685
 21
75.42
 31
0.0
  0
LINE
  8
0
 62
     0
 10
86.5685
 20
75.42
 30
0.0
 11
86.1494
 21
74.8344
 31
0.0
  0
LINE
  8
0
 62
     0
 10
86.1494
 20
74.8344
 30
0.0
 11
85.8365
 21
74.1412
 31
0.0
  0
LINE
  8
0
 62
     0
 10
85.8365
 20
74.1412
 30
0.0
 11
85.6439
 21
73.2952
 31
0.0
  0
LINE
  8
0
 62
     0
 10
85.6439
 20
73.2952
 30
0.0
 11
85.6149
 21
72.4574
 31
0.0
  0
LINE
  8
0
 62
     0
 10
85.6149
 20
72.4574
 30
0.0
 11
85.8919
 21
71.6979
 31
0.0
  0
LINE
  8
0
 62
     0
 10
85.8919
 20
71.6979
 30
0.0
 11
86.5283
 21
71.2227
 31
0.0
  0
LINE
  8
0
 62
     0
 10
86.5283
 20
71.2227
 30
0.0
 11
87.3181
 21
70.9856
 31
0.0
  0
LINE
  8
0
 62
     0
 10
87.3181
 20
70.9856
 30
0.0
 11
88.277
 21
70.7954
 31
0.0
  0
LINE
  8
0
 62
     0
 10
88.277
 20
70.7954
 30
0.0
 11
89.2376
 21
70.6438
 31
0.0
  0
LINE
  8
0
 62
     0
 10
89.2376
 20
70.6438
 30
0.0
 11
90.1982
 21
70.5294
 31
0.0
  0
LINE
  8
0
 62
     0
 10
90.1982
 20
70.5294
 30
0.0
 11
91.1613
 21
70.4494
 31
0.0
  0
LINE
  8
0
 62
     0
 10
91.1613
 20
70.4494
 30
0.0
 11
92.1247
 21
70.4039
 31
0.0
  0
LINE
  8
0
 62
     0
 10
92.1247
 20
70.4039
 30
0.0
 11
93.0878
 21
70.3887
 31
0.0
  0
LINE
  8
0
 62
     0
 10
93.0878
 20
70.3887
 30
0.0
 11
94.0537
 21
70.4024
 31
0.0
  0
LINE
  8
0
 62
     0
 10
94.0537
 20
70.4024
 30
0.0
 11
95.0186
 21
70.4455
 31
0.0
  0
LINE
  8
0
 62
     0
 10
95.0186
 20
70.4455
 30
0.0
 11
95.9859
 21
70.5143
 31
0.0
  0
LINE
  8
0
 62
     0
 10
95.9859
 20
70.5143
 30
0.0
 11
96.9518
 21
70.6067
 31
0.0
  0
LINE
  8
0
 62
     0
 10
96.9518
 20
70.6067
 30
0.0
 11
97.9191
 21
70.721
 31
0.0
  0
LINE
  8
0
 62
     0
 10
97.9191
 20
70.721
 30
0.0
 11
98.8868
 21
70.8572
 31
0.0
  0
LINE
  8
0
 62
     0
 10
98.8868
 20
70.8572
 30
0.0
 11
99.8541
 21
71.0103
 31
0.0
  0
LINE
  8
0
 62
     0
 10
99.8541
 20
71.0103
 30
0.0
 11
100.821
 21
71.1824
 31
0.0
  0
LINE
  8
0
 62
     0
 10
100.821
 20
71.1824
 30
0.0
 11
101.79
 21
71.3687
 31
0.0
  0
LINE
  8
0
 62
     0
 10
101.79
 20
71.3687
 30
0.0
 11
102.757
 21
71.5684
 31
0.0
  0
LINE
  8
0
 62
     0
 10
102.757
 20
71.5684
 30
0.0
 11
103.725
 21
71.7793
 31
0.0
  0
LINE
  8
0
 62
     0
 10
103.725
 20
71.7793
 30
0.0
 11
104.691
 21
71.9998
 31
0.0
  0
LINE
  8
0
 62
     0
 10
104.691
 20
71.9998
 30
0.0
 11
105.658
 21
72.2284
 31
0.0
  0
LINE
  8
0
 62
     0
 10
105.658
 20
72.2284
 30
0.0
 11
106.624
 21
72.4627
 31
0.0
  0
LINE
  8
0
 62
     0
 10
106.624
 20
72.4627
 30
0.0
 11
107.589
 21
72.7012
 31
0.0
  0
LINE
  8
0
 62
     0
 10
107.589
 20
72.7012
 30
0.0
 11
108.554
 21
72.9425
 31
0.0
  0
LINE
  8
0
 62
     0
 10
108.554
 20
72.9425
 30
0.0
 11
109.518
 21
73.1848
 31
0.0
  0
LINE
  8
0
 62
     0
 10
109.518
 20
73.1848
 30
0.0
 11
110.482
 21
73.4261
 31
0.0
  0
LINE
  8
0
 62
     0
 10
110.482
 20
73.4261
 30
0.0
 11
111.443
 21
73.6632
 31
0.0
  0
LINE
  8
0
 62
     0
 10
111.443
 20
73.6632
 30
0.0
 11
112.404
 21
73.896
 31
0.0
  0
LINE
  8
0
 62
     0
 10
112.404
 20
73.896
 30
0.0
 11
113.363
 21
74.1232
 31
0.0
  0
LINE
  8
0
 62
     0
 10
113.363
 20
74.1232
 30
0.0
 11
114.322
 21
74.3409
 31
0.0
  0
LINE
  8
0
 62
     0
 10
114.322
 20
74.3409
 30
0.0
 11
115.176
 21
74.501
 31
0.0
  0
LINE
  8
0
 62
     0
 10
115.176
 20
74.501
 30
0.0
 11
116.053
 21
74.5755
 31
0.0
  0
LINE
  8
0
 62
     0
 10
116.053
 20
74.5755
 30
0.0
 11
116.899
 21
74.512
 31
0.0
  0
LINE
  8
0
 62
     0
 10
116.899
 20
74.512
 30
0.0
 11
117.662
 21
74.2541
 31
0.0
  0
LINE
  8
0
 62
     0
 10
117.662
 20
74.2541
 30
0.0
 11
118.293
 21
73.7485
 31
0.0
  0
LINE
  8
0
 62
     0
 10
118.293
 20
73.7485
 30
0.0
 11
118.645
 21
73.1668
 31
0.0
  0
LINE
  8
0
 62
     0
 10
118.645
 20
73.1668
 30
0.0
 11
118.846
 21
72.5096
 31
0.0
  0
LINE
  8
0
 62
     0
 10
118.846
 20
72.5096
 30
0.0
 11
118.955
 21
71.8249
 31
0.0
  0
LINE
  8
0
 62
     0
 10
118.955
 20
71.8249
 30
0.0
 11
119.032
 21
70.9112
 31
0.0
  0
LINE
  8
0
 62
     0
 10
119.032
 20
70.9112
 30
0.0
 11
119.053
 21
69.9904
 31
0.0
  0
LINE
  8
0
 62
     0
 10
119.053
 20
69.9904
 30
0.0
 11
119.016
 21
69.07
 31
0.0
  0
LINE
  8
0
 62
     0
 10
119.016
 20
69.07
 30
0.0
 11
118.919
 21
68.1549
 31
0.0
  0
LINE
  8
0
 62
     0
 10
118.919
 20
68.1549
 30
0.0
 11
118.761
 21
67.2511
 31
0.0
  0
LINE
  8
0
 62
     0
 10
118.761
 20
67.2511
 30
0.0
 11
118.539
 21
66.3621
 31
0.0
  0
LINE
  8
0
 62
     0
 10
118.539
 20
66.3621
 30
0.0
 11
118.255
 21
65.4953
 31
0.0
  0
LINE
  8
0
 62
     0
 10
118.255
 20
65.4953
 30
0.0
 11
117.906
 21
64.6546
 31
0.0
  0
LINE
  8
0
 62
     0
 10
117.906
 20
64.6546
 30
0.0
 11
117.49
 21
63.8471
 31
0.0
  0
LINE
  8
0
 62
     0
 10
117.49
 20
63.8471
 30
0.0
 11
117.007
 21
63.0784
 31
0.0
  0
LINE
  8
0
 62
     0
 10
117.007
 20
63.0784
 30
0.0
 11
116.454
 21
62.3521
 31
0.0
  0
LINE
  8
0
 62
     0
 10
116.454
 20
62.3521
 30
0.0
 11
115.83
 21
61.6811
 31
0.0
  0
LINE
  8
0
 62
     0
 10
115.83
 20
61.6811
 30
0.0
 11
115.139
 21
61.0761
 31
0.0
  0
LINE
  8
0
 62
     0
 10
115.139
 20
61.0761
 30
0.0
 11
114.39
 21
60.5398
 31
0.0
  0
LINE
  8
0
 62
     0
 10
114.39
 20
60.5398
 30
0.0
 11
113.592
 21
60.0812
 31
0.0
  0
LINE
  8
0
 62
     0
 10
113.592
 20
60.0812
 30
0.0
 11
112.754
 21
59.7048
 31
0.0
  0
LINE
  8
0
 62
     0
 10
112.754
 20
59.7048
 30
0.0
 11
111.887
 21
59.4155
 31
0.0
  0
LINE
  8
0
 62
     0
 10
111.887
 20
59.4155
 30
0.0
 11
110.998
 21
59.2197
 31
0.0
  0
LINE
  8
0
 62
     0
 10
110.998
 20
59.2197
 30
0.0
 11
110.098
 21
59.122
 31
0.0
  0
LINE
  8
0
 62
     0
 10
110.098
 20
59.122
 30
0.0
 11
109.196
 21
59.1273
 31
0.0
  0
LINE
  8
0
 62
     0
 10
109.196
 20
59.1273
 30
0.0
 11
108.3
 21
59.2434
 31
0.0
  0
LINE
  8
0
 62
     0
 10
108.3
 20
59.2434
 30
0.0
 11
107.421
 21
59.4734
 31
0.0
  0
LINE
  8
0
 62
     0
 10
107.421
 20
59.4734
 30
0.0
 11
106.584
 21
59.8096
 31
0.0
  0
LINE
  8
0
 62
     0
 10
106.584
 20
59.8096
 30
0.0
 11
105.789
 21
60.2273
 31
0.0
  0
LINE
  8
0
 62
     0
 10
105.789
 20
60.2273
 30
0.0
 11
105.027
 21
60.7095
 31
0.0
  0
LINE
  8
0
 62
     0
 10
105.027
 20
60.7095
 30
0.0
 11
104.289
 21
61.2373
 31
0.0
  0
LINE
  8
0
 62
     0
 10
104.289
 20
61.2373
 30
0.0
 11
103.562
 21
61.7926
 31
0.0
  0
LINE
  8
0
 62
     0
 10
103.562
 20
61.7926
 30
0.0
 11
102.842
 21
62.3577
 31
0.0
  0
LINE
  8
0
 62
     0
 10
102.842
 20
62.3577
 30
0.0
 11
102.114
 21
62.9144
 31
0.0
  0
LINE
  8
0
 62
     0
 10
102.114
 20
62.9144
 30
0.0
 11
101.372
 21
63.4421
 31
0.0
  0
LINE
  8
0
 62
     0
 10
101.372
 20
63.4421
 30
0.0
 11
100.573
 21
63.9491
 31
0.0
  0
LINE
  8
0
 62
     0
 10
100.573
 20
63.9491
 30
0.0
 11
99.7507
 21
64.4081
 31
0.0
  0
LINE
  8
0
 62
     0
 10
99.7507
 20
64.4081
 30
0.0
 11
98.9072
 21
64.8201
 31
0.0
  0
LINE
  8
0
 62
     0
 10
98.9072
 20
64.8201
 30
0.0
 11
98.0447
 21
65.1895
 31
0.0
  0
LINE
  8
0
 62
     0
 10
98.0447
 20
65.1895
 30
0.0
 11
97.1642
 21
65.5175
 31
0.0
  0
LINE
  8
0
 62
     0
 10
97.1642
 20
65.5175
 30
0.0
 11
96.2685
 21
65.8082
 31
0.0
  0
LINE
  8
0
 62
     0
 10
96.2685
 20
65.8082
 30
0.0
 11
95.359
 21
66.0633
 31
0.0
  0
LINE
  8
0
 62
     0
 10
95.359
 20
66.0633
 30
0.0
 11
94.4369
 21
66.2852
 31
0.0
  0
LINE
  8
0
 62
     0
 10
94.4369
 20
66.2852
 30
0.0
 11
93.5041
 21
66.4778
 31
0.0
  0
LINE
  8
0
 62
     0
 10
93.5041
 20
66.4778
 30
0.0
 11
92.5629
 21
66.6418
 31
0.0
  0
LINE
  8
0
 62
     0
 10
92.5629
 20
66.6418
 30
0.0
 11
91.6146
 21
66.7826
 31
0.0
  0
LINE
  8
0
 62
     0
 10
91.6146
 20
66.7826
 30
0.0
 11
90.6625
 21
66.9011
 31
0.0
  0
LINE
  8
0
 62
     0
 10
90.6625
 20
66.9011
 30
0.0
 11
89.7047
 21
67.0003
 31
0.0
  0
LINE
  8
0
 62
     0
 10
89.7047
 20
67.0003
 30
0.0
 11
88.7469
 21
67.0814
 31
0.0
  0
LINE
  8
0
 62
     0
 10
88.7469
 20
67.0814
 30
0.0
 11
87.7895
 21
67.1505
 31
0.0
  0
LINE
  8
0
 62
     0
 10
87.7895
 20
67.1505
 30
0.0
 11
86.8345
 21
67.207
 31
0.0
  0
LINE
  8
0
 62
     0
 10
86.8345
 20
67.207
 30
0.0
 11
85.882
 21
67.2553
 31
0.0
  0
LINE
  8
0
 62
     0
 10
85.882
 20
67.2553
 30
0.0
 11
84.927
 21
67.2881
 31
0.0
  0
LINE
  8
0
 62
     0
 10
84.927
 20
67.2881
 30
0.0
 11
83.9625
 21
67.2842
 31
0.0
  0
LINE
  8
0
 62
     0
 10
83.9625
 20
67.2842
 30
0.0
 11
83.0047
 21
67.2207
 31
0.0
  0
LINE
  8
0
 62
     0
 10
83.0047
 20
67.2207
 30
0.0
 11
82.072
 21
67.0719
 31
0.0
  0
LINE
  8
0
 62
     0
 10
82.072
 20
67.0719
 30
0.0
 11
81.1816
 21
66.8154
 31
0.0
  0
LINE
  8
0
 62
     0
 10
81.1816
 20
66.8154
 30
0.0
 11
80.3522
 21
66.4284
 31
0.0
  0
LINE
  8
0
 62
     0
 10
80.3522
 20
66.4284
 30
0.0
 11
79.6025
 21
65.8869
 31
0.0
  0
LINE
  8
0
 62
     0
 10
79.6025
 20
65.8869
 30
0.0
 11
78.9563
 21
65.1591
 31
0.0
  0
LINE
  8
0
 62
     0
 10
78.9563
 20
65.1591
 30
0.0
 11
78.5153
 21
64.3308
 31
0.0
  0
LINE
  8
0
 62
     0
 10
78.5153
 20
64.3308
 30
0.0
 11
78.2655
 21
63.4298
 31
0.0
  0
LINE
  8
0
 62
     0
 10
78.2655
 20
63.4298
 30
0.0
 11
78.1953
 21
62.4801
 31
0.0
  0
LINE
  8
0
 62
     0
 10
78.1953
 20
62.4801
 30
0.0
 11
78.292
 21
61.5075
 31
0.0
  0
LINE
  8
0
 62
     0
 10
78.292
 20
61.5075
 30
0.0
 11
78.5428
 21
60.536
 31
0.0
  0
LINE
  8
0
 62
     0
 10
78.5428
 20
60.536
 30
0.0
 11
78.9354
 21
59.5933
 31
0.0
  0
LINE
  8
0
 62
     0
 10
78.9354
 20
59.5933
 30
0.0
 11
79.4561
 21
58.7029
 31
0.0
  0
LINE
  8
0
 62
     0
 10
79.4561
 20
58.7029
 30
0.0
 11
80.0929
 21
57.8901
 31
0.0
  0
LINE
  8
0
 62
     0
 10
80.0929
 20
57.8901
 30
0.0
 11
80.833
 21
57.1817
 31
0.0
  0
LINE
  8
0
 62
     0
 10
80.833
 20
57.1817
 30
0.0
 11
81.6638
 21
56.6
 31
0.0
  0
LINE
  8
0
 62
     0
 10
81.6638
 20
56.6
 30
0.0
 11
82.4784
 21
56.177
 31
0.0
  0
LINE
  8
0
 62
     0
 10
82.4784
 20
56.177
 30
0.0
 11
83.3205
 21
55.8341
 31
0.0
  0
LINE
  8
0
 62
     0
 10
83.3205
 20
55.8341
 30
0.0
 11
84.1858
 21
55.5625
 31
0.0
  0
LINE
  8
0
 62
     0
 10
84.1858
 20
55.5625
 30
0.0
 11
85.0717
 21
55.3558
 31
0.0
  0
LINE
  8
0
 62
     0
 10
85.0717
 20
55.3558
 30
0.0
 11
85.9758
 21
55.2055
 31
0.0
  0
LINE
  8
0
 62
     0
 10
85.9758
 20
55.2055
 30
0.0
 11
86.8938
 21
55.1021
 31
0.0
  0
LINE
  8
0
 62
     0
 10
86.8938
 20
55.1021
 30
0.0
 11
87.8223
 21
55.0404
 31
0.0
  0
LINE
  8
0
 62
     0
 10
87.8223
 20
55.0404
 30
0.0
 11
88.7582
 21
55.0115
 31
0.0
  0
LINE
  8
0
 62
     0
 10
88.7582
 20
55.0115
 30
0.0
 11
89.6966
 21
55.0072
 31
0.0
  0
LINE
  8
0
 62
     0
 10
89.6966
 20
55.0072
 30
0.0
 11
90.6364
 21
55.0196
 31
0.0
  0
LINE
  8
0
 62
     0
 10
90.6364
 20
55.0196
 30
0.0
 11
91.5719
 21
55.0404
 31
0.0
  0
LINE
  8
0
 62
     0
 10
91.5719
 20
55.0404
 30
0.0
 11
92.5008
 21
55.0637
 31
0.0
  0
LINE
  8
0
 62
     0
 10
92.5008
 20
55.0637
 30
0.0
 11
93.4805
 21
55.1159
 31
0.0
  0
LINE
  8
0
 62
     0
 10
93.4805
 20
55.1159
 30
0.0
 11
94.5074
 21
55.2154
 31
0.0
  0
LINE
  8
0
 62
     0
 10
94.5074
 20
55.2154
 30
0.0
 11
95.5682
 21
55.3392
 31
0.0
  0
LINE
  8
0
 62
     0
 10
95.5682
 20
55.3392
 30
0.0
 11
96.6431
 21
55.4662
 31
0.0
  0
LINE
  8
0
 62
     0
 10
96.6431
 20
55.4662
 30
0.0
 11
97.7152
 21
55.5696
 31
0.0
  0
LINE
  8
0
 62
     0
 10
97.7152
 20
55.5696
 30
0.0
 11
98.7697
 21
55.6299
 31
0.0
  0
LINE
  8
0
 62
     0
 10
98.7697
 20
55.6299
 30
0.0
 11
99.7878
 21
55.6218
 31
0.0
  0
LINE
  8
0
 62
     0
 10
99.7878
 20
55.6218
 30
0.0
 11
100.754
 21
55.5212
 31
0.0
  0
LINE
  8
0
 62
     0
 10
100.754
 20
55.5212
 30
0.0
 11
101.65
 21
55.3074
 31
0.0
  0
LINE
  8
0
 62
     0
 10
101.65
 20
55.3074
 30
0.0
 11
102.459
 21
54.9575
 31
0.0
  0
LINE
  8
0
 62
     0
 10
102.459
 20
54.9575
 30
0.0
 11
103.164
 21
54.4463
 31
0.0
  0
LINE
  8
0
 62
     0
 10
103.164
 20
54.4463
 30
0.0
 11
103.748
 21
53.7503
 31
0.0
  0
LINE
  8
0
 62
     0
 10
103.748
 20
53.7503
 30
0.0
 11
104.027
 21
53.2059
 31
0.0
  0
LINE
  8
0
 62
     0
 10
104.027
 20
53.2059
 30
0.0
 11
104.213
 21
52.5709
 31
0.0
  0
LINE
  8
0
 62
     0
 10
104.213
 20
52.5709
 30
0.0
 11
104.311
 21
51.8555
 31
0.0
  0
LINE
  8
0
 62
     0
 10
104.311
 20
51.8555
 30
0.0
 11
104.326
 21
51.0688
 31
0.0
  0
LINE
  8
0
 62
     0
 10
104.326
 20
51.0688
 30
0.0
 11
104.26
 21
50.2186
 31
0.0
  0
LINE
  8
0
 62
     0
 10
104.26
 20
50.2186
 30
0.0
 11
104.118
 21
49.3159
 31
0.0
  0
LINE
  8
0
 62
     0
 10
104.118
 20
49.3159
 30
0.0
 11
103.903
 21
48.3665
 31
0.0
  0
LINE
  8
0
 62
     0
 10
103.903
 20
48.3665
 30
0.0
 11
103.62
 21
47.3826
 31
0.0
  0
LINE
  8
0
 62
     0
 10
103.62
 20
47.3826
 30
0.0
 11
103.273
 21
46.3709
 31
0.0
  0
LINE
  8
0
 62
     0
 10
103.273
 20
46.3709
 30
0.0
 11
102.864
 21
45.3401
 31
0.0
  0
LINE
  8
0
 62
     0
 10
102.864
 20
45.3401
 30
0.0
 11
102.398
 21
44.2997
 31
0.0
  0
LINE
  8
0
 62
     0
 10
102.398
 20
44.2997
 30
0.0
 11
101.88
 21
43.2594
 31
0.0
  0
LINE
  8
0
 62
     0
 10
101.88
 20
43.2594
 30
0.0
 11
101.312
 21
42.2271
 31
0.0
  0
LINE
  8
0
 62
     0
 10
101.312
 20
42.2271
 30
0.0
 11
100.699
 21
41.2115
 31
0.0
  0
LINE
  8
0
 62
     0
 10
100.699
 20
41.2115
 30
0.0
 11
100.044
 21
40.2223
 31
0.0
  0
LINE
  8
0
 62
     0
 10
100.044
 20
40.2223
 30
0.0
 11
99.351
 21
39.2688
 31
0.0
  0
LINE
  8
0
 62
     0
 10
99.351
 20
39.2688
 30
0.0
 11
98.6247
 21
38.3575
 31
0.0
  0
LINE
  8
0
 62
     0
 10
98.6247
 20
38.3575
 30
0.0
 11
97.8683
 21
37.4992
 31
0.0
  0
LINE
  8
0
 62
     0
 10
97.8683
 20
37.4992
 30
0.0
 11
97.0855
 21
36.7026
 31
0.0
  0
LINE
  8
0
 62
     0
 10
97.0855
 20
36.7026
 30
0.0
 11
96.2794
 21
35.9763
 31
0.0
  0
LINE
  8
0
 62
     0
 10
96.2794
 20
35.9763
 30
0.0
 11
95.4567
 21
35.3289
 31
0.0
  0
LINE
  8
0
 62
     0
 10
95.4567
 20
35.3289
 30
0.0
 11
94.6189
 21
34.7693
 31
0.0
  0
LINE
  8
0
 62
     0
 10
94.6189
 20
34.7693
 30
0.0
 11
93.7701
 21
34.3076
 31
0.0
  0
LINE
  8
0
 62
     0
 10
93.7701
 20
34.3076
 30
0.0
 11
92.9143
 21
33.9507
 31
0.0
  0
LINE
  8
0
 62
     0
 10
92.9143
 20
33.9507
 30
0.0
 11
92.0542
 21
33.7082
 31
0.0
  0
LINE
  8
0
 62
     0
 10
92.0542
 20
33.7082
 30
0.0
 11
91.1973
 21
33.5897
 31
0.0
  0
LINE
  8
0
 62
     0
 10
91.1973
 20
33.5897
 30
0.0
 11
90.3429
 21
33.6035
 31
0.0
  0
LINE
  8
0
 62
     0
 10
90.3429
 20
33.6035
 30
0.0
 11
89.498
 21
33.7592
 31
0.0
  0
LINE
  8
0
 62
     0
 10
89.498
 20
33.7592
 30
0.0
 11
88.1726
 21
34.2401
 31
0.0
  0
LINE
  8
0
 62
     0
 10
88.1726
 20
34.2401
 30
0.0
 11
87.1816
 21
34.8423
 31
0.0
  0
LINE
  8
0
 62
     0
 10
87.1816
 20
34.8423
 30
0.0
 11
86.4704
 21
35.5424
 31
0.0
  0
LINE
  8
0
 62
     0
 10
86.4704
 20
35.5424
 30
0.0
 11
85.9801
 21
36.3181
 31
0.0
  0
LINE
  8
0
 62
     0
 10
85.9801
 20
36.3181
 30
0.0
 11
85.6562
 21
37.145
 31
0.0
  0
LINE
  8
0
 62
     0
 10
85.6562
 20
37.145
 30
0.0
 11
85.4396
 21
38.0009
 31
0.0
  0
LINE
  8
0
 62
     0
 10
85.4396
 20
38.0009
 30
0.0
 11
85.2759
 21
38.862
 31
0.0
  0
LINE
  8
0
 62
     0
 10
85.2759
 20
38.862
 30
0.0
 11
85.1076
 21
39.7055
 31
0.0
  0
LINE
  8
0
 62
     0
 10
85.1076
 20
39.7055
 30
0.0
 11
84.8762
 21
40.5088
 31
0.0
  0
LINE
  8
0
 62
     0
 10
84.8762
 20
40.5088
 30
0.0
 11
84.5263
 21
41.2475
 31
0.0
  0
LINE
  8
0
 62
     0
 10
84.5263
 20
41.2475
 30
0.0
 11
84.0024
 21
41.898
 31
0.0
  0
LINE
  8
0
 62
     0
 10
84.0024
 20
41.898
 30
0.0
 11
83.2446
 21
42.4395
 31
0.0
  0
LINE
  8
0
 62
     0
 10
83.2446
 20
42.4395
 30
0.0
 11
82.1986
 21
42.8473
 31
0.0
  0
LINE
  8
0
 62
     0
 10
82.1986
 20
42.8473
 30
0.0
 11
81.0383
 21
43.101
 31
0.0
  0
LINE
  8
0
 62
     0
 10
81.0383
 20
43.101
 30
0.0
 11
79.9715
 21
43.2058
 31
0.0
  0
LINE
  8
0
 62
     0
 10
79.9715
 20
43.2058
 30
0.0
 11
78.9876
 21
43.174
 31
0.0
  0
LINE
  8
0
 62
     0
 10
78.9876
 20
43.174
 30
0.0
 11
78.0796
 21
43.0209
 31
0.0
  0
LINE
  8
0
 62
     0
 10
78.0796
 20
43.0209
 30
0.0
 11
77.2365
 21
42.762
 31
0.0
  0
LINE
  8
0
 62
     0
 10
77.2365
 20
42.762
 30
0.0
 11
76.4494
 21
42.4106
 31
0.0
  0
LINE
  8
0
 62
     0
 10
76.4494
 20
42.4106
 30
0.0
 11
75.7093
 21
41.9806
 31
0.0
  0
LINE
  8
0
 62
     0
 10
75.7093
 20
41.9806
 30
0.0
 11
75.0066
 21
41.486
 31
0.0
  0
LINE
  8
0
 62
     0
 10
75.0066
 20
41.486
 30
0.0
 11
74.3327
 21
40.9416
 31
0.0
  0
LINE
  8
0
 62
     0
 10
74.3327
 20
40.9416
 30
0.0
 11
73.6783
 21
40.3627
 31
0.0
  0
LINE
  8
0
 62
     0
 10
73.6783
 20
40.3627
 30
0.0
 11
73.0345
 21
39.7619
 31
0.0
  0
LINE
  8
0
 62
     0
 10
73.0345
 20
39.7619
 30
0.0
 11
72.3911
 21
39.1555
 31
0.0
  0
LINE
  8
0
 62
     0
 10
72.3911
 20
39.1555
 30
0.0
 11
71.7391
 21
38.5561
 31
0.0
  0
LINE
  8
0
 62
     0
 10
71.7391
 20
38.5561
 30
0.0
 11
71.0639
 21
37.8795
 31
0.0
  0
LINE
  8
0
 62
     0
 10
71.0639
 20
37.8795
 30
0.0
 11
70.4674
 21
37.1341
 31
0.0
  0
LINE
  8
0
 62
     0
 10
70.4674
 20
37.1341
 30
0.0
 11
69.9505
 21
36.3319
 31
0.0
  0
LINE
  8
0
 62
     0
 10
69.9505
 20
36.3319
 30
0.0
 11
69.5166
 21
35.4817
 31
0.0
  0
LINE
  8
0
 62
     0
 10
69.5166
 20
35.4817
 30
0.0
 11
69.1677
 21
34.5901
 31
0.0
  0
LINE
  8
0
 62
     0
 10
69.1677
 20
34.5901
 30
0.0
 11
68.9046
 21
33.6696
 31
0.0
  0
LINE
  8
0
 62
     0
 10
68.9046
 20
33.6696
 30
0.0
 11
68.7324
 21
32.7284
 31
0.0
  0
LINE
  8
0
 62
     0
 10
68.7324
 20
32.7284
 30
0.0
 11
68.6513
 21
31.7762
 31
0.0
  0
LINE
  8
0
 62
     0
 10
68.6513
 20
31.7762
 30
0.0
 11
68.6622
 21
30.8212
 31
0.0
  0
LINE
  8
0
 62
     0
 10
68.6622
 20
30.8212
 30
0.0
 11
68.7698
 21
29.8731
 31
0.0
  0
LINE
  8
0
 62
     0
 10
68.7698
 20
29.8731
 30
0.0
 11
68.9762
 21
28.9416
 31
0.0
  0
LINE
  8
0
 62
     0
 10
68.9762
 20
28.9416
 30
0.0
 11
69.281
 21
28.0362
 31
0.0
  0
LINE
  8
0
 62
     0
 10
69.281
 20
28.0362
 30
0.0
 11
69.6239
 21
27.2617
 31
0.0
  0
LINE
  8
0
 62
     0
 10
69.6239
 20
27.2617
 30
0.0
 11
69.9946
 21
26.4956
 31
0.0
  0
LINE
  8
0
 62
     0
 10
69.9946
 20
26.4956
 30
0.0
 11
70.3474
 21
25.7266
 31
0.0
  0
LINE
  8
0
 62
     0
 10
70.3474
 20
25.7266
 30
0.0
 11
70.6409
 21
24.9411
 31
0.0
  0
LINE
  8
0
 62
     0
 10
70.6409
 20
24.9411
 30
0.0
 11
70.8297
 21
24.1253
 31
0.0
  0
LINE
  8
0
 62
     0
 10
70.8297
 20
24.1253
 30
0.0
 11
70.8561
 21
23.1593
 31
0.0
  0
LINE
  8
0
 62
     0
 10
70.8561
 20
23.1593
 30
0.0
 11
70.667
 21
22.2319
 31
0.0
  0
LINE
  8
0
 62
     0
 10
70.667
 20
22.2319
 30
0.0
 11
70.2867
 21
21.3624
 31
0.0
  0
LINE
  8
0
 62
     0
 10
70.2867
 20
21.3624
 30
0.0
 11
69.7438
 21
20.5686
 31
0.0
  0
LINE
  8
0
 62
     0
 10
69.7438
 20
20.5686
 30
0.0
 11
69.0619
 21
19.8686
 31
0.0
  0
LINE
  8
0
 62
     0
 10
69.0619
 20
19.8686
 30
0.0
 11
68.2667
 21
19.2829
 31
0.0
  0
LINE
  8
0
 62
     0
 10
68.2667
 20
19.2829
 30
0.0
 11
67.3862
 21
18.8268
 31
0.0
  0
LINE
  8
0
 62
     0
 10
67.3862
 20
18.8268
 30
0.0
 11
66.4464
 21
18.5222
 31
0.0
  0
LINE
  8
0
 62
     0
 10
66.4464
 20
18.5222
 30
0.0
 11
65.4706
 21
18.3844
 31
0.0
  0
LINE
  8
0
 62
     0
 10
65.4706
 20
18.3844
 30
0.0
 11
64.4867
 21
18.434
 31
0.0
  0
LINE
  8
0
 62
     0
 10
64.4867
 20
18.434
 30
0.0
 11
63.5346
 21
18.66
 31
0.0
  0
LINE
  8
0
 62
     0
 10
63.5346
 20
18.66
 30
0.0
 11
62.6389
 21
19.0293
 31
0.0
  0
LINE
  8
0
 62
     0
 10
62.6389
 20
19.0293
 30
0.0
 11
61.8077
 21
19.5282
 31
0.0
  0
LINE
  8
0
 62
     0
 10
61.8077
 20
19.5282
 30
0.0
 11
61.0485
 21
20.14
 31
0.0
  0
LINE
  8
0
 62
     0
 10
61.0485
 20
20.14
 30
0.0
 11
60.3663
 21
20.8497
 31
0.0
  0
LINE
  8
0
 62
     0
 10
60.3663
 20
20.8497
 30
0.0
 11
59.7697
 21
21.6421
 31
0.0
  0
LINE
  8
0
 62
     0
 10
59.7697
 20
21.6421
 30
0.0
 11
59.2667
 21
22.5048
 31
0.0
  0
LINE
  8
0
 62
     0
 10
59.2667
 20
22.5048
 30
0.0
 11
58.8617
 21
23.4184
 31
0.0
  0
LINE
  8
0
 62
     0
 10
58.8617
 20
23.4184
 30
0.0
 11
58.5639
 21
24.372
 31
0.0
  0
LINE
  8
0
 62
     0
 10
58.5639
 20
24.372
 30
0.0
 11
58.3805
 21
25.3476
 31
0.0
  0
LINE
  8
0
 62
     0
 10
58.3805
 20
25.3476
 30
0.0
 11
58.262
 21
26.3412
 31
0.0
  0
LINE
  8
0
 62
     0
 10
58.262
 20
26.3412
 30
0.0
 11
58.1201
 21
27.3761
 31
0.0
  0
LINE
  8
0
 62
     0
 10
58.1201
 20
27.3761
 30
0.0
 11
57.9191
 21
28.3876
 31
0.0
  0
LINE
  8
0
 62
     0
 10
57.9191
 20
28.3876
 30
0.0
 11
57.6157
 21
29.3109
 31
0.0
  0
LINE
  8
0
 62
     0
 10
57.6157
 20
29.3109
 30
0.0
 11
57.1761
 21
30.0826
 31
0.0
  0
LINE
  8
0
 62
     0
 10
57.1761
 20
30.0826
 30
0.0
 11
56.5587
 21
30.6352
 31
0.0
  0
LINE
  8
0
 62
     0
 10
56.5587
 20
30.6352
 30
0.0
 11
55.7265
 21
30.9066
 31
0.0
  0
LINE
  8
0
 62
     0
 10
55.7265
 20
30.9066
 30
0.0
 11
54.9243
 21
30.8446
 31
0.0
  0
LINE
  8
0
 62
     0
 10
54.9243
 20
30.8446
 30
0.0
 11
54.2382
 21
30.5015
 31
0.0
  0
LINE
  8
0
 62
     0
 10
54.2382
 20
30.5015
 30
0.0
 11
53.6607
 21
29.9351
 31
0.0
  0
LINE
  8
0
 62
     0
 10
53.6607
 20
29.9351
 30
0.0
 11
53.1883
 21
29.2048
 31
0.0
  0
LINE
  8
0
 62
     0
 10
53.1883
 20
29.2048
 30
0.0
 11
52.8161
 21
28.3669
 31
0.0
  0
LINE
  8
0
 62
     0
 10
52.8161
 20
28.3669
 30
0.0
 11
52.5364
 21
27.4794
 31
0.0
  0
LINE
  8
0
 62
     0
 10
52.5364
 20
27.4794
 30
0.0
 11
52.3462
 21
26.6017
 31
0.0
  0
LINE
  8
0
 62
     0
 10
52.3462
 20
26.6017
 30
0.0
 11
52.1945
 21
25.6742
 31
0.0
  0
LINE
  8
0
 62
     0
 10
52.1945
 20
25.6742
 30
0.0
 11
52.0651
 21
24.7206
 31
0.0
  0
LINE
  8
0
 62
     0
 10
52.0651
 20
24.7206
 30
0.0
 11
51.9673
 21
23.7546
 31
0.0
  0
LINE
  8
0
 62
     0
 10
51.9673
 20
23.7546
 30
0.0
 11
51.9095
 21
22.7845
 31
0.0
  0
LINE
  8
0
 62
     0
 10
51.9095
 20
22.7845
 30
0.0
 11
51.8982
 21
21.8199
 31
0.0
  0
LINE
  8
0
 62
     0
 10
51.8982
 20
21.8199
 30
0.0
 11
51.9465
 21
20.869
 31
0.0
  0
LINE
  8
0
 62
     0
 10
51.9465
 20
20.869
 30
0.0
 11
52.0594
 21
19.9444
 31
0.0
  0
LINE
  8
0
 62
     0
 10
52.0594
 20
19.9444
 30
0.0
 11
52.2496
 21
19.0528
 31
0.0
  0
LINE
  8
0
 62
     0
 10
52.2496
 20
19.0528
 30
0.0
 11
52.5226
 21
18.2067
 31
0.0
  0
LINE
  8
0
 62
     0
 10
52.5226
 20
18.2067
 30
0.0
 11
52.8906
 21
17.4143
 31
0.0
  0
LINE
  8
0
 62
     0
 10
52.8906
 20
17.4143
 30
0.0
 11
53.359
 21
16.6853
 31
0.0
  0
LINE
  8
0
 62
     0
 10
53.359
 20
16.6853
 30
0.0
 11
53.939
 21
16.0307
 31
0.0
  0
LINE
  8
0
 62
     0
 10
53.939
 20
16.0307
 30
0.0
 11
54.6393
 21
15.4575
 31
0.0
  0
LINE
  8
0
 62
     0
 10
54.6393
 20
15.4575
 30
0.0
 11
55.4383
 21
14.9972
 31
0.0
  0
LINE
  8
0
 62
     0
 10
55.4383
 20
14.9972
 30
0.0
 11
56.2913
 21
14.6554
 31
0.0
  0
LINE
  8
0
 62
     0
 10
56.2913
 20
14.6554
 30
0.0
 11
57.187
 21
14.4088
 31
0.0
  0
LINE
  8
0
 62
     0
 10
57.187
 20
14.4088
 30
0.0
 11
58.1078
 21
14.2296
 31
0.0
  0
LINE
  8
0
 62
     0
 10
58.1078
 20
14.2296
 30
0.0
 11
59.0405
 21
14.0904
 31
0.0
  0
LINE
  8
0
 62
     0
 10
59.0405
 20
14.0904
 30
0.0
 11
59.9708
 21
13.965
 31
0.0
  0
LINE
  8
0
 62
     0
 10
59.9708
 20
13.965
 30
0.0
 11
60.9466
 21
13.8204
 31
0.0
  0
LINE
  8
0
 62
     0
 10
60.9466
 20
13.8204
 30
0.0
 11
61.9196
 21
13.655
 31
0.0
  0
LINE
  8
0
 62
     0
 10
61.9196
 20
13.655
 30
0.0
 11
62.8883
 21
13.4676
 31
0.0
  0
LINE
  8
0
 62
     0
 10
62.8883
 20
13.4676
 30
0.0
 11
63.8528
 21
13.2608
 31
0.0
  0
LINE
  8
0
 62
     0
 10
63.8528
 20
13.2608
 30
0.0
 11
64.812
 21
13.0349
 31
0.0
  0
LINE
  8
0
 62
     0
 10
64.812
 20
13.0349
 30
0.0
 11
65.7669
 21
12.7868
 31
0.0
  0
LINE
  8
0
 62
     0
 10
65.7669
 20
12.7868
 30
0.0
 11
66.7163
 21
12.5195
 31
0.0
  0
LINE
  8
0
 62
     0
 10
66.7163
 20
12.5195
 30
0.0
 11
67.6603
 21
12.2329
 31
0.0
  0
LINE
  8
0
 62
     0
 10
67.6603
 20
12.2329
 30
0.0
 11
68.5973
 21
11.9269
 31
0.0
  0
LINE
  8
0
 62
     0
 10
68.5973
 20
11.9269
 30
0.0
 11
69.529
 21
11.6003
 31
0.0
  0
LINE
  8
0
 62
     0
 10
69.529
 20
11.6003
 30
0.0
 11
70.4522
 21
11.2558
 31
0.0
  0
LINE
  8
0
 62
     0
 10
70.4522
 20
11.2558
 30
0.0
 11
71.3687
 21
10.8906
 31
0.0
  0
LINE
  8
0
 62
     0
 10
71.3687
 20
10.8906
 30
0.0
 11
72.2782
 21
10.5062
 31
0.0
  0
LINE
  8
0
 62
     0
 10
72.2782
 20
10.5062
 30
0.0
 11
73.1781
 21
10.1038
 31
0.0
  0
LINE
  8
0
 62
     0
 10
73.1781
 20
10.1038
 30
0.0
 11
74.0696
 21
9.68209
 31
0.0
  0
LINE
  8
0
 62
     0
 10
74.0696
 20
9.68209
 30
0.0
 11
74.9515
 21
9.24112
 31
0.0
  0
LINE
  8
0
 62
     0
 10
74.9515
 20
9.24112
 30
0.0
 11
75.8254
 21
8.78223
 31
0.0
  0
LINE
  8
0
 62
     0
 10
75.8254
 20
8.78223
 30
0.0
 11
76.5665
 21
8.35642
 31
0.0
  0
LINE
  8
0
 62
     0
 10
76.5665
 20
8.35642
 30
0.0
 11
77.2679
 21
7.8686
 31
0.0
  0
LINE
  8
0
 62
     0
 10
77.2679
 20
7.8686
 30
0.0
 11
77.8729
 21
7.28846
 31
0.0
  0
LINE
  8
0
 62
     0
 10
77.8729
 20
7.28846
 30
0.0
 11
78.3248
 21
6.58841
 31
0.0
  0
LINE
  8
0
 62
     0
 10
78.3248
 20
6.58841
 30
0.0
 11
78.5661
 21
5.74089
 31
0.0
  0
LINE
  8
0
 62
     0
 10
78.5661
 20
5.74089
 30
0.0
 11
78.5414
 21
4.881
 31
0.0
  0
LINE
  8
0
 62
     0
 10
78.5414
 20
4.881
 30
0.0
 11
78.2877
 21
4.03627
 31
0.0
  0
LINE
  8
0
 62
     0
 10
78.2877
 20
4.03627
 30
0.0
 11
77.8468
 21
3.2315
 31
0.0
  0
LINE
  8
0
 62
     0
 10
77.8468
 20
3.2315
 30
0.0
 11
77.2555
 21
2.49563
 31
0.0
  0
LINE
  8
0
 62
     0
 10
77.2555
 20
2.49563
 30
0.0
 11
76.5528
 21
1.85346
 31
0.0
  0
LINE
  8
0
 62
     0
 10
76.5528
 20
1.85346
 30
0.0
 11
75.777
 21
1.33119
 31
0.0
  0
LINE
  8
0
 62
     0
 10
75.777
 20
1.33119
 30
0.0
 11
74.961
 21
0.921907
 31
0.0
  0
LINE
  8
0
 62
     0
 10
74.961
 20
0.921907
 30
0.0
 11
74.1137
 21
0.591178
 31
0.0
  0
LINE
  8
0
 62
     0
 10
74.1137
 20
0.591178
 30
0.0
 11
73.2413
 21
0.338998
 31
0.0
  0
LINE
  8
0
 62
     0
 10
73.2413
 20
0.338998
 30
0.0
 11
72.3498
 21
0.159852
 31
0.0
  0
LINE
  8
0
 62
     0
 10
72.3498
 20
0.159852
 30
0.0
 11
71.4417
 21
0.0537436
 31
0.0
  0
LINE
  8
0
 62
     0
 10
71.4417
 20
0.0537436
 30
0.0
 11
70.5252
 21
0.0151584
 31
0.0
  0
LINE
  8
0
 62
     0
 10
70.5252
 20
0.0151584
 30
0.0
 11
69.6048
 21
0.0413413
 31
0.0
  0
LINE
  8
0
 62
     0
 10
69.6048
 20
0.0413413
 30
0.0
 11
68.6855
 21
0.128157
 31
0.0
  0
LINE
  8
0
 62
     0
 10
68.6855
 20
0.128157
 30
0.0
 11
67.7718
 21
0.275608
 31
0.0
  0
LINE
  8
0
 62
     0
 10
67.7718
 20
0.275608
 30
0.0
 11
66.8708
 21
0.47818
 31
0.0
  0
LINE
  8
0
 62
     0
 10
66.8708
 20
0.47818
 30
0.0
 11
65.9874
 21
0.733118
 31
0.0
  0
LINE
  8
0
 62
     0
 10
65.9874
 20
0.733118
 30
0.0
 11
65.1235
 21
1.03628
 31
0.0
  0
LINE
  8
0
 62
     0
 10
65.1235
 20
1.03628
 30
0.0
 11
64.2758
 21
1.38079
 31
0.0
  0
LINE
  8
0
 62
     0
 10
64.2758
 20
1.38079
 30
0.0
 11
63.445
 21
1.76251
 31
0.0
  0
LINE
  8
0
 62
     0
 10
63.445
 20
1.76251
 30
0.0
 11
62.6304
 21
2.1773
 31
0.0
  0
LINE
  8
0
 62
     0
 10
62.6304
 20
2.1773
 30
0.0
 11
61.83
 21
2.62378
 31
0.0
  0
LINE
  8
0
 62
     0
 10
61.83
 20
2.62378
 30
0.0
 11
61.0443
 21
3.09783
 31
0.0
  0
LINE
  8
0
 62
     0
 10
61.0443
 20
3.09783
 30
0.0
 11
60.27
 21
3.59392
 31
0.0
  0
LINE
  8
0
 62
     0
 10
60.27
 20
3.59392
 30
0.0
 11
59.508
 21
4.1093
 31
0.0
  0
LINE
  8
0
 62
     0
 10
59.508
 20
4.1093
 30
0.0
 11
58.7555
 21
4.64263
 31
0.0
  0
LINE
  8
0
 62
     0
 10
58.7555
 20
4.64263
 30
0.0
 11
58.014
 21
5.18693
 31
0.0
  0
LINE
  8
0
 62
     0
 10
58.014
 20
5.18693
 30
0.0
 11
57.2795
 21
5.73952
 31
0.0
  0
LINE
  8
0
 62
     0
 10
57.2795
 20
5.73952
 30
0.0
 11
56.4885
 21
6.35
 31
0.0
  0
LINE
  8
0
 62
     0
 10
56.4885
 20
6.35
 30
0.0
 11
55.7018
 21
6.96874
 31
0.0
  0
LINE
  8
0
 62
     0
 10
55.7018
 20
6.96874
 30
0.0
 11
54.9219
 21
7.59435
 31
0.0
  0
LINE
  8
0
 62
     0
 10
54.9219
 20
7.59435
 30
0.0
 11
54.1472
 21
8.22688
 31
0.0
  0
LINE
  8
0
 62
     0
 10
54.1472
 20
8.22688
 30
0.0
 11
53.3799
 21
8.86767
 31
0.0
  0
LINE
  8
0
 62
     0
 10
53.3799
 20
8.86767
 30
0.0
 11
52.6175
 21
9.51537
 31
0.0
  0
LINE
  8
0
 62
     0
 10
52.6175
 20
9.51537
 30
0.0
 11
51.8626
 21
10.1713
 31
0.0
  0
LINE
  8
0
 62
     0
 10
51.8626
 20
10.1713
 30
0.0
 11
51.1129
 21
10.8341
 31
0.0
  0
LINE
  8
0
 62
     0
 10
51.1129
 20
10.8341
 30
0.0
 11
50.3714
 21
11.5039
 31
0.0
  0
LINE
  8
0
 62
     0
 10
50.3714
 20
11.5039
 30
0.0
 11
49.6355
 21
12.1805
 31
0.0
  0
LINE
  8
0
 62
     0
 10
49.6355
 20
12.1805
 30
0.0
 11
48.9066
 21
12.864
 31
0.0
  0
LINE
  8
0
 62
     0
 10
48.9066
 20
12.864
 30
0.0
 11
48.1831
 21
13.5558
 31
0.0
  0
LINE
  8
0
 62
     0
 10
48.1831
 20
13.5558
 30
0.0
 11
47.4528
 21
14.253
 31
0.0
  0
LINE
  8
0
 62
     0
 10
47.4528
 20
14.253
 30
0.0
 11
46.6908
 21
14.9503
 31
0.0
  0
LINE
  8
0
 62
     0
 10
46.6908
 20
14.9503
 30
0.0
 11
45.8996
 21
15.6325
 31
0.0
  0
LINE
  8
0
 62
     0
 10
45.8996
 20
15.6325
 30
0.0
 11
45.0854
 21
16.2815
 31
0.0
  0
LINE
  8
0
 62
     0
 10
45.0854
 20
16.2815
 30
0.0
 11
44.2447
 21
16.881
 31
0.0
  0
LINE
  8
0
 62
     0
 10
44.2447
 20
16.881
 30
0.0
 11
43.3846
 21
17.4143
 31
0.0
  0
LINE
  8
0
 62
     0
 10
43.3846
 20
17.4143
 30
0.0
 11
42.5055
 21
17.8635
 31
0.0
  0
LINE
  8
0
 62
     0
 10
42.5055
 20
17.8635
 30
0.0
 11
41.6084
 21
18.2122
 31
0.0
  0
LINE
  8
0
 62
     0
 10
41.6084
 20
18.2122
 30
0.0
 11
40.6975
 21
18.4437
 31
0.0
  0
LINE
  8
0
 62
     0
 10
40.6975
 20
18.4437
 30
0.0
 11
39.7743
 21
18.5415
 31
0.0
  0
LINE
  8
0
 62
     0
 10
39.7743
 20
18.5415
 30
0.0
 11
38.8401
 21
18.4892
 31
0.0
  0
LINE
  8
0
 62
     0
 10
38.8401
 20
18.4892
 30
0.0
 11
37.8989
 21
18.2673
 31
0.0
  0
LINE
  8
0
 62
     0
 10
37.8989
 20
18.2673
 30
0.0
 11
37.0307
 21
17.8993
 31
0.0
  0
LINE
  8
0
 62
     0
 10
37.0307
 20
17.8993
 30
0.0
 11
36.2603
 21
17.4101
 31
0.0
  0
LINE
  8
0
 62
     0
 10
36.2603
 20
17.4101
 30
0.0
 11
35.5755
 21
16.8148
 31
0.0
  0
LINE
  8
0
 62
     0
 10
35.5755
 20
16.8148
 30
0.0
 11
34.9636
 21
16.13
 31
0.0
  0
LINE
  8
0
 62
     0
 10
34.9636
 20
16.13
 30
0.0
 11
34.411
 21
15.3679
 31
0.0
  0
LINE
  8
0
 62
     0
 10
34.411
 20
15.3679
 30
0.0
 11
33.9066
 21
14.5452
 31
0.0
  0
LINE
  8
0
 62
     0
 10
33.9066
 20
14.5452
 30
0.0
 11
33.4381
 21
13.677
 31
0.0
  0
LINE
  8
0
 62
     0
 10
33.4381
 20
13.677
 30
0.0
 11
32.9902
 21
12.7786
 31
0.0
  0
LINE
  8
0
 62
     0
 10
32.9902
 20
12.7786
 30
0.0
 11
32.552
 21
11.8635
 31
0.0
  0
LINE
  8
0
 62
     0
 10
32.552
 20
11.8635
 30
0.0
 11
32.1124
 21
10.9485
 31
0.0
  0
LINE
  8
0
 62
     0
 10
32.1124
 20
10.9485
 30
0.0
 11
31.6549
 21
10.0487
 31
0.0
  0
LINE
  8
0
 62
     0
 10
31.6549
 20
10.0487
 30
0.0
 11
31.1699
 21
9.17773
 31
0.0
  0
LINE
  8
0
 62
     0
 10
31.1699
 20
9.17773
 30
0.0
 11
30.6448
 21
8.35092
 31
0.0
  0
LINE
  8
0
 62
     0
 10
30.6448
 20
8.35092
 30
0.0
 11
30.0702
 21
7.59714
 31
0.0
  0
LINE
  8
0
 62
     0
 10
30.0702
 20
7.59714
 30
0.0
 11
29.4321
 21
6.89984
 31
0.0
  0
LINE
  8
0
 62
     0
 10
29.4321
 20
6.89984
 30
0.0
 11
28.7348
 21
6.26318
 31
0.0
  0
LINE
  8
0
 62
     0
 10
28.7348
 20
6.26318
 30
0.0
 11
27.9852
 21
5.68854
 31
0.0
  0
LINE
  8
0
 62
     0
 10
27.9852
 20
5.68854
 30
0.0
 11
27.1901
 21
5.17592
 31
0.0
  0
LINE
  8
0
 62
     0
 10
27.1901
 20
5.17592
 30
0.0
 11
26.355
 21
4.73082
 31
0.0
  0
LINE
  8
0
 62
     0
 10
26.355
 20
4.73082
 30
0.0
 11
25.4854
 21
4.35046
 31
0.0
  0
LINE
  8
0
 62
     0
 10
25.4854
 20
4.35046
 30
0.0
 11
24.5897
 21
4.0404
 31
0.0
  0
LINE
  8
0
 62
     0
 10
24.5897
 20
4.0404
 30
0.0
 11
23.6706
 21
3.80199
 31
0.0
  0
LINE
  8
0
 62
     0
 10
23.6706
 20
3.80199
 30
0.0
 11
22.7376
 21
3.63527
 31
0.0
  0
LINE
  8
0
 62
     0
 10
22.7376
 20
3.63527
 30
0.0
 11
21.7951
 21
3.54432
 31
0.0
  0
LINE
  8
0
 62
     0
 10
21.7951
 20
3.54432
 30
0.0
 11
20.8484
 21
3.52915
 31
0.0
  0
LINE
  8
0
 62
     0
 10
20.8484
 20
3.52915
 30
0.0
 11
19.9058
 21
3.59255
 31
0.0
  0
LINE
  8
0
 62
     0
 10
19.9058
 20
3.59255
 30
0.0
 11
18.9728
 21
3.73585
 31
0.0
  0
LINE
  8
0
 62
     0
 10
18.9728
 20
3.73585
 30
0.0
 11
18.0551
 21
3.96187
 31
0.0
  0
LINE
  8
0
 62
     0
 10
18.0551
 20
3.96187
 30
0.0
 11
17.1579
 21
4.27193
 31
0.0
  0
LINE
  8
0
 62
     0
 10
17.1579
 20
4.27193
 30
0.0
 11
16.4221
 21
4.63158
 31
0.0
  0
LINE
  8
0
 62
     0
 10
16.4221
 20
4.63158
 30
0.0
 11
15.835
 21
5.17867
 31
0.0
  0
LINE
  8
0
 62
     0
 10
15.835
 20
5.17867
 30
0.0
 11
15.5429
 21
5.92557
 31
0.0
  0
LINE
  8
0
 62
     0
 10
15.5429
 20
5.92557
 30
0.0
 11
15.4657
 21
6.74275
 31
0.0
  0
LINE
  8
0
 62
     0
 10
15.4657
 20
6.74275
 30
0.0
 11
15.4671
 21
7.72664
 31
0.0
  0
LINE
  8
0
 62
     0
 10
15.4671
 20
7.72664
 30
0.0
 11
15.5291
 21
8.7092
 31
0.0
  0
LINE
  8
0
 62
     0
 10
15.5291
 20
8.7092
 30
0.0
 11
15.6463
 21
9.68484
 31
0.0
  0
LINE
  8
0
 62
     0
 10
15.6463
 20
9.68484
 30
0.0
 11
15.8213
 21
10.6536
 31
0.0
  0
LINE
  8
0
 62
     0
 10
15.8213
 20
10.6536
 30
0.0
 11
16.0486
 21
11.61
 31
0.0
  0
LINE
  8
0
 62
     0
 10
16.0486
 20
11.61
 30
0.0
 11
16.3298
 21
12.5525
 31
0.0
  0
LINE
  8
0
 62
     0
 10
16.3298
 20
12.5525
 30
0.0
 11
16.6619
 21
13.48
 31
0.0
  0
LINE
  8
0
 62
     0
 10
16.6619
 20
13.48
 30
0.0
 11
17.045
 21
14.3867
 31
0.0
  0
LINE
  8
0
 62
     0
 10
17.045
 20
14.3867
 30
0.0
 11
17.4749
 21
15.2728
 31
0.0
  0
LINE
  8
0
 62
     0
 10
17.4749
 20
15.2728
 30
0.0
 11
17.9531
 21
16.1355
 31
0.0
  0
LINE
  8
0
 62
     0
 10
17.9531
 20
16.1355
 30
0.0
 11
18.4754
 21
16.9706
 31
0.0
  0
LINE
  8
0
 62
     0
 10
18.4754
 20
16.9706
 30
0.0
 11
19.0431
 21
17.7753
 31
0.0
  0
LINE
  8
0
 62
     0
 10
19.0431
 20
17.7753
 30
0.0
 11
19.6522
 21
18.5484
 31
0.0
  0
LINE
  8
0
 62
     0
 10
19.6522
 20
18.5484
 30
0.0
 11
20.3026
 21
19.287
 31
0.0
  0
LINE
  8
0
 62
     0
 10
20.3026
 20
19.287
 30
0.0
 11
20.993
 21
19.9871
 31
0.0
  0
LINE
  8
0
 62
     0
 10
20.993
 20
19.9871
 30
0.0
 11
21.7206
 21
20.6471
 31
0.0
  0
LINE
  8
0
 62
     0
 10
21.7206
 20
20.6471
 30
0.0
 11
22.4855
 21
21.2645
 31
0.0
  0
LINE
  8
0
 62
     0
 10
22.4855
 20
21.2645
 30
0.0
 11
23.2861
 21
21.8364
 31
0.0
  0
LINE
  8
0
 62
     0
 10
23.2861
 20
21.8364
 30
0.0
 11
24.1198
 21
22.3614
 31
0.0
  0
LINE
  8
0
 62
     0
 10
24.1198
 20
22.3614
 30
0.0
 11
24.948
 21
22.8176
 31
0.0
  0
LINE
  8
0
 62
     0
 10
24.948
 20
22.8176
 30
0.0
 11
25.7927
 21
23.2324
 31
0.0
  0
LINE
  8
0
 62
     0
 10
25.7927
 20
23.2324
 30
0.0
 11
26.6554
 21
23.6058
 31
0.0
  0
LINE
  8
0
 62
     0
 10
26.6554
 20
23.6058
 30
0.0
 11
27.5318
 21
23.9448
 31
0.0
  0
LINE
  8
0
 62
     0
 10
27.5318
 20
23.9448
 30
0.0
 11
28.422
 21
24.2521
 31
0.0
  0
LINE
  8
0
 62
     0
 10
28.422
 20
24.2521
 30
0.0
 11
29.3233
 21
24.5305
 31
0.0
  0
LINE
  8
0
 62
     0
 10
29.3233
 20
24.5305
 30
0.0
 11
30.2355
 21
24.7854
 31
0.0
  0
LINE
  8
0
 62
     0
 10
30.2355
 20
24.7854
 30
0.0
 11
31.1547
 21
25.0197
 31
0.0
  0
LINE
  8
0
 62
     0
 10
31.1547
 20
25.0197
 30
0.0
 11
32.0807
 21
25.2374
 31
0.0
  0
LINE
  8
0
 62
     0
 10
32.0807
 20
25.2374
 30
0.0
 11
33.0123
 21
25.4427
 31
0.0
  0
LINE
  8
0
 62
     0
 10
33.0123
 20
25.4427
 30
0.0
 11
33.9466
 21
25.6398
 31
0.0
  0
LINE
  8
0
 62
     0
 10
33.9466
 20
25.6398
 30
0.0
 11
34.8837
 21
25.8313
 31
0.0
  0
LINE
  8
0
 62
     0
 10
34.8837
 20
25.8313
 30
0.0
 11
35.8193
 21
26.0215
 31
0.0
  0
LINE
  8
0
 62
     0
 10
35.8193
 20
26.0215
 30
0.0
 11
36.7538
 21
26.2144
 31
0.0
  0
LINE
  8
0
 62
     0
 10
36.7538
 20
26.2144
 30
0.0
 11
37.6851
 21
26.4129
 31
0.0
  0
LINE
  8
0
 62
     0
 10
37.6851
 20
26.4129
 30
0.0
 11
38.6112
 21
26.6237
 31
0.0
  0
LINE
  8
0
 62
     0
 10
38.6112
 20
26.6237
 30
0.0
 11
39.5372
 21
26.8511
 31
0.0
  0
LINE
  8
0
 62
     0
 10
39.5372
 20
26.8511
 30
0.0
 11
40.4633
 21
27.1032
 31
0.0
  0
LINE
  8
0
 62
     0
 10
40.4633
 20
27.1032
 30
0.0
 11
41.3879
 21
27.3816
 31
0.0
  0
LINE
  8
0
 62
     0
 10
41.3879
 20
27.3816
 30
0.0
 11
42.3044
 21
27.6889
 31
0.0
  0
LINE
  8
0
 62
     0
 10
42.3044
 20
27.6889
 30
0.0
 11
43.2096
 21
28.0279
 31
0.0
  0
LINE
  8
0
 62
     0
 10
43.2096
 20
28.0279
 30
0.0
 11
44.0986
 21
28.3972
 31
0.0
  0
LINE
  8
0
 62
     0
 10
44.0986
 20
28.3972
 30
0.0
 11
44.9682
 21
28.8024
 31
0.0
  0
LINE
  8
0
 62
     0
 10
44.9682
 20
28.8024
 30
0.0
 11
45.8128
 21
29.2433
 31
0.0
  0
LINE
  8
0
 62
     0
 10
45.8128
 20
29.2433
 30
0.0
 11
46.6302
 21
29.7229
 31
0.0
  0
LINE
  8
0
 62
     0
 10
46.6302
 20
29.7229
 30
0.0
 11
47.4126
 21
30.2424
 31
0.0
  0
LINE
  8
0
 62
     0
 10
47.4126
 20
30.2424
 30
0.0
 11
48.1598
 21
30.8033
 31
0.0
  0
LINE
  8
0
 62
     0
 10
48.1598
 20
30.8033
 30
0.0
 11
48.864
 21
31.4083
 31
0.0
  0
LINE
  8
0
 62
     0
 10
48.864
 20
31.4083
 30
0.0
 11
49.524
 21
32.0601
 31
0.0
  0
LINE
  8
0
 62
     0
 10
49.524
 20
32.0601
 30
0.0
 11
50.1329
 21
32.7587
 31
0.0
  0
LINE
  8
0
 62
     0
 10
50.1329
 20
32.7587
 30
0.0
 11
50.6871
 21
33.507
 31
0.0
  0
LINE
  8
0
 62
     0
 10
50.6871
 20
33.507
 30
0.0
 11
51.1845
 21
34.3063
 31
0.0
  0
LINE
  8
0
 62
     0
 10
51.1845
 20
34.3063
 30
0.0
 11
51.5553
 21
35.0463
 31
0.0
  0
LINE
  8
0
 62
     0
 10
51.5553
 20
35.0463
 30
0.0
 11
51.8446
 21
35.8235
 31
0.0
  0
LINE
  8
0
 62
     0
 10
51.8446
 20
35.8235
 30
0.0
 11
52.0224
 21
36.624
 31
0.0
  0
LINE
  8
0
 62
     0
 10
52.0224
 20
36.624
 30
0.0
 11
52.0622
 21
37.4329
 31
0.0
  0
LINE
  8
0
 62
     0
 10
52.0622
 20
37.4329
 30
0.0
 11
51.9328
 21
38.2337
 31
0.0
  0
LINE
  8
0
 62
     0
 10
51.9328
 20
38.2337
 30
0.0
 11
51.646
 21
38.9573
 31
0.0
  0
LINE
  8
0
 62
     0
 10
51.646
 20
38.9573
 30
0.0
 11
51.2491
 21
39.6311
 31
0.0
  0
LINE
  8
0
 62
     0
 10
51.2491
 20
39.6311
 30
0.0
 11
50.7944
 21
40.2731
 31
0.0
  0
LINE
  8
0
 62
     0
 10
50.7944
 20
40.2731
 30
0.0
 11
50.1978
 21
41.0602
 31
0.0
  0
LINE
  8
0
 62
     0
 10
50.1978
 20
41.0602
 30
0.0
 11
49.5625
 21
41.8373
 31
0.0
  0
LINE
  8
0
 62
     0
 10
49.5625
 20
41.8373
 30
0.0
 11
48.8872
 21
42.5856
 31
0.0
  0
LINE
  8
0
 62
     0
 10
48.8872
 20
42.5856
 30
0.0
 11
48.175
 21
43.2883
 31
0.0
  0
LINE
  8
0
 62
     0
 10
48.175
 20
43.2883
 30
0.0
 11
47.4225
 21
43.9279
 31
0.0
  0
LINE
  8
0
 62
     0
 10
47.4225
 20
43.9279
 30
0.0
 11
46.6302
 21
44.4885
 31
0.0
  0
LINE
  8
0
 62
     0
 10
46.6302
 20
44.4885
 30
0.0
 11
45.7976
 21
44.9531
 31
0.0
  0
LINE
  8
0
 62
     0
 10
45.7976
 20
44.9531
 30
0.0
 11
44.9241
 21
45.3044
 31
0.0
  0
LINE
  8
0
 62
     0
 10
44.9241
 20
45.3044
 30
0.0
 11
44.009
 21
45.5235
 31
0.0
  0
LINE
  8
0
 62
     0
 10
44.009
 20
45.5235
 30
0.0
 11
43.0541
 21
45.5965
 31
0.0
  0
LINE
  8
0
 62
     0
 10
43.0541
 20
45.5965
 30
0.0
 11
42.0744
 21
45.5069
 31
0.0
  0
LINE
  8
0
 62
     0
 10
42.0744
 20
45.5069
 30
0.0
 11
41.1194
 21
45.2769
 31
0.0
  0
LINE
  8
0
 62
     0
 10
41.1194
 20
45.2769
 30
0.0
 11
40.1877
 21
44.9407
 31
0.0
  0
LINE
  8
0
 62
     0
 10
40.1877
 20
44.9407
 30
0.0
 11
39.2783
 21
44.5287
 31
0.0
  0
LINE
  8
0
 62
     0
 10
39.2783
 20
44.5287
 30
0.0
 11
38.3907
 21
44.0778
 31
0.0
  0
LINE
  8
0
 62
     0
 10
38.3907
 20
44.0778
 30
0.0
 11
37.5116
 21
43.6079
 31
0.0
  0
LINE
  8
0
 62
     0
 10
37.5116
 20
43.6079
 30
0.0
 11
36.6377
 21
43.1285
 31
0.0
  0
LINE
  8
0
 62
     0
 10
36.6377
 20
43.1285
 30
0.0
 11
35.7699
 21
42.6378
 31
0.0
  0
LINE
  8
0
 62
     0
 10
35.7699
 20
42.6378
 30
0.0
 11
34.9071
 21
42.1351
 31
0.0
  0
LINE
  8
0
 62
     0
 10
34.9071
 20
42.1351
 30
0.0
 11
34.0527
 21
41.6221
 31
0.0
  0
LINE
  8
0
 62
     0
 10
34.0527
 20
41.6221
 30
0.0
 11
33.2038
 21
41.1
 31
0.0
  0
LINE
  8
0
 62
     0
 10
33.2038
 20
41.1
 30
0.0
 11
32.3605
 21
40.5652
 31
0.0
  0
LINE
  8
0
 62
     0
 10
32.3605
 20
40.5652
 30
0.0
 11
31.5254
 21
40.0209
 31
0.0
  0
LINE
  8
0
 62
     0
 10
31.5254
 20
40.0209
 30
0.0
 11
30.6958
 21
39.467
 31
0.0
  0
LINE
  8
0
 62
     0
 10
30.6958
 20
39.467
 30
0.0
 11
29.8745
 21
38.9019
 31
0.0
  0
LINE
  8
0
 62
     0
 10
29.8745
 20
38.9019
 30
0.0
 11
29.0601
 21
38.3261
 31
0.0
  0
LINE
  8
0
 62
     0
 10
29.0601
 20
38.3261
 30
0.0
 11
28.2512
 21
37.7416
 31
0.0
  0
LINE
  8
0
 62
     0
 10
28.2512
 20
37.7416
 30
0.0
 11
27.4519
 21
37.1464
 31
0.0
  0
LINE
  8
0
 62
     0
 10
27.4519
 20
37.1464
 30
0.0
 11
26.6581
 21
36.5414
 31
0.0
  0
LINE
  8
0
 62
     0
 10
26.6581
 20
36.5414
 30
0.0
 11
25.8741
 21
35.9255
 31
0.0
  0
LINE
  8
0
 62
     0
 10
25.8741
 20
35.9255
 30
0.0
 11
25.0954
 21
35.3011
 31
0.0
  0
LINE
  8
0
 62
     0
 10
25.0954
 20
35.3011
 30
0.0
 11
24.3265
 21
34.6659
 31
0.0
  0
LINE
  8
0
 62
     0
 10
24.3265
 20
34.6659
 30
0.0
 11
23.5851
 21
34.0417
 31
0.0
  0
LINE
  8
0
 62
     0
 10
23.5851
 20
34.0417
 30
0.0
 11
22.1106
 21
32.7767
 31
0.0
  0
LINE
  8
0
 62
     0
 10
22.1106
 20
32.7767
 30
0.0
 11
21.3706
 21
32.1455
 31
0.0
  0
LINE
  8
0
 62
     0
 10
21.3706
 20
32.1455
 30
0.0
 11
20.6265
 21
31.5199
 31
0.0
  0
LINE
  8
0
 62
     0
 10
20.6265
 20
31.5199
 30
0.0
 11
19.8768
 21
30.9053
 31
0.0
  0
LINE
  8
0
 62
     0
 10
19.8768
 20
30.9053
 30
0.0
 11
19.1161
 21
30.3044
 31
0.0
  0
LINE
  8
0
 62
     0
 10
19.1161
 20
30.3044
 30
0.0
 11
18.3431
 21
29.7229
 31
0.0
  0
LINE
  8
0
 62
     0
 10
18.3431
 20
29.7229
 30
0.0
 11
17.5562
 21
29.1648
 31
0.0
  0
LINE
  8
0
 62
     0
 10
17.5562
 20
29.1648
 30
0.0
 11
16.7514
 21
28.6329
 31
0.0
  0
LINE
  8
0
 62
     0
 10
16.7514
 20
28.6329
 30
0.0
 11
15.926
 21
28.1313
 31
0.0
  0
LINE
  8
0
 62
     0
 10
15.926
 20
28.1313
 30
0.0
 11
15.0785
 21
27.6655
 31
0.0
  0
LINE
  8
0
 62
     0
 10
15.0785
 20
27.6655
 30
0.0
 11
14.2489
 21
27.2562
 31
0.0
  0
LINE
  8
0
 62
     0
 10
14.2489
 20
27.2562
 30
0.0
 11
13.4042
 21
26.8828
 31
0.0
  0
LINE
  8
0
 62
     0
 10
13.4042
 20
26.8828
 30
0.0
 11
12.547
 21
26.5383
 31
0.0
  0
LINE
  8
0
 62
     0
 10
12.547
 20
26.5383
 30
0.0
 11
11.6775
 21
26.2213
 31
0.0
  0
LINE
  8
0
 62
     0
 10
11.6775
 20
26.2213
 30
0.0
 11
10.7997
 21
25.925
 31
0.0
  0
LINE
  8
0
 62
     0
 10
10.7997
 20
25.925
 30
0.0
 11
9.915
 21
25.6467
 31
0.0
  0
LINE
  8
0
 62
     0
 10
9.915
 20
25.6467
 30
0.0
 11
9.02614
 21
25.3821
 31
0.0
  0
LINE
  8
0
 62
     0
 10
9.02614
 20
25.3821
 30
0.0
 11
8.13456
 21
25.1258
 31
0.0
  0
LINE
  8
0
 62
     0
 10
8.13456
 20
25.1258
 30
0.0
 11
7.24158
 21
24.875
 31
0.0
  0
LINE
  8
0
 62
     0
 10
7.24158
 20
24.875
 30
0.0
 11
6.31278
 21
24.6545
 31
0.0
  0
LINE
  8
0
 62
     0
 10
6.31278
 20
24.6545
 30
0.0
 11
5.33164
 21
24.5071
 31
0.0
  0
LINE
  8
0
 62
     0
 10
5.33164
 20
24.5071
 30
0.0
 11
4.34358
 21
24.4547
 31
0.0
  0
LINE
  8
0
 62
     0
 10
4.34358
 20
24.4547
 30
0.0
 11
3.39135
 21
24.5222
 31
0.0
  0
LINE
  8
0
 62
     0
 10
3.39135
 20
24.5222
 30
0.0
 11
2.52043
 21
24.733
 31
0.0
  0
LINE
  8
0
 62
     0
 10
2.52043
 20
24.733
 30
0.0
 11
1.77491
 21
25.1092
 31
0.0
  0
LINE
  8
0
 62
     0
 10
1.77491
 20
25.1092
 30
0.0
 11
1.19889
 21
25.6742
 31
0.0
  0
LINE
  8
0
 62
     0
 10
1.19889
 20
25.6742
 30
0.0
 11
0.836468
 21
26.4515
 31
0.0
  0
LINE
  8
0
 62
     0
 10
0.836468
 20
26.4515
 30
0.0
 11
0.757922
 21
27.3623
 31
0.0
  0
LINE
  8
0
 62
     0
 10
0.757922
 20
27.3623
 30
0.0
 11
0.927421
 21
28.2774
 31
0.0
  0
LINE
  8
0
 62
     0
 10
0.927421
 20
28.2774
 30
0.0
 11
1.22783
 21
29.1717
 31
0.0
  0
LINE
  8
0
 62
     0
 10
1.22783
 20
29.1717
 30
0.0
 11
1.5751
 21
30.0771
 31
0.0
  0
LINE
  8
0
 62
     0
 10
1.5751
 20
30.0771
 30
0.0
 11
1.93614
 21
30.9783
 31
0.0
  0
LINE
  8
0
 62
     0
 10
1.93614
 20
30.9783
 30
0.0
 11
2.31235
 21
31.8727
 31
0.0
  0
LINE
  8
0
 62
     0
 10
2.31235
 20
31.8727
 30
0.0
 11
2.70233
 21
32.7601
 31
0.0
  0
LINE
  8
0
 62
     0
 10
2.70233
 20
32.7601
 30
0.0
 11
3.1061
 21
33.6421
 31
0.0
  0
LINE
  8
0
 62
     0
 10
3.1061
 20
33.6421
 30
0.0
 11
3.52502
 21
34.5171
 31
0.0
  0
LINE
  8
0
 62
     0
 10
3.52502
 20
34.5171
 30
0.0
 11
3.95912
 21
35.3854
 31
0.0
  0
LINE
  8
0
 62
     0
 10
3.95912
 20
35.3854
 30
0.0
 11
4.40559
 21
36.2465
 31
0.0
  0
LINE
  8
0
 62
     0
 10
4.40559
 20
36.2465
 30
0.0
 11
4.86586
 21
37.1009
 31
0.0
  0
LINE
  8
0
 62
     0
 10
4.86586
 20
37.1009
 30
0.0
 11
5.34127
 21
37.9469
 31
0.0
  0
LINE
  8
0
 62
     0
 10
5.34127
 20
37.9469
 30
0.0
 11
5.82909
 21
38.7862
 31
0.0
  0
LINE
  8
0
 62
     0
 10
5.82909
 20
38.7862
 30
0.0
 11
6.33758
 21
39.6282
 31
0.0
  0
LINE
  8
0
 62
     0
 10
6.33758
 20
39.6282
 30
0.0
 11
6.85987
 21
40.4618
 31
0.0
  0
LINE
  8
0
 62
     0
 10
6.85987
 20
40.4618
 30
0.0
 11
7.39454
 21
41.2873
 31
0.0
  0
LINE
  8
0
 62
     0
 10
7.39454
 20
41.2873
 30
0.0
 11
7.94438
 21
42.1033
 31
0.0
  0
LINE
  8
0
 62
     0
 10
7.94438
 20
42.1033
 30
0.0
 11
8.50526
 21
42.9108
 31
0.0
  0
LINE
  8
0
 62
     0
 10
8.50526
 20
42.9108
 30
0.0
 11
9.08128
 21
43.7085
 31
0.0
  0
LINE
  8
0
 62
     0
 10
9.08128
 20
43.7085
 30
0.0
 11
9.66971
 21
44.4969
 31
0.0
  0
LINE
  8
0
 62
     0
 10
9.66971
 20
44.4969
 30
0.0
 11
10.2691
 21
45.2755
 31
0.0
  0
LINE
  8
0
 62
     0
 10
10.2691
 20
45.2755
 30
0.0
 11
10.8838
 21
46.0446
 31
0.0
  0
LINE
  8
0
 62
     0
 10
10.8838
 20
46.0446
 30
0.0
 11
11.5094
 21
46.8037
 31
0.0
  0
LINE
  8
0
 62
     0
 10
11.5094
 20
46.8037
 30
0.0
 11
12.1474
 21
47.552
 31
0.0
  0
LINE
  8
0
 62
     0
 10
12.1474
 20
47.552
 30
0.0
 11
12.7799
 21
48.2656
 31
0.0
  0
LINE
  8
0
 62
     0
 10
12.7799
 20
48.2656
 30
0.0
 11
13.4345
 21
48.9701
 31
0.0
  0
LINE
  8
0
 62
     0
 10
13.4345
 20
48.9701
 30
0.0
 11
14.1097
 21
49.6591
 31
0.0
  0
LINE
  8
0
 62
     0
 10
14.1097
 20
49.6591
 30
0.0
 11
14.8042
 21
50.3301
 31
0.0
  0
LINE
  8
0
 62
     0
 10
14.8042
 20
50.3301
 30
0.0
 11
15.5208
 21
50.9778
 31
0.0
  0
LINE
  8
0
 62
     0
 10
15.5208
 20
50.9778
 30
0.0
 11
16.2567
 21
51.5994
 31
0.0
  0
LINE
  8
0
 62
     0
 10
16.2567
 20
51.5994
 30
0.0
 11
17.0146
 21
52.1878
 31
0.0
  0
LINE
  8
0
 62
     0
 10
17.0146
 20
52.1878
 30
0.0
 11
17.7919
 21
52.7403
 31
0.0
  0
LINE
  8
0
 62
     0
 10
17.7919
 20
52.7403
 30
0.0
 11
18.5897
 21
53.2529
 31
0.0
  0
LINE
  8
0
 62
     0
 10
18.5897
 20
53.2529
 30
0.0
 11
19.4083
 21
53.7199
 31
0.0
  0
LINE
  8
0
 62
     0
 10
19.4083
 20
53.7199
 30
0.0
 11
20.2461
 21
54.139
 31
0.0
  0
LINE
  8
0
 62
     0
 10
20.2461
 20
54.139
 30
0.0
 11
21.1046
 21
54.5042
 31
0.0
  0
LINE
  8
0
 62
     0
 10
21.1046
 20
54.5042
 30
0.0
 11
21.9825
 21
54.81
 31
0.0
  0
LINE
  8
0
 62
     0
 10
21.9825
 20
54.81
 30
0.0
 11
22.881
 21
55.0556
 31
0.0
  0
LINE
  8
0
 62
     0
 10
22.881
 20
55.0556
 30
0.0
 11
23.7987
 21
55.233
 31
0.0
  0
LINE
  8
0
 62
     0
 10
23.7987
 20
55.233
 30
0.0
 11
24.7358
 21
55.3406
 31
0.0
  0
LINE
  8
0
 62
     0
 10
24.7358
 20
55.3406
 30
0.0
 11
25.7252
 21
55.3738
 31
0.0
  0
LINE
  8
0
 62
     0
 10
25.7252
 20
55.3738
 30
0.0
 11
26.7064
 21
55.3325
 31
0.0
  0
LINE
  8
0
 62
     0
 10
26.7064
 20
55.3325
 30
0.0
 11
27.6821
 21
55.2235
 31
0.0
  0
LINE
  8
0
 62
     0
 10
27.6821
 20
55.2235
 30
0.0
 11
28.6508
 21
55.058
 31
0.0
  0
LINE
  8
0
 62
     0
 10
28.6508
 20
55.058
 30
0.0
 11
29.6154
 21
54.8446
 31
0.0
  0
LINE
  8
0
 62
     0
 10
29.6154
 20
54.8446
 30
0.0
 11
30.5773
 21
54.5924
 31
0.0
  0
LINE
  8
0
 62
     0
 10
30.5773
 20
54.5924
 30
0.0
 11
31.535
 21
54.3098
 31
0.0
  0
LINE
  8
0
 62
     0
 10
31.535
 20
54.3098
 30
0.0
 11
32.4914
 21
54.0067
 31
0.0
  0
LINE
  8
0
 62
     0
 10
32.4914
 20
54.0067
 30
0.0
 11
33.4464
 21
53.6924
 31
0.0
  0
LINE
  8
0
 62
     0
 10
33.4464
 20
53.6924
 30
0.0
 11
34.4013
 21
53.3742
 31
0.0
  0
LINE
  8
0
 62
     0
 10
34.4013
 20
53.3742
 30
0.0
 11
35.3579
 21
53.0641
 31
0.0
  0
LINE
  8
0
 62
     0
 10
35.3579
 20
53.0641
 30
0.0
 11
36.3153
 21
52.7678
 31
0.0
  0
LINE
  8
0
 62
     0
 10
36.3153
 20
52.7678
 30
0.0
 11
37.2745
 21
52.4965
 31
0.0
  0
LINE
  8
0
 62
     0
 10
37.2745
 20
52.4965
 30
0.0
 11
38.2531
 21
52.2647
 31
0.0
  0
LINE
  8
0
 62
     0
 10
38.2531
 20
52.2647
 30
0.0
 11
39.2589
 21
52.0859
 31
0.0
  0
LINE
  8
0
 62
     0
 10
39.2589
 20
52.0859
 30
0.0
 11
40.2802
 21
51.9631
 31
0.0
  0
LINE
  8
0
 62
     0
 10
40.2802
 20
51.9631
 30
0.0
 11
41.3082
 21
51.9024
 31
0.0
  0
LINE
  8
0
 62
     0
 10
41.3082
 20
51.9024
 30
0.0
 11
42.3305
 21
51.912
 31
0.0
  0
LINE
  8
0
 62
     0
 10
42.3305
 20
51.912
 30
0.0
 11
43.3395
 21
51.9949
 31
0.0
  0
LINE
  8
0
 62
     0
 10
43.3395
 20
51.9949
 30
0.0
 11
44.3219
 21
52.1589
 31
0.0
  0
LINE
  8
0
 62
     0
 10
44.3219
 20
52.1589
 30
0.0
 11
45.2699
 21
52.4069
 31
0.0
  0
LINE
  8
0
 62
     0
 10
45.2699
 20
52.4069
 30
0.0
 11
46.1712
 21
52.7473
 31
0.0
  0
LINE
  8
0
 62
     0
 10
46.1712
 20
52.7473
 30
0.0
 11
47.0172
 21
53.1827
 31
0.0
  0
LINE
  8
0
 62
     0
 10
47.0172
 20
53.1827
 30
0.0
 11
47.7957
 21
53.7214
 31
0.0
  0
LINE
  8
0
 62
     0
 10
47.7957
 20
53.7214
 30
0.0
 11
48.4974
 21
54.3676
 31
0.0
  0
LINE
  8
0
 62
     0
 10
48.4974
 20
54.3676
 30
0.0
 11
49.112
 21
55.1272
 31
0.0
  0
LINE
  8
0
 62
     0
 10
49.112
 20
55.1272
 30
0.0
 11
49.579
 21
55.9096
 31
0.0
  0
LINE
  8
0
 62
     0
 10
49.579
 20
55.9096
 30
0.0
 11
49.9318
 21
56.7351
 31
0.0
  0
LINE
  8
0
 62
     0
 10
49.9318
 20
56.7351
 30
0.0
 11
50.1798
 21
57.598
 31
0.0
  0
LINE
  8
0
 62
     0
 10
50.1798
 20
57.598
 30
0.0
 11
50.3301
 21
58.4867
 31
0.0
  0
LINE
  8
0
 62
     0
 10
50.3301
 20
58.4867
 30
0.0
 11
50.3922
 21
59.3975
 31
0.0
  0
LINE
  8
0
 62
     0
 10
50.3922
 20
59.3975
 30
0.0
 11
50.3728
 21
60.3222
 31
0.0
  0
LINE
  8
0
 62
     0
 10
50.3728
 20
60.3222
 30
0.0
 11
50.2818
 21
61.2539
 31
0.0
  0
LINE
  8
0
 62
     0
 10
50.2818
 20
61.2539
 30
0.0
 11
50.1276
 21
62.1841
 31
0.0
  0
LINE
  8
0
 62
     0
 10
50.1276
 20
62.1841
 30
0.0
 11
49.9195
 21
63.1059
 31
0.0
  0
LINE
  8
0
 62
     0
 10
49.9195
 20
63.1059
 30
0.0
 11
49.663
 21
64.0112
 31
0.0
  0
LINE
  8
0
 62
     0
 10
49.663
 20
64.0112
 30
0.0
 11
49.3695
 21
64.8945
 31
0.0
  0
LINE
  8
0
 62
     0
 10
49.3695
 20
64.8945
 30
0.0
 11
49.0347
 21
65.7229
 31
0.0
  0
LINE
  8
0
 62
     0
 10
49.0347
 20
65.7229
 30
0.0
 11
48.5842
 21
66.4792
 31
0.0
  0
LINE
  8
0
 62
     0
 10
48.5842
 20
66.4792
 30
0.0
 11
47.9488
 21
67.0624
 31
0.0
  0
LINE
  8
0
 62
     0
 10
47.9488
 20
67.0624
 30
0.0
 11
47.0613
 21
67.3848
 31
0.0
  0
LINE
  8
0
 62
     0
 10
47.0613
 20
67.3848
 30
0.0
 11
46.0939
 21
67.4232
 31
0.0
  0
LINE
  8
0
 62
     0
 10
46.0939
 20
67.4232
 30
0.0
 11
45.1171
 21
67.3089
 31
0.0
  0
LINE
  8
0
 62
     0
 10
45.1171
 20
67.3089
 30
0.0
 11
44.129
 21
67.153
 31
0.0
  0
LINE
  8
0
 62
     0
 10
44.129
 20
67.153
 30
0.0
 11
43.1423
 21
66.9907
 31
0.0
  0
LINE
  8
0
 62
     0
 10
43.1423
 20
66.9907
 30
0.0
 11
42.1569
 21
66.8211
 31
0.0
  0
LINE
  8
0
 62
     0
 10
42.1569
 20
66.8211
 30
0.0
 11
41.173
 21
66.6418
 31
0.0
  0
LINE
  8
0
 62
     0
 10
41.173
 20
66.6418
 30
0.0
 11
40.1906
 21
66.4573
 31
0.0
  0
LINE
  8
0
 62
     0
 10
40.1906
 20
66.4573
 30
0.0
 11
39.2105
 21
66.263
 31
0.0
  0
LINE
  8
0
 62
     0
 10
39.2105
 20
66.263
 30
0.0
 11
38.2309
 21
66.0619
 31
0.0
  0
LINE
  8
0
 62
     0
 10
38.2309
 20
66.0619
 30
0.0
 11
37.2526
 21
65.8523
 31
0.0
  0
LINE
  8
0
 62
     0
 10
37.2526
 20
65.8523
 30
0.0
 11
36.2768
 21
65.6361
 31
0.0
  0
LINE
  8
0
 62
     0
 10
36.2768
 20
65.6361
 30
0.0
 11
35.3025
 21
65.4113
 31
0.0
  0
LINE
  8
0
 62
     0
 10
35.3025
 20
65.4113
 30
0.0
 11
34.3297
 21
65.1799
 31
0.0
  0
LINE
  8
0
 62
     0
 10
34.3297
 20
65.1799
 30
0.0
 11
33.3582
 21
64.94
 31
0.0
  0
LINE
  8
0
 62
     0
 10
33.3582
 20
64.94
 30
0.0
 11
32.3894
 21
64.692
 31
0.0
  0
LINE
  8
0
 62
     0
 10
32.3894
 20
64.692
 30
0.0
 11
31.4234
 21
64.437
 31
0.0
  0
LINE
  8
0
 62
     0
 10
31.4234
 20
64.437
 30
0.0
 11
30.4588
 21
64.1738
 31
0.0
  0
LINE
  8
0
 62
     0
 10
30.4588
 20
64.1738
 30
0.0
 11
29.4955
 21
63.9039
 31
0.0
  0
LINE
  8
0
 62
     0
 10
29.4955
 20
63.9039
 30
0.0
 11
28.535
 21
63.6266
 31
0.0
  0
LINE
  8
0
 62
     0
 10
28.535
 20
63.6266
 30
0.0
 11
27.5759
 21
63.3416
 31
0.0
  0
LINE
  8
0
 62
     0
 10
27.5759
 20
63.3416
 30
0.0
 11
26.6209
 21
63.0481
 31
0.0
  0
LINE
  8
0
 62
     0
 10
26.6209
 20
63.0481
 30
0.0
 11
25.6673
 21
62.7475
 31
0.0
  0
LINE
  8
0
 62
     0
 10
25.6673
 20
62.7475
 30
0.0
 11
24.7151
 21
62.4403
 31
0.0
  0
LINE
  8
0
 62
     0
 10
24.7151
 20
62.4403
 30
0.0
 11
23.767
 21
62.1249
 31
0.0
  0
LINE
  8
0
 62
     0
 10
23.767
 20
62.1249
 30
0.0
 11
22.8203
 21
61.8024
 31
0.0
  0
LINE
  8
0
 62
     0
 10
22.8203
 20
61.8024
 30
0.0
 11
21.9893
 21
61.5047
 31
0.0
  0
LINE
  8
0
 62
     0
 10
21.9893
 20
61.5047
 30
0.0
 11
21.1735
 21
61.1657
 31
0.0
  0
LINE
  8
0
 62
     0
 10
21.1735
 20
61.1657
 30
0.0
 11
20.3977
 21
60.7522
 31
0.0
  0
LINE
  8
0
 62
     0
 10
20.3977
 20
60.7522
 30
0.0
 11
19.6839
 21
60.2534
 31
0.0
  0
LINE
  8
0
 62
     0
 10
19.6839
 20
60.2534
 30
0.0
 11
19.0155
 21
59.6911
 31
0.0
  0
LINE
  8
0
 62
     0
 10
19.0155
 20
59.6911
 30
0.0
 11
18.3706
 21
59.0984
 31
0.0
  0
LINE
  8
0
 62
     0
 10
18.3706
 20
59.0984
 30
0.0
 11
17.7216
 21
58.5114
 31
0.0
  0
LINE
  8
0
 62
     0
 10
17.7216
 20
58.5114
 30
0.0
 11
16.9995
 21
57.9148
 31
0.0
  0
LINE
  8
0
 62
     0
 10
16.9995
 20
57.9148
 30
0.0
 11
16.2443
 21
57.361
 31
0.0
  0
LINE
  8
0
 62
     0
 10
16.2443
 20
57.361
 30
0.0
 11
15.4602
 21
56.8494
 31
0.0
  0
LINE
  8
0
 62
     0
 10
15.4602
 20
56.8494
 30
0.0
 11
14.6472
 21
56.3824
 31
0.0
  0
LINE
  8
0
 62
     0
 10
14.6472
 20
56.3824
 30
0.0
 11
13.8107
 21
55.9608
 31
0.0
  0
LINE
  8
0
 62
     0
 10
13.8107
 20
55.9608
 30
0.0
 11
12.9522
 21
55.5858
 31
0.0
  0
LINE
  8
0
 62
     0
 10
12.9522
 20
55.5858
 30
0.0
 11
12.0744
 21
55.2595
 31
0.0
  0
LINE
  8
0
 62
     0
 10
12.0744
 20
55.2595
 30
0.0
 11
11.18
 21
54.9822
 31
0.0
  0
LINE
  8
0
 62
     0
 10
11.18
 20
54.9822
 30
0.0
 11
10.2719
 21
54.755
 31
0.0
  0
LINE
  8
0
 62
     0
 10
10.2719
 20
54.755
 30
0.0
 11
9.35136
 21
54.5786
 31
0.0
  0
LINE
  8
0
 62
     0
 10
9.35136
 20
54.5786
 30
0.0
 11
8.6789
 21
54.4961
 31
0.0
  0
LINE
  8
0
 62
     0
 10
8.6789
 20
54.4961
 30
0.0
 11
8.0064
 21
54.4932
 31
0.0
  0
LINE
  8
0
 62
     0
 10
8.0064
 20
54.4932
 30
0.0
 11
7.35323
 21
54.6241
 31
0.0
  0
LINE
  8
0
 62
     0
 10
7.35323
 20
54.6241
 30
0.0
 11
6.55256
 21
55.0651
 31
0.0
  0
LINE
  8
0
 62
     0
 10
6.55256
 20
55.0651
 30
0.0
 11
5.8856
 21
55.7142
 31
0.0
  0
LINE
  8
0
 62
     0
 10
5.8856
 20
55.7142
 30
0.0
 11
5.31647
 21
56.4624
 31
0.0
  0
LINE
  8
0
 62
     0
 10
5.31647
 20
56.4624
 30
0.0
 11
4.768
 21
57.2728
 31
0.0
  0
LINE
  8
0
 62
     0
 10
4.768
 20
57.2728
 30
0.0
 11
4.24575
 21
58.0993
 31
0.0
  0
LINE
  8
0
 62
     0
 10
4.24575
 20
58.0993
 30
0.0
 11
3.74964
 21
58.9428
 31
0.0
  0
LINE
  8
0
 62
     0
 10
3.74964
 20
58.9428
 30
0.0
 11
3.28111
 21
59.8015
 31
0.0
  0
LINE
  8
0
 62
     0
 10
3.28111
 20
59.8015
 30
0.0
 11
2.83876
 21
60.675
 31
0.0
  0
LINE
  8
0
 62
     0
 10
2.83876
 20
60.675
 30
0.0
 11
2.42535
 21
61.5611
 31
0.0
  0
LINE
  8
0
 62
     0
 10
2.42535
 20
61.5611
 30
0.0
 11
2.0395
 21
62.4597
 31
0.0
  0
LINE
  8
0
 62
     0
 10
2.0395
 20
62.4597
 30
0.0
 11
1.68121
 21
63.3705
 31
0.0
  0
LINE
  8
0
 62
     0
 10
1.68121
 20
63.3705
 30
0.0
 11
1.35323
 21
64.2909
 31
0.0
  0
LINE
  8
0
 62
     0
 10
1.35323
 20
64.2909
 30
0.0
 11
1.05282
 21
65.2226
 31
0.0
  0
LINE
  8
0
 62
     0
 10
1.05282
 20
65.2226
 30
0.0
 11
0.782726
 21
66.1624
 31
0.0
  0
LINE
  8
0
 62
     0
 10
0.782726
 20
66.1624
 30
0.0
 11
0.542946
 21
67.1103
 31
0.0
  0
LINE
  8
0
 62
     0
 10
0.542946
 20
67.1103
 30
0.0
 11
0.333485
 21
68.0667
 31
0.0
  0
LINE
  8
0
 62
     0
 10
0.333485
 20
68.0667
 30
0.0
 11
0.15434
 21
69.0287
 31
0.0
  0
LINE
  8
0
 62
     0
 10
0.15434
 20
69.0287
 30
0.0
 11
0.0206706
 21
69.9932
 31
0.0
  0
LINE
  8
0
 62
     0
 10
0.0206706
 20
69.9932
 30
0.0
 11
0
 21
70.9595
 31
0.0
  0
LINE
  8
0
 62
     0
 10
0
 20
70.9595
 30
0.0
 11
0.172255
 21
71.9018
 31
0.0
  0
LINE
  8
0
 62
     0
 10
0.172255
 20
71.9018
 30
0.0
 11
0.592557
 21
72.7798
 31
0.0
  0
LINE
  8
0
 62
     0
 10
0.592557
 20
72.7798
 30
0.0
 11
1.20716
 21
73.5461
 31
0.0
  0
LINE
  8
0
 62
     0
 10
1.20716
 20
73.5461
 30
0.0
 11
1.94441
 21
74.2033
 31
0.0
  0
LINE
  8
0
 62
     0
 10
1.94441
 20
74.2033
 30
0.0
 11
2.71611
 21
74.7462
 31
0.0
  0
LINE
  8
0
 62
     0
 10
2.71611
 20
74.7462
 30
0.0
 11
3.52915
 21
75.2133
 31
0.0
  0
LINE
  8
0
 62
     0
 10
3.52915
 20
75.2133
 30
0.0
 11
4.37942
 21
75.6102
 31
0.0
  0
LINE
  8
0
 62
     0
 10
4.37942
 20
75.6102
 30
0.0
 11
5.25861
 21
75.9464
 31
0.0
  0
LINE
  8
0
 62
     0
 10
5.25861
 20
75.9464
 30
0.0
 11
6.16398
 21
76.2275
 31
0.0
  0
LINE
  8
0
 62
     0
 10
6.16398
 20
76.2275
 30
0.0
 11
7.08865
 21
76.4632
 31
0.0
  0
LINE
  8
0
 62
     0
 10
7.08865
 20
76.4632
 30
0.0
 11
8.02569
 21
76.6618
 31
0.0
  0
LINE
  8
0
 62
     0
 10
8.02569
 20
76.6618
 30
0.0
 11
8.97241
 21
76.8269
 31
0.0
  0
LINE
  8
0
 62
     0
 10
8.97241
 20
76.8269
 30
0.0
 11
9.92188
 21
76.9705
 31
0.0
  0
LINE
  8
0
 62
     0
 10
9.92188
 20
76.9705
 30
0.0
 11
10.8672
 21
77.0985
 31
0.0
  0
LINE
  8
0
 62
     0
 10
10.8672
 20
77.0985
 30
0.0
 11
11.8401
 21
77.1991
 31
0.0
  0
LINE
  8
0
 62
     0
 10
11.8401
 20
77.1991
 30
0.0
 11
12.8461
 21
77.2527
 31
0.0
  0
LINE
  8
0
 62
     0
 10
12.8461
 20
77.2527
 30
0.0
 11
13.8603
 21
77.2418
 31
0.0
  0
LINE
  8
0
 62
     0
 10
13.8603
 20
77.2418
 30
0.0
 11
14.8621
 21
77.1564
 31
0.0
  0
LINE
  8
0
 62
     0
 10
14.8621
 20
77.1564
 30
0.0
 11
15.824
 21
76.9828
 31
0.0
  0
LINE
  8
0
 62
     0
 10
15.824
 20
76.9828
 30
0.0
 11
16.7253
 21
76.7059
 31
0.0
  0
LINE
  8
0
 62
     0
 10
16.7253
 20
76.7059
 30
0.0
 11
17.5411
 21
76.3143
 31
0.0
  0
LINE
  8
0
 62
     0
 10
17.5411
 20
76.3143
 30
0.0
 11
18.248
 21
75.795
 31
0.0
  0
LINE
  8
0
 62
     0
 10
18.248
 20
75.795
 30
0.0
 11
18.8213
 21
75.1336
 31
0.0
  0
LINE
  8
0
 62
     0
 10
18.8213
 20
75.1336
 30
0.0
 11
19.2388
 21
74.3176
 31
0.0
  0
LINE
  8
0
 62
     0
 10
19.2388
 20
74.3176
 30
0.0
 11
19.4675
 21
73.3531
 31
0.0
  0
LINE
  8
0
 62
     0
 10
19.4675
 20
73.3531
 30
0.0
 11
19.5268
 21
72.3403
 31
0.0
  0
LINE
  8
0
 62
     0
 10
19.5268
 20
72.3403
 30
0.0
 11
19.5006
 21
71.308
 31
0.0
  0
LINE
  8
0
 62
     0
 10
19.5006
 20
71.308
 30
0.0
 11
19.4744
 21
70.2867
 31
0.0
  0
LINE
  8
0
 62
     0
 10
19.4744
 20
70.2867
 30
0.0
 11
19.5323
 21
69.3057
 31
0.0
  0
LINE
  8
0
 62
     0
 10
19.5323
 20
69.3057
 30
0.0
 11
19.7624
 21
68.3934
 31
0.0
  0
LINE
  8
0
 62
     0
 10
19.7624
 20
68.3934
 30
0.0
 11
20.2489
 21
67.5778
 31
0.0
  0
LINE
  8
0
 62
     0
 10
20.2489
 20
67.5778
 30
0.0
 11
20.8787
 21
67.0415
 31
0.0
  0
LINE
  8
0
 62
     0
 10
20.8787
 20
67.0415
 30
0.0
 11
21.6379
 21
66.712
 31
0.0
  0
LINE
  8
0
 62
     0
 10
21.6379
 20
66.712
 30
0.0
 11
22.4703
 21
66.5826
 31
0.0
  0
LINE
  8
0
 62
     0
 10
22.4703
 20
66.5826
 30
0.0
 11
23.3233
 21
66.6418
 31
0.0
  0
LINE
  8
0
 62
     0
 10
23.3233
 20
66.6418
 30
0.0
 11
24.1377
 21
66.8817
 31
0.0
  0
LINE
  8
0
 62
     0
 10
24.1377
 20
66.8817
 30
0.0
 11
24.8791
 21
67.2758
 31
0.0
  0
LINE
  8
0
 62
     0
 10
24.8791
 20
67.2758
 30
0.0
 11
25.5488
 21
67.7817
 31
0.0
  0
LINE
  8
0
 62
     0
 10
25.5488
 20
67.7817
 30
0.0
 11
26.151
 21
68.3754
 31
0.0
  0
LINE
  8
0
 62
     0
 10
26.151
 20
68.3754
 30
0.0
 11
26.6912
 21
69.0344
 31
0.0
  0
LINE
  8
0
 62
     0
 10
26.6912
 20
69.0344
 30
0.0
 11
27.1763
 21
69.7315
 31
0.0
  0
LINE
  8
0
 62
     0
 10
27.1763
 20
69.7315
 30
0.0
 11
27.671
 21
70.5513
 31
0.0
  0
LINE
  8
0
 62
     0
 10
27.671
 20
70.5513
 30
0.0
 11
28.1147
 21
71.399
 31
0.0
  0
LINE
  8
0
 62
     0
 10
28.1147
 20
71.399
 30
0.0
 11
28.5075
 21
72.2711
 31
0.0
  0
LINE
  8
0
 62
     0
 10
28.5075
 20
72.2711
 30
0.0
 11
28.8478
 21
73.1654
 31
0.0
  0
LINE
  8
0
 62
     0
 10
28.8478
 20
73.1654
 30
0.0
 11
29.1345
 21
74.0791
 31
0.0
  0
LINE
  8
0
 62
     0
 10
29.1345
 20
74.0791
 30
0.0
 11
29.366
 21
75.008
 31
0.0
  0
LINE
  8
0
 62
     0
 10
29.366
 20
75.008
 30
0.0
 11
29.5438
 21
75.9478
 31
0.0
  0
LINE
  8
0
 62
     0
 10
29.5438
 20
75.9478
 30
0.0
 11
29.6636
 21
76.8974
 31
0.0
  0
LINE
  8
0
 62
     0
 10
29.6636
 20
76.8974
 30
0.0
 11
29.727
 21
77.8524
 31
0.0
  0
LINE
  8
0
 62
     0
 10
29.727
 20
77.8524
 30
0.0
 11
29.7312
 21
78.8098
 31
0.0
  0
LINE
  8
0
 62
     0
 10
29.7312
 20
78.8098
 30
0.0
 11
29.6829
 21
79.7885
 31
0.0
  0
LINE
  8
0
 62
     0
 10
29.6829
 20
79.7885
 30
0.0
 11
29.6127
 21
80.7695
 31
0.0
  0
LINE
  8
0
 62
     0
 10
29.6127
 20
80.7695
 30
0.0
 11
29.5576
 21
81.7481
 31
0.0
  0
LINE
  8
0
 62
     0
 10
29.5576
 20
81.7481
 30
0.0
 11
29.5506
 21
82.7207
 31
0.0
  0
LINE
  8
0
 62
     0
 10
29.5506
 20
82.7207
 30
0.0
 11
29.632
 21
83.6828
 31
0.0
  0
LINE
  8
0
 62
     0
 10
29.632
 20
83.6828
 30
0.0
 11
29.8345
 21
84.6282
 31
0.0
  0
LINE
  8
0
 62
     0
 10
29.8345
 20
84.6282
 30
0.0
 11
30.1749
 21
85.5102
 31
0.0
  0
LINE
  8
0
 62
     0
 10
30.1749
 20
85.5102
 30
0.0
 11
30.6434
 21
86.3244
 31
0.0
  0
LINE
  8
0
 62
     0
 10
30.6434
 20
86.3244
 30
0.0
 11
31.225
 21
87.0673
 31
0.0
  0
LINE
  8
0
 62
     0
 10
31.225
 20
87.0673
 30
0.0
 11
31.9002
 21
87.7341
 31
0.0
  0
LINE
  8
0
 62
     0
 10
31.9002
 20
87.7341
 30
0.0
 11
32.6567
 21
88.3239
 31
0.0
  0
LINE
  8
0
 62
     0
 10
32.6567
 20
88.3239
 30
0.0
 11
33.4767
 21
88.834
 31
0.0
  0
LINE
  8
0
 62
     0
 10
33.4767
 20
88.834
 30
0.0
 11
34.3449
 21
89.2584
 31
0.0
  0
LINE
  8
0
 62
     0
 10
34.3449
 20
89.2584
 30
0.0
 11
35.2433
 21
89.5974
 31
0.0
  0
LINE
  8
0
 62
     0
 10
35.2433
 20
89.5974
 30
0.0
 11
36.1597
 21
89.8536
 31
0.0
  0
LINE
  8
0
 62
     0
 10
36.1597
 20
89.8536
 30
0.0
 11
37.09
 21
90.0451
 31
0.0
  0
LINE
  8
0
 62
     0
 10
37.09
 20
90.0451
 30
0.0
 11
38.0326
 21
90.1802
 31
0.0
  0
LINE
  8
0
 62
     0
 10
38.0326
 20
90.1802
 30
0.0
 11
38.9819
 21
90.267
 31
0.0
  0
LINE
  8
0
 62
     0
 10
38.9819
 20
90.267
 30
0.0
 11
39.9383
 21
90.3153
 31
0.0
  0
LINE
  8
0
 62
     0
 10
39.9383
 20
90.3153
 30
0.0
 11
40.8975
 21
90.3358
 31
0.0
  0
LINE
  8
0
 62
     0
 10
40.8975
 20
90.3358
 30
0.0
 11
41.8578
 21
90.3358
 31
0.0
  0
LINE
  8
0
 62
     0
 10
41.8578
 20
90.3358
 30
0.0
 11
42.8156
 21
90.3277
 31
0.0
  0
LINE
  8
0
 62
     0
 10
42.8156
 20
90.3277
 30
0.0
 11
43.6809
 21
90.2917
 31
0.0
  0
LINE
  8
0
 62
     0
 10
43.6809
 20
90.2917
 30
0.0
 11
44.5354
 21
90.1622
 31
0.0
  0
LINE
  8
0
 62
     0
 10
44.5354
 20
90.1622
 30
0.0
 11
45.3111
 21
89.8701
 31
0.0
  0
LINE
  8
0
 62
     0
 10
45.3111
 20
89.8701
 30
0.0
 11
45.937
 21
89.3452
 31
0.0
  0
LINE
  8
0
 62
     0
 10
45.937
 20
89.3452
 30
0.0
 11
46.3296
 21
88.5705
 31
0.0
  0
LINE
  8
0
 62
     0
 10
46.3296
 20
88.5705
 30
0.0
 11
46.4714
 21
87.69
 31
0.0
  0
LINE
  8
0
 62
     0
 10
46.4714
 20
87.69
 30
0.0
 11
46.4799
 21
86.7876
 31
0.0
  0
LINE
  8
0
 62
     0
 10
46.4799
 20
86.7876
 30
0.0
 11
46.4577
 21
85.8075
 31
0.0
  0
LINE
  8
0
 62
     0
 10
46.4577
 20
85.8075
 30
0.0
 11
46.4136
 21
83.851
 31
0.0
  0
LINE
  8
0
 62
     0
 10
46.4136
 20
83.851
 30
0.0
 11
46.3903
 21
82.8724
 31
0.0
  0
LINE
  8
0
 62
     0
 10
46.3903
 20
82.8724
 30
0.0
 11
46.3684
 21
81.8942
 31
0.0
  0
LINE
  8
0
 62
     0
 10
46.3684
 20
81.8942
 30
0.0
 11
46.3462
 21
80.9142
 31
0.0
  0
LINE
  8
0
 62
     0
 10
46.3462
 20
80.9142
 30
0.0
 11
46.2802
 21
77.9791
 31
0.0
  0
LINE
  8
0
 62
     0
 10
46.2802
 20
77.9791
 30
0.0
 11
46.258
 21
76.9994
 31
0.0
  0
LINE
  8
0
 62
     0
 10
46.258
 20
76.9994
 30
0.0
 11
46.2456
 21
76.0719
 31
0.0
  0
LINE
  8
0
 62
     0
 10
46.2456
 20
76.0719
 30
0.0
 11
46.2841
 21
75.1459
 31
0.0
  0
LINE
  8
0
 62
     0
 10
46.2841
 20
75.1459
 30
0.0
 11
46.4192
 21
74.2389
 31
0.0
  0
LINE
  8
0
 62
     0
 10
46.4192
 20
74.2389
 30
0.0
 11
46.699
 21
73.3668
 31
0.0
  0
LINE
  8
0
 62
     0
 10
46.699
 20
73.3668
 30
0.0
 11
47.1812
 21
72.5717
 31
0.0
  0
LINE
  8
0
 62
     0
 10
47.1812
 20
72.5717
 30
0.0
 11
47.8536
 21
71.9307
 31
0.0
  0
LINE
  8
0
 62
     0
 10
47.8536
 20
71.9307
 30
0.0
 11
48.6639
 21
71.5328
 31
0.0
  0
LINE
  8
0
 62
     0
 10
48.6639
 20
71.5328
 30
0.0
 11
49.5572
 21
71.4622
 31
0.0
  0
LINE
  8
0
 62
     0
 10
49.5572
 20
71.4622
 30
0.0
 11
50.3054
 21
71.6926
 31
0.0
  0
LINE
  8
0
 62
     0
 10
50.3054
 20
71.6926
 30
0.0
 11
50.9859
 21
72.1071
 31
0.0
  0
LINE
  8
0
 62
     0
 10
50.9859
 20
72.1071
 30
0.0
 11
51.6184
 21
72.6048
 31
0.0
  0
LINE
  8
0
 62
     0
 10
51.6184
 20
72.6048
 30
0.0
 11
52.2125
 21
73.1834
 31
0.0
  0
LINE
  8
0
 62
     0
 10
52.2125
 20
73.1834
 30
0.0
 11
52.7308
 21
73.841
 31
0.0
  0
LINE
  8
0
 62
     0
 10
52.7308
 20
73.841
 30
0.0
 11
53.1964
 21
74.5575
 31
0.0
  0
LINE
  8
0
 62
     0
 10
53.1964
 20
74.5575
 30
0.0
 11
53.636
 21
75.3166
 31
0.0
  0
LINE
  8
0
 62
     0
 10
53.636
 20
75.3166
 30
0.0
 11
54.0755
 21
76.098
 31
0.0
  0
LINE
  8
0
 62
     0
 10
54.0755
 20
76.098
 30
0.0
 11
54.5387
 21
76.8847
 31
0.0
  0
LINE
  8
0
 62
     0
 10
54.5387
 20
76.8847
 30
0.0
 11
55.0513
 21
77.658
 31
0.0
  0
LINE
  8
0
 62
     0
 10
55.0513
 20
77.658
 30
0.0
 11
55.6383
 21
78.3992
 31
0.0
  0
LINE
  8
0
 62
     0
 10
55.6383
 20
78.3992
 30
0.0
 11
56.3245
 21
79.0896
 31
0.0
  0
LINE
  8
0
 62
     0
 10
56.3245
 20
79.0896
 30
0.0
 11
57.1377
 21
79.714
 31
0.0
  0
LINE
  8
0
 62
     0
 10
57.1377
 20
79.714
 30
0.0
 11
58.0993
 21
80.2499
 31
0.0
  0
LINE
  8
0
 62
     0
 10
58.0993
 20
80.2499
 30
0.0
 11
59.2377
 21
80.6813
 31
0.0
  0
LINE
  8
0
 62
     0
 10
59.2377
 20
80.6813
 30
0.0
 11
60.5772
 21
80.99
 31
0.0
  0
ENDSEC
  0
EOF
