<?xml version="1.0" encoding="utf-8"?>
<!-- Generator: Adobe Illustrator 24.0.1, SVG Export Plug-In . SVG Version: 6.00 Build 0)  -->
<svg version="1.1" id="Layer_1" xmlns="http://www.w3.org/2000/svg" xmlns:xlink="http://www.w3.org/1999/xlink" x="0px" y="0px"
	 viewBox="0 0 792 612" style="enable-background:new 0 0 792 612;" xml:space="preserve">
<style type="text/css">
	.st0{fill:#FFFFFF;stroke:#000000;stroke-miterlimit:10;}
	.st1{fill:none;stroke:#000000;stroke-miterlimit:10;}
</style>
<path class="st0" d="M409.27,219.04"/>
<path class="st0" d="M429.64,215.47"/>
<path class="st1" d="M404.04,234.38c23.72-3.94,22.61,20.34,34.75,24.73c12.86,4.65,29.06,7.13,38.66-2.6
	c0.99-1.01,1.92-2.24,1.92-3.66c-0.01-1.13-0.61-2.16-1.26-3.08c-9.85-14.01-30.24-14.11-45.64-21.63
	c-5.39-2.63-10.84-7.43-10.29-13.4c0.61-6.64,7.97-10.19,14.31-12.24c12.41-4.01,25.07-7.25,37.88-9.71
	c9.16-1.75,19.09-3.01,27.42,1.16c14.47,7.24,27.08,26.65,17.91,42.55c-9.17,15.89-19.31,15.15-20.92,26.96
	c-0.28,2.07-0.32,4.37,0.94,6.04c1.23,1.64,3.38,2.25,5.39,2.69c33.8,7.41,68.28-5.16,102.06-12.68c5.21-1.16,11.57-1.84,15.01,2.24
	c1.68,1.99,2.2,4.69,2.5,7.27c1.47,12.6-1.31,26.07-9.45,35.8s-22.11,14.9-34.14,10.88c-8.68-2.9-15.28-9.87-22.86-15
	c-16.87-11.4-38.21-13.45-58.55-14.41c-8.31-0.39-17.52-0.35-23.73,5.17c-10.44,9.3-4.29,28.06,7.79,35.1
	c12.08,7.04,26.98,6.12,40.96,5.81c14.34-0.31,34.67-7.05,42.51,4.96c11.46,17.56-24.25,83.63-53.86,75.56
	c-24.78-6.76-7.78-28.89-27.59-34.35c-19.81-5.46-28.74,6.54-39.53,16.22s-14.68,26.31-9.29,39.76c1.98,4.94,5.08,9.52,5.85,14.78
	c1.81,12.34-11.64,23.39-23.97,21.51c-12.33-1.88-21.51-13.75-23.08-26.13c-1.06-8.39-1.63-20.05-10.03-21.01
	c-7.6-0.86-11.47,8.74-12.78,16.27c-2.6,14.96-3.83,33.48,8.67,42.12c5.79,4.01,13.17,4.68,20.15,5.64
	c20.93,2.89,41.33,9.56,59.92,19.59c3.75,2.03,7.65,4.42,9.45,8.29c3.41,7.35-2.58,15.88-9.63,19.87c-11.07,6.26-24.9,6.15-37,2.26
	c-12.11-3.89-22.8-11.21-32.91-18.92c-12.02-9.17-23.51-19.04-34.38-29.54c-10.82-10.45-24.59-22.5-38.87-17.81
	c-15.1,4.96-18.4,24.39-27.42,37.48c-10.88,15.78-33.16,22.52-50.97,15.42c-1.91-0.76-3.85-1.73-5-3.43
	c-1.15-1.7-1.34-3.86-1.4-5.91c-0.66-23.59,12.36-47.09,32.71-59.03c16.49-9.68,36.16-11.75,54.77-16.11
	c18.62-4.35,38.13-12.38,47.52-29.04c2.54-4.5,4.23-9.86,2.83-14.84c-0.8-2.85-2.55-5.32-4.3-7.71
	c-7.29-9.92-16.95-20.21-29.26-20.12c-6.24,0.05-12.1,2.84-17.62,5.74c-18.91,9.93-36.76,21.88-53.16,35.57
	c-11.24,9.39-21.96,19.7-34.95,26.46c-9.31,4.85-19.51,7.71-29.62,10.55c-8.96,2.51-21.78,3.02-24.21-5.96
	c-0.92-3.4,0.25-6.98,1.48-10.28c4.7-12.6,10.53-24.77,17.39-36.34c6.95-11.73,14.95-22.83,23.88-33.13
	c12.55-14.46,28.48-28.02,47.58-29.44c16.26-1.21,31.64,6.56,47.39,10.75s35.45,3.46,44.74-9.94c7.3-10.52,5.27-24.87,0.97-36.92
	c-1.12-3.14-2.54-6.44-5.37-8.19c-3.11-1.93-7.08-1.48-10.7-0.93c-28.64,4.37-56.89,11.35-84.27,20.81
	c-3.15,1.09-6.32,2.22-9.16,3.97c-3.75,2.3-6.8,5.57-10.11,8.47c-8.89,7.77-19.98,12.98-31.64,14.86c-2.51,0.4-5.14,0.65-7.55-0.17
	c-3.33-1.13-5.68-4.07-7.7-6.95c-9.9-14.13-16.62-30.48-19.51-47.49c-0.61-3.61-1.05-7.38,0.07-10.86c1.13-3.54,3.77-6.41,6.7-8.7
	c9.43-7.36,21.85-9.4,33.72-10.94c11.95-1.54,27.47-0.8,31.64,10.51c3.03,8.21-1.85,18.8,3.82,25.47c3.45,4.06,9.79,4.69,14.7,2.63
	c4.91-2.07,8.59-6.3,11.48-10.77c6.55-10.13,9.97-22.25,9.66-34.31c-0.19-7.37-1.7-14.92,0.39-21.99
	c2.73-9.23,11.28-15.82,20.44-18.78c9.16-2.96,18.99-2.87,28.62-2.76c4.27,0.05,9.14,0.37,11.8,3.71c2.1,2.63,2.13,6.31,2.05,9.67
	c-0.28,12.33-0.56,24.66-0.84,36.99c-0.11,4.65-0.18,9.46,1.67,13.73c1.85,4.26,6.19,7.82,10.8,7.2c2.98-0.4,5.47-2.4,7.79-4.32
	C380.68,257.33,380.33,238.32,404.04,234.38z"/>
</svg>
