<?xml version="1.0" encoding="utf-8" ?>
<svg baseProfile="tiny" height="349.2783" version="1.2" width="449.9651" xmlns="http://www.w3.org/2000/svg" xmlns:ev="http://www.w3.org/2001/xml-events" xmlns:inkscape="http://www.inkscape.org/namespaces/inkscape" xmlns:xlink="http://www.w3.org/1999/xlink">
  <defs/>
  <g fill="none" id="layer1" inkscape:groupmode="layer" inkscape:label="1" stroke="black" style="display:inline">
    <path d="M228.9514814814813,43.23000000000002 L234.00189113100336,42.79981793354577 L238.2747586776579,43.240141101502076 L241.8740804801158,44.419581247155236 L244.90385289704798,46.20675011379157 L247.46807228712535,48.470259444697376 L249.67073500901884,51.078720983158945 L251.61583742139933,53.90074647246257 L253.40737588293783,56.80494765589452 L255.14934675230515,59.65993627674118 L256.9457463881722,62.33432407828877 L258.90057114921,64.69672280382363 L261.11781739408946,66.61574419663202 L263.7014814814813,67.96000000000004 L267.28409605698846,69.16683696468823 L270.9875220524806,70.22081141998501 L274.7669510532319,71.07666416228403 L278.57757464451663,71.689135987979 L282.374584411609,72.01296769346362 L286.11317193978334,72.00290007513155 L289.7485288143138,71.61367392937649 L293.2358466204746,70.80003005259209 L296.5303169435399,69.51670924117212 L299.5871313687842,67.71845229151023 L302.3614814814813,65.36000000000001 L303.69273148148136,63.68375 L304.28148148148136,61.70000000000002 L303.0214814814814,58.620000000000005 L300.7551002861461,55.82299198250729 L298.20002375553383,53.40516034985424 L295.3902096155921,51.31986516034988 L292.3596155922685,49.52046647230321 L289.14219941151043,47.96032434402335 L285.77191879926556,46.59279883381927 L282.2827314814813,45.37125000000003 L278.7085951841052,44.24903790087467 L275.08346763308487,43.17952259475223 L271.44130655436766,42.116064139941756 L267.8160696739012,41.01202259475227 L264.24171471763293,39.82075801749281 L260.75219941151045,38.49563046647239 L257.3814814814814,36.99000000000001 L254.18876148148135,35.15960000000001 L251.27252148148133,32.85640000000001 L248.92364148148127,30.128400000000028 L247.43300148148117,27.023600000000044 L247.09148148148134,23.590000000000003 L247.92300925925915,20.52013888888891 L249.6637037037036,17.921111111111117 L252.09773148148136,15.74875000000003 L255.00925925925915,13.958888888888907 L258.1824537037036,12.507361111111152 L261.40148148148137,11.349999999999994 L264.79215015165414,10.275462058602557 L268.1947647271613,9.239151014274967 L271.60887441912223,8.241111945905345 L275.0340284386564,7.281389932381671 L278.4697759968833,6.3600300525920375 L281.9156663049224,5.477077385424479 L285.3712485738931,4.63257700976709 L288.836072014915,3.8265740045078758 L292.30968583910726,3.05911344853493 L295.7916392575896,2.3302404207362883 L299.28148148148136,1.6399999999999864 L302.7479463252314,1.0163671874999807 L306.2588252314814,0.4965624999999818 L309.78634476273146,0.13847656249998863 L313.3027314814815,0.0 L316.78021195023155,0.13902343749998636 L320.1910127314817,0.613437499999975 L323.50736038773186,1.4811328124999932 L326.7014814814813,2.799999999999983 L329.76646690422183,4.531989795918349 L332.73095670014027,6.602244897959167 L335.5513940179245,8.976479591836721 L338.18422200626276,11.620408163265296 L340.5858838138429,14.499744897959175 L342.7128225893532,17.580204081632644 L344.5214814814815,20.827499999999986 L345.9683036389159,24.207346938775515 L347.0097322103445,27.68545918367346 L347.60221034445533,31.227551020408157 L347.7021811899365,34.79933673469387 L347.26608789547595,38.3665306122449 L346.2503736097617,41.894846938775515 L344.6114814814813,45.349999999999966 L341.84088148148123,49.64727999999997 L339.06908148148125,53.12183999999996 L336.35308148148135,55.948759999999936 L333.74988148148134,58.30311999999992 L331.31648148148133,60.3599999999999 L329.10988148148135,62.29447999999988 L327.1870814814813,64.28163999999987 L325.6050814814813,66.49655999999982 L324.4208814814814,69.1143199999998 L323.69148148148133,72.30999999999995 L323.58398148148126,75.47999999999996 L324.6314814814813,78.34999999999997 L327.0339814814813,80.14499999999992 L330.02148148148126,81.03999999999996 L333.64544922929474,81.75861470481044 L337.2742438721518,82.33116253644312 L340.9074882234637,82.76448478498537 L344.54480509664154,83.06542274052475 L348.1858173050964,83.24081769314864 L351.83014766223926,83.29751093294459 L355.47741898148126,83.24234374999997 L359.1272540762334,83.08215743440229 L362.7792757599069,82.82379327623903 L366.4331068459127,82.47409256559757 L370.088370147662,82.03989659256553 L373.74468847856576,81.52804664723021 L377.4016846520351,80.94538401967918 L381.05898148148117,80.29874999999987 L384.71620178031503,79.59498587827977 L388.37296836194764,78.84093294460627 L392.0289040397902,78.0434324890669 L395.6836316272537,77.20932580174912 L399.3367739377494,76.34545417274035 L402.9879537846881,75.45865889212808 L406.6367939814811,74.55578124999977 L410.2829173415395,73.64366253644295 L413.92594667827416,72.72914404154494 L417.56550480509634,71.8190670553933 L421.20121453541697,70.92027286807553 L424.83269868264733,70.039602769679 L428.4595800601983,69.18389805029125 L432.0814814814813,68.35999999999996 L435.31292148148134,67.75583999999992 L438.6250014814814,67.47231999999991 L441.8223614814815,67.71487999999988 L444.7096414814815,68.68895999999984 L447.0914814814813,70.59999999999997 L448.4196296296294,72.79592592592587 L449.18333333333317,75.28074074074067 L449.5914814814813,77.86999999999995 L449.886184712135,81.32447032306533 L449.96514038456166,84.80129977460552 L449.8233447421876,88.2797069872276 L449.4557940284385,91.73891059353866 L448.85748448674053,95.15812922614572 L448.0234123605196,98.51658151765588 L446.9485738932018,101.79348610067615 L445.6279653282131,104.96806160781364 L444.0565829089794,108.01952667167541 L442.2294228789268,110.92709992486851 L440.14148148148126,113.66999999999996 L437.78277374293884,116.20709992486849 L435.17000139132347,118.49721262208863 L432.3381907226533,120.5194665664913 L429.3223680329462,122.25299023290751 L426.1575596182205,123.67691209616822 L422.87879177449395,124.77036063110438 L419.5210907977846,125.51246431254685 L416.1194829841106,125.88235161532668 L412.70899462949,125.85915101427486 L409.3246520299408,125.42199098422225 L406.0014814814813,124.54999999999995 L402.83800491898126,123.28326171874994 L399.8336689814813,121.70421875 L396.95261429398136,119.88212890624999 L394.1589814814813,117.88625000000002 L391.4169111689813,115.78583984375001 L388.69054398148126,113.65015625000001 L385.9440205439813,111.54845703125005 L383.14148148148126,109.54999999999995 L380.11913464655356,107.63361286383059 L377.010665279568,105.90125585182165 L373.8227536166329,104.34284144107465 L370.56207989385655,102.94828210869116 L367.2353243473474,101.70749033177282 L363.8491672132134,100.61037858742105 L360.41028872756317,99.64685935273758 L356.92536912650473,98.80684510482388 L353.4010886461465,98.0802483207815 L349.84412752259675,97.45698147771208 L346.2611659919637,96.92695705271717 L342.6588842903558,96.48008752289832 L339.0439626538812,96.10628536535705 L335.4230813186481,95.79546305719504 L331.80292052076504,95.53753307551375 L328.19016049634,95.32240789741479 L324.5914814814813,95.13999999999993 L320.98632113162705,95.01390670553928 L317.3391782744842,95.02880466472294 L313.7182744843967,95.27303206997078 L310.19183133570857,95.83492711370252 L306.82807040276396,96.80282798833804 L303.6952132599067,98.26507288629722 L300.8614814814813,100.30999999999995 L298.41752205248054,103.06499624342592 L296.7481531569133,106.19360631104428 L295.80532070011384,109.60035311795639 L295.5409705874166,113.18975957926364 L295.90704872415597,116.86634861006758 L296.85550101566605,120.53464312546953 L298.33827336728143,124.09916604057094 L300.30731168433624,127.46444027047323 L302.71456187216495,130.53498873027792 L305.5119698361019,133.2153343350863 L308.65148148148126,135.40999999999997 L311.7280671296294,137.00912615740737 L314.90916666666647,138.30634259259256 L318.1817939814813,139.33140625 L321.53296296296276,140.11407407407404 L324.94968749999975,140.68410300925922 L328.4189814814813,141.07124999999996 L331.92785879629605,141.30527199074072 L335.46333333333314,141.41592592592588 L339.01241898148123,141.43296875 L342.56212962962934,141.38615740740738 L346.09947916666647,141.30524884259256 L349.6114814814813,141.21999999999997 L353.3105787037035,141.02311342592589 L357.19509259259246,140.64574074074068 L361.2008564814813,140.17531249999996 L365.2637037037035,139.69925925925918 L369.31946759259245,139.305011574074 L373.3039814814813,139.07999999999993 L377.1530787037035,139.1116550925925 L380.8025925925924,139.48740740740732 L384.1883564814814,140.29468749999984 L387.2462037037036,141.62092592592575 L389.91196759259253,143.55355324074054 L392.1214814814813,146.17999999999995 L393.17126783352205,148.24146638119527 L393.8746192365834,150.6406596209912 L394.2460956396445,153.34405657798828 L394.3002569916854,156.31813411078713 L394.05166324168533,159.5293690779883 L393.51487433862417,162.94423833819235 L392.70445023148125,166.52921874999993 L391.6349508692364,170.2507871720116 L390.320936200869,174.07542046282794 L388.7769661753589,177.9695954810495 L387.0176007416853,181.8997890852769 L385.05739984882825,185.83247813411072 L382.910923445767,189.7341394861515 L380.59273148148134,193.5712499999999 L378.11738390495066,197.31028653425642 L375.4994406651548,200.91772594752172 L372.7534617110731,204.36004509839637 L369.8940069916854,207.6037208454809 L366.9356364559711,210.61523004737592 L363.8929100529099,213.361049562682 L360.78038773148126,215.8076562499998 L357.61262944066493,217.92152696792982 L354.4041951294405,219.66913857507268 L351.1696447467874,221.0169679300289 L347.9235382416854,221.93149189139916 L344.680435563114,222.379187317784 L341.45489666005267,222.32653106778395 L338.26148148148127,221.73999999999995 L333.2489052411536,219.92174328629943 L329.5050135706939,217.64530723714154 L326.8151774305027,214.99819299044145 L324.96476778098065,212.06790168411464 L323.73915558252827,208.9419344560764 L322.92371179554596,205.7077924442421 L322.3038073804345,202.45297678652702 L321.66481329759426,199.2649886208465 L320.79210050742586,196.231329085116 L319.4710399703299,193.4394993172507 L317.48700264670674,190.97700045516598 L314.6253594969571,188.93133363677725 L310.67148148148135,187.38999999999993 L306.2872802980494,186.43093764223937 L302.2545584045582,186.0377378243058 L298.53852290159966,186.1563814292216 L295.10438088976537,186.73284934000907 L291.917339469647,187.71312243969044 L288.94260574183636,189.0431816112881 L286.1453868069251,190.6690077378243 L283.4908897655049,192.53658170232137 L280.94432171816766,194.59188438780154 L278.4708897655049,196.78089667728722 L276.0358010081085,199.04959945380068 L273.60426254657,201.34397360036417 L271.14148148148126,203.6099999999999 L268.58910879629616,206.168929398148 L266.33249999999975,208.98226851851837 L264.3799189814813,212.01484374999984 L262.73962962962946,215.2314814814813 L261.41989583333316,218.59700810185166 L260.4289814814813,222.0762499999998 L259.77515046296287,225.63403356481456 L259.4666666666666,229.2351851851849 L259.51179398148133,232.84453124999965 L259.91879629629625,236.42689814814776 L260.6959374999999,239.94711226851808 L261.8514814814813,243.3699999999999 L263.1462814814813,246.2991199999999 L264.54428148148133,249.19175999999987 L265.87988148148133,252.0978399999999 L266.9874814814815,255.06727999999993 L267.7014814814813,258.14999999999986 L267.80306148148134,261.80165999999986 L267.08732148148124,265.30607999999984 L265.6525414814813,268.59341999999987 L263.59700148148124,271.59383999999983 L261.0189814814812,274.23749999999984 L258.01676148148124,276.45455999999984 L254.6886214814812,278.17517999999984 L251.13284148148117,279.32951999999983 L247.44770148148112,279.8477399999999 L243.73148148148132,279.65999999999985 L240.13144148148135,278.80577999999986 L236.7471614814813,277.40903999999983 L233.60540148148132,275.5266599999998 L230.73292148148133,273.2155199999998 L228.15648148148128,270.5324999999998 L225.90284148148132,267.5344799999998 L223.9987614814813,264.27833999999973 L222.4710014814813,260.82095999999973 L221.34632148148123,257.21921999999967 L220.65148148148134,253.52999999999986 L220.20293920742884,249.7748104956267 L219.66885757477579,245.86358600583083 L218.90369722492156,242.04069970845478 L217.76191879926554,238.55052478134115 L216.09798293920718,235.63743440233253 L213.76635028614592,233.54580174927145 L210.62148148148137,232.51999999999987 L207.58929489256005,232.75530612244887 L204.9933765252131,234.05224489795904 L202.81325990713734,236.1916326530611 L201.02847856602946,238.95428571428556 L199.61856602958633,242.12102040816313 L198.56305582550468,245.47265306122438 L197.8414814814814,248.78999999999985 L197.2714268615451,252.29938552571673 L196.7837664154823,255.89845698680006 L196.412255263912,259.55050978607176 L196.19064852745313,263.218839326354 L196.1527013267249,266.8667410104687 L196.3321687823462,270.4575102412379 L196.7628060149361,273.95444242148375 L197.4783681451136,277.3208329540281 L198.51261029349777,280.51997724169314 L199.89928758070758,283.5151706873008 L201.67215512736212,286.2697086936731 L203.86496805408038,288.74688666363215 L206.5114814814814,290.90999999999985 L209.52976851851847,292.6534722222221 L212.7577777777777,293.94111111111096 L216.14023148148144,294.87374999999986 L219.6218518518518,295.55222222222204 L223.14736111111105,296.0773611111109 L226.6614814814814,296.54999999999984 L230.34924862986324,297.0991532668429 L234.02444911836315,297.72627111744333 L237.68551974730676,298.43084062690804 L241.33089731701975,299.2123488703438 L244.95901862782782,300.07028292285753 L248.5683204800566,301.0041298595561 L252.15723967403173,302.0133767555463 L255.72421301007896,303.097510685935 L259.26767728852394,304.25601872582916 L262.78606930969227,305.48838795033555 L266.2778258739096,306.79410543456106 L269.74138378150167,308.1726582536125 L273.17517983279424,309.62353348259677 L276.5776508281127,311.1462181966208 L279.947233567783,312.7401994707913 L283.2823648521306,314.40496438021523 L286.58148148148143,316.1399999999998 L289.38695023148136,317.7474999999998 L292.0377314814814,319.59499999999974 L294.3228877314813,321.7874999999997 L296.03148148148136,324.42999999999984 L296.941714717633,327.6355685131193 L296.84681675844934,330.8855685131193 L295.89267681675847,334.07994169096185 L294.22518410538817,337.118629737609 L291.9902278371667,339.90157434402295 L289.3336972249218,342.3287172011658 L286.40148148148137,344.29999999999984 L283.31733422378045,345.85128474830935 L280.1165678826835,347.09837716002994 L276.81942287892696,348.05295266716735 L273.44613963324696,348.7266867017279 L270.0169585663799,349.1312546957174 L266.5521200990621,349.2783320811419 L263.0718646520297,349.17959429000746 L259.59643264601925,348.84671675432 L256.1460645017668,348.2913749060857 L252.74100064000865,347.52524417731036 L249.4014814814814,346.55999999999983 L246.13332971589162,345.41633358377146 L242.93180454684577,344.1162885048834 L239.79311934774736,342.6735687453041 L236.7134874919998,341.101878287002 L233.68912235300658,339.41492111194566 L230.71623730417113,337.62640120210347 L227.79104571889692,335.75002253944376 L224.90976097058743,333.7994891059351 L222.06859643264605,331.7885048835459 L219.2637654784763,329.7307738542446 L216.49148148148143,327.6399999999999 L213.49757523148142,325.3329571759258 L210.52606481481476,322.99699074074056 L207.5772627314814,320.63234374999985 L204.6514814814814,318.23925925925914 L201.7490335648147,315.8179803240739 L198.8702314814814,313.36874999999986 L196.01538773148135,310.89181134259246 L193.1848148148147,308.3874074074073 L190.37882523148133,305.8557812499999 L187.59773148148125,303.29717592592584 L184.84184606481458,300.71183449074067 L182.11148148148143,298.09999999999985 L179.34643518518513,295.46478009259243 L176.4669444444444,292.8265740740739 L173.48148148148144,290.24906249999987 L170.3985185185185,287.79592592592576 L167.22652777777776,285.53084490740724 L163.97398148148145,283.5174999999998 L160.64935185185183,281.8195717592591 L157.2611111111111,280.5007407407405 L153.8177314814815,279.62468749999977 L150.32768518518517,279.25509259259235 L146.79944444444445,279.4556365740738 L143.24148148148143,280.28999999999985 L139.95835904179094,281.682007282658 L137.04632444916464,283.5309103322711 L134.45753063942405,285.7798771051432 L132.14413054839085,288.3720755575784 L130.05827711188655,291.2506736458806 L128.15212326573268,294.35883932635403 L126.37782194575092,297.6397405553026 L124.68752608776279,301.0365452890304 L123.0333886275898,304.49242148384155 L121.36756250105364,307.9505370960401 L119.64220064397583,311.35406008192996 L117.80945599217793,314.6461583978153 L115.82148148148141,317.76999999999987 L113.65176224320018,320.6216406249999 L111.23810257523141,323.25437499999987 L108.6037495478877,325.6611718749998 L105.77195023148144,327.8349999999998 L102.76595169632517,329.7688281249998 L99.60900101273145,331.4556249999998 L96.32434525101272,332.8883593749998 L92.93523148148145,334.05999999999983 L89.46490677445027,334.9635156249998 L85.93661820023149,335.59187499999985 L82.37361282913778,335.9380468749998 L78.79913773148158,335.9949999999999 L75.23643997757534,335.75570312499985 L71.70876663773163,335.2131249999999 L68.23936478226292,334.3602343749998 L64.85148148148141,333.1899999999998 L62.0664814814815,331.8274999999999 L59.851481481481414,329.7599999999999 L58.74273148148143,326.93624999999975 L58.45148148148141,323.8499999999999 L58.460029374760325,320.12768333576315 L58.69039094350211,316.41689604898664 L59.13701144211706,312.7276716722553 L59.79433612501546,309.07004373815414 L60.656810246607535,305.45404577926803 L61.71887906130354,301.8897113281819 L62.97498782351377,298.38707391748056 L64.4195817876485,294.9561670797491 L66.04710620811792,291.6070243475724 L67.8520063393324,288.3496792535353 L69.82872743570212,285.1941653302229 L71.97171475163739,282.15051611022 L74.27541354154846,279.2287651261115 L76.73426905984559,276.43894591048235 L79.34272656093904,273.79109199591755 L82.09523129923909,271.29523691500196 L84.98622852915597,268.96141420032046 L88.0101635051,266.7996573844581 L91.16148148148139,264.81999999999994 L94.28958695023138,263.0917626953124 L97.4860127314814,261.5273828124999 L100.74454788773139,260.11235839843744 L104.05898148148137,258.8321875 L107.42310257523135,257.67236816406245 L110.83070023148136,256.6183984375 L114.27556351273134,255.6557763671875 L117.75148148148136,254.77000000000004 L121.25224320023133,253.94656738281253 L124.77163773148132,253.17097656250007 L128.30345413773134,252.42872558593757 L131.84148148148128,251.7053125000001 L135.37950882523128,250.98623535156264 L138.9113252314813,250.2569921875002 L142.4307197627313,249.50308105468775 L145.93148148148137,248.70999999999992 L149.43047318070015,247.85004150390614 L152.9341963252314,246.89658203124992 L156.4265229853876,245.84237060546866 L159.89132523148137,244.68015624999992 L163.31247513382513,243.40268798828117 L166.67384476273136,242.0027148437499 L169.95930618851267,240.47298583984366 L173.15273148148142,238.80624999999986 L176.23799271195017,236.99525634765615 L179.1989619502314,235.03275390624987 L182.0195112666377,232.91149169921863 L184.68351273148144,230.62421874999984 L187.1748384150752,228.16368408203107 L189.47736038773147,225.52263671874982 L191.5749507197627,222.69382568359356 L193.45148148148135,219.6699999999999 L194.85556148148137,216.87671999999992 L195.94812148148137,213.93655999999993 L196.6216414814813,210.90903999999995 L196.76860148148128,207.85368 L196.28148148148134,204.82999999999993 L195.19999999999985,202.0955555555555 L193.69629629629614,199.5477777777778 L191.98148148148132,197.11999999999995 L189.72310148148134,194.14364999999992 L187.32084148148132,191.20959999999997 L184.77302148148127,188.38234999999997 L182.07796148148125,185.72639999999996 L179.23398148148127,183.30624999999998 L176.23940148148122,181.1864 L173.09254148148116,179.43135 L169.79172148148112,178.10560000000004 L166.33526148148113,177.2736500000001 L162.72148148148133,176.99999999999994 L159.02276148148135,177.33775999999995 L155.41332148148135,178.20687999999996 L151.8912414814814,179.48111999999992 L148.45460148148138,181.0342399999999 L145.10148148148133,182.73999999999995 L141.775505499393,184.51326480765312 L138.47201272512066,186.32812538164052 L135.19147944606507,188.18423977203332 L131.93438194962707,190.08126602890286 L128.70119652320736,192.01886220232035 L125.49239945420672,193.99668634235695 L122.30846703002598,196.014396499084 L119.14987553806586,198.0716507225727 L116.01710126572718,200.1681070628943 L112.91062050041066,202.30342357012006 L109.83090952951713,204.47725829432113 L106.7784446404473,206.68926928556886 L103.75370212060196,208.9391145939344 L100.75715825738192,211.22645226948907 L97.78928933818796,213.55094036230406 L94.85057165042079,215.91223692245057 L91.94148148148136,218.30999999999995 L89.14070023148136,220.67407986111107 L86.35189814814802,223.06097222222218 L83.56538773148137,225.45515624999996 L80.77148148148135,227.84111111111105 L77.960491898148,230.20331597222219 L75.12273148148134,232.52625 L72.24851273148133,234.79439236111108 L69.32814814814799,236.9922222222222 L66.35195023148131,239.10421875000003 L63.31023148148131,241.11486111111117 L60.19330439814797,243.0086284722223 L56.99148148148137,244.76999999999992 L53.85652949245531,246.3156652949245 L50.663717421124716,247.73013717421117 L47.421111111111,249.02962962962954 L44.13677640603558,250.23035665294918 L40.81877914951983,251.34853223593956 L37.475185185185126,252.4003703703703 L34.114060356652914,253.40208504801086 L30.743470507544572,254.36989026063088 L27.371481481481368,255.31999999999994 L23.858376012731355,256.1528710937499 L20.150387731481374,256.7104687499999 L16.414508825231366,256.90501953124993 L12.81773148148136,256.64874999999995 L9.527047887731385,255.85388671874995 L6.709450231481384,254.43265624999992 L4.531930700231385,252.29728515624993 L3.16148148148136,249.35999999999996 L2.862962962962854,245.91703703703695 L3.5066666666665753,242.45629629629616 L4.64148148148135,239.07999999999998 L5.951241060745048,235.65442524417728 L7.316582908979456,232.2509391435011 L8.737056237304017,228.87030803906833 L10.212210256838205,225.51329827197588 L11.741594178701433,222.18067618332077 L13.324757214013204,218.87320811419977 L14.961248573892988,215.5916604057099 L16.6506174694602,212.33679939894802 L18.392413111834315,209.1093914350111 L20.186184712134832,205.91020285499604 L22.031481481481336,202.74 L23.952878927011,199.55665664913602 L25.92580154158651,196.4053193087904 L27.949708378551207,193.28675432006014 L30.02405849124844,190.2017280240421 L32.14831093302152,187.15100676183323 L34.32192475721388,184.1353568745305 L36.5443590171688,181.15554470323076 L38.81507276622966,178.21233658903088 L41.13352505773983,175.30649887302792 L43.4991749450426,172.4387978963187 L45.91148148148133,169.61 L48.304164586950094,166.912041015625 L50.77575882523135,164.251640625 L53.325956579137596,161.645263671875 L55.95445023148136,159.109375 L58.66093216507511,156.66043945312504 L61.44509476273137,154.31492187499998 L64.30663040726262,152.089287109375 L67.2452314814814,150.0 L70.26059036820016,148.063525390625 L73.35239945023142,146.296328125 L76.52035111038768,144.71487304687497 L79.76413773148144,143.33562499999994 L83.08345169632523,142.17504882812494 L86.47798538773148,141.24960937499992 L89.94743118851275,140.5757714843749 L93.49148148148132,140.17000000000002 L97.22873682968341,140.0444606281293 L100.93816332035252,140.2034365043241 L104.62317469950588,140.61262630860267 L108.28718471316088,141.23772872098323 L111.93360710733472,142.0444424214839 L115.56585562804477,142.99846609012297 L119.18734402130829,144.0654984069186 L122.8014860331426,145.21123805188904 L126.411695409565,146.40138370505247 L130.02138589659276,147.60163404642708 L133.63397124024314,148.77768775603107 L137.25286518653357,149.89524351388275 L140.8814814814813,150.92000000000002 L144.5796790235842,151.7960582612654 L148.37889613783088,152.47627674101045 L152.23991570997472,152.93949021392808 L156.12352062576898,153.16453345471098 L159.990493770967,153.1302412380519 L163.80161803132202,152.8154483386436 L167.51767629258742,152.19898953117882 L171.0994514405164,151.2596995903504 L174.50772636086234,149.9764132908511 L177.7032839393785,148.3279654073736 L180.64690706181827,146.29319071461072 L183.2993786139348,143.85092398725521 L185.6214814814813,140.98000000000002 L187.3863725408352,138.0205559729527 L188.72044466705606,134.8988279489106 L189.65552355511014,131.64244928625095 L190.22343489996362,128.27905334335088 L190.4560043965827,124.8362734785876 L190.38505773993356,121.34174305033815 L190.04242062498238,117.82309541697975 L189.45991874669537,114.30796393688962 L188.66937780003875,110.82398196844485 L187.7026234799786,107.39878287002261 L186.59148148148134,104.06 L185.33037037037022,100.93 L183.62259259259244,98.07333333333338 L181.22148148148133,95.87 L177.86962962962954,94.64888888888885 L174.2133333333334,94.50777777777773 L170.52148148148135,94.94 L166.7880804787691,95.52479082764853 L163.0593396223542,96.13912057203913 L159.33549561808033,96.78292512533903 L155.61678517179118,97.45614037971563 L151.90344498933044,98.15870222733622 L148.19571177654174,98.8905465603682 L144.49382223926878,99.6516092709789 L140.79801308335524,100.44182625133561 L137.10852101464482,101.26113339360569 L133.42558273898115,102.10946658995647 L129.74943496220786,102.9867617325553 L126.08031439016875,103.89295471356951 L122.41845772870741,104.82798142516646 L118.76410168366758,105.79177775951348 L115.11748296089283,106.78427960877792 L111.47883826622692,107.80542286512707 L107.84840430551353,108.85514342072827 L104.2264177845963,109.93337716774892 L100.61311540931891,111.0400599983563 L97.008733885525,112.17512780471776 L93.41350991905833,113.33851647900065 L89.82768021576251,114.53016191337235 L86.25148148148136,115.75 L83.10777777777761,116.87481481481484 L80.02851851851827,118.15518518518525 L77.09148148148137,119.72000000000003 L74.39523148148137,121.60593750000004 L71.87148148148134,123.73000000000002 L69.43023148148134,125.96656250000001 L66.98148148148138,128.19000000000005 L64.25011148148138,130.44343000000003 L61.396521481481386,132.53864000000004 L58.43049148148137,134.47101000000004 L55.361801481481336,136.23592000000008 L52.200231481481325,137.82875000000007 L48.95556148148128,139.24488000000008 L45.637571481481245,140.47969000000006 L42.25604148148119,141.52856000000008 L38.82075148148115,142.38687000000004 L35.341481481481395,143.05000000000007 L32.80407407407398,143.36592592592598 L30.26222222222208,143.37740740740742 L27.791481481481384,142.88000000000005 L24.76407407407396,141.215925925926 L22.245555555555455,138.7607407407408 L20.091481481481395,135.93000000000006 L18.018963259907053,132.86873177842574 L16.045213259907058,129.7429154518951 L14.171652764280225,126.55596209912545 L12.399703055825398,123.31128279883387 L10.730785417341451,120.01228862973767 L9.166321131627143,116.66239067055398 L7.707731481481375,113.26500000000004 L6.3564377497029625,109.82352769679306 L5.113861219090694,106.34138483965017 L3.9814231724434705,102.82198250728868 L2.9605448925600797,99.26873177842572 L2.052647662239366,95.68504373177848 L1.2591527642801736,92.07432944606421 L0.5814814814814042,88.44000000000005 L0.07962962962955089,84.79333333333335 L0.0,81.13999999999999 L0.6514814814813974,77.58000000000004 L2.2396296296295475,74.26000000000005 L4.563333333333219,71.36666666666667 L7.351481481481386,68.88000000000005 L10.2666414814814,66.82678000000004 L13.339961481481396,65.06384000000003 L16.550201481481395,63.562260000000066 L19.87612148148139,62.29312000000007 L23.296481481481408,61.227500000000106 L26.79004148148141,60.33648000000011 L30.33556148148142,59.59114000000014 L33.91180148148143,58.96256000000017 L37.49752148148144,58.421820000000224 L41.071481481481385,57.940000000000055 L44.74866148148138,57.55469000000005 L48.55052148148138,57.355920000000054 L52.38754148148138,57.39343000000005 L56.17020148148137,57.71696000000006 L59.80898148148137,58.376250000000056 L63.214361481481376,59.42104000000006 L66.29682148148137,60.90107000000006 L68.96684148148137,62.86608000000004 L71.13490148148136,65.36581000000007 L72.7114814814814,68.45000000000005 L73.57958643774961,72.095918367347 L73.80203541734144,75.9230612244898 L73.70174387215195,79.8212244897959 L73.60162725407613,83.68020408163261 L73.82460101500908,87.38979591836727 L74.69358060684581,90.8397959183672 L76.53148148148139,93.92000000000007 L78.91372148148139,95.95032000000009 L81.7822014814814,97.19296000000014 L84.92956148148139,97.68344000000019 L88.14844148148134,97.45728000000025 L91.23148148148138,96.55000000000007 L94.03340148148138,95.06416000000007 L96.5612414814814,93.15208000000013 L98.83612148148146,90.90592000000015 L100.87916148148147,88.41784000000024 L102.7114814814814,85.78000000000009 L104.58198148148139,82.68335000000008 L106.2610814814814,79.47960000000006 L107.74518148148141,76.18105000000008 L109.03068148148142,72.80000000000007 L110.11398148148143,69.34875000000011 L110.99148148148149,65.83960000000008 L111.65958148148147,62.28485000000009 L112.11468148148148,58.69680000000008 L112.35318148148153,55.087750000000085 L112.37148148148142,51.470000000000084 L112.18925925925922,47.77305555555563 L111.92370370370364,44.06444444444452 L111.7114814814814,40.36250000000007 L111.68925925925916,36.685555555555624 L111.99370370370363,33.0519444444445 L112.76148148148141,29.480000000000075 L114.04786820023142,26.14443359375008 L115.81882523148144,23.06796875000009 L118.0132978877314,20.262207031250085 L120.57023148148139,17.738750000000095 L123.42857132523139,15.509199218750126 L126.52726273148139,13.585156250000153 L129.80525101273142,11.978222656250153 L133.2014814814814,10.700000000000074 L136.6661885127314,9.727050781250085 L140.18351273148144,9.00453125000007 L143.74325882523144,8.496933593750072 L147.33523148148143,8.168750000000074 L150.94923538773148,7.984472656250091 L154.57507523148146,7.908593750000108 L158.2025557002315,7.90560546875011 L161.8214814814814,7.940000000000083 L165.0925752314814,8.071093750000102 L168.32523148148144,8.561250000000086 L171.2560127314815,9.668281250000092 L173.62148148148142,11.650000000000091 L175.10407407407402,14.579259259259345 L175.64222222222222,17.904074074074174 L175.67148148148144,21.32000000000008 L175.58748148148143,25.01900000000009 L175.50348148148143,28.718000000000075 L175.41948148148148,32.41700000000009 L175.33548148148148,36.1160000000001 L175.25148148148148,39.81500000000011 L175.16748148148153,43.514000000000124 L175.08348148148153,47.213000000000136 L174.99948148148158,50.91200000000015 L174.91548148148158,54.61100000000016 L174.83148148148146,58.31000000000009 L174.78585648148143,61.81656250000009 L174.93148148148143,65.31750000000011 L175.44460648148137,68.74718750000011 L176.50148148148148,72.04000000000008 L178.32116898148146,75.04937500000005 L180.8664814814815,77.47000000000003 L183.92929398148144,78.97562499999998 L187.3014814814815,79.24000000000007 L190.13000000000002,78.36888888888893 L192.70296296296308,76.80444444444447 L195.0914814814815,74.92000000000007 L197.3378447040577,72.73230314064637 L199.29433992481322,70.24919435593995 L201.05630624251918,67.53987710514343 L202.71908275594652,64.67355484751937 L204.37800856386642,61.719431042330456 L206.12842276504986,58.7467091488393 L208.06566445826783,55.82459262630857 L210.28507274229153,53.02228493400085 L212.88198671589188,50.408989531178804 L215.95174547784003,48.05390987710507 L219.58968812690696,46.02624943104223 L223.8911537618637,44.395211652252954 L228.9514814814813,43.23000000000002"/>
  </g>
</svg>
