  0
SECTION
  2
HEADER
  9
$ACADVER
  1
AC1009
  9
$FILLMODE
 70
 0
  9
$SPLFRAME
 70
 1
  9
$EXTMIN
 10
0
 20
0
 30
0.0
  9
$EXTMAX
 10
1058.33
 20
1058.33
 30
0.0
  0
ENDSEC
  0
SECTION
  2
TABLES
  0
TABLE
  2
LAYER
 70
1
  0
LAYER
  2
0
 70
     0
 62
     7
  6
CONTINUOUS
  0
ENDTAB
  0
ENDSEC
  0
SECTION
  2
ENTITIES
  0
LINE
  8
0
 62
     0
 10
14.2875
 20
0
 30
0.0
 11
4.7625
 21
0
 31
0.0
  0
LINE
  8
0
 62
     0
 10
4.7625
 20
0
 30
0.0
 11
3.80615
 21
0.0978408
 31
0.0
  0
LINE
  8
0
 62
     0
 10
3.80615
 20
0.0978408
 30
0.0
 11
2.91317
 21
0.376206
 31
0.0
  0
LINE
  8
0
 62
     0
 10
2.91317
 20
0.376206
 30
0.0
 11
2.10426
 21
0.815799
 31
0.0
  0
LINE
  8
0
 62
     0
 10
2.10426
 20
0.815799
 30
0.0
 11
1.39871
 21
1.39871
 31
0.0
  0
LINE
  8
0
 62
     0
 10
1.39871
 20
1.39871
 30
0.0
 11
0.815799
 21
2.10426
 31
0.0
  0
LINE
  8
0
 62
     0
 10
0.815799
 20
2.10426
 30
0.0
 11
0.376206
 21
2.91317
 31
0.0
  0
LINE
  8
0
 62
     0
 10
0.376206
 20
2.91317
 30
0.0
 11
0.0978408
 21
3.80615
 31
0.0
  0
LINE
  8
0
 62
     0
 10
0.0978408
 20
3.80615
 30
0.0
 11
0
 21
4.7625
 31
0.0
  0
LINE
  8
0
 62
     0
 10
0
 20
4.7625
 30
0.0
 11
0
 21
14.2875
 31
0.0
  0
LINE
  8
0
 62
     0
 10
0
 20
14.2875
 30
0.0
 11
0.0978408
 21
15.2438
 31
0.0
  0
LINE
  8
0
 62
     0
 10
0.0978408
 20
15.2438
 30
0.0
 11
0.376206
 21
16.1368
 31
0.0
  0
LINE
  8
0
 62
     0
 10
0.376206
 20
16.1368
 30
0.0
 11
0.815799
 21
16.9458
 31
0.0
  0
LINE
  8
0
 62
     0
 10
0.815799
 20
16.9458
 30
0.0
 11
1.39871
 21
17.6513
 31
0.0
  0
LINE
  8
0
 62
     0
 10
1.39871
 20
17.6513
 30
0.0
 11
2.10426
 21
18.2342
 31
0.0
  0
LINE
  8
0
 62
     0
 10
2.10426
 20
18.2342
 30
0.0
 11
2.91317
 21
18.6738
 31
0.0
  0
LINE
  8
0
 62
     0
 10
2.91317
 20
18.6738
 30
0.0
 11
3.80615
 21
18.9522
 31
0.0
  0
LINE
  8
0
 62
     0
 10
3.80615
 20
18.9522
 30
0.0
 11
4.7625
 21
19.05
 31
0.0
  0
LINE
  8
0
 62
     0
 10
4.7625
 20
19.05
 30
0.0
 11
14.2875
 21
19.05
 31
0.0
  0
LINE
  8
0
 62
     0
 10
14.2875
 20
19.05
 30
0.0
 11
15.2438
 21
18.9522
 31
0.0
  0
LINE
  8
0
 62
     0
 10
15.2438
 20
18.9522
 30
0.0
 11
16.1368
 21
18.6738
 31
0.0
  0
LINE
  8
0
 62
     0
 10
16.1368
 20
18.6738
 30
0.0
 11
16.9458
 21
18.2342
 31
0.0
  0
LINE
  8
0
 62
     0
 10
16.9458
 20
18.2342
 30
0.0
 11
17.6513
 21
17.6513
 31
0.0
  0
LINE
  8
0
 62
     0
 10
17.6513
 20
17.6513
 30
0.0
 11
18.2342
 21
16.9458
 31
0.0
  0
LINE
  8
0
 62
     0
 10
18.2342
 20
16.9458
 30
0.0
 11
18.6738
 21
16.1368
 31
0.0
  0
LINE
  8
0
 62
     0
 10
18.6738
 20
16.1368
 30
0.0
 11
18.9522
 21
15.2438
 31
0.0
  0
LINE
  8
0
 62
     0
 10
18.9522
 20
15.2438
 30
0.0
 11
19.05
 21
14.2875
 31
0.0
  0
LINE
  8
0
 62
     0
 10
19.05
 20
14.2875
 30
0.0
 11
19.05
 21
4.7625
 31
0.0
  0
LINE
  8
0
 62
     0
 10
19.05
 20
4.7625
 30
0.0
 11
18.9522
 21
3.80615
 31
0.0
  0
LINE
  8
0
 62
     0
 10
18.9522
 20
3.80615
 30
0.0
 11
18.6738
 21
2.91317
 31
0.0
  0
LINE
  8
0
 62
     0
 10
18.6738
 20
2.91317
 30
0.0
 11
18.2342
 21
2.10426
 31
0.0
  0
LINE
  8
0
 62
     0
 10
18.2342
 20
2.10426
 30
0.0
 11
17.6513
 21
1.39871
 31
0.0
  0
LINE
  8
0
 62
     0
 10
17.6513
 20
1.39871
 30
0.0
 11
16.9458
 21
0.815799
 31
0.0
  0
LINE
  8
0
 62
     0
 10
16.9458
 20
0.815799
 30
0.0
 11
16.1368
 21
0.376206
 31
0.0
  0
LINE
  8
0
 62
     0
 10
16.1368
 20
0.376206
 30
0.0
 11
15.2438
 21
0.0978408
 31
0.0
  0
LINE
  8
0
 62
     0
 10
15.2438
 20
0.0978408
 30
0.0
 11
14.2875
 21
0
 31
0.0
  0
ENDSEC
  0
EOF
