<?xml version="1.0" encoding="utf-8" ?>
<svg baseProfile="tiny" height="72.0" version="1.2" width="72.0" xmlns="http://www.w3.org/2000/svg" xmlns:ev="http://www.w3.org/2001/xml-events" xmlns:inkscape="http://www.inkscape.org/namespaces/inkscape" xmlns:xlink="http://www.w3.org/1999/xlink">
  <defs/>
  <g fill="none" id="layer1" inkscape:groupmode="layer" inkscape:label="1" stroke="black" style="display:inline">
    <path d="M54.0,72.0 L18.0,72.0 L14.384179687500023,71.63261718749999 L11.010937500000011,70.57968749999998 L7.9541015625,68.9150390625 L5.287499999999966,66.71249999999998 L3.084960937499943,64.04589843749994 L1.4203124999998522,60.98906249999993 L0.36738281249984084,57.61582031249992 L0.0,54.0 L0.0,18.0 L0.36738281250001137,14.384179687500023 L1.4203125000000227,11.010937500000011 L3.0849609375,7.9541015625 L5.287500000000023,5.287500000000023 L7.954101562500057,3.0849609375 L11.010937500000068,1.4203125000000227 L14.38417968750008,0.36738281250001137 L18.0,0.0 L54.0,0.0 L57.61582031249998,0.36738281250001137 L60.98906249999999,1.4203125000000227 L64.0458984375,3.0849609375 L66.71250000000003,5.287500000000023 L68.91503906250006,7.954101562500057 L70.57968750000015,11.010937500000068 L71.63261718750016,14.38417968750008 L72.0,18.0 L72.0,54.0 L71.63261718749999,57.61582031249998 L70.57968749999998,60.98906249999999 L68.9150390625,64.0458984375 L66.71249999999998,66.71249999999998 L64.04589843749994,68.9150390625 L60.98906249999993,70.57968749999998 L57.61582031249992,71.63261718749999 L54.0,72.0"/>
  </g>
</svg>
