<?xml version="1.0" encoding="utf-8" ?>
<svg baseProfile="tiny" height="499.5837" version="1.2" width="499.5837" xmlns="http://www.w3.org/2000/svg" xmlns:ev="http://www.w3.org/2001/xml-events" xmlns:inkscape="http://www.inkscape.org/namespaces/inkscape" xmlns:xlink="http://www.w3.org/1999/xlink">
  <defs/>
  <g fill="none" id="layer1" inkscape:groupmode="layer" inkscape:label="1" stroke="black" style="display:inline">
    <path d="M0.0,249.7918401332223 L0.6984686474987143,268.4588077235031 L2.789968469992857,287.0213820589945 L6.26280295208403,305.3757536943334 L11.097550594635948,323.4192775381109 L17.267173527675823,341.0510468858605 L24.737168717130942,358.17245773128025 L33.46576091979051,374.6877601998335 L43.40413630741182,390.50459402088813 L54.49671545344796,405.5345050438135 L66.681464155747,419.6934399094721 L79.8902403569727,432.90221611069785 L94.04917522263099,445.0869648129966 L109.07908624555665,456.179543959033 L124.89592006661127,466.1179193466543 L141.41122253516448,474.84651154931385 L158.53263338058412,482.3165067387689 L176.16440272833364,488.48612967180884 L194.20792657211132,493.3208773143606 L212.56229820745023,496.79371179645193 L231.1248725429415,498.88521161894596 L249.7918401332223,499.58368026644473 L268.4588077235031,498.88521161894596 L287.0213820589945,496.79371179645193 L305.3757536943333,493.3208773143606 L323.4192775381109,488.48612967180884 L341.0510468858606,482.3165067387689 L358.17245773128025,474.84651154931385 L374.6877601998335,466.11791934665416 L390.50459402088813,456.179543959033 L405.5345050438136,445.0869648129966 L419.6934399094721,432.90221611069785 L432.90221611069785,419.6934399094721 L445.0869648129966,405.5345050438136 L456.179543959033,390.50459402088813 L466.1179193466543,374.6877601998335 L474.84651154931385,358.17245773128025 L482.3165067387689,341.0510468858606 L488.48612967180884,323.4192775381109 L493.3208773143606,305.3757536943334 L496.79371179645193,287.0213820589945 L498.88521161894596,268.4588077235031 L499.58368026644473,249.7918401332223 L498.88521161894596,231.1248725429415 L496.79371179645193,212.56229820745023 L493.3208773143606,194.20792657211132 L488.48612967180884,176.16440272833364 L482.3165067387689,158.53263338058412 L474.84651154931385,141.41122253516448 L466.1179193466543,124.89592006661115 L456.179543959033,109.0790862455566 L445.0869648129968,94.0491752226311 L432.90221611069785,79.8902403569727 L419.6934399094721,66.681464155747 L405.5345050438136,54.49671545344802 L390.50459402088813,43.40413630741182 L374.6877601998335,33.46576091979057 L358.17245773128013,24.737168717130942 L341.0510468858606,17.267173527675936 L323.4192775381109,11.097550594635948 L305.3757536943334,6.26280295208403 L287.0213820589945,2.789968469992857 L268.4588077235031,0.6984686474987143 L249.7918401332223,0.0 L231.1248725429415,0.6984686474987143 L212.56229820745023,2.789968469992857 L194.20792657211138,6.26280295208403 L176.16440272833364,11.097550594635948 L158.53263338058412,17.267173527675936 L141.41122253516448,24.737168717130942 L124.89592006661127,33.46576091979051 L109.07908624555665,43.404136307411704 L94.04917522263099,54.49671545344813 L79.8902403569727,66.681464155747 L66.681464155747,79.8902403569727 L54.49671545344802,94.0491752226311 L43.40413630741182,109.0790862455566 L33.46576091979051,124.89592006661115 L24.737168717130942,141.41122253516448 L17.267173527675936,158.53263338058406 L11.097550594635948,176.16440272833376 L6.26280295208403,194.20792657211132 L2.789968469992857,212.5622982074501 L0.6984686474987143,231.1248725429415 L0.0,249.7918401332223"/>
  </g>
</svg>
