solid OpenSCAD_Model
  facet normal 0.977147 0.212567 0
    outer loop
      vertex 13.8575 1.99241 10
      vertex 13.4329 3.94425 0
      vertex 13.4329 3.94425 10
    endloop
  endfacet
  facet normal 0.977147 0.212567 0
    outer loop
      vertex 13.4329 3.94425 0
      vertex 13.8575 1.99241 10
      vertex 13.8575 1.99241 0
    endloop
  endfacet
  facet normal 0.997452 0.0713392 0
    outer loop
      vertex 14 0 10
      vertex 13.8575 1.99241 0
      vertex 13.8575 1.99241 10
    endloop
  endfacet
  facet normal 0.997452 0.0713392 0
    outer loop
      vertex 13.8575 1.99241 0
      vertex 14 0 10
      vertex 14 0 0
    endloop
  endfacet
  facet normal -0.349484 -0.936942 0
    outer loop
      vertex -5.81581 -12.7348 0
      vertex -3.94425 -13.4329 10
      vertex -5.81581 -12.7348 10
    endloop
  endfacet
  facet normal -0.349484 -0.936942 -0
    outer loop
      vertex -3.94425 -13.4329 10
      vertex -5.81581 -12.7348 0
      vertex -3.94425 -13.4329 0
    endloop
  endfacet
  facet normal 0.877679 -0.47925 0
    outer loop
      vertex 11.7775 -7.56897 10
      vertex 12.7348 -5.81581 0
      vertex 12.7348 -5.81581 10
    endloop
  endfacet
  facet normal 0.877679 -0.47925 0
    outer loop
      vertex 12.7348 -5.81581 0
      vertex 11.7775 -7.56897 10
      vertex 11.7775 -7.56897 0
    endloop
  endfacet
  facet normal 0.349484 0.936942 -0
    outer loop
      vertex 5.81581 12.7348 0
      vertex 3.94425 13.4329 10
      vertex 5.81581 12.7348 10
    endloop
  endfacet
  facet normal 0.349484 0.936942 0
    outer loop
      vertex 3.94425 13.4329 10
      vertex 5.81581 12.7348 0
      vertex 3.94425 13.4329 0
    endloop
  endfacet
  facet normal -0.47925 0.877679 0
    outer loop
      vertex -5.81581 12.7348 0
      vertex -7.56897 11.7775 10
      vertex -5.81581 12.7348 10
    endloop
  endfacet
  facet normal -0.47925 0.877679 0
    outer loop
      vertex -7.56897 11.7775 10
      vertex -5.81581 12.7348 0
      vertex -7.56897 11.7775 0
    endloop
  endfacet
  facet normal 0.349484 -0.936942 0
    outer loop
      vertex 3.94425 -13.4329 0
      vertex 5.81581 -12.7348 10
      vertex 3.94425 -13.4329 10
    endloop
  endfacet
  facet normal 0.349484 -0.936942 0
    outer loop
      vertex 5.81581 -12.7348 10
      vertex 3.94425 -13.4329 0
      vertex 5.81581 -12.7348 0
    endloop
  endfacet
  facet normal -0.212567 0.977147 0
    outer loop
      vertex -1.99241 13.8575 0
      vertex -3.94425 13.4329 10
      vertex -1.99241 13.8575 10
    endloop
  endfacet
  facet normal -0.212567 0.977147 0
    outer loop
      vertex -3.94425 13.4329 10
      vertex -1.99241 13.8575 0
      vertex -3.94425 13.4329 0
    endloop
  endfacet
  facet normal -0.0713392 -0.997452 0
    outer loop
      vertex -1.99241 -13.8575 0
      vertex 0 -14 10
      vertex -1.99241 -13.8575 10
    endloop
  endfacet
  facet normal -0.0713392 -0.997452 -0
    outer loop
      vertex 0 -14 10
      vertex -1.99241 -13.8575 0
      vertex 0 -14 0
    endloop
  endfacet
  facet normal 0.212567 -0.977147 0
    outer loop
      vertex 1.99241 -13.8575 0
      vertex 3.94425 -13.4329 10
      vertex 1.99241 -13.8575 10
    endloop
  endfacet
  facet normal 0.212567 -0.977147 0
    outer loop
      vertex 3.94425 -13.4329 10
      vertex 1.99241 -13.8575 0
      vertex 3.94425 -13.4329 0
    endloop
  endfacet
  facet normal -0.212567 -0.977147 0
    outer loop
      vertex -3.94425 -13.4329 0
      vertex -1.99241 -13.8575 10
      vertex -3.94425 -13.4329 10
    endloop
  endfacet
  facet normal -0.212567 -0.977147 -0
    outer loop
      vertex -1.99241 -13.8575 10
      vertex -3.94425 -13.4329 0
      vertex -1.99241 -13.8575 0
    endloop
  endfacet
  facet normal 0.997452 -0.0713392 0
    outer loop
      vertex 13.8575 -1.99241 10
      vertex 14 0 0
      vertex 14 0 10
    endloop
  endfacet
  facet normal 0.997452 -0.0713392 0
    outer loop
      vertex 14 0 0
      vertex 13.8575 -1.99241 10
      vertex 13.8575 -1.99241 0
    endloop
  endfacet
  facet normal -0.977147 -0.212567 0
    outer loop
      vertex -13.4329 -3.94425 0
      vertex -13.8575 -1.99241 10
      vertex -13.8575 -1.99241 0
    endloop
  endfacet
  facet normal -0.977147 -0.212567 0
    outer loop
      vertex -13.8575 -1.99241 10
      vertex -13.4329 -3.94425 0
      vertex -13.4329 -3.94425 10
    endloop
  endfacet
  facet normal 0.0713392 0.997452 -0
    outer loop
      vertex 1.99241 13.8575 0
      vertex 0 14 10
      vertex 1.99241 13.8575 10
    endloop
  endfacet
  facet normal 0.0713392 0.997452 0
    outer loop
      vertex 0 14 10
      vertex 1.99241 13.8575 0
      vertex 0 14 0
    endloop
  endfacet
  facet normal -0.707107 0.707107 0
    outer loop
      vertex -10.5805 9.16805 0
      vertex -9.16805 10.5805 10
      vertex -9.16805 10.5805 0
    endloop
  endfacet
  facet normal -0.707107 0.707107 0
    outer loop
      vertex -9.16805 10.5805 10
      vertex -10.5805 9.16805 0
      vertex -10.5805 9.16805 10
    endloop
  endfacet
  facet normal 0.936942 -0.349484 0
    outer loop
      vertex 12.7348 -5.81581 10
      vertex 13.4329 -3.94425 0
      vertex 13.4329 -3.94425 10
    endloop
  endfacet
  facet normal 0.936942 -0.349484 0
    outer loop
      vertex 13.4329 -3.94425 0
      vertex 12.7348 -5.81581 10
      vertex 12.7348 -5.81581 0
    endloop
  endfacet
  facet normal 0.212567 0.977147 -0
    outer loop
      vertex 3.94425 13.4329 0
      vertex 1.99241 13.8575 10
      vertex 3.94425 13.4329 10
    endloop
  endfacet
  facet normal 0.212567 0.977147 0
    outer loop
      vertex 1.99241 13.8575 10
      vertex 3.94425 13.4329 0
      vertex 1.99241 13.8575 0
    endloop
  endfacet
  facet normal -0.800555 -0.59926 0
    outer loop
      vertex -10.5805 -9.16805 0
      vertex -11.7775 -7.56897 10
      vertex -11.7775 -7.56897 0
    endloop
  endfacet
  facet normal -0.800555 -0.59926 0
    outer loop
      vertex -11.7775 -7.56897 10
      vertex -10.5805 -9.16805 0
      vertex -10.5805 -9.16805 10
    endloop
  endfacet
  facet normal -0.59926 0.800555 0
    outer loop
      vertex -7.56897 11.7775 0
      vertex -9.16805 10.5805 10
      vertex -7.56897 11.7775 10
    endloop
  endfacet
  facet normal -0.59926 0.800555 0
    outer loop
      vertex -9.16805 10.5805 10
      vertex -7.56897 11.7775 0
      vertex -9.16805 10.5805 0
    endloop
  endfacet
  facet normal -0.707107 -0.707107 0
    outer loop
      vertex -9.16805 -10.5805 0
      vertex -10.5805 -9.16805 10
      vertex -10.5805 -9.16805 0
    endloop
  endfacet
  facet normal -0.707107 -0.707107 0
    outer loop
      vertex -10.5805 -9.16805 10
      vertex -9.16805 -10.5805 0
      vertex -9.16805 -10.5805 10
    endloop
  endfacet
  facet normal 0.800555 -0.59926 0
    outer loop
      vertex 10.5805 -9.16805 10
      vertex 11.7775 -7.56897 0
      vertex 11.7775 -7.56897 10
    endloop
  endfacet
  facet normal 0.800555 -0.59926 0
    outer loop
      vertex 11.7775 -7.56897 0
      vertex 10.5805 -9.16805 10
      vertex 10.5805 -9.16805 0
    endloop
  endfacet
  facet normal 0.800555 0.59926 0
    outer loop
      vertex 11.7775 7.56897 10
      vertex 10.5805 9.16805 0
      vertex 10.5805 9.16805 10
    endloop
  endfacet
  facet normal 0.800555 0.59926 0
    outer loop
      vertex 10.5805 9.16805 0
      vertex 11.7775 7.56897 10
      vertex 11.7775 7.56897 0
    endloop
  endfacet
  facet normal -0.800555 0.59926 0
    outer loop
      vertex -11.7775 7.56897 0
      vertex -10.5805 9.16805 10
      vertex -10.5805 9.16805 0
    endloop
  endfacet
  facet normal -0.800555 0.59926 0
    outer loop
      vertex -10.5805 9.16805 10
      vertex -11.7775 7.56897 0
      vertex -11.7775 7.56897 10
    endloop
  endfacet
  facet normal 0.936942 0.349484 0
    outer loop
      vertex 13.4329 3.94425 10
      vertex 12.7348 5.81581 0
      vertex 12.7348 5.81581 10
    endloop
  endfacet
  facet normal 0.936942 0.349484 0
    outer loop
      vertex 12.7348 5.81581 0
      vertex 13.4329 3.94425 10
      vertex 13.4329 3.94425 0
    endloop
  endfacet
  facet normal 0.707107 0.707107 0
    outer loop
      vertex 10.5805 9.16805 10
      vertex 9.16805 10.5805 0
      vertex 9.16805 10.5805 10
    endloop
  endfacet
  facet normal 0.707107 0.707107 0
    outer loop
      vertex 9.16805 10.5805 0
      vertex 10.5805 9.16805 10
      vertex 10.5805 9.16805 0
    endloop
  endfacet
  facet normal 0.59926 0.800555 -0
    outer loop
      vertex 9.16805 10.5805 0
      vertex 7.56897 11.7775 10
      vertex 9.16805 10.5805 10
    endloop
  endfacet
  facet normal 0.59926 0.800555 0
    outer loop
      vertex 7.56897 11.7775 10
      vertex 9.16805 10.5805 0
      vertex 7.56897 11.7775 0
    endloop
  endfacet
  facet normal 0.0713392 -0.997452 0
    outer loop
      vertex 0 -14 0
      vertex 1.99241 -13.8575 10
      vertex 0 -14 10
    endloop
  endfacet
  facet normal 0.0713392 -0.997452 0
    outer loop
      vertex 1.99241 -13.8575 10
      vertex 0 -14 0
      vertex 1.99241 -13.8575 0
    endloop
  endfacet
  facet normal -0.936942 0.349484 0
    outer loop
      vertex -13.4329 3.94425 0
      vertex -12.7348 5.81581 10
      vertex -12.7348 5.81581 0
    endloop
  endfacet
  facet normal -0.936942 0.349484 0
    outer loop
      vertex -12.7348 5.81581 10
      vertex -13.4329 3.94425 0
      vertex -13.4329 3.94425 10
    endloop
  endfacet
  facet normal 0.47925 -0.877679 0
    outer loop
      vertex 5.81581 -12.7348 0
      vertex 7.56897 -11.7775 10
      vertex 5.81581 -12.7348 10
    endloop
  endfacet
  facet normal 0.47925 -0.877679 0
    outer loop
      vertex 7.56897 -11.7775 10
      vertex 5.81581 -12.7348 0
      vertex 7.56897 -11.7775 0
    endloop
  endfacet
  facet normal -0.0713392 0.997452 0
    outer loop
      vertex 0 14 0
      vertex -1.99241 13.8575 10
      vertex 0 14 10
    endloop
  endfacet
  facet normal -0.0713392 0.997452 0
    outer loop
      vertex -1.99241 13.8575 10
      vertex 0 14 0
      vertex -1.99241 13.8575 0
    endloop
  endfacet
  facet normal 0.877679 0.47925 0
    outer loop
      vertex 12.7348 5.81581 10
      vertex 11.7775 7.56897 0
      vertex 11.7775 7.56897 10
    endloop
  endfacet
  facet normal 0.877679 0.47925 0
    outer loop
      vertex 11.7775 7.56897 0
      vertex 12.7348 5.81581 10
      vertex 12.7348 5.81581 0
    endloop
  endfacet
  facet normal -0.47925 -0.877679 0
    outer loop
      vertex -7.56897 -11.7775 0
      vertex -5.81581 -12.7348 10
      vertex -7.56897 -11.7775 10
    endloop
  endfacet
  facet normal -0.47925 -0.877679 -0
    outer loop
      vertex -5.81581 -12.7348 10
      vertex -7.56897 -11.7775 0
      vertex -5.81581 -12.7348 0
    endloop
  endfacet
  facet normal 0.707107 -0.707107 0
    outer loop
      vertex 9.16805 -10.5805 10
      vertex 10.5805 -9.16805 0
      vertex 10.5805 -9.16805 10
    endloop
  endfacet
  facet normal 0.707107 -0.707107 0
    outer loop
      vertex 10.5805 -9.16805 0
      vertex 9.16805 -10.5805 10
      vertex 9.16805 -10.5805 0
    endloop
  endfacet
  facet normal -0.997452 0.0713392 0
    outer loop
      vertex -14 0 0
      vertex -13.8575 1.99241 10
      vertex -13.8575 1.99241 0
    endloop
  endfacet
  facet normal -0.997452 0.0713392 0
    outer loop
      vertex -13.8575 1.99241 10
      vertex -14 0 0
      vertex -14 0 10
    endloop
  endfacet
  facet normal 0.977147 -0.212567 0
    outer loop
      vertex 13.4329 -3.94425 10
      vertex 13.8575 -1.99241 0
      vertex 13.8575 -1.99241 10
    endloop
  endfacet
  facet normal 0.977147 -0.212567 0
    outer loop
      vertex 13.8575 -1.99241 0
      vertex 13.4329 -3.94425 10
      vertex 13.4329 -3.94425 0
    endloop
  endfacet
  facet normal -0.997452 -0.0713392 0
    outer loop
      vertex -13.8575 -1.99241 0
      vertex -14 0 10
      vertex -14 0 0
    endloop
  endfacet
  facet normal -0.997452 -0.0713392 0
    outer loop
      vertex -14 0 10
      vertex -13.8575 -1.99241 0
      vertex -13.8575 -1.99241 10
    endloop
  endfacet
  facet normal -0.936942 -0.349484 0
    outer loop
      vertex -12.7348 -5.81581 0
      vertex -13.4329 -3.94425 10
      vertex -13.4329 -3.94425 0
    endloop
  endfacet
  facet normal -0.936942 -0.349484 0
    outer loop
      vertex -13.4329 -3.94425 10
      vertex -12.7348 -5.81581 0
      vertex -12.7348 -5.81581 10
    endloop
  endfacet
  facet normal 0.47925 0.877679 -0
    outer loop
      vertex 7.56897 11.7775 0
      vertex 5.81581 12.7348 10
      vertex 7.56897 11.7775 10
    endloop
  endfacet
  facet normal 0.47925 0.877679 0
    outer loop
      vertex 5.81581 12.7348 10
      vertex 7.56897 11.7775 0
      vertex 5.81581 12.7348 0
    endloop
  endfacet
  facet normal -0.349484 0.936942 0
    outer loop
      vertex -3.94425 13.4329 0
      vertex -5.81581 12.7348 10
      vertex -3.94425 13.4329 10
    endloop
  endfacet
  facet normal -0.349484 0.936942 0
    outer loop
      vertex -5.81581 12.7348 10
      vertex -3.94425 13.4329 0
      vertex -5.81581 12.7348 0
    endloop
  endfacet
  facet normal -0.977147 0.212567 0
    outer loop
      vertex -13.8575 1.99241 0
      vertex -13.4329 3.94425 10
      vertex -13.4329 3.94425 0
    endloop
  endfacet
  facet normal -0.977147 0.212567 0
    outer loop
      vertex -13.4329 3.94425 10
      vertex -13.8575 1.99241 0
      vertex -13.8575 1.99241 10
    endloop
  endfacet
  facet normal 0.59926 -0.800555 0
    outer loop
      vertex 7.56897 -11.7775 0
      vertex 9.16805 -10.5805 10
      vertex 7.56897 -11.7775 10
    endloop
  endfacet
  facet normal 0.59926 -0.800555 0
    outer loop
      vertex 9.16805 -10.5805 10
      vertex 7.56897 -11.7775 0
      vertex 9.16805 -10.5805 0
    endloop
  endfacet
  facet normal -0.877679 -0.47925 0
    outer loop
      vertex -11.7775 -7.56897 0
      vertex -12.7348 -5.81581 10
      vertex -12.7348 -5.81581 0
    endloop
  endfacet
  facet normal -0.877679 -0.47925 0
    outer loop
      vertex -12.7348 -5.81581 10
      vertex -11.7775 -7.56897 0
      vertex -11.7775 -7.56897 10
    endloop
  endfacet
  facet normal 0 0 -1
    outer loop
      vertex 11.8 0 0
      vertex 14 0 0
      vertex 13.8575 -1.99241 0
    endloop
  endfacet
  facet normal 0 0 -1
    outer loop
      vertex 11.6391 -1.94222 0
      vertex 13.8575 -1.99241 0
      vertex 13.4329 -3.94425 0
    endloop
  endfacet
  facet normal 0 0 -1
    outer loop
      vertex 14 0 0
      vertex 11.8 0 0
      vertex 13.8575 1.99241 0
    endloop
  endfacet
  facet normal 0 0 -1
    outer loop
      vertex 11.1606 -3.83145 0
      vertex 13.4329 -3.94425 0
      vertex 12.7348 -5.81581 0
    endloop
  endfacet
  facet normal 0 0 -1
    outer loop
      vertex 11.6391 1.94222 0
      vertex 13.8575 1.99241 0
      vertex 11.8 0 0
    endloop
  endfacet
  facet normal -0 0 -1
    outer loop
      vertex 13.8575 1.99241 0
      vertex 11.6391 1.94222 0
      vertex 13.4329 3.94425 0
    endloop
  endfacet
  facet normal 0 0 -1
    outer loop
      vertex 10.3778 -5.61618 0
      vertex 12.7348 -5.81581 0
      vertex 11.7775 -7.56897 0
    endloop
  endfacet
  facet normal 0 0 -1
    outer loop
      vertex 13.8575 -1.99241 0
      vertex 11.6391 -1.94222 0
      vertex 11.8 0 0
    endloop
  endfacet
  facet normal 0 0 -1
    outer loop
      vertex 13.4329 -3.94425 0
      vertex 11.1606 -3.83145 0
      vertex 11.6391 -1.94222 0
    endloop
  endfacet
  facet normal 0 0 -1
    outer loop
      vertex 9.31186 -7.24771 0
      vertex 11.7775 -7.56897 0
      vertex 10.5805 -9.16805 0
    endloop
  endfacet
  facet normal 0 0 -1
    outer loop
      vertex 12.7348 -5.81581 0
      vertex 10.3778 -5.61618 0
      vertex 11.1606 -3.83145 0
    endloop
  endfacet
  facet normal 0 0 -1
    outer loop
      vertex 11.7775 -7.56897 0
      vertex 9.31186 -7.24771 0
      vertex 10.3778 -5.61618 0
    endloop
  endfacet
  facet normal 0 0 -1
    outer loop
      vertex 7.99192 -8.68154 0
      vertex 10.5805 -9.16805 0
      vertex 9.16805 -10.5805 0
    endloop
  endfacet
  facet normal 0 0 -1
    outer loop
      vertex 10.5805 -9.16805 0
      vertex 7.99192 -8.68154 0
      vertex 9.31186 -7.24771 0
    endloop
  endfacet
  facet normal 0 0 -1
    outer loop
      vertex 6.45399 -9.87856 0
      vertex 9.16805 -10.5805 0
      vertex 7.56897 -11.7775 0
    endloop
  endfacet
  facet normal 0 0 -1
    outer loop
      vertex 9.16805 -10.5805 0
      vertex 6.45399 -9.87856 0
      vertex 7.99192 -8.68154 0
    endloop
  endfacet
  facet normal 0 0 -1
    outer loop
      vertex 5.81581 -12.7348 0
      vertex 6.45399 -9.87856 0
      vertex 7.56897 -11.7775 0
    endloop
  endfacet
  facet normal 0 0 -1
    outer loop
      vertex 5.81581 -12.7348 0
      vertex 4.74001 -10.8061 0
      vertex 6.45399 -9.87856 0
    endloop
  endfacet
  facet normal 0 0 -1
    outer loop
      vertex 3.94425 -13.4329 0
      vertex 4.74001 -10.8061 0
      vertex 5.81581 -12.7348 0
    endloop
  endfacet
  facet normal 0 0 -1
    outer loop
      vertex 3.94425 -13.4329 0
      vertex 2.89673 -11.4389 0
      vertex 4.74001 -10.8061 0
    endloop
  endfacet
  facet normal 0 0 -1
    outer loop
      vertex 1.99241 -13.8575 0
      vertex 2.89673 -11.4389 0
      vertex 3.94425 -13.4329 0
    endloop
  endfacet
  facet normal 0 0 -1
    outer loop
      vertex 1.99241 -13.8575 0
      vertex 0.974436 -11.7597 0
      vertex 2.89673 -11.4389 0
    endloop
  endfacet
  facet normal 0 0 -1
    outer loop
      vertex 0 -14 0
      vertex 0.974436 -11.7597 0
      vertex 1.99241 -13.8575 0
    endloop
  endfacet
  facet normal 0 0 -1
    outer loop
      vertex 0 -14 0
      vertex -0.974436 -11.7597 0
      vertex 0.974436 -11.7597 0
    endloop
  endfacet
  facet normal 0 0 -1
    outer loop
      vertex -1.99241 -13.8575 0
      vertex -0.974436 -11.7597 0
      vertex 0 -14 0
    endloop
  endfacet
  facet normal 0 0 -1
    outer loop
      vertex -1.99241 -13.8575 0
      vertex -2.89673 -11.4389 0
      vertex -0.974436 -11.7597 0
    endloop
  endfacet
  facet normal 0 0 -1
    outer loop
      vertex -3.94425 -13.4329 0
      vertex -2.89673 -11.4389 0
      vertex -1.99241 -13.8575 0
    endloop
  endfacet
  facet normal 0 0 -1
    outer loop
      vertex -3.94425 -13.4329 0
      vertex -4.74001 -10.8061 0
      vertex -2.89673 -11.4389 0
    endloop
  endfacet
  facet normal 0 0 -1
    outer loop
      vertex -5.81581 -12.7348 0
      vertex -4.74001 -10.8061 0
      vertex -3.94425 -13.4329 0
    endloop
  endfacet
  facet normal 0 0 -1
    outer loop
      vertex -5.81581 -12.7348 0
      vertex -6.45399 -9.87856 0
      vertex -4.74001 -10.8061 0
    endloop
  endfacet
  facet normal 0 0 -1
    outer loop
      vertex -7.56897 -11.7775 0
      vertex -6.45399 -9.87856 0
      vertex -5.81581 -12.7348 0
    endloop
  endfacet
  facet normal 0 0 -1
    outer loop
      vertex -9.16805 -10.5805 0
      vertex -6.45399 -9.87856 0
      vertex -7.56897 -11.7775 0
    endloop
  endfacet
  facet normal -0 0 -1
    outer loop
      vertex -6.45399 -9.87856 0
      vertex -9.16805 -10.5805 0
      vertex -7.99192 -8.68154 0
    endloop
  endfacet
  facet normal 0 0 -1
    outer loop
      vertex -10.5805 -9.16805 0
      vertex -7.99192 -8.68154 0
      vertex -9.16805 -10.5805 0
    endloop
  endfacet
  facet normal -0 0 -1
    outer loop
      vertex -7.99192 -8.68154 0
      vertex -10.5805 -9.16805 0
      vertex -9.31186 -7.24771 0
    endloop
  endfacet
  facet normal 0 0 -1
    outer loop
      vertex -11.7775 -7.56897 0
      vertex -9.31186 -7.24771 0
      vertex -10.5805 -9.16805 0
    endloop
  endfacet
  facet normal -0 0 -1
    outer loop
      vertex -9.31186 -7.24771 0
      vertex -11.7775 -7.56897 0
      vertex -10.3778 -5.61618 0
    endloop
  endfacet
  facet normal 0 0 -1
    outer loop
      vertex -12.7348 -5.81581 0
      vertex -10.3778 -5.61618 0
      vertex -11.7775 -7.56897 0
    endloop
  endfacet
  facet normal -0 0 -1
    outer loop
      vertex -10.3778 -5.61618 0
      vertex -12.7348 -5.81581 0
      vertex -11.1606 -3.83145 0
    endloop
  endfacet
  facet normal 0 0 -1
    outer loop
      vertex -13.4329 -3.94425 0
      vertex -11.1606 -3.83145 0
      vertex -12.7348 -5.81581 0
    endloop
  endfacet
  facet normal -0 0 -1
    outer loop
      vertex -11.1606 -3.83145 0
      vertex -13.4329 -3.94425 0
      vertex -11.6391 -1.94222 0
    endloop
  endfacet
  facet normal 0 0 -1
    outer loop
      vertex 11.1606 3.83145 0
      vertex 13.4329 3.94425 0
      vertex 11.6391 1.94222 0
    endloop
  endfacet
  facet normal -0 0 -1
    outer loop
      vertex 13.4329 3.94425 0
      vertex 11.1606 3.83145 0
      vertex 12.7348 5.81581 0
    endloop
  endfacet
  facet normal 0 0 -1
    outer loop
      vertex 10.3778 5.61618 0
      vertex 12.7348 5.81581 0
      vertex 11.1606 3.83145 0
    endloop
  endfacet
  facet normal -0 0 -1
    outer loop
      vertex 12.7348 5.81581 0
      vertex 10.3778 5.61618 0
      vertex 11.7775 7.56897 0
    endloop
  endfacet
  facet normal 0 0 -1
    outer loop
      vertex 9.31186 7.24771 0
      vertex 11.7775 7.56897 0
      vertex 10.3778 5.61618 0
    endloop
  endfacet
  facet normal -0 0 -1
    outer loop
      vertex 11.7775 7.56897 0
      vertex 9.31186 7.24771 0
      vertex 10.5805 9.16805 0
    endloop
  endfacet
  facet normal 0 0 -1
    outer loop
      vertex 7.99192 8.68154 0
      vertex 10.5805 9.16805 0
      vertex 9.31186 7.24771 0
    endloop
  endfacet
  facet normal -0 0 -1
    outer loop
      vertex 10.5805 9.16805 0
      vertex 7.99192 8.68154 0
      vertex 9.16805 10.5805 0
    endloop
  endfacet
  facet normal 0 0 -1
    outer loop
      vertex 6.45399 9.87856 0
      vertex 9.16805 10.5805 0
      vertex 7.99192 8.68154 0
    endloop
  endfacet
  facet normal -0 0 -1
    outer loop
      vertex 9.16805 10.5805 0
      vertex 6.45399 9.87856 0
      vertex 7.56897 11.7775 0
    endloop
  endfacet
  facet normal 0 0 -1
    outer loop
      vertex 6.45399 9.87856 0
      vertex 5.81581 12.7348 0
      vertex 7.56897 11.7775 0
    endloop
  endfacet
  facet normal 0 0 -1
    outer loop
      vertex 4.74001 10.8061 0
      vertex 5.81581 12.7348 0
      vertex 6.45399 9.87856 0
    endloop
  endfacet
  facet normal 0 0 -1
    outer loop
      vertex 4.74001 10.8061 0
      vertex 3.94425 13.4329 0
      vertex 5.81581 12.7348 0
    endloop
  endfacet
  facet normal 0 0 -1
    outer loop
      vertex 2.89673 11.4389 0
      vertex 3.94425 13.4329 0
      vertex 4.74001 10.8061 0
    endloop
  endfacet
  facet normal 0 0 -1
    outer loop
      vertex 2.89673 11.4389 0
      vertex 1.99241 13.8575 0
      vertex 3.94425 13.4329 0
    endloop
  endfacet
  facet normal 0 0 -1
    outer loop
      vertex 0.974436 11.7597 0
      vertex 1.99241 13.8575 0
      vertex 2.89673 11.4389 0
    endloop
  endfacet
  facet normal 0 0 -1
    outer loop
      vertex 0.974436 11.7597 0
      vertex 0 14 0
      vertex 1.99241 13.8575 0
    endloop
  endfacet
  facet normal 0 0 -1
    outer loop
      vertex -0.974436 11.7597 0
      vertex 0 14 0
      vertex 0.974436 11.7597 0
    endloop
  endfacet
  facet normal 0 0 -1
    outer loop
      vertex -0.974436 11.7597 0
      vertex -1.99241 13.8575 0
      vertex 0 14 0
    endloop
  endfacet
  facet normal 0 0 -1
    outer loop
      vertex -2.89673 11.4389 0
      vertex -1.99241 13.8575 0
      vertex -0.974436 11.7597 0
    endloop
  endfacet
  facet normal 0 0 -1
    outer loop
      vertex -2.89673 11.4389 0
      vertex -3.94425 13.4329 0
      vertex -1.99241 13.8575 0
    endloop
  endfacet
  facet normal 0 0 -1
    outer loop
      vertex -4.74001 10.8061 0
      vertex -3.94425 13.4329 0
      vertex -2.89673 11.4389 0
    endloop
  endfacet
  facet normal 0 0 -1
    outer loop
      vertex -4.74001 10.8061 0
      vertex -5.81581 12.7348 0
      vertex -3.94425 13.4329 0
    endloop
  endfacet
  facet normal 0 0 -1
    outer loop
      vertex -6.45399 9.87856 0
      vertex -5.81581 12.7348 0
      vertex -4.74001 10.8061 0
    endloop
  endfacet
  facet normal 0 0 -1
    outer loop
      vertex -6.45399 9.87856 0
      vertex -7.56897 11.7775 0
      vertex -5.81581 12.7348 0
    endloop
  endfacet
  facet normal 0 0 -1
    outer loop
      vertex -9.16805 10.5805 0
      vertex -6.45399 9.87856 0
      vertex -7.99192 8.68154 0
    endloop
  endfacet
  facet normal 0 0 -1
    outer loop
      vertex -6.45399 9.87856 0
      vertex -9.16805 10.5805 0
      vertex -7.56897 11.7775 0
    endloop
  endfacet
  facet normal 0 0 -1
    outer loop
      vertex -10.5805 9.16805 0
      vertex -7.99192 8.68154 0
      vertex -9.31186 7.24771 0
    endloop
  endfacet
  facet normal 0 0 -1
    outer loop
      vertex -11.7775 7.56897 0
      vertex -9.31186 7.24771 0
      vertex -10.3778 5.61618 0
    endloop
  endfacet
  facet normal 0 0 -1
    outer loop
      vertex -7.99192 8.68154 0
      vertex -10.5805 9.16805 0
      vertex -9.16805 10.5805 0
    endloop
  endfacet
  facet normal 0 0 -1
    outer loop
      vertex -12.7348 5.81581 0
      vertex -10.3778 5.61618 0
      vertex -11.1606 3.83145 0
    endloop
  endfacet
  facet normal 0 0 -1
    outer loop
      vertex -13.4329 3.94425 0
      vertex -11.1606 3.83145 0
      vertex -11.6391 1.94222 0
    endloop
  endfacet
  facet normal 0 0 -1
    outer loop
      vertex -9.31186 7.24771 0
      vertex -11.7775 7.56897 0
      vertex -10.5805 9.16805 0
    endloop
  endfacet
  facet normal 0 0 -1
    outer loop
      vertex -13.8575 1.99241 0
      vertex -11.6391 1.94222 0
      vertex -11.8 0 0
    endloop
  endfacet
  facet normal 0 0 -1
    outer loop
      vertex -13.8575 -1.99241 0
      vertex -11.6391 -1.94222 0
      vertex -13.4329 -3.94425 0
    endloop
  endfacet
  facet normal 0 0 -1
    outer loop
      vertex -10.3778 5.61618 0
      vertex -12.7348 5.81581 0
      vertex -11.7775 7.56897 0
    endloop
  endfacet
  facet normal -0 0 -1
    outer loop
      vertex -11.6391 -1.94222 0
      vertex -13.8575 -1.99241 0
      vertex -11.8 0 0
    endloop
  endfacet
  facet normal 0 0 -1
    outer loop
      vertex -11.1606 3.83145 0
      vertex -13.4329 3.94425 0
      vertex -12.7348 5.81581 0
    endloop
  endfacet
  facet normal 0 0 -1
    outer loop
      vertex -14 0 0
      vertex -11.8 0 0
      vertex -13.8575 -1.99241 0
    endloop
  endfacet
  facet normal 0 0 -1
    outer loop
      vertex -11.6391 1.94222 0
      vertex -13.8575 1.99241 0
      vertex -13.4329 3.94425 0
    endloop
  endfacet
  facet normal 0 0 -1
    outer loop
      vertex -11.8 0 0
      vertex -14 0 0
      vertex -13.8575 1.99241 0
    endloop
  endfacet
  facet normal -0.877679 0.47925 0
    outer loop
      vertex -12.7348 5.81581 0
      vertex -11.7775 7.56897 10
      vertex -11.7775 7.56897 0
    endloop
  endfacet
  facet normal -0.877679 0.47925 0
    outer loop
      vertex -11.7775 7.56897 10
      vertex -12.7348 5.81581 0
      vertex -12.7348 5.81581 10
    endloop
  endfacet
  facet normal 0 0 1
    outer loop
      vertex 11.8 0 10
      vertex 14 0 10
      vertex 13.8575 1.99241 10
    endloop
  endfacet
  facet normal 0 0 1
    outer loop
      vertex 11.6391 1.94222 10
      vertex 13.8575 1.99241 10
      vertex 13.4329 3.94425 10
    endloop
  endfacet
  facet normal 0 0 1
    outer loop
      vertex 14 0 10
      vertex 11.8 0 10
      vertex 13.8575 -1.99241 10
    endloop
  endfacet
  facet normal 0 0 1
    outer loop
      vertex 11.1606 3.83145 10
      vertex 13.4329 3.94425 10
      vertex 12.7348 5.81581 10
    endloop
  endfacet
  facet normal -0 0 1
    outer loop
      vertex 11.6391 -1.94222 10
      vertex 13.8575 -1.99241 10
      vertex 11.8 0 10
    endloop
  endfacet
  facet normal 0 0 1
    outer loop
      vertex 13.8575 -1.99241 10
      vertex 11.6391 -1.94222 10
      vertex 13.4329 -3.94425 10
    endloop
  endfacet
  facet normal 0 0 1
    outer loop
      vertex 10.3778 5.61618 10
      vertex 12.7348 5.81581 10
      vertex 11.7775 7.56897 10
    endloop
  endfacet
  facet normal 0 0 1
    outer loop
      vertex 13.8575 1.99241 10
      vertex 11.6391 1.94222 10
      vertex 11.8 0 10
    endloop
  endfacet
  facet normal 0 0 1
    outer loop
      vertex 13.4329 3.94425 10
      vertex 11.1606 3.83145 10
      vertex 11.6391 1.94222 10
    endloop
  endfacet
  facet normal 0 0 1
    outer loop
      vertex 9.31186 7.24771 10
      vertex 11.7775 7.56897 10
      vertex 10.5805 9.16805 10
    endloop
  endfacet
  facet normal 0 0 1
    outer loop
      vertex 12.7348 5.81581 10
      vertex 10.3778 5.61618 10
      vertex 11.1606 3.83145 10
    endloop
  endfacet
  facet normal 0 0 1
    outer loop
      vertex 11.7775 7.56897 10
      vertex 9.31186 7.24771 10
      vertex 10.3778 5.61618 10
    endloop
  endfacet
  facet normal 0 0 1
    outer loop
      vertex 7.99192 8.68154 10
      vertex 10.5805 9.16805 10
      vertex 9.16805 10.5805 10
    endloop
  endfacet
  facet normal 0 0 1
    outer loop
      vertex 10.5805 9.16805 10
      vertex 7.99192 8.68154 10
      vertex 9.31186 7.24771 10
    endloop
  endfacet
  facet normal 0 0 1
    outer loop
      vertex 6.45399 9.87856 10
      vertex 9.16805 10.5805 10
      vertex 7.56897 11.7775 10
    endloop
  endfacet
  facet normal 0 0 1
    outer loop
      vertex 9.16805 10.5805 10
      vertex 6.45399 9.87856 10
      vertex 7.99192 8.68154 10
    endloop
  endfacet
  facet normal 0 0 1
    outer loop
      vertex 5.81581 12.7348 10
      vertex 6.45399 9.87856 10
      vertex 7.56897 11.7775 10
    endloop
  endfacet
  facet normal 0 0 1
    outer loop
      vertex 5.81581 12.7348 10
      vertex 4.74001 10.8061 10
      vertex 6.45399 9.87856 10
    endloop
  endfacet
  facet normal 0 0 1
    outer loop
      vertex 3.94425 13.4329 10
      vertex 4.74001 10.8061 10
      vertex 5.81581 12.7348 10
    endloop
  endfacet
  facet normal 0 0 1
    outer loop
      vertex 3.94425 13.4329 10
      vertex 2.89673 11.4389 10
      vertex 4.74001 10.8061 10
    endloop
  endfacet
  facet normal 0 0 1
    outer loop
      vertex 1.99241 13.8575 10
      vertex 2.89673 11.4389 10
      vertex 3.94425 13.4329 10
    endloop
  endfacet
  facet normal 0 0 1
    outer loop
      vertex 1.99241 13.8575 10
      vertex 0.974436 11.7597 10
      vertex 2.89673 11.4389 10
    endloop
  endfacet
  facet normal 0 0 1
    outer loop
      vertex 0 14 10
      vertex 0.974436 11.7597 10
      vertex 1.99241 13.8575 10
    endloop
  endfacet
  facet normal 0 0 1
    outer loop
      vertex 0 14 10
      vertex -0.974436 11.7597 10
      vertex 0.974436 11.7597 10
    endloop
  endfacet
  facet normal -0 0 1
    outer loop
      vertex -1.99241 13.8575 10
      vertex -0.974436 11.7597 10
      vertex 0 14 10
    endloop
  endfacet
  facet normal 0 0 1
    outer loop
      vertex -1.99241 13.8575 10
      vertex -2.89673 11.4389 10
      vertex -0.974436 11.7597 10
    endloop
  endfacet
  facet normal -0 0 1
    outer loop
      vertex -3.94425 13.4329 10
      vertex -2.89673 11.4389 10
      vertex -1.99241 13.8575 10
    endloop
  endfacet
  facet normal 0 0 1
    outer loop
      vertex -3.94425 13.4329 10
      vertex -4.74001 10.8061 10
      vertex -2.89673 11.4389 10
    endloop
  endfacet
  facet normal -0 0 1
    outer loop
      vertex -5.81581 12.7348 10
      vertex -4.74001 10.8061 10
      vertex -3.94425 13.4329 10
    endloop
  endfacet
  facet normal 0 0 1
    outer loop
      vertex -5.81581 12.7348 10
      vertex -6.45399 9.87856 10
      vertex -4.74001 10.8061 10
    endloop
  endfacet
  facet normal -0 0 1
    outer loop
      vertex -7.56897 11.7775 10
      vertex -6.45399 9.87856 10
      vertex -5.81581 12.7348 10
    endloop
  endfacet
  facet normal -0 0 1
    outer loop
      vertex -9.16805 10.5805 10
      vertex -6.45399 9.87856 10
      vertex -7.56897 11.7775 10
    endloop
  endfacet
  facet normal 0 0 1
    outer loop
      vertex -6.45399 9.87856 10
      vertex -9.16805 10.5805 10
      vertex -7.99192 8.68154 10
    endloop
  endfacet
  facet normal -0 0 1
    outer loop
      vertex -10.5805 9.16805 10
      vertex -7.99192 8.68154 10
      vertex -9.16805 10.5805 10
    endloop
  endfacet
  facet normal 0 0 1
    outer loop
      vertex -7.99192 8.68154 10
      vertex -10.5805 9.16805 10
      vertex -9.31186 7.24771 10
    endloop
  endfacet
  facet normal -0 0 1
    outer loop
      vertex -11.7775 7.56897 10
      vertex -9.31186 7.24771 10
      vertex -10.5805 9.16805 10
    endloop
  endfacet
  facet normal 0 0 1
    outer loop
      vertex -9.31186 7.24771 10
      vertex -11.7775 7.56897 10
      vertex -10.3778 5.61618 10
    endloop
  endfacet
  facet normal -0 0 1
    outer loop
      vertex -12.7348 5.81581 10
      vertex -10.3778 5.61618 10
      vertex -11.7775 7.56897 10
    endloop
  endfacet
  facet normal 0 0 1
    outer loop
      vertex -10.3778 5.61618 10
      vertex -12.7348 5.81581 10
      vertex -11.1606 3.83145 10
    endloop
  endfacet
  facet normal -0 0 1
    outer loop
      vertex -13.4329 3.94425 10
      vertex -11.1606 3.83145 10
      vertex -12.7348 5.81581 10
    endloop
  endfacet
  facet normal 0 0 1
    outer loop
      vertex -11.1606 3.83145 10
      vertex -13.4329 3.94425 10
      vertex -11.6391 1.94222 10
    endloop
  endfacet
  facet normal -0 0 1
    outer loop
      vertex 11.1606 -3.83145 10
      vertex 13.4329 -3.94425 10
      vertex 11.6391 -1.94222 10
    endloop
  endfacet
  facet normal 0 0 1
    outer loop
      vertex 13.4329 -3.94425 10
      vertex 11.1606 -3.83145 10
      vertex 12.7348 -5.81581 10
    endloop
  endfacet
  facet normal -0 0 1
    outer loop
      vertex 10.3778 -5.61618 10
      vertex 12.7348 -5.81581 10
      vertex 11.1606 -3.83145 10
    endloop
  endfacet
  facet normal 0 0 1
    outer loop
      vertex 12.7348 -5.81581 10
      vertex 10.3778 -5.61618 10
      vertex 11.7775 -7.56897 10
    endloop
  endfacet
  facet normal -0 0 1
    outer loop
      vertex 9.31186 -7.24771 10
      vertex 11.7775 -7.56897 10
      vertex 10.3778 -5.61618 10
    endloop
  endfacet
  facet normal 0 0 1
    outer loop
      vertex 11.7775 -7.56897 10
      vertex 9.31186 -7.24771 10
      vertex 10.5805 -9.16805 10
    endloop
  endfacet
  facet normal -0 0 1
    outer loop
      vertex 7.99192 -8.68154 10
      vertex 10.5805 -9.16805 10
      vertex 9.31186 -7.24771 10
    endloop
  endfacet
  facet normal 0 0 1
    outer loop
      vertex 10.5805 -9.16805 10
      vertex 7.99192 -8.68154 10
      vertex 9.16805 -10.5805 10
    endloop
  endfacet
  facet normal -0 0 1
    outer loop
      vertex 6.45399 -9.87856 10
      vertex 9.16805 -10.5805 10
      vertex 7.99192 -8.68154 10
    endloop
  endfacet
  facet normal 0 0 1
    outer loop
      vertex 9.16805 -10.5805 10
      vertex 6.45399 -9.87856 10
      vertex 7.56897 -11.7775 10
    endloop
  endfacet
  facet normal 0 0 1
    outer loop
      vertex 6.45399 -9.87856 10
      vertex 5.81581 -12.7348 10
      vertex 7.56897 -11.7775 10
    endloop
  endfacet
  facet normal -0 0 1
    outer loop
      vertex 4.74001 -10.8061 10
      vertex 5.81581 -12.7348 10
      vertex 6.45399 -9.87856 10
    endloop
  endfacet
  facet normal 0 0 1
    outer loop
      vertex 4.74001 -10.8061 10
      vertex 3.94425 -13.4329 10
      vertex 5.81581 -12.7348 10
    endloop
  endfacet
  facet normal -0 0 1
    outer loop
      vertex 2.89673 -11.4389 10
      vertex 3.94425 -13.4329 10
      vertex 4.74001 -10.8061 10
    endloop
  endfacet
  facet normal 0 0 1
    outer loop
      vertex 2.89673 -11.4389 10
      vertex 1.99241 -13.8575 10
      vertex 3.94425 -13.4329 10
    endloop
  endfacet
  facet normal -0 0 1
    outer loop
      vertex 0.974436 -11.7597 10
      vertex 1.99241 -13.8575 10
      vertex 2.89673 -11.4389 10
    endloop
  endfacet
  facet normal 0 0 1
    outer loop
      vertex 0.974436 -11.7597 10
      vertex 0 -14 10
      vertex 1.99241 -13.8575 10
    endloop
  endfacet
  facet normal -0 0 1
    outer loop
      vertex -0.974436 -11.7597 10
      vertex 0 -14 10
      vertex 0.974436 -11.7597 10
    endloop
  endfacet
  facet normal 0 0 1
    outer loop
      vertex -0.974436 -11.7597 10
      vertex -1.99241 -13.8575 10
      vertex 0 -14 10
    endloop
  endfacet
  facet normal 0 0 1
    outer loop
      vertex -2.89673 -11.4389 10
      vertex -1.99241 -13.8575 10
      vertex -0.974436 -11.7597 10
    endloop
  endfacet
  facet normal 0 0 1
    outer loop
      vertex -2.89673 -11.4389 10
      vertex -3.94425 -13.4329 10
      vertex -1.99241 -13.8575 10
    endloop
  endfacet
  facet normal 0 0 1
    outer loop
      vertex -4.74001 -10.8061 10
      vertex -3.94425 -13.4329 10
      vertex -2.89673 -11.4389 10
    endloop
  endfacet
  facet normal 0 0 1
    outer loop
      vertex -4.74001 -10.8061 10
      vertex -5.81581 -12.7348 10
      vertex -3.94425 -13.4329 10
    endloop
  endfacet
  facet normal 0 0 1
    outer loop
      vertex -6.45399 -9.87856 10
      vertex -5.81581 -12.7348 10
      vertex -4.74001 -10.8061 10
    endloop
  endfacet
  facet normal 0 0 1
    outer loop
      vertex -6.45399 -9.87856 10
      vertex -7.56897 -11.7775 10
      vertex -5.81581 -12.7348 10
    endloop
  endfacet
  facet normal 0 0 1
    outer loop
      vertex -9.16805 -10.5805 10
      vertex -6.45399 -9.87856 10
      vertex -7.99192 -8.68154 10
    endloop
  endfacet
  facet normal 0 0 1
    outer loop
      vertex -6.45399 -9.87856 10
      vertex -9.16805 -10.5805 10
      vertex -7.56897 -11.7775 10
    endloop
  endfacet
  facet normal 0 0 1
    outer loop
      vertex -10.5805 -9.16805 10
      vertex -7.99192 -8.68154 10
      vertex -9.31186 -7.24771 10
    endloop
  endfacet
  facet normal 0 0 1
    outer loop
      vertex -11.7775 -7.56897 10
      vertex -9.31186 -7.24771 10
      vertex -10.3778 -5.61618 10
    endloop
  endfacet
  facet normal 0 0 1
    outer loop
      vertex -7.99192 -8.68154 10
      vertex -10.5805 -9.16805 10
      vertex -9.16805 -10.5805 10
    endloop
  endfacet
  facet normal 0 0 1
    outer loop
      vertex -12.7348 -5.81581 10
      vertex -10.3778 -5.61618 10
      vertex -11.1606 -3.83145 10
    endloop
  endfacet
  facet normal 0 0 1
    outer loop
      vertex -13.4329 -3.94425 10
      vertex -11.1606 -3.83145 10
      vertex -11.6391 -1.94222 10
    endloop
  endfacet
  facet normal 0 0 1
    outer loop
      vertex -9.31186 -7.24771 10
      vertex -11.7775 -7.56897 10
      vertex -10.5805 -9.16805 10
    endloop
  endfacet
  facet normal 0 0 1
    outer loop
      vertex -13.8575 -1.99241 10
      vertex -11.6391 -1.94222 10
      vertex -11.8 0 10
    endloop
  endfacet
  facet normal -0 0 1
    outer loop
      vertex -13.8575 1.99241 10
      vertex -11.6391 1.94222 10
      vertex -13.4329 3.94425 10
    endloop
  endfacet
  facet normal 0 0 1
    outer loop
      vertex -10.3778 -5.61618 10
      vertex -12.7348 -5.81581 10
      vertex -11.7775 -7.56897 10
    endloop
  endfacet
  facet normal 0 0 1
    outer loop
      vertex -11.6391 1.94222 10
      vertex -13.8575 1.99241 10
      vertex -11.8 0 10
    endloop
  endfacet
  facet normal 0 0 1
    outer loop
      vertex -11.1606 -3.83145 10
      vertex -13.4329 -3.94425 10
      vertex -12.7348 -5.81581 10
    endloop
  endfacet
  facet normal 0 0 1
    outer loop
      vertex -14 0 10
      vertex -11.8 0 10
      vertex -13.8575 1.99241 10
    endloop
  endfacet
  facet normal 0 0 1
    outer loop
      vertex -11.6391 -1.94222 10
      vertex -13.8575 -1.99241 10
      vertex -13.4329 -3.94425 10
    endloop
  endfacet
  facet normal 0 0 1
    outer loop
      vertex -11.8 0 10
      vertex -14 0 10
      vertex -13.8575 -1.99241 10
    endloop
  endfacet
  facet normal -0.59926 -0.800555 0
    outer loop
      vertex -9.16805 -10.5805 0
      vertex -7.56897 -11.7775 10
      vertex -9.16805 -10.5805 10
    endloop
  endfacet
  facet normal -0.59926 -0.800555 -0
    outer loop
      vertex -7.56897 -11.7775 10
      vertex -9.16805 -10.5805 0
      vertex -7.56897 -11.7775 0
    endloop
  endfacet
  facet normal -0.3247 -0.945817 0
    outer loop
      vertex 2.89673 11.4389 0
      vertex 4.74001 10.8061 10
      vertex 2.89673 11.4389 10
    endloop
  endfacet
  facet normal -0.3247 -0.945817 -0
    outer loop
      vertex 4.74001 10.8061 10
      vertex 2.89673 11.4389 0
      vertex 4.74001 10.8061 0
    endloop
  endfacet
  facet normal 0.164608 -0.986359 0
    outer loop
      vertex -2.89673 11.4389 0
      vertex -0.974436 11.7597 10
      vertex -2.89673 11.4389 10
    endloop
  endfacet
  facet normal 0.164608 -0.986359 0
    outer loop
      vertex -0.974436 11.7597 10
      vertex -2.89673 11.4389 0
      vertex -0.974436 11.7597 0
    endloop
  endfacet
  facet normal 0.614213 -0.78914 0
    outer loop
      vertex -7.99192 8.68154 0
      vertex -6.45399 9.87856 10
      vertex -7.99192 8.68154 10
    endloop
  endfacet
  facet normal 0.614213 -0.78914 0
    outer loop
      vertex -6.45399 9.87856 10
      vertex -7.99192 8.68154 0
      vertex -6.45399 9.87856 0
    endloop
  endfacet
  facet normal -0.996586 0.0825605 0
    outer loop
      vertex 11.6391 -1.94222 0
      vertex 11.8 0 10
      vertex 11.8 0 0
    endloop
  endfacet
  facet normal -0.996586 0.0825605 0
    outer loop
      vertex 11.8 0 10
      vertex 11.6391 -1.94222 0
      vertex 11.6391 -1.94222 10
    endloop
  endfacet
  facet normal -0.164608 0.986359 0
    outer loop
      vertex 2.89673 -11.4389 0
      vertex 0.974436 -11.7597 10
      vertex 2.89673 -11.4389 10
    endloop
  endfacet
  facet normal -0.164608 0.986359 0
    outer loop
      vertex 0.974436 -11.7597 10
      vertex 2.89673 -11.4389 0
      vertex 0.974436 -11.7597 0
    endloop
  endfacet
  facet normal -0.915784 -0.401672 0
    outer loop
      vertex 11.1606 3.83145 0
      vertex 10.3778 5.61618 10
      vertex 10.3778 5.61618 0
    endloop
  endfacet
  facet normal -0.915784 -0.401672 0
    outer loop
      vertex 10.3778 5.61618 10
      vertex 11.1606 3.83145 0
      vertex 11.1606 3.83145 10
    endloop
  endfacet
  facet normal 0.837165 0.546951 0
    outer loop
      vertex -9.31186 -7.24771 10
      vertex -10.3778 -5.61618 0
      vertex -10.3778 -5.61618 10
    endloop
  endfacet
  facet normal 0.837165 0.546951 0
    outer loop
      vertex -10.3778 -5.61618 0
      vertex -9.31186 -7.24771 10
      vertex -9.31186 -7.24771 0
    endloop
  endfacet
  facet normal -0.996586 -0.0825605 0
    outer loop
      vertex 11.8 0 0
      vertex 11.6391 1.94222 10
      vertex 11.6391 1.94222 0
    endloop
  endfacet
  facet normal -0.996586 -0.0825605 0
    outer loop
      vertex 11.6391 1.94222 10
      vertex 11.8 0 0
      vertex 11.8 0 10
    endloop
  endfacet
  facet normal -0.614213 0.78914 0
    outer loop
      vertex 7.99192 -8.68154 0
      vertex 6.45399 -9.87856 10
      vertex 7.99192 -8.68154 10
    endloop
  endfacet
  facet normal -0.614213 0.78914 0
    outer loop
      vertex 6.45399 -9.87856 10
      vertex 7.99192 -8.68154 0
      vertex 6.45399 -9.87856 0
    endloop
  endfacet
  facet normal 0.837165 -0.546951 0
    outer loop
      vertex -10.3778 5.61618 10
      vertex -9.31186 7.24771 0
      vertex -9.31186 7.24771 10
    endloop
  endfacet
  facet normal 0.837165 -0.546951 0
    outer loop
      vertex -9.31186 7.24771 0
      vertex -10.3778 5.61618 10
      vertex -10.3778 5.61618 0
    endloop
  endfacet
  facet normal -0.96939 -0.245525 0
    outer loop
      vertex 11.6391 1.94222 0
      vertex 11.1606 3.83145 10
      vertex 11.1606 3.83145 0
    endloop
  endfacet
  facet normal -0.96939 -0.245525 0
    outer loop
      vertex 11.1606 3.83145 10
      vertex 11.6391 1.94222 0
      vertex 11.6391 1.94222 10
    endloop
  endfacet
  facet normal 0.614213 0.78914 -0
    outer loop
      vertex -6.45399 -9.87856 0
      vertex -7.99192 -8.68154 10
      vertex -6.45399 -9.87856 10
    endloop
  endfacet
  facet normal 0.614213 0.78914 0
    outer loop
      vertex -7.99192 -8.68154 10
      vertex -6.45399 -9.87856 0
      vertex -7.99192 -8.68154 0
    endloop
  endfacet
  facet normal 0.3247 -0.945817 0
    outer loop
      vertex -4.74001 10.8061 0
      vertex -2.89673 11.4389 10
      vertex -4.74001 10.8061 10
    endloop
  endfacet
  facet normal 0.3247 -0.945817 0
    outer loop
      vertex -2.89673 11.4389 10
      vertex -4.74001 10.8061 0
      vertex -2.89673 11.4389 0
    endloop
  endfacet
  facet normal 0.996586 0.0825605 0
    outer loop
      vertex -11.6391 -1.94222 10
      vertex -11.8 0 0
      vertex -11.8 0 10
    endloop
  endfacet
  facet normal 0.996586 0.0825605 0
    outer loop
      vertex -11.8 0 0
      vertex -11.6391 -1.94222 10
      vertex -11.6391 -1.94222 0
    endloop
  endfacet
  facet normal -0.164608 -0.986359 0
    outer loop
      vertex 0.974436 11.7597 0
      vertex 2.89673 11.4389 10
      vertex 0.974436 11.7597 10
    endloop
  endfacet
  facet normal -0.164608 -0.986359 -0
    outer loop
      vertex 2.89673 11.4389 10
      vertex 0.974436 11.7597 0
      vertex 2.89673 11.4389 0
    endloop
  endfacet
  facet normal -0.915784 0.401672 0
    outer loop
      vertex 10.3778 -5.61618 0
      vertex 11.1606 -3.83145 10
      vertex 11.1606 -3.83145 0
    endloop
  endfacet
  facet normal -0.915784 0.401672 0
    outer loop
      vertex 11.1606 -3.83145 10
      vertex 10.3778 -5.61618 0
      vertex 10.3778 -5.61618 10
    endloop
  endfacet
  facet normal -0.614213 -0.78914 0
    outer loop
      vertex 6.45399 9.87856 0
      vertex 7.99192 8.68154 10
      vertex 6.45399 9.87856 10
    endloop
  endfacet
  facet normal -0.614213 -0.78914 -0
    outer loop
      vertex 7.99192 8.68154 10
      vertex 6.45399 9.87856 0
      vertex 7.99192 8.68154 0
    endloop
  endfacet
  facet normal 0.996586 -0.0825605 0
    outer loop
      vertex -11.8 0 10
      vertex -11.6391 1.94222 0
      vertex -11.6391 1.94222 10
    endloop
  endfacet
  facet normal 0.996586 -0.0825605 0
    outer loop
      vertex -11.6391 1.94222 0
      vertex -11.8 0 10
      vertex -11.8 0 0
    endloop
  endfacet
  facet normal 0.96939 -0.245525 0
    outer loop
      vertex -11.6391 1.94222 10
      vertex -11.1606 3.83145 0
      vertex -11.1606 3.83145 10
    endloop
  endfacet
  facet normal 0.96939 -0.245525 0
    outer loop
      vertex -11.1606 3.83145 0
      vertex -11.6391 1.94222 10
      vertex -11.6391 1.94222 0
    endloop
  endfacet
  facet normal 0.915784 -0.401672 0
    outer loop
      vertex -11.1606 3.83145 10
      vertex -10.3778 5.61618 0
      vertex -10.3778 5.61618 10
    endloop
  endfacet
  facet normal 0.915784 -0.401672 0
    outer loop
      vertex -10.3778 5.61618 0
      vertex -11.1606 3.83145 10
      vertex -11.1606 3.83145 0
    endloop
  endfacet
  facet normal -0.837165 0.546951 0
    outer loop
      vertex 9.31186 -7.24771 0
      vertex 10.3778 -5.61618 10
      vertex 10.3778 -5.61618 0
    endloop
  endfacet
  facet normal -0.837165 0.546951 0
    outer loop
      vertex 10.3778 -5.61618 10
      vertex 9.31186 -7.24771 0
      vertex 9.31186 -7.24771 10
    endloop
  endfacet
  facet normal -0.735722 0.677283 0
    outer loop
      vertex 7.99192 -8.68154 0
      vertex 9.31186 -7.24771 10
      vertex 9.31186 -7.24771 0
    endloop
  endfacet
  facet normal -0.735722 0.677283 0
    outer loop
      vertex 9.31186 -7.24771 10
      vertex 7.99192 -8.68154 0
      vertex 7.99192 -8.68154 10
    endloop
  endfacet
  facet normal -0.47594 -0.879478 0
    outer loop
      vertex 4.74001 10.8061 0
      vertex 6.45399 9.87856 10
      vertex 4.74001 10.8061 10
    endloop
  endfacet
  facet normal -0.47594 -0.879478 -0
    outer loop
      vertex 6.45399 9.87856 10
      vertex 4.74001 10.8061 0
      vertex 6.45399 9.87856 0
    endloop
  endfacet
  facet normal -0.47594 0.879478 0
    outer loop
      vertex 6.45399 -9.87856 0
      vertex 4.74001 -10.8061 10
      vertex 6.45399 -9.87856 10
    endloop
  endfacet
  facet normal -0.47594 0.879478 0
    outer loop
      vertex 4.74001 -10.8061 10
      vertex 6.45399 -9.87856 0
      vertex 4.74001 -10.8061 0
    endloop
  endfacet
  facet normal 0.47594 -0.879478 0
    outer loop
      vertex -6.45399 9.87856 0
      vertex -4.74001 10.8061 10
      vertex -6.45399 9.87856 10
    endloop
  endfacet
  facet normal 0.47594 -0.879478 0
    outer loop
      vertex -4.74001 10.8061 10
      vertex -6.45399 9.87856 0
      vertex -4.74001 10.8061 0
    endloop
  endfacet
  facet normal 0.96939 0.245525 0
    outer loop
      vertex -11.1606 -3.83145 10
      vertex -11.6391 -1.94222 0
      vertex -11.6391 -1.94222 10
    endloop
  endfacet
  facet normal 0.96939 0.245525 0
    outer loop
      vertex -11.6391 -1.94222 0
      vertex -11.1606 -3.83145 10
      vertex -11.1606 -3.83145 0
    endloop
  endfacet
  facet normal 0.915784 0.401672 0
    outer loop
      vertex -10.3778 -5.61618 10
      vertex -11.1606 -3.83145 0
      vertex -11.1606 -3.83145 10
    endloop
  endfacet
  facet normal 0.915784 0.401672 0
    outer loop
      vertex -11.1606 -3.83145 0
      vertex -10.3778 -5.61618 10
      vertex -10.3778 -5.61618 0
    endloop
  endfacet
  facet normal -0.3247 0.945817 0
    outer loop
      vertex 4.74001 -10.8061 0
      vertex 2.89673 -11.4389 10
      vertex 4.74001 -10.8061 10
    endloop
  endfacet
  facet normal -0.3247 0.945817 0
    outer loop
      vertex 2.89673 -11.4389 10
      vertex 4.74001 -10.8061 0
      vertex 2.89673 -11.4389 0
    endloop
  endfacet
  facet normal 0 1 -0
    outer loop
      vertex 0.974436 -11.7597 0
      vertex -0.974436 -11.7597 10
      vertex 0.974436 -11.7597 10
    endloop
  endfacet
  facet normal 0 1 0
    outer loop
      vertex -0.974436 -11.7597 10
      vertex 0.974436 -11.7597 0
      vertex -0.974436 -11.7597 0
    endloop
  endfacet
  facet normal -0.837165 -0.546951 0
    outer loop
      vertex 10.3778 5.61618 0
      vertex 9.31186 7.24771 10
      vertex 9.31186 7.24771 0
    endloop
  endfacet
  facet normal -0.837165 -0.546951 0
    outer loop
      vertex 9.31186 7.24771 10
      vertex 10.3778 5.61618 0
      vertex 10.3778 5.61618 10
    endloop
  endfacet
  facet normal 0.735722 0.677283 0
    outer loop
      vertex -7.99192 -8.68154 10
      vertex -9.31186 -7.24771 0
      vertex -9.31186 -7.24771 10
    endloop
  endfacet
  facet normal 0.735722 0.677283 0
    outer loop
      vertex -9.31186 -7.24771 0
      vertex -7.99192 -8.68154 10
      vertex -7.99192 -8.68154 0
    endloop
  endfacet
  facet normal -0.735722 -0.677283 0
    outer loop
      vertex 9.31186 7.24771 0
      vertex 7.99192 8.68154 10
      vertex 7.99192 8.68154 0
    endloop
  endfacet
  facet normal -0.735722 -0.677283 0
    outer loop
      vertex 7.99192 8.68154 10
      vertex 9.31186 7.24771 0
      vertex 9.31186 7.24771 10
    endloop
  endfacet
  facet normal 0 -1 0
    outer loop
      vertex -0.974436 11.7597 0
      vertex 0.974436 11.7597 10
      vertex -0.974436 11.7597 10
    endloop
  endfacet
  facet normal 0 -1 -0
    outer loop
      vertex 0.974436 11.7597 10
      vertex -0.974436 11.7597 0
      vertex 0.974436 11.7597 0
    endloop
  endfacet
  facet normal 0.3247 0.945817 -0
    outer loop
      vertex -2.89673 -11.4389 0
      vertex -4.74001 -10.8061 10
      vertex -2.89673 -11.4389 10
    endloop
  endfacet
  facet normal 0.3247 0.945817 0
    outer loop
      vertex -4.74001 -10.8061 10
      vertex -2.89673 -11.4389 0
      vertex -4.74001 -10.8061 0
    endloop
  endfacet
  facet normal 0.164608 0.986359 -0
    outer loop
      vertex -0.974436 -11.7597 0
      vertex -2.89673 -11.4389 10
      vertex -0.974436 -11.7597 10
    endloop
  endfacet
  facet normal 0.164608 0.986359 0
    outer loop
      vertex -2.89673 -11.4389 10
      vertex -0.974436 -11.7597 0
      vertex -2.89673 -11.4389 0
    endloop
  endfacet
  facet normal -0.96939 0.245525 0
    outer loop
      vertex 11.1606 -3.83145 0
      vertex 11.6391 -1.94222 10
      vertex 11.6391 -1.94222 0
    endloop
  endfacet
  facet normal -0.96939 0.245525 0
    outer loop
      vertex 11.6391 -1.94222 10
      vertex 11.1606 -3.83145 0
      vertex 11.1606 -3.83145 10
    endloop
  endfacet
  facet normal 0.735722 -0.677283 0
    outer loop
      vertex -9.31186 7.24771 10
      vertex -7.99192 8.68154 0
      vertex -7.99192 8.68154 10
    endloop
  endfacet
  facet normal 0.735722 -0.677283 0
    outer loop
      vertex -7.99192 8.68154 0
      vertex -9.31186 7.24771 10
      vertex -9.31186 7.24771 0
    endloop
  endfacet
  facet normal 0.47594 0.879478 -0
    outer loop
      vertex -4.74001 -10.8061 0
      vertex -6.45399 -9.87856 10
      vertex -4.74001 -10.8061 10
    endloop
  endfacet
  facet normal 0.47594 0.879478 0
    outer loop
      vertex -6.45399 -9.87856 10
      vertex -4.74001 -10.8061 0
      vertex -6.45399 -9.87856 0
    endloop
  endfacet
endsolid OpenSCAD_Model
